<?xml version="1.0" encoding="utf-8" standalone="no"?>
<!DOCTYPE svg PUBLIC "-//W3C//DTD SVG 1.1//EN"
  "http://www.w3.org/Graphics/SVG/1.1/DTD/svg11.dtd">
<svg xmlns:xlink="http://www.w3.org/1999/xlink" width="460.8pt" height="345.6pt" viewBox="0 0 460.8 345.6" xmlns="http://www.w3.org/2000/svg" version="1.1">
 <metadata>
  <rdf:RDF xmlns:dc="http://purl.org/dc/elements/1.1/" xmlns:cc="http://creativecommons.org/ns#" xmlns:rdf="http://www.w3.org/1999/02/22-rdf-syntax-ns#">
   <cc:Work>
    <dc:type rdf:resource="http://purl.org/dc/dcmitype/StillImage"/>
    <dc:date>2023-12-12T19:47:21.941849</dc:date>
    <dc:format>image/svg+xml</dc:format>
    <dc:creator>
     <cc:Agent>
      <dc:title>Matplotlib v3.8.2, https://matplotlib.org/</dc:title>
     </cc:Agent>
    </dc:creator>
   </cc:Work>
  </rdf:RDF>
 </metadata>
 <defs>
  <style type="text/css">*{stroke-linejoin: round; stroke-linecap: butt}</style>
 </defs>
 <g id="figure_1">
  <g id="patch_1">
   <path d="M 0 345.6 
L 460.8 345.6 
L 460.8 0 
L 0 0 
z
" style="fill: #ffffff"/>
  </g>
  <g id="axes_1">
   <g id="LineCollection_1">
    <path d="M 104.749598 193.971867 
L 105.75897 149.355646 
" clip-path="url(#p8c4f128404)" style="fill: none; stroke: #000000; stroke-width: 0.2"/>
    <path d="M 104.749598 193.971867 
L 125.403715 166.620555 
" clip-path="url(#p8c4f128404)" style="fill: none; stroke: #000000; stroke-width: 0.2"/>
    <path d="M 104.749598 193.971867 
L 179.510382 223.029076 
" clip-path="url(#p8c4f128404)" style="fill: none; stroke: #000000; stroke-width: 0.2"/>
    <path d="M 300.477195 226.560569 
L 320.592025 244.29551 
" clip-path="url(#p8c4f128404)" style="fill: none; stroke: #000000; stroke-width: 0.2"/>
    <path d="M 300.477195 226.560569 
L 309.726742 221.116624 
" clip-path="url(#p8c4f128404)" style="fill: none; stroke: #000000; stroke-width: 0.2"/>
    <path d="M 300.477195 226.560569 
L 286.545895 261.771986 
" clip-path="url(#p8c4f128404)" style="fill: none; stroke: #000000; stroke-width: 0.2"/>
    <path d="M 300.477195 226.560569 
L 324.482736 216.752176 
" clip-path="url(#p8c4f128404)" style="fill: none; stroke: #000000; stroke-width: 0.2"/>
    <path d="M 300.477195 226.560569 
L 353.332903 257.783297 
" clip-path="url(#p8c4f128404)" style="fill: none; stroke: #000000; stroke-width: 0.2"/>
    <path d="M 300.477195 226.560569 
L 301.862423 166.05878 
" clip-path="url(#p8c4f128404)" style="fill: none; stroke: #000000; stroke-width: 0.2"/>
    <path d="M 300.477195 226.560569 
L 232.54549 204.670859 
" clip-path="url(#p8c4f128404)" style="fill: none; stroke: #000000; stroke-width: 0.2"/>
    <path d="M 139.346477 121.200269 
L 188.695463 91.993728 
" clip-path="url(#p8c4f128404)" style="fill: none; stroke: #000000; stroke-width: 0.2"/>
    <path d="M 139.346477 121.200269 
L 179.623839 170.483046 
" clip-path="url(#p8c4f128404)" style="fill: none; stroke: #000000; stroke-width: 0.2"/>
    <path d="M 139.346477 121.200269 
L 175.989789 142.453835 
" clip-path="url(#p8c4f128404)" style="fill: none; stroke: #000000; stroke-width: 0.2"/>
    <path d="M 139.346477 121.200269 
L 105.75897 149.355646 
" clip-path="url(#p8c4f128404)" style="fill: none; stroke: #000000; stroke-width: 0.2"/>
    <path d="M 139.346477 121.200269 
L 127.325326 144.449106 
" clip-path="url(#p8c4f128404)" style="fill: none; stroke: #000000; stroke-width: 0.2"/>
    <path d="M 139.346477 121.200269 
L 125.872626 76.510823 
" clip-path="url(#p8c4f128404)" style="fill: none; stroke: #000000; stroke-width: 0.2"/>
    <path d="M 320.592025 244.29551 
L 293.871377 239.980847 
" clip-path="url(#p8c4f128404)" style="fill: none; stroke: #000000; stroke-width: 0.2"/>
    <path d="M 320.592025 244.29551 
L 262.589244 178.81576 
" clip-path="url(#p8c4f128404)" style="fill: none; stroke: #000000; stroke-width: 0.2"/>
    <path d="M 320.592025 244.29551 
L 369.125342 267.194898 
" clip-path="url(#p8c4f128404)" style="fill: none; stroke: #000000; stroke-width: 0.2"/>
    <path d="M 320.592025 244.29551 
L 238.83866 251.550252 
" clip-path="url(#p8c4f128404)" style="fill: none; stroke: #000000; stroke-width: 0.2"/>
    <path d="M 320.592025 244.29551 
L 286.545895 261.771986 
" clip-path="url(#p8c4f128404)" style="fill: none; stroke: #000000; stroke-width: 0.2"/>
    <path d="M 320.592025 244.29551 
L 324.482736 216.752176 
" clip-path="url(#p8c4f128404)" style="fill: none; stroke: #000000; stroke-width: 0.2"/>
    <path d="M 320.592025 244.29551 
L 362.483379 290.283435 
" clip-path="url(#p8c4f128404)" style="fill: none; stroke: #000000; stroke-width: 0.2"/>
    <path d="M 320.592025 244.29551 
L 317.870893 281.233255 
" clip-path="url(#p8c4f128404)" style="fill: none; stroke: #000000; stroke-width: 0.2"/>
    <path d="M 320.592025 244.29551 
L 232.54549 204.670859 
" clip-path="url(#p8c4f128404)" style="fill: none; stroke: #000000; stroke-width: 0.2"/>
    <path d="M 320.592025 244.29551 
L 404.183272 258.861886 
" clip-path="url(#p8c4f128404)" style="fill: none; stroke: #000000; stroke-width: 0.2"/>
    <path d="M 320.592025 244.29551 
L 349.795804 207.314101 
" clip-path="url(#p8c4f128404)" style="fill: none; stroke: #000000; stroke-width: 0.2"/>
    <path d="M 320.592025 244.29551 
L 391.138667 274.49844 
" clip-path="url(#p8c4f128404)" style="fill: none; stroke: #000000; stroke-width: 0.2"/>
    <path d="M 231.278742 130.567523 
L 262.589244 178.81576 
" clip-path="url(#p8c4f128404)" style="fill: none; stroke: #000000; stroke-width: 0.2"/>
    <path d="M 231.278742 130.567523 
L 252.090549 117.339832 
" clip-path="url(#p8c4f128404)" style="fill: none; stroke: #000000; stroke-width: 0.2"/>
    <path d="M 188.695463 91.993728 
L 138.369338 66.674905 
" clip-path="url(#p8c4f128404)" style="fill: none; stroke: #000000; stroke-width: 0.2"/>
    <path d="M 188.695463 91.993728 
L 175.989789 142.453835 
" clip-path="url(#p8c4f128404)" style="fill: none; stroke: #000000; stroke-width: 0.2"/>
    <path d="M 188.695463 91.993728 
L 178.947564 29.990083 
" clip-path="url(#p8c4f128404)" style="fill: none; stroke: #000000; stroke-width: 0.2"/>
    <path d="M 188.695463 91.993728 
L 123.245931 49.786648 
" clip-path="url(#p8c4f128404)" style="fill: none; stroke: #000000; stroke-width: 0.2"/>
    <path d="M 188.695463 91.993728 
L 262.589244 178.81576 
" clip-path="url(#p8c4f128404)" style="fill: none; stroke: #000000; stroke-width: 0.2"/>
    <path d="M 188.695463 91.993728 
L 301.862423 166.05878 
" clip-path="url(#p8c4f128404)" style="fill: none; stroke: #000000; stroke-width: 0.2"/>
    <path d="M 188.695463 91.993728 
L 141.546068 47.509368 
" clip-path="url(#p8c4f128404)" style="fill: none; stroke: #000000; stroke-width: 0.2"/>
    <path d="M 188.695463 91.993728 
L 156.504269 31.303243 
" clip-path="url(#p8c4f128404)" style="fill: none; stroke: #000000; stroke-width: 0.2"/>
    <path d="M 188.695463 91.993728 
L 150.313859 106.45416 
" clip-path="url(#p8c4f128404)" style="fill: none; stroke: #000000; stroke-width: 0.2"/>
    <path d="M 188.695463 91.993728 
L 125.872626 76.510823 
" clip-path="url(#p8c4f128404)" style="fill: none; stroke: #000000; stroke-width: 0.2"/>
    <path d="M 188.695463 91.993728 
L 197.24835 32.5609 
" clip-path="url(#p8c4f128404)" style="fill: none; stroke: #000000; stroke-width: 0.2"/>
    <path d="M 138.369338 66.674905 
L 123.245931 49.786648 
" clip-path="url(#p8c4f128404)" style="fill: none; stroke: #000000; stroke-width: 0.2"/>
    <path d="M 138.369338 66.674905 
L 150.313859 106.45416 
" clip-path="url(#p8c4f128404)" style="fill: none; stroke: #000000; stroke-width: 0.2"/>
    <path d="M 138.369338 66.674905 
L 125.872626 76.510823 
" clip-path="url(#p8c4f128404)" style="fill: none; stroke: #000000; stroke-width: 0.2"/>
    <path d="M 398.443905 121.317306 
L 360.655567 118.097611 
" clip-path="url(#p8c4f128404)" style="fill: none; stroke: #000000; stroke-width: 0.2"/>
    <path d="M 398.443905 121.317306 
L 345.759025 141.361118 
" clip-path="url(#p8c4f128404)" style="fill: none; stroke: #000000; stroke-width: 0.2"/>
    <path d="M 398.443905 121.317306 
L 367.723384 136.209656 
" clip-path="url(#p8c4f128404)" style="fill: none; stroke: #000000; stroke-width: 0.2"/>
    <path d="M 398.443905 121.317306 
L 368.329921 164.584832 
" clip-path="url(#p8c4f128404)" style="fill: none; stroke: #000000; stroke-width: 0.2"/>
    <path d="M 400.676523 315.609917 
L 353.332903 257.783297 
" clip-path="url(#p8c4f128404)" style="fill: none; stroke: #000000; stroke-width: 0.2"/>
    <path d="M 400.676523 315.609917 
L 420.813223 305.974264 
" clip-path="url(#p8c4f128404)" style="fill: none; stroke: #000000; stroke-width: 0.2"/>
    <path d="M 179.623839 170.483046 
L 238.83866 251.550252 
" clip-path="url(#p8c4f128404)" style="fill: none; stroke: #000000; stroke-width: 0.2"/>
    <path d="M 179.623839 170.483046 
L 232.54549 204.670859 
" clip-path="url(#p8c4f128404)" style="fill: none; stroke: #000000; stroke-width: 0.2"/>
    <path d="M 179.623839 170.483046 
L 228.480625 163.43735 
" clip-path="url(#p8c4f128404)" style="fill: none; stroke: #000000; stroke-width: 0.2"/>
    <path d="M 179.623839 170.483046 
L 127.325326 144.449106 
" clip-path="url(#p8c4f128404)" style="fill: none; stroke: #000000; stroke-width: 0.2"/>
    <path d="M 179.623839 170.483046 
L 150.313859 106.45416 
" clip-path="url(#p8c4f128404)" style="fill: none; stroke: #000000; stroke-width: 0.2"/>
    <path d="M 175.989789 142.453835 
L 105.75897 149.355646 
" clip-path="url(#p8c4f128404)" style="fill: none; stroke: #000000; stroke-width: 0.2"/>
    <path d="M 175.989789 142.453835 
L 232.54549 204.670859 
" clip-path="url(#p8c4f128404)" style="fill: none; stroke: #000000; stroke-width: 0.2"/>
    <path d="M 175.989789 142.453835 
L 269.340768 123.958827 
" clip-path="url(#p8c4f128404)" style="fill: none; stroke: #000000; stroke-width: 0.2"/>
    <path d="M 175.989789 142.453835 
L 127.325326 144.449106 
" clip-path="url(#p8c4f128404)" style="fill: none; stroke: #000000; stroke-width: 0.2"/>
    <path d="M 175.989789 142.453835 
L 125.403715 166.620555 
" clip-path="url(#p8c4f128404)" style="fill: none; stroke: #000000; stroke-width: 0.2"/>
    <path d="M 293.871377 239.980847 
L 309.726742 221.116624 
" clip-path="url(#p8c4f128404)" style="fill: none; stroke: #000000; stroke-width: 0.2"/>
    <path d="M 293.871377 239.980847 
L 262.589244 178.81576 
" clip-path="url(#p8c4f128404)" style="fill: none; stroke: #000000; stroke-width: 0.2"/>
    <path d="M 293.871377 239.980847 
L 286.545895 261.771986 
" clip-path="url(#p8c4f128404)" style="fill: none; stroke: #000000; stroke-width: 0.2"/>
    <path d="M 293.871377 239.980847 
L 324.482736 216.752176 
" clip-path="url(#p8c4f128404)" style="fill: none; stroke: #000000; stroke-width: 0.2"/>
    <path d="M 293.871377 239.980847 
L 301.862423 166.05878 
" clip-path="url(#p8c4f128404)" style="fill: none; stroke: #000000; stroke-width: 0.2"/>
    <path d="M 293.871377 239.980847 
L 317.870893 281.233255 
" clip-path="url(#p8c4f128404)" style="fill: none; stroke: #000000; stroke-width: 0.2"/>
    <path d="M 293.871377 239.980847 
L 287.473952 273.373128 
" clip-path="url(#p8c4f128404)" style="fill: none; stroke: #000000; stroke-width: 0.2"/>
    <path d="M 293.871377 239.980847 
L 282.91594 305.514253 
" clip-path="url(#p8c4f128404)" style="fill: none; stroke: #000000; stroke-width: 0.2"/>
    <path d="M 307.086559 36.520335 
L 281.607648 96.044936 
" clip-path="url(#p8c4f128404)" style="fill: none; stroke: #000000; stroke-width: 0.2"/>
    <path d="M 315.796818 295.27994 
L 369.125342 267.194898 
" clip-path="url(#p8c4f128404)" style="fill: none; stroke: #000000; stroke-width: 0.2"/>
    <path d="M 315.796818 295.27994 
L 238.83866 251.550252 
" clip-path="url(#p8c4f128404)" style="fill: none; stroke: #000000; stroke-width: 0.2"/>
    <path d="M 315.796818 295.27994 
L 362.483379 290.283435 
" clip-path="url(#p8c4f128404)" style="fill: none; stroke: #000000; stroke-width: 0.2"/>
    <path d="M 176.044291 286.565968 
L 234.917715 239.65888 
" clip-path="url(#p8c4f128404)" style="fill: none; stroke: #000000; stroke-width: 0.2"/>
    <path d="M 178.947564 29.990083 
L 197.24835 32.5609 
" clip-path="url(#p8c4f128404)" style="fill: none; stroke: #000000; stroke-width: 0.2"/>
    <path d="M 387.518606 178.338001 
L 395.503414 165.406656 
" clip-path="url(#p8c4f128404)" style="fill: none; stroke: #000000; stroke-width: 0.2"/>
    <path d="M 387.518606 178.338001 
L 301.862423 166.05878 
" clip-path="url(#p8c4f128404)" style="fill: none; stroke: #000000; stroke-width: 0.2"/>
    <path d="M 309.726742 221.116624 
L 357.197335 271.332707 
" clip-path="url(#p8c4f128404)" style="fill: none; stroke: #000000; stroke-width: 0.2"/>
    <path d="M 309.726742 221.116624 
L 262.589244 178.81576 
" clip-path="url(#p8c4f128404)" style="fill: none; stroke: #000000; stroke-width: 0.2"/>
    <path d="M 309.726742 221.116624 
L 324.482736 216.752176 
" clip-path="url(#p8c4f128404)" style="fill: none; stroke: #000000; stroke-width: 0.2"/>
    <path d="M 309.726742 221.116624 
L 353.332903 257.783297 
" clip-path="url(#p8c4f128404)" style="fill: none; stroke: #000000; stroke-width: 0.2"/>
    <path d="M 309.726742 221.116624 
L 301.862423 166.05878 
" clip-path="url(#p8c4f128404)" style="fill: none; stroke: #000000; stroke-width: 0.2"/>
    <path d="M 309.726742 221.116624 
L 287.473952 273.373128 
" clip-path="url(#p8c4f128404)" style="fill: none; stroke: #000000; stroke-width: 0.2"/>
    <path d="M 309.726742 221.116624 
L 368.329921 164.584832 
" clip-path="url(#p8c4f128404)" style="fill: none; stroke: #000000; stroke-width: 0.2"/>
    <path d="M 309.726742 221.116624 
L 262.575194 222.857006 
" clip-path="url(#p8c4f128404)" style="fill: none; stroke: #000000; stroke-width: 0.2"/>
    <path d="M 309.726742 221.116624 
L 234.917715 239.65888 
" clip-path="url(#p8c4f128404)" style="fill: none; stroke: #000000; stroke-width: 0.2"/>
    <path d="M 313.849558 69.154941 
L 269.340768 123.958827 
" clip-path="url(#p8c4f128404)" style="fill: none; stroke: #000000; stroke-width: 0.2"/>
    <path d="M 105.75897 149.355646 
L 127.325326 144.449106 
" clip-path="url(#p8c4f128404)" style="fill: none; stroke: #000000; stroke-width: 0.2"/>
    <path d="M 105.75897 149.355646 
L 125.403715 166.620555 
" clip-path="url(#p8c4f128404)" style="fill: none; stroke: #000000; stroke-width: 0.2"/>
    <path d="M 360.655567 118.097611 
L 345.759025 141.361118 
" clip-path="url(#p8c4f128404)" style="fill: none; stroke: #000000; stroke-width: 0.2"/>
    <path d="M 360.655567 118.097611 
L 301.862423 166.05878 
" clip-path="url(#p8c4f128404)" style="fill: none; stroke: #000000; stroke-width: 0.2"/>
    <path d="M 357.197335 271.332707 
L 391.138667 274.49844 
" clip-path="url(#p8c4f128404)" style="fill: none; stroke: #000000; stroke-width: 0.2"/>
    <path d="M 152.269987 212.12282 
L 153.283552 227.160278 
" clip-path="url(#p8c4f128404)" style="fill: none; stroke: #000000; stroke-width: 0.2"/>
    <path d="M 152.269987 212.12282 
L 205.497743 205.728758 
" clip-path="url(#p8c4f128404)" style="fill: none; stroke: #000000; stroke-width: 0.2"/>
    <path d="M 152.269987 212.12282 
L 208.021723 193.773514 
" clip-path="url(#p8c4f128404)" style="fill: none; stroke: #000000; stroke-width: 0.2"/>
    <path d="M 152.269987 212.12282 
L 182.382622 195.004303 
" clip-path="url(#p8c4f128404)" style="fill: none; stroke: #000000; stroke-width: 0.2"/>
    <path d="M 345.759025 141.361118 
L 262.589244 178.81576 
" clip-path="url(#p8c4f128404)" style="fill: none; stroke: #000000; stroke-width: 0.2"/>
    <path d="M 345.759025 141.361118 
L 367.723384 136.209656 
" clip-path="url(#p8c4f128404)" style="fill: none; stroke: #000000; stroke-width: 0.2"/>
    <path d="M 345.759025 141.361118 
L 368.329921 164.584832 
" clip-path="url(#p8c4f128404)" style="fill: none; stroke: #000000; stroke-width: 0.2"/>
    <path d="M 262.589244 178.81576 
L 281.607648 96.044936 
" clip-path="url(#p8c4f128404)" style="fill: none; stroke: #000000; stroke-width: 0.2"/>
    <path d="M 262.589244 178.81576 
L 238.83866 251.550252 
" clip-path="url(#p8c4f128404)" style="fill: none; stroke: #000000; stroke-width: 0.2"/>
    <path d="M 262.589244 178.81576 
L 324.482736 216.752176 
" clip-path="url(#p8c4f128404)" style="fill: none; stroke: #000000; stroke-width: 0.2"/>
    <path d="M 262.589244 178.81576 
L 353.332903 257.783297 
" clip-path="url(#p8c4f128404)" style="fill: none; stroke: #000000; stroke-width: 0.2"/>
    <path d="M 262.589244 178.81576 
L 301.862423 166.05878 
" clip-path="url(#p8c4f128404)" style="fill: none; stroke: #000000; stroke-width: 0.2"/>
    <path d="M 262.589244 178.81576 
L 252.090549 117.339832 
" clip-path="url(#p8c4f128404)" style="fill: none; stroke: #000000; stroke-width: 0.2"/>
    <path d="M 262.589244 178.81576 
L 322.31609 176.483748 
" clip-path="url(#p8c4f128404)" style="fill: none; stroke: #000000; stroke-width: 0.2"/>
    <path d="M 262.589244 178.81576 
L 269.340768 123.958827 
" clip-path="url(#p8c4f128404)" style="fill: none; stroke: #000000; stroke-width: 0.2"/>
    <path d="M 262.589244 178.81576 
L 208.021723 193.773514 
" clip-path="url(#p8c4f128404)" style="fill: none; stroke: #000000; stroke-width: 0.2"/>
    <path d="M 262.589244 178.81576 
L 228.480625 163.43735 
" clip-path="url(#p8c4f128404)" style="fill: none; stroke: #000000; stroke-width: 0.2"/>
    <path d="M 262.589244 178.81576 
L 182.382622 195.004303 
" clip-path="url(#p8c4f128404)" style="fill: none; stroke: #000000; stroke-width: 0.2"/>
    <path d="M 262.589244 178.81576 
L 297.112488 135.699846 
" clip-path="url(#p8c4f128404)" style="fill: none; stroke: #000000; stroke-width: 0.2"/>
    <path d="M 262.589244 178.81576 
L 125.403715 166.620555 
" clip-path="url(#p8c4f128404)" style="fill: none; stroke: #000000; stroke-width: 0.2"/>
    <path d="M 262.589244 178.81576 
L 262.575194 222.857006 
" clip-path="url(#p8c4f128404)" style="fill: none; stroke: #000000; stroke-width: 0.2"/>
    <path d="M 262.589244 178.81576 
L 234.917715 239.65888 
" clip-path="url(#p8c4f128404)" style="fill: none; stroke: #000000; stroke-width: 0.2"/>
    <path d="M 262.589244 178.81576 
L 270.335597 157.271335 
" clip-path="url(#p8c4f128404)" style="fill: none; stroke: #000000; stroke-width: 0.2"/>
    <path d="M 262.589244 178.81576 
L 281.949343 148.096255 
" clip-path="url(#p8c4f128404)" style="fill: none; stroke: #000000; stroke-width: 0.2"/>
    <path d="M 369.125342 267.194898 
L 324.482736 216.752176 
" clip-path="url(#p8c4f128404)" style="fill: none; stroke: #000000; stroke-width: 0.2"/>
    <path d="M 369.125342 267.194898 
L 353.332903 257.783297 
" clip-path="url(#p8c4f128404)" style="fill: none; stroke: #000000; stroke-width: 0.2"/>
    <path d="M 369.125342 267.194898 
L 362.483379 290.283435 
" clip-path="url(#p8c4f128404)" style="fill: none; stroke: #000000; stroke-width: 0.2"/>
    <path d="M 369.125342 267.194898 
L 402.888451 292.080894 
" clip-path="url(#p8c4f128404)" style="fill: none; stroke: #000000; stroke-width: 0.2"/>
    <path d="M 369.125342 267.194898 
L 404.183272 258.861886 
" clip-path="url(#p8c4f128404)" style="fill: none; stroke: #000000; stroke-width: 0.2"/>
    <path d="M 369.125342 267.194898 
L 391.138667 274.49844 
" clip-path="url(#p8c4f128404)" style="fill: none; stroke: #000000; stroke-width: 0.2"/>
    <path d="M 395.503414 165.406656 
L 301.862423 166.05878 
" clip-path="url(#p8c4f128404)" style="fill: none; stroke: #000000; stroke-width: 0.2"/>
    <path d="M 281.607648 96.044936 
L 252.090549 117.339832 
" clip-path="url(#p8c4f128404)" style="fill: none; stroke: #000000; stroke-width: 0.2"/>
    <path d="M 238.83866 251.550252 
L 286.545895 261.771986 
" clip-path="url(#p8c4f128404)" style="fill: none; stroke: #000000; stroke-width: 0.2"/>
    <path d="M 238.83866 251.550252 
L 196.786286 306.526987 
" clip-path="url(#p8c4f128404)" style="fill: none; stroke: #000000; stroke-width: 0.2"/>
    <path d="M 238.83866 251.550252 
L 179.510382 223.029076 
" clip-path="url(#p8c4f128404)" style="fill: none; stroke: #000000; stroke-width: 0.2"/>
    <path d="M 238.83866 251.550252 
L 220.159539 313.593445 
" clip-path="url(#p8c4f128404)" style="fill: none; stroke: #000000; stroke-width: 0.2"/>
    <path d="M 315.069039 120.430732 
L 301.862423 166.05878 
" clip-path="url(#p8c4f128404)" style="fill: none; stroke: #000000; stroke-width: 0.2"/>
    <path d="M 315.069039 120.430732 
L 269.340768 123.958827 
" clip-path="url(#p8c4f128404)" style="fill: none; stroke: #000000; stroke-width: 0.2"/>
    <path d="M 315.069039 120.430732 
L 297.112488 135.699846 
" clip-path="url(#p8c4f128404)" style="fill: none; stroke: #000000; stroke-width: 0.2"/>
    <path d="M 153.283552 227.160278 
L 205.497743 205.728758 
" clip-path="url(#p8c4f128404)" style="fill: none; stroke: #000000; stroke-width: 0.2"/>
    <path d="M 153.283552 227.160278 
L 208.021723 193.773514 
" clip-path="url(#p8c4f128404)" style="fill: none; stroke: #000000; stroke-width: 0.2"/>
    <path d="M 324.482736 216.752176 
L 301.862423 166.05878 
" clip-path="url(#p8c4f128404)" style="fill: none; stroke: #000000; stroke-width: 0.2"/>
    <path d="M 367.723384 136.209656 
L 301.862423 166.05878 
" clip-path="url(#p8c4f128404)" style="fill: none; stroke: #000000; stroke-width: 0.2"/>
    <path d="M 367.723384 136.209656 
L 368.329921 164.584832 
" clip-path="url(#p8c4f128404)" style="fill: none; stroke: #000000; stroke-width: 0.2"/>
    <path d="M 39.986777 172.186953 
L 40.678305 156.460427 
" clip-path="url(#p8c4f128404)" style="fill: none; stroke: #000000; stroke-width: 0.2"/>
    <path d="M 39.986777 172.186953 
L 125.403715 166.620555 
" clip-path="url(#p8c4f128404)" style="fill: none; stroke: #000000; stroke-width: 0.2"/>
    <path d="M 353.332903 257.783297 
L 362.483379 290.283435 
" clip-path="url(#p8c4f128404)" style="fill: none; stroke: #000000; stroke-width: 0.2"/>
    <path d="M 353.332903 257.783297 
L 402.888451 292.080894 
" clip-path="url(#p8c4f128404)" style="fill: none; stroke: #000000; stroke-width: 0.2"/>
    <path d="M 353.332903 257.783297 
L 420.813223 305.974264 
" clip-path="url(#p8c4f128404)" style="fill: none; stroke: #000000; stroke-width: 0.2"/>
    <path d="M 205.497743 205.728758 
L 301.862423 166.05878 
" clip-path="url(#p8c4f128404)" style="fill: none; stroke: #000000; stroke-width: 0.2"/>
    <path d="M 205.497743 205.728758 
L 208.021723 193.773514 
" clip-path="url(#p8c4f128404)" style="fill: none; stroke: #000000; stroke-width: 0.2"/>
    <path d="M 291.322759 174.550301 
L 322.31609 176.483748 
" clip-path="url(#p8c4f128404)" style="fill: none; stroke: #000000; stroke-width: 0.2"/>
    <path d="M 291.322759 174.550301 
L 228.480625 163.43735 
" clip-path="url(#p8c4f128404)" style="fill: none; stroke: #000000; stroke-width: 0.2"/>
    <path d="M 291.322759 174.550301 
L 349.795804 207.314101 
" clip-path="url(#p8c4f128404)" style="fill: none; stroke: #000000; stroke-width: 0.2"/>
    <path d="M 291.322759 174.550301 
L 270.335597 157.271335 
" clip-path="url(#p8c4f128404)" style="fill: none; stroke: #000000; stroke-width: 0.2"/>
    <path d="M 291.322759 174.550301 
L 281.949343 148.096255 
" clip-path="url(#p8c4f128404)" style="fill: none; stroke: #000000; stroke-width: 0.2"/>
    <path d="M 362.483379 290.283435 
L 402.888451 292.080894 
" clip-path="url(#p8c4f128404)" style="fill: none; stroke: #000000; stroke-width: 0.2"/>
    <path d="M 301.862423 166.05878 
L 269.340768 123.958827 
" clip-path="url(#p8c4f128404)" style="fill: none; stroke: #000000; stroke-width: 0.2"/>
    <path d="M 301.862423 166.05878 
L 208.021723 193.773514 
" clip-path="url(#p8c4f128404)" style="fill: none; stroke: #000000; stroke-width: 0.2"/>
    <path d="M 301.862423 166.05878 
L 384.182776 134.173518 
" clip-path="url(#p8c4f128404)" style="fill: none; stroke: #000000; stroke-width: 0.2"/>
    <path d="M 301.862423 166.05878 
L 297.112488 135.699846 
" clip-path="url(#p8c4f128404)" style="fill: none; stroke: #000000; stroke-width: 0.2"/>
    <path d="M 301.862423 166.05878 
L 392.909107 149.159731 
" clip-path="url(#p8c4f128404)" style="fill: none; stroke: #000000; stroke-width: 0.2"/>
    <path d="M 301.862423 166.05878 
L 270.335597 157.271335 
" clip-path="url(#p8c4f128404)" style="fill: none; stroke: #000000; stroke-width: 0.2"/>
    <path d="M 301.862423 166.05878 
L 281.949343 148.096255 
" clip-path="url(#p8c4f128404)" style="fill: none; stroke: #000000; stroke-width: 0.2"/>
    <path d="M 301.862423 166.05878 
L 232.771701 191.841008 
" clip-path="url(#p8c4f128404)" style="fill: none; stroke: #000000; stroke-width: 0.2"/>
    <path d="M 232.54549 204.670859 
L 179.510382 223.029076 
" clip-path="url(#p8c4f128404)" style="fill: none; stroke: #000000; stroke-width: 0.2"/>
    <path d="M 269.340768 123.958827 
L 297.112488 135.699846 
" clip-path="url(#p8c4f128404)" style="fill: none; stroke: #000000; stroke-width: 0.2"/>
    <path d="M 208.021723 193.773514 
L 182.382622 195.004303 
" clip-path="url(#p8c4f128404)" style="fill: none; stroke: #000000; stroke-width: 0.2"/>
    <path d="M 40.678305 156.460427 
L 125.403715 166.620555 
" clip-path="url(#p8c4f128404)" style="fill: none; stroke: #000000; stroke-width: 0.2"/>
    <path d="M 141.546068 47.509368 
L 125.872626 76.510823 
" clip-path="url(#p8c4f128404)" style="fill: none; stroke: #000000; stroke-width: 0.2"/>
    <path d="M 127.325326 144.449106 
L 125.403715 166.620555 
" clip-path="url(#p8c4f128404)" style="fill: none; stroke: #000000; stroke-width: 0.2"/>
    <path d="M 262.575194 222.857006 
L 234.917715 239.65888 
" clip-path="url(#p8c4f128404)" style="fill: none; stroke: #000000; stroke-width: 0.2"/>
    <path d="M 179.510382 223.029076 
L 232.771701 191.841008 
" clip-path="url(#p8c4f128404)" style="fill: none; stroke: #000000; stroke-width: 0.2"/>
   </g>
   <g id="PathCollection_1">
    <defs>
     <path id="m65cdd289b5" d="M 0 2.5 
C 0.663008 2.5 1.29895 2.236584 1.767767 1.767767 
C 2.236584 1.29895 2.5 0.663008 2.5 0 
C 2.5 -0.663008 2.236584 -1.29895 1.767767 -1.767767 
C 1.29895 -2.236584 0.663008 -2.5 0 -2.5 
C -0.663008 -2.5 -1.29895 -2.236584 -1.767767 -1.767767 
C -2.236584 -1.29895 -2.5 -0.663008 -2.5 0 
C -2.5 0.663008 -2.236584 1.29895 -1.767767 1.767767 
C -1.29895 2.236584 -0.663008 2.5 0 2.5 
z
" style="stroke: #1f78b4"/>
    </defs>
    <g clip-path="url(#p8c4f128404)">
     <use xlink:href="#m65cdd289b5" x="104.749598" y="193.971867" style="fill: #1f78b4; stroke: #1f78b4"/>
     <use xlink:href="#m65cdd289b5" x="300.477195" y="226.560569" style="fill: #1f78b4; stroke: #1f78b4"/>
     <use xlink:href="#m65cdd289b5" x="139.346477" y="121.200269" style="fill: #1f78b4; stroke: #1f78b4"/>
     <use xlink:href="#m65cdd289b5" x="320.592025" y="244.29551" style="fill: #1f78b4; stroke: #1f78b4"/>
     <use xlink:href="#m65cdd289b5" x="231.278742" y="130.567523" style="fill: #1f78b4; stroke: #1f78b4"/>
     <use xlink:href="#m65cdd289b5" x="188.695463" y="91.993728" style="fill: #1f78b4; stroke: #1f78b4"/>
     <use xlink:href="#m65cdd289b5" x="138.369338" y="66.674905" style="fill: #1f78b4; stroke: #1f78b4"/>
     <use xlink:href="#m65cdd289b5" x="398.443905" y="121.317306" style="fill: #1f78b4; stroke: #1f78b4"/>
     <use xlink:href="#m65cdd289b5" x="400.676523" y="315.609917" style="fill: #1f78b4; stroke: #1f78b4"/>
     <use xlink:href="#m65cdd289b5" x="179.623839" y="170.483046" style="fill: #1f78b4; stroke: #1f78b4"/>
     <use xlink:href="#m65cdd289b5" x="175.989789" y="142.453835" style="fill: #1f78b4; stroke: #1f78b4"/>
     <use xlink:href="#m65cdd289b5" x="293.871377" y="239.980847" style="fill: #1f78b4; stroke: #1f78b4"/>
     <use xlink:href="#m65cdd289b5" x="307.086559" y="36.520335" style="fill: #1f78b4; stroke: #1f78b4"/>
     <use xlink:href="#m65cdd289b5" x="315.796818" y="295.27994" style="fill: #1f78b4; stroke: #1f78b4"/>
     <use xlink:href="#m65cdd289b5" x="176.044291" y="286.565968" style="fill: #1f78b4; stroke: #1f78b4"/>
     <use xlink:href="#m65cdd289b5" x="178.947564" y="29.990083" style="fill: #1f78b4; stroke: #1f78b4"/>
     <use xlink:href="#m65cdd289b5" x="387.518606" y="178.338001" style="fill: #1f78b4; stroke: #1f78b4"/>
     <use xlink:href="#m65cdd289b5" x="309.726742" y="221.116624" style="fill: #1f78b4; stroke: #1f78b4"/>
     <use xlink:href="#m65cdd289b5" x="123.245931" y="49.786648" style="fill: #1f78b4; stroke: #1f78b4"/>
     <use xlink:href="#m65cdd289b5" x="313.849558" y="69.154941" style="fill: #1f78b4; stroke: #1f78b4"/>
     <use xlink:href="#m65cdd289b5" x="105.75897" y="149.355646" style="fill: #1f78b4; stroke: #1f78b4"/>
     <use xlink:href="#m65cdd289b5" x="360.655567" y="118.097611" style="fill: #1f78b4; stroke: #1f78b4"/>
     <use xlink:href="#m65cdd289b5" x="357.197335" y="271.332707" style="fill: #1f78b4; stroke: #1f78b4"/>
     <use xlink:href="#m65cdd289b5" x="152.269987" y="212.12282" style="fill: #1f78b4; stroke: #1f78b4"/>
     <use xlink:href="#m65cdd289b5" x="345.759025" y="141.361118" style="fill: #1f78b4; stroke: #1f78b4"/>
     <use xlink:href="#m65cdd289b5" x="262.589244" y="178.81576" style="fill: #1f78b4; stroke: #1f78b4"/>
     <use xlink:href="#m65cdd289b5" x="369.125342" y="267.194898" style="fill: #1f78b4; stroke: #1f78b4"/>
     <use xlink:href="#m65cdd289b5" x="395.503414" y="165.406656" style="fill: #1f78b4; stroke: #1f78b4"/>
     <use xlink:href="#m65cdd289b5" x="281.607648" y="96.044936" style="fill: #1f78b4; stroke: #1f78b4"/>
     <use xlink:href="#m65cdd289b5" x="238.83866" y="251.550252" style="fill: #1f78b4; stroke: #1f78b4"/>
     <use xlink:href="#m65cdd289b5" x="315.069039" y="120.430732" style="fill: #1f78b4; stroke: #1f78b4"/>
     <use xlink:href="#m65cdd289b5" x="153.283552" y="227.160278" style="fill: #1f78b4; stroke: #1f78b4"/>
     <use xlink:href="#m65cdd289b5" x="286.545895" y="261.771986" style="fill: #1f78b4; stroke: #1f78b4"/>
     <use xlink:href="#m65cdd289b5" x="324.482736" y="216.752176" style="fill: #1f78b4; stroke: #1f78b4"/>
     <use xlink:href="#m65cdd289b5" x="367.723384" y="136.209656" style="fill: #1f78b4; stroke: #1f78b4"/>
     <use xlink:href="#m65cdd289b5" x="39.986777" y="172.186953" style="fill: #1f78b4; stroke: #1f78b4"/>
     <use xlink:href="#m65cdd289b5" x="353.332903" y="257.783297" style="fill: #1f78b4; stroke: #1f78b4"/>
     <use xlink:href="#m65cdd289b5" x="205.497743" y="205.728758" style="fill: #1f78b4; stroke: #1f78b4"/>
     <use xlink:href="#m65cdd289b5" x="291.322759" y="174.550301" style="fill: #1f78b4; stroke: #1f78b4"/>
     <use xlink:href="#m65cdd289b5" x="362.483379" y="290.283435" style="fill: #1f78b4; stroke: #1f78b4"/>
     <use xlink:href="#m65cdd289b5" x="301.862423" y="166.05878" style="fill: #1f78b4; stroke: #1f78b4"/>
     <use xlink:href="#m65cdd289b5" x="196.786286" y="306.526987" style="fill: #1f78b4; stroke: #1f78b4"/>
     <use xlink:href="#m65cdd289b5" x="252.090549" y="117.339832" style="fill: #1f78b4; stroke: #1f78b4"/>
     <use xlink:href="#m65cdd289b5" x="322.31609" y="176.483748" style="fill: #1f78b4; stroke: #1f78b4"/>
     <use xlink:href="#m65cdd289b5" x="317.870893" y="281.233255" style="fill: #1f78b4; stroke: #1f78b4"/>
     <use xlink:href="#m65cdd289b5" x="402.888451" y="292.080894" style="fill: #1f78b4; stroke: #1f78b4"/>
     <use xlink:href="#m65cdd289b5" x="232.54549" y="204.670859" style="fill: #1f78b4; stroke: #1f78b4"/>
     <use xlink:href="#m65cdd289b5" x="404.183272" y="258.861886" style="fill: #1f78b4; stroke: #1f78b4"/>
     <use xlink:href="#m65cdd289b5" x="269.340768" y="123.958827" style="fill: #1f78b4; stroke: #1f78b4"/>
     <use xlink:href="#m65cdd289b5" x="208.021723" y="193.773514" style="fill: #1f78b4; stroke: #1f78b4"/>
     <use xlink:href="#m65cdd289b5" x="228.480625" y="163.43735" style="fill: #1f78b4; stroke: #1f78b4"/>
     <use xlink:href="#m65cdd289b5" x="420.813223" y="305.974264" style="fill: #1f78b4; stroke: #1f78b4"/>
     <use xlink:href="#m65cdd289b5" x="40.678305" y="156.460427" style="fill: #1f78b4; stroke: #1f78b4"/>
     <use xlink:href="#m65cdd289b5" x="141.546068" y="47.509368" style="fill: #1f78b4; stroke: #1f78b4"/>
     <use xlink:href="#m65cdd289b5" x="182.382622" y="195.004303" style="fill: #1f78b4; stroke: #1f78b4"/>
     <use xlink:href="#m65cdd289b5" x="156.504269" y="31.303243" style="fill: #1f78b4; stroke: #1f78b4"/>
     <use xlink:href="#m65cdd289b5" x="349.795804" y="207.314101" style="fill: #1f78b4; stroke: #1f78b4"/>
     <use xlink:href="#m65cdd289b5" x="127.325326" y="144.449106" style="fill: #1f78b4; stroke: #1f78b4"/>
     <use xlink:href="#m65cdd289b5" x="150.313859" y="106.45416" style="fill: #1f78b4; stroke: #1f78b4"/>
     <use xlink:href="#m65cdd289b5" x="125.872626" y="76.510823" style="fill: #1f78b4; stroke: #1f78b4"/>
     <use xlink:href="#m65cdd289b5" x="287.473952" y="273.373128" style="fill: #1f78b4; stroke: #1f78b4"/>
     <use xlink:href="#m65cdd289b5" x="368.329921" y="164.584832" style="fill: #1f78b4; stroke: #1f78b4"/>
     <use xlink:href="#m65cdd289b5" x="384.182776" y="134.173518" style="fill: #1f78b4; stroke: #1f78b4"/>
     <use xlink:href="#m65cdd289b5" x="297.112488" y="135.699846" style="fill: #1f78b4; stroke: #1f78b4"/>
     <use xlink:href="#m65cdd289b5" x="125.403715" y="166.620555" style="fill: #1f78b4; stroke: #1f78b4"/>
     <use xlink:href="#m65cdd289b5" x="262.575194" y="222.857006" style="fill: #1f78b4; stroke: #1f78b4"/>
     <use xlink:href="#m65cdd289b5" x="234.917715" y="239.65888" style="fill: #1f78b4; stroke: #1f78b4"/>
     <use xlink:href="#m65cdd289b5" x="391.138667" y="274.49844" style="fill: #1f78b4; stroke: #1f78b4"/>
     <use xlink:href="#m65cdd289b5" x="392.909107" y="149.159731" style="fill: #1f78b4; stroke: #1f78b4"/>
     <use xlink:href="#m65cdd289b5" x="179.510382" y="223.029076" style="fill: #1f78b4; stroke: #1f78b4"/>
     <use xlink:href="#m65cdd289b5" x="270.335597" y="157.271335" style="fill: #1f78b4; stroke: #1f78b4"/>
     <use xlink:href="#m65cdd289b5" x="197.24835" y="32.5609" style="fill: #1f78b4; stroke: #1f78b4"/>
     <use xlink:href="#m65cdd289b5" x="282.91594" y="305.514253" style="fill: #1f78b4; stroke: #1f78b4"/>
     <use xlink:href="#m65cdd289b5" x="281.949343" y="148.096255" style="fill: #1f78b4; stroke: #1f78b4"/>
     <use xlink:href="#m65cdd289b5" x="232.771701" y="191.841008" style="fill: #1f78b4; stroke: #1f78b4"/>
     <use xlink:href="#m65cdd289b5" x="220.159539" y="313.593445" style="fill: #1f78b4; stroke: #1f78b4"/>
    </g>
   </g>
  </g>
 </g>
 <defs>
  <clipPath id="p8c4f128404">
   <rect x="0" y="0" width="460.8" height="345.6"/>
  </clipPath>
 </defs>
</svg>
