<?xml version="1.0" encoding="utf-8" standalone="no"?>
<!DOCTYPE svg PUBLIC "-//W3C//DTD SVG 1.1//EN"
  "http://www.w3.org/Graphics/SVG/1.1/DTD/svg11.dtd">
<svg xmlns:xlink="http://www.w3.org/1999/xlink" width="460.8pt" height="345.6pt" viewBox="0 0 460.8 345.6" xmlns="http://www.w3.org/2000/svg" version="1.1">
 <metadata>
  <rdf:RDF xmlns:dc="http://purl.org/dc/elements/1.1/" xmlns:cc="http://creativecommons.org/ns#" xmlns:rdf="http://www.w3.org/1999/02/22-rdf-syntax-ns#">
   <cc:Work>
    <dc:type rdf:resource="http://purl.org/dc/dcmitype/StillImage"/>
    <dc:date>2023-11-12T17:40:14.084855</dc:date>
    <dc:format>image/svg+xml</dc:format>
    <dc:creator>
     <cc:Agent>
      <dc:title>Matplotlib v3.8.1, https://matplotlib.org/</dc:title>
     </cc:Agent>
    </dc:creator>
   </cc:Work>
  </rdf:RDF>
 </metadata>
 <defs>
  <style type="text/css">*{stroke-linejoin: round; stroke-linecap: butt}</style>
 </defs>
 <g id="figure_1">
  <g id="patch_1">
   <path d="M 0 345.6 
L 460.8 345.6 
L 460.8 0 
L 0 0 
z
" style="fill: #ffffff"/>
  </g>
  <g id="axes_1">
   <g id="LineCollection_1">
    <path d="M 410.041058 185.865869 
L 364.805412 157.908719 
" clip-path="url(#p328e708fdc)" style="fill: none; stroke: #000000"/>
    <path d="M 410.041058 185.865869 
L 346.636401 194.5896 
" clip-path="url(#p328e708fdc)" style="fill: none; stroke: #000000"/>
    <path d="M 204.9195 168.620523 
L 233.867697 182.20527 
" clip-path="url(#p328e708fdc)" style="fill: none; stroke: #000000"/>
    <path d="M 204.9195 168.620523 
L 165.216617 195.378633 
" clip-path="url(#p328e708fdc)" style="fill: none; stroke: #000000"/>
    <path d="M 204.9195 168.620523 
L 244.122062 196.533727 
" clip-path="url(#p328e708fdc)" style="fill: none; stroke: #000000"/>
    <path d="M 204.9195 168.620523 
L 188.39124 177.604605 
" clip-path="url(#p328e708fdc)" style="fill: none; stroke: #000000"/>
    <path d="M 204.9195 168.620523 
L 195.822178 125.940335 
" clip-path="url(#p328e708fdc)" style="fill: none; stroke: #000000"/>
    <path d="M 204.9195 168.620523 
L 139.307572 162.977546 
" clip-path="url(#p328e708fdc)" style="fill: none; stroke: #000000"/>
    <path d="M 204.9195 168.620523 
L 271.172424 165.376498 
" clip-path="url(#p328e708fdc)" style="fill: none; stroke: #000000"/>
    <path d="M 322.291309 115.125742 
L 241.861896 97.21649 
" clip-path="url(#p328e708fdc)" style="fill: none; stroke: #000000"/>
    <path d="M 322.291309 115.125742 
L 317.857103 150.823253 
" clip-path="url(#p328e708fdc)" style="fill: none; stroke: #000000"/>
    <path d="M 322.291309 115.125742 
L 294.762374 143.574076 
" clip-path="url(#p328e708fdc)" style="fill: none; stroke: #000000"/>
    <path d="M 322.291309 115.125742 
L 364.805412 157.908719 
" clip-path="url(#p328e708fdc)" style="fill: none; stroke: #000000"/>
    <path d="M 322.291309 115.125742 
L 349.571874 148.054002 
" clip-path="url(#p328e708fdc)" style="fill: none; stroke: #000000"/>
    <path d="M 322.291309 115.125742 
L 300.535082 65.665216 
" clip-path="url(#p328e708fdc)" style="fill: none; stroke: #000000"/>
    <path d="M 233.867697 182.20527 
L 186.378965 204.08834 
" clip-path="url(#p328e708fdc)" style="fill: none; stroke: #000000"/>
    <path d="M 233.867697 182.20527 
L 216.268881 199.943604 
" clip-path="url(#p328e708fdc)" style="fill: none; stroke: #000000"/>
    <path d="M 233.867697 182.20527 
L 220.040211 140.06043 
" clip-path="url(#p328e708fdc)" style="fill: none; stroke: #000000"/>
    <path d="M 233.867697 182.20527 
L 292.471232 172.174569 
" clip-path="url(#p328e708fdc)" style="fill: none; stroke: #000000"/>
    <path d="M 233.867697 182.20527 
L 244.122062 196.533727 
" clip-path="url(#p328e708fdc)" style="fill: none; stroke: #000000"/>
    <path d="M 233.867697 182.20527 
L 188.39124 177.604605 
" clip-path="url(#p328e708fdc)" style="fill: none; stroke: #000000"/>
    <path d="M 233.867697 182.20527 
L 236.733348 125.959972 
" clip-path="url(#p328e708fdc)" style="fill: none; stroke: #000000"/>
    <path d="M 233.867697 182.20527 
L 215.234411 230.131117 
" clip-path="url(#p328e708fdc)" style="fill: none; stroke: #000000"/>
    <path d="M 233.867697 182.20527 
L 271.172424 165.376498 
" clip-path="url(#p328e708fdc)" style="fill: none; stroke: #000000"/>
    <path d="M 233.867697 182.20527 
L 251.118764 150.972295 
" clip-path="url(#p328e708fdc)" style="fill: none; stroke: #000000"/>
    <path d="M 233.867697 182.20527 
L 280.105559 244.530594 
" clip-path="url(#p328e708fdc)" style="fill: none; stroke: #000000"/>
    <path d="M 233.867697 182.20527 
L 171.782192 159.560839 
" clip-path="url(#p328e708fdc)" style="fill: none; stroke: #000000"/>
    <path d="M 222.108962 262.751763 
L 216.268881 199.943604 
" clip-path="url(#p328e708fdc)" style="fill: none; stroke: #000000"/>
    <path d="M 222.108962 262.751763 
L 254.159877 249.392189 
" clip-path="url(#p328e708fdc)" style="fill: none; stroke: #000000"/>
    <path d="M 241.861896 97.21649 
L 273.85679 56.13371 
" clip-path="url(#p328e708fdc)" style="fill: none; stroke: #000000"/>
    <path d="M 241.861896 97.21649 
L 294.762374 143.574076 
" clip-path="url(#p328e708fdc)" style="fill: none; stroke: #000000"/>
    <path d="M 241.861896 97.21649 
L 213.597882 29.990083 
" clip-path="url(#p328e708fdc)" style="fill: none; stroke: #000000"/>
    <path d="M 241.861896 97.21649 
L 228.646428 52.583829 
" clip-path="url(#p328e708fdc)" style="fill: none; stroke: #000000"/>
    <path d="M 241.861896 97.21649 
L 216.268881 199.943604 
" clip-path="url(#p328e708fdc)" style="fill: none; stroke: #000000"/>
    <path d="M 241.861896 97.21649 
L 139.307572 162.977546 
" clip-path="url(#p328e708fdc)" style="fill: none; stroke: #000000"/>
    <path d="M 241.861896 97.21649 
L 281.469792 39.098784 
" clip-path="url(#p328e708fdc)" style="fill: none; stroke: #000000"/>
    <path d="M 241.861896 97.21649 
L 183.383849 42.034441 
" clip-path="url(#p328e708fdc)" style="fill: none; stroke: #000000"/>
    <path d="M 241.861896 97.21649 
L 303.424551 90.027777 
" clip-path="url(#p328e708fdc)" style="fill: none; stroke: #000000"/>
    <path d="M 241.861896 97.21649 
L 300.535082 65.665216 
" clip-path="url(#p328e708fdc)" style="fill: none; stroke: #000000"/>
    <path d="M 273.85679 56.13371 
L 228.646428 52.583829 
" clip-path="url(#p328e708fdc)" style="fill: none; stroke: #000000"/>
    <path d="M 273.85679 56.13371 
L 303.424551 90.027777 
" clip-path="url(#p328e708fdc)" style="fill: none; stroke: #000000"/>
    <path d="M 273.85679 56.13371 
L 300.535082 65.665216 
" clip-path="url(#p328e708fdc)" style="fill: none; stroke: #000000"/>
    <path d="M 198.155126 57.433407 
L 195.822178 125.940335 
" clip-path="url(#p328e708fdc)" style="fill: none; stroke: #000000"/>
    <path d="M 198.155126 57.433407 
L 177.452538 65.071204 
" clip-path="url(#p328e708fdc)" style="fill: none; stroke: #000000"/>
    <path d="M 317.857103 150.823253 
L 292.471232 172.174569 
" clip-path="url(#p328e708fdc)" style="fill: none; stroke: #000000"/>
    <path d="M 317.857103 150.823253 
L 271.172424 165.376498 
" clip-path="url(#p328e708fdc)" style="fill: none; stroke: #000000"/>
    <path d="M 317.857103 150.823253 
L 292.202765 215.015884 
" clip-path="url(#p328e708fdc)" style="fill: none; stroke: #000000"/>
    <path d="M 317.857103 150.823253 
L 349.571874 148.054002 
" clip-path="url(#p328e708fdc)" style="fill: none; stroke: #000000"/>
    <path d="M 317.857103 150.823253 
L 303.424551 90.027777 
" clip-path="url(#p328e708fdc)" style="fill: none; stroke: #000000"/>
    <path d="M 294.762374 143.574076 
L 364.805412 157.908719 
" clip-path="url(#p328e708fdc)" style="fill: none; stroke: #000000"/>
    <path d="M 294.762374 143.574076 
L 271.172424 165.376498 
" clip-path="url(#p328e708fdc)" style="fill: none; stroke: #000000"/>
    <path d="M 294.762374 143.574076 
L 181.820779 142.078659 
" clip-path="url(#p328e708fdc)" style="fill: none; stroke: #000000"/>
    <path d="M 294.762374 143.574076 
L 349.571874 148.054002 
" clip-path="url(#p328e708fdc)" style="fill: none; stroke: #000000"/>
    <path d="M 294.762374 143.574076 
L 346.636401 194.5896 
" clip-path="url(#p328e708fdc)" style="fill: none; stroke: #000000"/>
    <path d="M 186.378965 204.08834 
L 165.216617 195.378633 
" clip-path="url(#p328e708fdc)" style="fill: none; stroke: #000000"/>
    <path d="M 186.378965 204.08834 
L 216.268881 199.943604 
" clip-path="url(#p328e708fdc)" style="fill: none; stroke: #000000"/>
    <path d="M 186.378965 204.08834 
L 244.122062 196.533727 
" clip-path="url(#p328e708fdc)" style="fill: none; stroke: #000000"/>
    <path d="M 186.378965 204.08834 
L 188.39124 177.604605 
" clip-path="url(#p328e708fdc)" style="fill: none; stroke: #000000"/>
    <path d="M 186.378965 204.08834 
L 139.307572 162.977546 
" clip-path="url(#p328e708fdc)" style="fill: none; stroke: #000000"/>
    <path d="M 186.378965 204.08834 
L 215.234411 230.131117 
" clip-path="url(#p328e708fdc)" style="fill: none; stroke: #000000"/>
    <path d="M 186.378965 204.08834 
L 144.972384 232.880931 
" clip-path="url(#p328e708fdc)" style="fill: none; stroke: #000000"/>
    <path d="M 380.879751 221.166008 
L 303.652435 233.19873 
" clip-path="url(#p328e708fdc)" style="fill: none; stroke: #000000"/>
    <path d="M 274.058761 128.439846 
L 220.040211 140.06043 
" clip-path="url(#p328e708fdc)" style="fill: none; stroke: #000000"/>
    <path d="M 274.058761 128.439846 
L 292.471232 172.174569 
" clip-path="url(#p328e708fdc)" style="fill: none; stroke: #000000"/>
    <path d="M 274.058761 128.439846 
L 236.733348 125.959972 
" clip-path="url(#p328e708fdc)" style="fill: none; stroke: #000000"/>
    <path d="M 136.934267 315.609917 
L 164.965012 257.110651 
" clip-path="url(#p328e708fdc)" style="fill: none; stroke: #000000"/>
    <path d="M 55.207274 163.276163 
L 57.059351 147.805721 
" clip-path="url(#p328e708fdc)" style="fill: none; stroke: #000000"/>
    <path d="M 55.207274 163.276163 
L 139.307572 162.977546 
" clip-path="url(#p328e708fdc)" style="fill: none; stroke: #000000"/>
    <path d="M 165.216617 195.378633 
L 115.095323 177.718549 
" clip-path="url(#p328e708fdc)" style="fill: none; stroke: #000000"/>
    <path d="M 165.216617 195.378633 
L 216.268881 199.943604 
" clip-path="url(#p328e708fdc)" style="fill: none; stroke: #000000"/>
    <path d="M 165.216617 195.378633 
L 188.39124 177.604605 
" clip-path="url(#p328e708fdc)" style="fill: none; stroke: #000000"/>
    <path d="M 165.216617 195.378633 
L 195.822178 125.940335 
" clip-path="url(#p328e708fdc)" style="fill: none; stroke: #000000"/>
    <path d="M 165.216617 195.378633 
L 139.307572 162.977546 
" clip-path="url(#p328e708fdc)" style="fill: none; stroke: #000000"/>
    <path d="M 165.216617 195.378633 
L 144.972384 232.880931 
" clip-path="url(#p328e708fdc)" style="fill: none; stroke: #000000"/>
    <path d="M 165.216617 195.378633 
L 174.732405 237.682386 
" clip-path="url(#p328e708fdc)" style="fill: none; stroke: #000000"/>
    <path d="M 165.216617 195.378633 
L 164.965012 257.110651 
" clip-path="url(#p328e708fdc)" style="fill: none; stroke: #000000"/>
    <path d="M 128.391657 94.422959 
L 181.820779 142.078659 
" clip-path="url(#p328e708fdc)" style="fill: none; stroke: #000000"/>
    <path d="M 364.805412 157.908719 
L 349.571874 148.054002 
" clip-path="url(#p328e708fdc)" style="fill: none; stroke: #000000"/>
    <path d="M 364.805412 157.908719 
L 346.636401 194.5896 
" clip-path="url(#p328e708fdc)" style="fill: none; stroke: #000000"/>
    <path d="M 115.095323 177.718549 
L 171.782192 159.560839 
" clip-path="url(#p328e708fdc)" style="fill: none; stroke: #000000"/>
    <path d="M 66.089643 239.57088 
L 39.986777 231.49186 
" clip-path="url(#p328e708fdc)" style="fill: none; stroke: #000000"/>
    <path d="M 66.089643 239.57088 
L 68.852891 206.093171 
" clip-path="url(#p328e708fdc)" style="fill: none; stroke: #000000"/>
    <path d="M 66.089643 239.57088 
L 109.014975 213.382322 
" clip-path="url(#p328e708fdc)" style="fill: none; stroke: #000000"/>
    <path d="M 66.089643 239.57088 
L 123.753458 235.082839 
" clip-path="url(#p328e708fdc)" style="fill: none; stroke: #000000"/>
    <path d="M 216.268881 199.943604 
L 303.652435 233.19873 
" clip-path="url(#p328e708fdc)" style="fill: none; stroke: #000000"/>
    <path d="M 216.268881 199.943604 
L 292.471232 172.174569 
" clip-path="url(#p328e708fdc)" style="fill: none; stroke: #000000"/>
    <path d="M 216.268881 199.943604 
L 188.39124 177.604605 
" clip-path="url(#p328e708fdc)" style="fill: none; stroke: #000000"/>
    <path d="M 216.268881 199.943604 
L 195.822178 125.940335 
" clip-path="url(#p328e708fdc)" style="fill: none; stroke: #000000"/>
    <path d="M 216.268881 199.943604 
L 139.307572 162.977546 
" clip-path="url(#p328e708fdc)" style="fill: none; stroke: #000000"/>
    <path d="M 216.268881 199.943604 
L 254.159877 249.392189 
" clip-path="url(#p328e708fdc)" style="fill: none; stroke: #000000"/>
    <path d="M 216.268881 199.943604 
L 251.843464 268.136352 
" clip-path="url(#p328e708fdc)" style="fill: none; stroke: #000000"/>
    <path d="M 216.268881 199.943604 
L 181.820779 142.078659 
" clip-path="url(#p328e708fdc)" style="fill: none; stroke: #000000"/>
    <path d="M 216.268881 199.943604 
L 109.014975 213.382322 
" clip-path="url(#p328e708fdc)" style="fill: none; stroke: #000000"/>
    <path d="M 216.268881 199.943604 
L 292.202765 215.015884 
" clip-path="url(#p328e708fdc)" style="fill: none; stroke: #000000"/>
    <path d="M 216.268881 199.943604 
L 123.753458 235.082839 
" clip-path="url(#p328e708fdc)" style="fill: none; stroke: #000000"/>
    <path d="M 216.268881 199.943604 
L 156.718806 175.578671 
" clip-path="url(#p328e708fdc)" style="fill: none; stroke: #000000"/>
    <path d="M 216.268881 199.943604 
L 346.636401 194.5896 
" clip-path="url(#p328e708fdc)" style="fill: none; stroke: #000000"/>
    <path d="M 216.268881 199.943604 
L 174.732405 237.682386 
" clip-path="url(#p328e708fdc)" style="fill: none; stroke: #000000"/>
    <path d="M 216.268881 199.943604 
L 164.965012 257.110651 
" clip-path="url(#p328e708fdc)" style="fill: none; stroke: #000000"/>
    <path d="M 220.040211 140.06043 
L 188.39124 177.604605 
" clip-path="url(#p328e708fdc)" style="fill: none; stroke: #000000"/>
    <path d="M 220.040211 140.06043 
L 195.822178 125.940335 
" clip-path="url(#p328e708fdc)" style="fill: none; stroke: #000000"/>
    <path d="M 220.040211 140.06043 
L 236.733348 125.959972 
" clip-path="url(#p328e708fdc)" style="fill: none; stroke: #000000"/>
    <path d="M 220.040211 140.06043 
L 223.035027 94.657616 
" clip-path="url(#p328e708fdc)" style="fill: none; stroke: #000000"/>
    <path d="M 220.040211 140.06043 
L 251.118764 150.972295 
" clip-path="url(#p328e708fdc)" style="fill: none; stroke: #000000"/>
    <path d="M 220.040211 140.06043 
L 171.782192 159.560839 
" clip-path="url(#p328e708fdc)" style="fill: none; stroke: #000000"/>
    <path d="M 57.059351 147.805721 
L 139.307572 162.977546 
" clip-path="url(#p328e708fdc)" style="fill: none; stroke: #000000"/>
    <path d="M 303.652435 233.19873 
L 254.159877 249.392189 
" clip-path="url(#p328e708fdc)" style="fill: none; stroke: #000000"/>
    <path d="M 292.471232 172.174569 
L 244.122062 196.533727 
" clip-path="url(#p328e708fdc)" style="fill: none; stroke: #000000"/>
    <path d="M 292.471232 172.174569 
L 378.01872 147.677879 
" clip-path="url(#p328e708fdc)" style="fill: none; stroke: #000000"/>
    <path d="M 118.066929 126.926858 
L 139.307572 162.977546 
" clip-path="url(#p328e708fdc)" style="fill: none; stroke: #000000"/>
    <path d="M 118.066929 126.926858 
L 181.820779 142.078659 
" clip-path="url(#p328e708fdc)" style="fill: none; stroke: #000000"/>
    <path d="M 39.986777 231.49186 
L 68.852891 206.093171 
" clip-path="url(#p328e708fdc)" style="fill: none; stroke: #000000"/>
    <path d="M 39.986777 231.49186 
L 109.014975 213.382322 
" clip-path="url(#p328e708fdc)" style="fill: none; stroke: #000000"/>
    <path d="M 188.39124 177.604605 
L 139.307572 162.977546 
" clip-path="url(#p328e708fdc)" style="fill: none; stroke: #000000"/>
    <path d="M 407.843883 239.364863 
L 420.813223 225.313869 
" clip-path="url(#p328e708fdc)" style="fill: none; stroke: #000000"/>
    <path d="M 407.843883 239.364863 
L 346.636401 194.5896 
" clip-path="url(#p328e708fdc)" style="fill: none; stroke: #000000"/>
    <path d="M 195.822178 125.940335 
L 236.733348 125.959972 
" clip-path="url(#p328e708fdc)" style="fill: none; stroke: #000000"/>
    <path d="M 195.822178 125.940335 
L 223.035027 94.657616 
" clip-path="url(#p328e708fdc)" style="fill: none; stroke: #000000"/>
    <path d="M 195.822178 125.940335 
L 177.452538 65.071204 
" clip-path="url(#p328e708fdc)" style="fill: none; stroke: #000000"/>
    <path d="M 68.852891 206.093171 
L 139.307572 162.977546 
" clip-path="url(#p328e708fdc)" style="fill: none; stroke: #000000"/>
    <path d="M 68.852891 206.093171 
L 109.014975 213.382322 
" clip-path="url(#p328e708fdc)" style="fill: none; stroke: #000000"/>
    <path d="M 298.874544 272.651227 
L 251.843464 268.136352 
" clip-path="url(#p328e708fdc)" style="fill: none; stroke: #000000"/>
    <path d="M 298.874544 272.651227 
L 292.202765 215.015884 
" clip-path="url(#p328e708fdc)" style="fill: none; stroke: #000000"/>
    <path d="M 298.874544 272.651227 
L 280.105559 244.530594 
" clip-path="url(#p328e708fdc)" style="fill: none; stroke: #000000"/>
    <path d="M 236.733348 125.959972 
L 223.035027 94.657616 
" clip-path="url(#p328e708fdc)" style="fill: none; stroke: #000000"/>
    <path d="M 139.307572 162.977546 
L 181.820779 142.078659 
" clip-path="url(#p328e708fdc)" style="fill: none; stroke: #000000"/>
    <path d="M 139.307572 162.977546 
L 109.014975 213.382322 
" clip-path="url(#p328e708fdc)" style="fill: none; stroke: #000000"/>
    <path d="M 139.307572 162.977546 
L 66.712659 128.866542 
" clip-path="url(#p328e708fdc)" style="fill: none; stroke: #000000"/>
    <path d="M 139.307572 162.977546 
L 156.718806 175.578671 
" clip-path="url(#p328e708fdc)" style="fill: none; stroke: #000000"/>
    <path d="M 181.820779 142.078659 
L 156.718806 175.578671 
" clip-path="url(#p328e708fdc)" style="fill: none; stroke: #000000"/>
    <path d="M 109.014975 213.382322 
L 123.753458 235.082839 
" clip-path="url(#p328e708fdc)" style="fill: none; stroke: #000000"/>
    <path d="M 420.813223 225.313869 
L 346.636401 194.5896 
" clip-path="url(#p328e708fdc)" style="fill: none; stroke: #000000"/>
    <path d="M 281.469792 39.098784 
L 300.535082 65.665216 
" clip-path="url(#p328e708fdc)" style="fill: none; stroke: #000000"/>
    <path d="M 349.571874 148.054002 
L 346.636401 194.5896 
" clip-path="url(#p328e708fdc)" style="fill: none; stroke: #000000"/>
    <path d="M 174.732405 237.682386 
L 164.965012 257.110651 
" clip-path="url(#p328e708fdc)" style="fill: none; stroke: #000000"/>
   </g>
   <g id="PathCollection_1">
    <defs>
     <path id="mdb6694170b" d="M 0 2.5 
C 0.663008 2.5 1.29895 2.236584 1.767767 1.767767 
C 2.236584 1.29895 2.5 0.663008 2.5 0 
C 2.5 -0.663008 2.236584 -1.29895 1.767767 -1.767767 
C 1.29895 -2.236584 0.663008 -2.5 0 -2.5 
C -0.663008 -2.5 -1.29895 -2.236584 -1.767767 -1.767767 
C -2.236584 -1.29895 -2.5 -0.663008 -2.5 0 
C -2.5 0.663008 -2.236584 1.29895 -1.767767 1.767767 
C -1.29895 2.236584 -0.663008 2.5 0 2.5 
z
" style="stroke: #1f78b4"/>
    </defs>
    <g clip-path="url(#p328e708fdc)">
     <use xlink:href="#mdb6694170b" x="410.041058" y="185.865869" style="fill: #1f78b4; stroke: #1f78b4"/>
     <use xlink:href="#mdb6694170b" x="204.9195" y="168.620523" style="fill: #1f78b4; stroke: #1f78b4"/>
     <use xlink:href="#mdb6694170b" x="322.291309" y="115.125742" style="fill: #1f78b4; stroke: #1f78b4"/>
     <use xlink:href="#mdb6694170b" x="233.867697" y="182.20527" style="fill: #1f78b4; stroke: #1f78b4"/>
     <use xlink:href="#mdb6694170b" x="222.108962" y="262.751763" style="fill: #1f78b4; stroke: #1f78b4"/>
     <use xlink:href="#mdb6694170b" x="241.861896" y="97.21649" style="fill: #1f78b4; stroke: #1f78b4"/>
     <use xlink:href="#mdb6694170b" x="273.85679" y="56.13371" style="fill: #1f78b4; stroke: #1f78b4"/>
     <use xlink:href="#mdb6694170b" x="198.155126" y="57.433407" style="fill: #1f78b4; stroke: #1f78b4"/>
     <use xlink:href="#mdb6694170b" x="317.857103" y="150.823253" style="fill: #1f78b4; stroke: #1f78b4"/>
     <use xlink:href="#mdb6694170b" x="294.762374" y="143.574076" style="fill: #1f78b4; stroke: #1f78b4"/>
     <use xlink:href="#mdb6694170b" x="186.378965" y="204.08834" style="fill: #1f78b4; stroke: #1f78b4"/>
     <use xlink:href="#mdb6694170b" x="380.879751" y="221.166008" style="fill: #1f78b4; stroke: #1f78b4"/>
     <use xlink:href="#mdb6694170b" x="274.058761" y="128.439846" style="fill: #1f78b4; stroke: #1f78b4"/>
     <use xlink:href="#mdb6694170b" x="136.934267" y="315.609917" style="fill: #1f78b4; stroke: #1f78b4"/>
     <use xlink:href="#mdb6694170b" x="213.597882" y="29.990083" style="fill: #1f78b4; stroke: #1f78b4"/>
     <use xlink:href="#mdb6694170b" x="55.207274" y="163.276163" style="fill: #1f78b4; stroke: #1f78b4"/>
     <use xlink:href="#mdb6694170b" x="165.216617" y="195.378633" style="fill: #1f78b4; stroke: #1f78b4"/>
     <use xlink:href="#mdb6694170b" x="228.646428" y="52.583829" style="fill: #1f78b4; stroke: #1f78b4"/>
     <use xlink:href="#mdb6694170b" x="128.391657" y="94.422959" style="fill: #1f78b4; stroke: #1f78b4"/>
     <use xlink:href="#mdb6694170b" x="364.805412" y="157.908719" style="fill: #1f78b4; stroke: #1f78b4"/>
     <use xlink:href="#mdb6694170b" x="115.095323" y="177.718549" style="fill: #1f78b4; stroke: #1f78b4"/>
     <use xlink:href="#mdb6694170b" x="66.089643" y="239.57088" style="fill: #1f78b4; stroke: #1f78b4"/>
     <use xlink:href="#mdb6694170b" x="216.268881" y="199.943604" style="fill: #1f78b4; stroke: #1f78b4"/>
     <use xlink:href="#mdb6694170b" x="220.040211" y="140.06043" style="fill: #1f78b4; stroke: #1f78b4"/>
     <use xlink:href="#mdb6694170b" x="57.059351" y="147.805721" style="fill: #1f78b4; stroke: #1f78b4"/>
     <use xlink:href="#mdb6694170b" x="303.652435" y="233.19873" style="fill: #1f78b4; stroke: #1f78b4"/>
     <use xlink:href="#mdb6694170b" x="292.471232" y="172.174569" style="fill: #1f78b4; stroke: #1f78b4"/>
     <use xlink:href="#mdb6694170b" x="118.066929" y="126.926858" style="fill: #1f78b4; stroke: #1f78b4"/>
     <use xlink:href="#mdb6694170b" x="39.986777" y="231.49186" style="fill: #1f78b4; stroke: #1f78b4"/>
     <use xlink:href="#mdb6694170b" x="244.122062" y="196.533727" style="fill: #1f78b4; stroke: #1f78b4"/>
     <use xlink:href="#mdb6694170b" x="188.39124" y="177.604605" style="fill: #1f78b4; stroke: #1f78b4"/>
     <use xlink:href="#mdb6694170b" x="407.843883" y="239.364863" style="fill: #1f78b4; stroke: #1f78b4"/>
     <use xlink:href="#mdb6694170b" x="195.822178" y="125.940335" style="fill: #1f78b4; stroke: #1f78b4"/>
     <use xlink:href="#mdb6694170b" x="68.852891" y="206.093171" style="fill: #1f78b4; stroke: #1f78b4"/>
     <use xlink:href="#mdb6694170b" x="298.874544" y="272.651227" style="fill: #1f78b4; stroke: #1f78b4"/>
     <use xlink:href="#mdb6694170b" x="236.733348" y="125.959972" style="fill: #1f78b4; stroke: #1f78b4"/>
     <use xlink:href="#mdb6694170b" x="139.307572" y="162.977546" style="fill: #1f78b4; stroke: #1f78b4"/>
     <use xlink:href="#mdb6694170b" x="378.01872" y="147.677879" style="fill: #1f78b4; stroke: #1f78b4"/>
     <use xlink:href="#mdb6694170b" x="254.159877" y="249.392189" style="fill: #1f78b4; stroke: #1f78b4"/>
     <use xlink:href="#mdb6694170b" x="251.843464" y="268.136352" style="fill: #1f78b4; stroke: #1f78b4"/>
     <use xlink:href="#mdb6694170b" x="215.234411" y="230.131117" style="fill: #1f78b4; stroke: #1f78b4"/>
     <use xlink:href="#mdb6694170b" x="223.035027" y="94.657616" style="fill: #1f78b4; stroke: #1f78b4"/>
     <use xlink:href="#mdb6694170b" x="271.172424" y="165.376498" style="fill: #1f78b4; stroke: #1f78b4"/>
     <use xlink:href="#mdb6694170b" x="251.118764" y="150.972295" style="fill: #1f78b4; stroke: #1f78b4"/>
     <use xlink:href="#mdb6694170b" x="181.820779" y="142.078659" style="fill: #1f78b4; stroke: #1f78b4"/>
     <use xlink:href="#mdb6694170b" x="109.014975" y="213.382322" style="fill: #1f78b4; stroke: #1f78b4"/>
     <use xlink:href="#mdb6694170b" x="292.202765" y="215.015884" style="fill: #1f78b4; stroke: #1f78b4"/>
     <use xlink:href="#mdb6694170b" x="177.452538" y="65.071204" style="fill: #1f78b4; stroke: #1f78b4"/>
     <use xlink:href="#mdb6694170b" x="420.813223" y="225.313869" style="fill: #1f78b4; stroke: #1f78b4"/>
     <use xlink:href="#mdb6694170b" x="281.469792" y="39.098784" style="fill: #1f78b4; stroke: #1f78b4"/>
     <use xlink:href="#mdb6694170b" x="123.753458" y="235.082839" style="fill: #1f78b4; stroke: #1f78b4"/>
     <use xlink:href="#mdb6694170b" x="183.383849" y="42.034441" style="fill: #1f78b4; stroke: #1f78b4"/>
     <use xlink:href="#mdb6694170b" x="280.105559" y="244.530594" style="fill: #1f78b4; stroke: #1f78b4"/>
     <use xlink:href="#mdb6694170b" x="349.571874" y="148.054002" style="fill: #1f78b4; stroke: #1f78b4"/>
     <use xlink:href="#mdb6694170b" x="303.424551" y="90.027777" style="fill: #1f78b4; stroke: #1f78b4"/>
     <use xlink:href="#mdb6694170b" x="300.535082" y="65.665216" style="fill: #1f78b4; stroke: #1f78b4"/>
     <use xlink:href="#mdb6694170b" x="144.972384" y="232.880931" style="fill: #1f78b4; stroke: #1f78b4"/>
     <use xlink:href="#mdb6694170b" x="66.712659" y="128.866542" style="fill: #1f78b4; stroke: #1f78b4"/>
     <use xlink:href="#mdb6694170b" x="156.718806" y="175.578671" style="fill: #1f78b4; stroke: #1f78b4"/>
     <use xlink:href="#mdb6694170b" x="346.636401" y="194.5896" style="fill: #1f78b4; stroke: #1f78b4"/>
     <use xlink:href="#mdb6694170b" x="174.732405" y="237.682386" style="fill: #1f78b4; stroke: #1f78b4"/>
     <use xlink:href="#mdb6694170b" x="164.965012" y="257.110651" style="fill: #1f78b4; stroke: #1f78b4"/>
     <use xlink:href="#mdb6694170b" x="171.782192" y="159.560839" style="fill: #1f78b4; stroke: #1f78b4"/>
    </g>
   </g>
  </g>
 </g>
 <defs>
  <clipPath id="p328e708fdc">
   <rect x="0" y="0" width="460.8" height="345.6"/>
  </clipPath>
 </defs>
</svg>
