<?xml version="1.0" encoding="utf-8" standalone="no"?>
<!DOCTYPE svg PUBLIC "-//W3C//DTD SVG 1.1//EN"
  "http://www.w3.org/Graphics/SVG/1.1/DTD/svg11.dtd">
<svg xmlns:xlink="http://www.w3.org/1999/xlink" width="460.8pt" height="345.6pt" viewBox="0 0 460.8 345.6" xmlns="http://www.w3.org/2000/svg" version="1.1">
 <metadata>
  <rdf:RDF xmlns:dc="http://purl.org/dc/elements/1.1/" xmlns:cc="http://creativecommons.org/ns#" xmlns:rdf="http://www.w3.org/1999/02/22-rdf-syntax-ns#">
   <cc:Work>
    <dc:type rdf:resource="http://purl.org/dc/dcmitype/StillImage"/>
    <dc:date>2023-05-08T00:10:30.087840</dc:date>
    <dc:format>image/svg+xml</dc:format>
    <dc:creator>
     <cc:Agent>
      <dc:title>Matplotlib v3.7.1, https://matplotlib.org/</dc:title>
     </cc:Agent>
    </dc:creator>
   </cc:Work>
  </rdf:RDF>
 </metadata>
 <defs>
  <style type="text/css">*{stroke-linejoin: round; stroke-linecap: butt}</style>
 </defs>
 <g id="figure_1">
  <g id="patch_1">
   <path d="M 0 345.6 
L 460.8 345.6 
L 460.8 0 
L 0 0 
z
" style="fill: #ffffff"/>
  </g>
  <g id="axes_1">
   <g id="LineCollection_1">
    <path d="M 69.21475 145.51682 
L 97.348887 180.135547 
" clip-path="url(#pfd3f62946f)" style="fill: none; stroke: #000000"/>
    <path d="M 69.21475 145.51682 
L 102.267291 136.632725 
" clip-path="url(#pfd3f62946f)" style="fill: none; stroke: #000000"/>
    <path d="M 69.21475 145.51682 
L 39.986777 105.350119 
" clip-path="url(#pfd3f62946f)" style="fill: none; stroke: #000000"/>
    <path d="M 69.21475 145.51682 
L 77.994623 193.76777 
" clip-path="url(#pfd3f62946f)" style="fill: none; stroke: #000000"/>
    <path d="M 140.470739 277.556583 
L 94.097529 242.471459 
" clip-path="url(#pfd3f62946f)" style="fill: none; stroke: #000000"/>
    <path d="M 140.470739 277.556583 
L 149.555254 315.609917 
" clip-path="url(#pfd3f62946f)" style="fill: none; stroke: #000000"/>
    <path d="M 97.348887 180.135547 
L 102.267291 136.632725 
" clip-path="url(#pfd3f62946f)" style="fill: none; stroke: #000000"/>
    <path d="M 97.348887 180.135547 
L 77.994623 193.76777 
" clip-path="url(#pfd3f62946f)" style="fill: none; stroke: #000000"/>
    <path d="M 97.348887 180.135547 
L 94.097529 242.471459 
" clip-path="url(#pfd3f62946f)" style="fill: none; stroke: #000000"/>
    <path d="M 97.348887 180.135547 
L 108.11681 208.597759 
" clip-path="url(#pfd3f62946f)" style="fill: none; stroke: #000000"/>
    <path d="M 77.994623 193.76777 
L 94.097529 242.471459 
" clip-path="url(#pfd3f62946f)" style="fill: none; stroke: #000000"/>
    <path d="M 77.994623 193.76777 
L 108.11681 208.597759 
" clip-path="url(#pfd3f62946f)" style="fill: none; stroke: #000000"/>
    <path d="M 94.097529 242.471459 
L 108.11681 208.597759 
" clip-path="url(#pfd3f62946f)" style="fill: none; stroke: #000000"/>
    <path d="M 94.097529 242.471459 
L 63.787082 282.917053 
" clip-path="url(#pfd3f62946f)" style="fill: none; stroke: #000000"/>
    <path d="M 94.097529 242.471459 
L 115.528058 293.336567 
" clip-path="url(#pfd3f62946f)" style="fill: none; stroke: #000000"/>
    <path d="M 94.097529 242.471459 
L 41.350812 253.333775 
" clip-path="url(#pfd3f62946f)" style="fill: none; stroke: #000000"/>
    <path d="M 385.500729 58.770937 
L 420.813223 42.070509 
" clip-path="url(#pfd3f62946f)" style="fill: none; stroke: #000000"/>
    <path d="M 385.500729 58.770937 
L 392.300426 29.990083 
" clip-path="url(#pfd3f62946f)" style="fill: none; stroke: #000000"/>
    <path d="M 420.813223 42.070509 
L 392.300426 29.990083 
" clip-path="url(#pfd3f62946f)" style="fill: none; stroke: #000000"/>
    <path d="M 115.528058 293.336567 
L 149.555254 315.609917 
" clip-path="url(#pfd3f62946f)" style="fill: none; stroke: #000000"/>
   </g>
   <g id="PathCollection_1">
    <defs>
     <path id="m099eb202c5" d="M 0 5 
C 1.326016 5 2.597899 4.473168 3.535534 3.535534 
C 4.473168 2.597899 5 1.326016 5 0 
C 5 -1.326016 4.473168 -2.597899 3.535534 -3.535534 
C 2.597899 -4.473168 1.326016 -5 0 -5 
C -1.326016 -5 -2.597899 -4.473168 -3.535534 -3.535534 
C -4.473168 -2.597899 -5 -1.326016 -5 0 
C -5 1.326016 -4.473168 2.597899 -3.535534 3.535534 
C -2.597899 4.473168 -1.326016 5 0 5 
z
" style="stroke: #1f78b4"/>
    </defs>
    <g clip-path="url(#pfd3f62946f)">
     <use xlink:href="#m099eb202c5" x="69.21475" y="145.51682" style="fill: #1f78b4; stroke: #1f78b4"/>
     <use xlink:href="#m099eb202c5" x="140.470739" y="277.556583" style="fill: #1f78b4; stroke: #1f78b4"/>
     <use xlink:href="#m099eb202c5" x="97.348887" y="180.135547" style="fill: #1f78b4; stroke: #1f78b4"/>
     <use xlink:href="#m099eb202c5" x="102.267291" y="136.632725" style="fill: #1f78b4; stroke: #1f78b4"/>
     <use xlink:href="#m099eb202c5" x="39.986777" y="105.350119" style="fill: #1f78b4; stroke: #1f78b4"/>
     <use xlink:href="#m099eb202c5" x="77.994623" y="193.76777" style="fill: #1f78b4; stroke: #1f78b4"/>
     <use xlink:href="#m099eb202c5" x="94.097529" y="242.471459" style="fill: #1f78b4; stroke: #1f78b4"/>
     <use xlink:href="#m099eb202c5" x="385.500729" y="58.770937" style="fill: #1f78b4; stroke: #1f78b4"/>
     <use xlink:href="#m099eb202c5" x="420.813223" y="42.070509" style="fill: #1f78b4; stroke: #1f78b4"/>
     <use xlink:href="#m099eb202c5" x="108.11681" y="208.597759" style="fill: #1f78b4; stroke: #1f78b4"/>
     <use xlink:href="#m099eb202c5" x="63.787082" y="282.917053" style="fill: #1f78b4; stroke: #1f78b4"/>
     <use xlink:href="#m099eb202c5" x="115.528058" y="293.336567" style="fill: #1f78b4; stroke: #1f78b4"/>
     <use xlink:href="#m099eb202c5" x="392.300426" y="29.990083" style="fill: #1f78b4; stroke: #1f78b4"/>
     <use xlink:href="#m099eb202c5" x="41.350812" y="253.333775" style="fill: #1f78b4; stroke: #1f78b4"/>
     <use xlink:href="#m099eb202c5" x="149.555254" y="315.609917" style="fill: #1f78b4; stroke: #1f78b4"/>
    </g>
   </g>
  </g>
 </g>
 <defs>
  <clipPath id="pfd3f62946f">
   <rect x="0" y="0" width="460.8" height="345.6"/>
  </clipPath>
 </defs>
</svg>
