<?xml version="1.0" encoding="utf-8" standalone="no"?>
<!DOCTYPE svg PUBLIC "-//W3C//DTD SVG 1.1//EN"
  "http://www.w3.org/Graphics/SVG/1.1/DTD/svg11.dtd">
<svg xmlns:xlink="http://www.w3.org/1999/xlink" width="460.8pt" height="345.6pt" viewBox="0 0 460.8 345.6" xmlns="http://www.w3.org/2000/svg" version="1.1">
 <metadata>
  <rdf:RDF xmlns:dc="http://purl.org/dc/elements/1.1/" xmlns:cc="http://creativecommons.org/ns#" xmlns:rdf="http://www.w3.org/1999/02/22-rdf-syntax-ns#">
   <cc:Work>
    <dc:type rdf:resource="http://purl.org/dc/dcmitype/StillImage"/>
    <dc:date>2023-11-11T21:40:28.491260</dc:date>
    <dc:format>image/svg+xml</dc:format>
    <dc:creator>
     <cc:Agent>
      <dc:title>Matplotlib v3.8.1, https://matplotlib.org/</dc:title>
     </cc:Agent>
    </dc:creator>
   </cc:Work>
  </rdf:RDF>
 </metadata>
 <defs>
  <style type="text/css">*{stroke-linejoin: round; stroke-linecap: butt}</style>
 </defs>
 <g id="figure_1">
  <g id="patch_1">
   <path d="M 0 345.6 
L 460.8 345.6 
L 460.8 0 
L 0 0 
z
" style="fill: #ffffff"/>
  </g>
  <g id="axes_1">
   <g id="LineCollection_1">
    <path d="M 151.798539 213.263688 
L 151.206175 221.035821 
" clip-path="url(#p4b0658588f)" style="fill: none; stroke: #000000"/>
    <path d="M 151.798539 213.263688 
L 126.468311 209.275828 
" clip-path="url(#p4b0658588f)" style="fill: none; stroke: #000000"/>
    <path d="M 151.798539 213.263688 
L 173.387462 223.353912 
" clip-path="url(#p4b0658588f)" style="fill: none; stroke: #000000"/>
    <path d="M 75.345836 201.918341 
L 109.791122 204.914719 
" clip-path="url(#p4b0658588f)" style="fill: none; stroke: #000000"/>
    <path d="M 75.345836 201.918341 
L 88.125213 217.818793 
" clip-path="url(#p4b0658588f)" style="fill: none; stroke: #000000"/>
    <path d="M 143.224728 255.267209 
L 121.925675 266.09334 
" clip-path="url(#p4b0658588f)" style="fill: none; stroke: #000000"/>
    <path d="M 143.224728 255.267209 
L 116.012768 254.900089 
" clip-path="url(#p4b0658588f)" style="fill: none; stroke: #000000"/>
    <path d="M 143.224728 255.267209 
L 127.935377 251.020642 
" clip-path="url(#p4b0658588f)" style="fill: none; stroke: #000000"/>
    <path d="M 143.224728 255.267209 
L 133.019513 264.475226 
" clip-path="url(#p4b0658588f)" style="fill: none; stroke: #000000"/>
    <path d="M 143.224728 255.267209 
L 173.856231 255.641224 
" clip-path="url(#p4b0658588f)" style="fill: none; stroke: #000000"/>
    <path d="M 143.224728 255.267209 
L 156.326904 263.382488 
" clip-path="url(#p4b0658588f)" style="fill: none; stroke: #000000"/>
    <path d="M 143.224728 255.267209 
L 138.491696 240.925572 
" clip-path="url(#p4b0658588f)" style="fill: none; stroke: #000000"/>
    <path d="M 369.393147 280.190216 
L 381.620463 273.121421 
" clip-path="url(#p4b0658588f)" style="fill: none; stroke: #000000"/>
    <path d="M 369.393147 280.190216 
L 326.070426 279.375256 
" clip-path="url(#p4b0658588f)" style="fill: none; stroke: #000000"/>
    <path d="M 144.14989 189.789637 
L 167.952381 218.950473 
" clip-path="url(#p4b0658588f)" style="fill: none; stroke: #000000"/>
    <path d="M 144.14989 189.789637 
L 171.792485 177.119338 
" clip-path="url(#p4b0658588f)" style="fill: none; stroke: #000000"/>
    <path d="M 144.14989 189.789637 
L 130.986504 193.70168 
" clip-path="url(#p4b0658588f)" style="fill: none; stroke: #000000"/>
    <path d="M 144.14989 189.789637 
L 151.206175 221.035821 
" clip-path="url(#p4b0658588f)" style="fill: none; stroke: #000000"/>
    <path d="M 144.14989 189.789637 
L 136.465931 223.406987 
" clip-path="url(#p4b0658588f)" style="fill: none; stroke: #000000"/>
    <path d="M 144.14989 189.789637 
L 191.693044 187.710418 
" clip-path="url(#p4b0658588f)" style="fill: none; stroke: #000000"/>
    <path d="M 144.14989 189.789637 
L 118.792191 175.99857 
" clip-path="url(#p4b0658588f)" style="fill: none; stroke: #000000"/>
    <path d="M 144.14989 189.789637 
L 109.791122 204.914719 
" clip-path="url(#p4b0658588f)" style="fill: none; stroke: #000000"/>
    <path d="M 144.14989 189.789637 
L 101.879405 175.710206 
" clip-path="url(#p4b0658588f)" style="fill: none; stroke: #000000"/>
    <path d="M 144.14989 189.789637 
L 133.240825 178.335238 
" clip-path="url(#p4b0658588f)" style="fill: none; stroke: #000000"/>
    <path d="M 144.14989 189.789637 
L 158.081968 178.381708 
" clip-path="url(#p4b0658588f)" style="fill: none; stroke: #000000"/>
    <path d="M 144.14989 189.789637 
L 109.963421 178.919776 
" clip-path="url(#p4b0658588f)" style="fill: none; stroke: #000000"/>
    <path d="M 144.14989 189.789637 
L 179.547141 178.234036 
" clip-path="url(#p4b0658588f)" style="fill: none; stroke: #000000"/>
    <path d="M 144.14989 189.789637 
L 126.468311 209.275828 
" clip-path="url(#p4b0658588f)" style="fill: none; stroke: #000000"/>
    <path d="M 144.14989 189.789637 
L 123.055406 169.414117 
" clip-path="url(#p4b0658588f)" style="fill: none; stroke: #000000"/>
    <path d="M 144.14989 189.789637 
L 187.470919 193.352124 
" clip-path="url(#p4b0658588f)" style="fill: none; stroke: #000000"/>
    <path d="M 144.14989 189.789637 
L 146.718105 166.679399 
" clip-path="url(#p4b0658588f)" style="fill: none; stroke: #000000"/>
    <path d="M 144.14989 189.789637 
L 139.962507 157.90343 
" clip-path="url(#p4b0658588f)" style="fill: none; stroke: #000000"/>
    <path d="M 121.925675 266.09334 
L 121.014003 261.305419 
" clip-path="url(#p4b0658588f)" style="fill: none; stroke: #000000"/>
    <path d="M 121.925675 266.09334 
L 107.670565 252.697398 
" clip-path="url(#p4b0658588f)" style="fill: none; stroke: #000000"/>
    <path d="M 121.925675 266.09334 
L 138.820921 278.993237 
" clip-path="url(#p4b0658588f)" style="fill: none; stroke: #000000"/>
    <path d="M 121.925675 266.09334 
L 143.067975 259.421804 
" clip-path="url(#p4b0658588f)" style="fill: none; stroke: #000000"/>
    <path d="M 121.925675 266.09334 
L 127.935377 251.020642 
" clip-path="url(#p4b0658588f)" style="fill: none; stroke: #000000"/>
    <path d="M 121.925675 266.09334 
L 133.019513 264.475226 
" clip-path="url(#p4b0658588f)" style="fill: none; stroke: #000000"/>
    <path d="M 121.925675 266.09334 
L 153.647463 278.135085 
" clip-path="url(#p4b0658588f)" style="fill: none; stroke: #000000"/>
    <path d="M 121.925675 266.09334 
L 119.842831 275.045315 
" clip-path="url(#p4b0658588f)" style="fill: none; stroke: #000000"/>
    <path d="M 121.925675 266.09334 
L 138.491696 240.925572 
" clip-path="url(#p4b0658588f)" style="fill: none; stroke: #000000"/>
    <path d="M 121.925675 266.09334 
L 138.716649 287.261915 
" clip-path="url(#p4b0658588f)" style="fill: none; stroke: #000000"/>
    <path d="M 121.925675 266.09334 
L 67.670176 255.372435 
" clip-path="url(#p4b0658588f)" style="fill: none; stroke: #000000"/>
    <path d="M 121.925675 266.09334 
L 98.909436 283.61521 
" clip-path="url(#p4b0658588f)" style="fill: none; stroke: #000000"/>
    <path d="M 66.031786 261.049093 
L 107.670565 252.697398 
" clip-path="url(#p4b0658588f)" style="fill: none; stroke: #000000"/>
    <path d="M 66.031786 261.049093 
L 63.282731 267.999326 
" clip-path="url(#p4b0658588f)" style="fill: none; stroke: #000000"/>
    <path d="M 167.952381 218.950473 
L 203.716499 200.948403 
" clip-path="url(#p4b0658588f)" style="fill: none; stroke: #000000"/>
    <path d="M 167.952381 218.950473 
L 136.465931 223.406987 
" clip-path="url(#p4b0658588f)" style="fill: none; stroke: #000000"/>
    <path d="M 167.952381 218.950473 
L 181.283438 206.68638 
" clip-path="url(#p4b0658588f)" style="fill: none; stroke: #000000"/>
    <path d="M 167.952381 218.950473 
L 192.831587 200.314425 
" clip-path="url(#p4b0658588f)" style="fill: none; stroke: #000000"/>
    <path d="M 167.952381 218.950473 
L 107.670565 252.697398 
" clip-path="url(#p4b0658588f)" style="fill: none; stroke: #000000"/>
    <path d="M 167.952381 218.950473 
L 156.326904 263.382488 
" clip-path="url(#p4b0658588f)" style="fill: none; stroke: #000000"/>
    <path d="M 167.952381 218.950473 
L 194.670891 206.070975 
" clip-path="url(#p4b0658588f)" style="fill: none; stroke: #000000"/>
    <path d="M 167.952381 218.950473 
L 166.070301 201.94864 
" clip-path="url(#p4b0658588f)" style="fill: none; stroke: #000000"/>
    <path d="M 167.952381 218.950473 
L 220.709663 209.804543 
" clip-path="url(#p4b0658588f)" style="fill: none; stroke: #000000"/>
    <path d="M 167.952381 218.950473 
L 187.470919 193.352124 
" clip-path="url(#p4b0658588f)" style="fill: none; stroke: #000000"/>
    <path d="M 248.059144 271.922251 
L 237.468358 279.4816 
" clip-path="url(#p4b0658588f)" style="fill: none; stroke: #000000"/>
    <path d="M 248.059144 271.922251 
L 287.655689 283.789414 
" clip-path="url(#p4b0658588f)" style="fill: none; stroke: #000000"/>
    <path d="M 248.059144 271.922251 
L 254.523233 282.930984 
" clip-path="url(#p4b0658588f)" style="fill: none; stroke: #000000"/>
    <path d="M 248.059144 271.922251 
L 197.412052 248.586836 
" clip-path="url(#p4b0658588f)" style="fill: none; stroke: #000000"/>
    <path d="M 248.059144 271.922251 
L 260.667238 287.430918 
" clip-path="url(#p4b0658588f)" style="fill: none; stroke: #000000"/>
    <path d="M 267.807596 297.7923 
L 270.90831 303.646335 
" clip-path="url(#p4b0658588f)" style="fill: none; stroke: #000000"/>
    <path d="M 267.807596 297.7923 
L 254.523233 282.930984 
" clip-path="url(#p4b0658588f)" style="fill: none; stroke: #000000"/>
    <path d="M 267.807596 297.7923 
L 260.667238 287.430918 
" clip-path="url(#p4b0658588f)" style="fill: none; stroke: #000000"/>
    <path d="M 203.716499 200.948403 
L 191.693044 187.710418 
" clip-path="url(#p4b0658588f)" style="fill: none; stroke: #000000"/>
    <path d="M 203.716499 200.948403 
L 192.831587 200.314425 
" clip-path="url(#p4b0658588f)" style="fill: none; stroke: #000000"/>
    <path d="M 203.716499 200.948403 
L 216.612385 192.157278 
" clip-path="url(#p4b0658588f)" style="fill: none; stroke: #000000"/>
    <path d="M 203.716499 200.948403 
L 220.709663 209.804543 
" clip-path="url(#p4b0658588f)" style="fill: none; stroke: #000000"/>
    <path d="M 203.716499 200.948403 
L 187.470919 193.352124 
" clip-path="url(#p4b0658588f)" style="fill: none; stroke: #000000"/>
    <path d="M 354.776776 36.501155 
L 362.636527 30.13256 
" clip-path="url(#p4b0658588f)" style="fill: none; stroke: #000000"/>
    <path d="M 354.776776 36.501155 
L 346.241281 29.990083 
" clip-path="url(#p4b0658588f)" style="fill: none; stroke: #000000"/>
    <path d="M 171.792485 177.119338 
L 179.547141 178.234036 
" clip-path="url(#p4b0658588f)" style="fill: none; stroke: #000000"/>
    <path d="M 171.792485 177.119338 
L 187.470919 193.352124 
" clip-path="url(#p4b0658588f)" style="fill: none; stroke: #000000"/>
    <path d="M 130.986504 193.70168 
L 151.206175 221.035821 
" clip-path="url(#p4b0658588f)" style="fill: none; stroke: #000000"/>
    <path d="M 130.986504 193.70168 
L 133.240825 178.335238 
" clip-path="url(#p4b0658588f)" style="fill: none; stroke: #000000"/>
    <path d="M 130.986504 193.70168 
L 109.963421 178.919776 
" clip-path="url(#p4b0658588f)" style="fill: none; stroke: #000000"/>
    <path d="M 270.90831 303.646335 
L 254.523233 282.930984 
" clip-path="url(#p4b0658588f)" style="fill: none; stroke: #000000"/>
    <path d="M 225.204912 245.079683 
L 173.856231 255.641224 
" clip-path="url(#p4b0658588f)" style="fill: none; stroke: #000000"/>
    <path d="M 225.204912 245.079683 
L 255.252779 231.932101 
" clip-path="url(#p4b0658588f)" style="fill: none; stroke: #000000"/>
    <path d="M 151.206175 221.035821 
L 143.067975 259.421804 
" clip-path="url(#p4b0658588f)" style="fill: none; stroke: #000000"/>
    <path d="M 151.206175 221.035821 
L 138.491696 240.925572 
" clip-path="url(#p4b0658588f)" style="fill: none; stroke: #000000"/>
    <path d="M 151.206175 221.035821 
L 98.846294 232.564005 
" clip-path="url(#p4b0658588f)" style="fill: none; stroke: #000000"/>
    <path d="M 151.206175 221.035821 
L 126.468311 209.275828 
" clip-path="url(#p4b0658588f)" style="fill: none; stroke: #000000"/>
    <path d="M 151.206175 221.035821 
L 220.709663 209.804543 
" clip-path="url(#p4b0658588f)" style="fill: none; stroke: #000000"/>
    <path d="M 151.206175 221.035821 
L 184.673375 230.889139 
" clip-path="url(#p4b0658588f)" style="fill: none; stroke: #000000"/>
    <path d="M 151.206175 221.035821 
L 173.387462 223.353912 
" clip-path="url(#p4b0658588f)" style="fill: none; stroke: #000000"/>
    <path d="M 136.465931 223.406987 
L 109.791122 204.914719 
" clip-path="url(#p4b0658588f)" style="fill: none; stroke: #000000"/>
    <path d="M 136.465931 223.406987 
L 197.412052 248.586836 
" clip-path="url(#p4b0658588f)" style="fill: none; stroke: #000000"/>
    <path d="M 136.465931 223.406987 
L 138.491696 240.925572 
" clip-path="url(#p4b0658588f)" style="fill: none; stroke: #000000"/>
    <path d="M 136.465931 223.406987 
L 104.657318 249.077331 
" clip-path="url(#p4b0658588f)" style="fill: none; stroke: #000000"/>
    <path d="M 136.465931 223.406987 
L 126.468311 209.275828 
" clip-path="url(#p4b0658588f)" style="fill: none; stroke: #000000"/>
    <path d="M 136.465931 223.406987 
L 88.125213 217.818793 
" clip-path="url(#p4b0658588f)" style="fill: none; stroke: #000000"/>
    <path d="M 121.014003 261.305419 
L 116.012768 254.900089 
" clip-path="url(#p4b0658588f)" style="fill: none; stroke: #000000"/>
    <path d="M 121.014003 261.305419 
L 107.670565 252.697398 
" clip-path="url(#p4b0658588f)" style="fill: none; stroke: #000000"/>
    <path d="M 121.014003 261.305419 
L 127.935377 251.020642 
" clip-path="url(#p4b0658588f)" style="fill: none; stroke: #000000"/>
    <path d="M 121.014003 261.305419 
L 133.019513 264.475226 
" clip-path="url(#p4b0658588f)" style="fill: none; stroke: #000000"/>
    <path d="M 121.014003 261.305419 
L 156.326904 263.382488 
" clip-path="url(#p4b0658588f)" style="fill: none; stroke: #000000"/>
    <path d="M 121.014003 261.305419 
L 119.842831 275.045315 
" clip-path="url(#p4b0658588f)" style="fill: none; stroke: #000000"/>
    <path d="M 121.014003 261.305419 
L 87.914503 257.178629 
" clip-path="url(#p4b0658588f)" style="fill: none; stroke: #000000"/>
    <path d="M 102.529921 292.138456 
L 138.820921 278.993237 
" clip-path="url(#p4b0658588f)" style="fill: none; stroke: #000000"/>
    <path d="M 102.529921 292.138456 
L 98.909436 283.61521 
" clip-path="url(#p4b0658588f)" style="fill: none; stroke: #000000"/>
    <path d="M 75.367327 306.643277 
L 76.44079 281.283261 
" clip-path="url(#p4b0658588f)" style="fill: none; stroke: #000000"/>
    <path d="M 132.027952 291.620538 
L 128.951767 315.609917 
" clip-path="url(#p4b0658588f)" style="fill: none; stroke: #000000"/>
    <path d="M 132.027952 291.620538 
L 95.991747 302.206195 
" clip-path="url(#p4b0658588f)" style="fill: none; stroke: #000000"/>
    <path d="M 132.027952 291.620538 
L 138.820921 278.993237 
" clip-path="url(#p4b0658588f)" style="fill: none; stroke: #000000"/>
    <path d="M 132.027952 291.620538 
L 143.067975 259.421804 
" clip-path="url(#p4b0658588f)" style="fill: none; stroke: #000000"/>
    <path d="M 132.027952 291.620538 
L 153.647463 278.135085 
" clip-path="url(#p4b0658588f)" style="fill: none; stroke: #000000"/>
    <path d="M 191.693044 187.710418 
L 192.831587 200.314425 
" clip-path="url(#p4b0658588f)" style="fill: none; stroke: #000000"/>
    <path d="M 191.693044 187.710418 
L 216.612385 192.157278 
" clip-path="url(#p4b0658588f)" style="fill: none; stroke: #000000"/>
    <path d="M 118.792191 175.99857 
L 101.879405 175.710206 
" clip-path="url(#p4b0658588f)" style="fill: none; stroke: #000000"/>
    <path d="M 420.813223 265.325706 
L 381.620463 273.121421 
" clip-path="url(#p4b0658588f)" style="fill: none; stroke: #000000"/>
    <path d="M 313.305881 295.425942 
L 321.764566 302.961018 
" clip-path="url(#p4b0658588f)" style="fill: none; stroke: #000000"/>
    <path d="M 313.305881 295.425942 
L 326.674264 295.14295 
" clip-path="url(#p4b0658588f)" style="fill: none; stroke: #000000"/>
    <path d="M 313.305881 295.425942 
L 287.655689 283.789414 
" clip-path="url(#p4b0658588f)" style="fill: none; stroke: #000000"/>
    <path d="M 313.305881 295.425942 
L 285.890951 291.047442 
" clip-path="url(#p4b0658588f)" style="fill: none; stroke: #000000"/>
    <path d="M 51.46891 216.585851 
L 78.036892 237.983874 
" clip-path="url(#p4b0658588f)" style="fill: none; stroke: #000000"/>
    <path d="M 321.764566 302.961018 
L 326.674264 295.14295 
" clip-path="url(#p4b0658588f)" style="fill: none; stroke: #000000"/>
    <path d="M 321.764566 302.961018 
L 285.890951 291.047442 
" clip-path="url(#p4b0658588f)" style="fill: none; stroke: #000000"/>
    <path d="M 326.674264 295.14295 
L 287.655689 283.789414 
" clip-path="url(#p4b0658588f)" style="fill: none; stroke: #000000"/>
    <path d="M 237.468358 279.4816 
L 287.655689 283.789414 
" clip-path="url(#p4b0658588f)" style="fill: none; stroke: #000000"/>
    <path d="M 237.468358 279.4816 
L 254.523233 282.930984 
" clip-path="url(#p4b0658588f)" style="fill: none; stroke: #000000"/>
    <path d="M 237.468358 279.4816 
L 156.326904 263.382488 
" clip-path="url(#p4b0658588f)" style="fill: none; stroke: #000000"/>
    <path d="M 237.468358 279.4816 
L 285.890951 291.047442 
" clip-path="url(#p4b0658588f)" style="fill: none; stroke: #000000"/>
    <path d="M 237.468358 279.4816 
L 260.667238 287.430918 
" clip-path="url(#p4b0658588f)" style="fill: none; stroke: #000000"/>
    <path d="M 116.012768 254.900089 
L 77.436462 268.429411 
" clip-path="url(#p4b0658588f)" style="fill: none; stroke: #000000"/>
    <path d="M 116.012768 254.900089 
L 107.670565 252.697398 
" clip-path="url(#p4b0658588f)" style="fill: none; stroke: #000000"/>
    <path d="M 116.012768 254.900089 
L 133.019513 264.475226 
" clip-path="url(#p4b0658588f)" style="fill: none; stroke: #000000"/>
    <path d="M 116.012768 254.900089 
L 173.856231 255.641224 
" clip-path="url(#p4b0658588f)" style="fill: none; stroke: #000000"/>
    <path d="M 116.012768 254.900089 
L 156.326904 263.382488 
" clip-path="url(#p4b0658588f)" style="fill: none; stroke: #000000"/>
    <path d="M 116.012768 254.900089 
L 87.914503 257.178629 
" clip-path="url(#p4b0658588f)" style="fill: none; stroke: #000000"/>
    <path d="M 116.012768 254.900089 
L 82.555046 246.644675 
" clip-path="url(#p4b0658588f)" style="fill: none; stroke: #000000"/>
    <path d="M 116.012768 254.900089 
L 78.036892 237.983874 
" clip-path="url(#p4b0658588f)" style="fill: none; stroke: #000000"/>
    <path d="M 95.991747 302.206195 
L 98.909436 283.61521 
" clip-path="url(#p4b0658588f)" style="fill: none; stroke: #000000"/>
    <path d="M 46.919454 250.969755 
L 104.657318 249.077331 
" clip-path="url(#p4b0658588f)" style="fill: none; stroke: #000000"/>
    <path d="M 109.791122 204.914719 
L 126.468311 209.275828 
" clip-path="url(#p4b0658588f)" style="fill: none; stroke: #000000"/>
    <path d="M 109.791122 204.914719 
L 88.125213 217.818793 
" clip-path="url(#p4b0658588f)" style="fill: none; stroke: #000000"/>
    <path d="M 266.011643 205.364479 
L 220.709663 209.804543 
" clip-path="url(#p4b0658588f)" style="fill: none; stroke: #000000"/>
    <path d="M 287.655689 283.789414 
L 254.523233 282.930984 
" clip-path="url(#p4b0658588f)" style="fill: none; stroke: #000000"/>
    <path d="M 287.655689 283.789414 
L 326.070426 279.375256 
" clip-path="url(#p4b0658588f)" style="fill: none; stroke: #000000"/>
    <path d="M 287.655689 283.789414 
L 285.890951 291.047442 
" clip-path="url(#p4b0658588f)" style="fill: none; stroke: #000000"/>
    <path d="M 77.436462 268.429411 
L 98.909436 283.61521 
" clip-path="url(#p4b0658588f)" style="fill: none; stroke: #000000"/>
    <path d="M 319.882454 208.666733 
L 352.770362 193.67059 
" clip-path="url(#p4b0658588f)" style="fill: none; stroke: #000000"/>
    <path d="M 319.882454 208.666733 
L 255.252779 231.932101 
" clip-path="url(#p4b0658588f)" style="fill: none; stroke: #000000"/>
    <path d="M 319.882454 208.666733 
L 361.032127 199.183242 
" clip-path="url(#p4b0658588f)" style="fill: none; stroke: #000000"/>
    <path d="M 84.882922 291.108102 
L 94.252028 297.062841 
" clip-path="url(#p4b0658588f)" style="fill: none; stroke: #000000"/>
    <path d="M 84.882922 291.108102 
L 117.788904 286.164724 
" clip-path="url(#p4b0658588f)" style="fill: none; stroke: #000000"/>
    <path d="M 84.882922 291.108102 
L 108.056038 277.870887 
" clip-path="url(#p4b0658588f)" style="fill: none; stroke: #000000"/>
    <path d="M 84.882922 291.108102 
L 83.638916 275.736806 
" clip-path="url(#p4b0658588f)" style="fill: none; stroke: #000000"/>
    <path d="M 101.879405 175.710206 
L 76.467814 173.445712 
" clip-path="url(#p4b0658588f)" style="fill: none; stroke: #000000"/>
    <path d="M 381.620463 273.121421 
L 326.070426 279.375256 
" clip-path="url(#p4b0658588f)" style="fill: none; stroke: #000000"/>
    <path d="M 107.670565 252.697398 
L 76.44079 281.283261 
" clip-path="url(#p4b0658588f)" style="fill: none; stroke: #000000"/>
    <path d="M 107.670565 252.697398 
L 143.067975 259.421804 
" clip-path="url(#p4b0658588f)" style="fill: none; stroke: #000000"/>
    <path d="M 107.670565 252.697398 
L 133.019513 264.475226 
" clip-path="url(#p4b0658588f)" style="fill: none; stroke: #000000"/>
    <path d="M 107.670565 252.697398 
L 173.856231 255.641224 
" clip-path="url(#p4b0658588f)" style="fill: none; stroke: #000000"/>
    <path d="M 107.670565 252.697398 
L 156.326904 263.382488 
" clip-path="url(#p4b0658588f)" style="fill: none; stroke: #000000"/>
    <path d="M 107.670565 252.697398 
L 63.282731 267.999326 
" clip-path="url(#p4b0658588f)" style="fill: none; stroke: #000000"/>
    <path d="M 107.670565 252.697398 
L 56.938307 246.772109 
" clip-path="url(#p4b0658588f)" style="fill: none; stroke: #000000"/>
    <path d="M 107.670565 252.697398 
L 104.657318 249.077331 
" clip-path="url(#p4b0658588f)" style="fill: none; stroke: #000000"/>
    <path d="M 107.670565 252.697398 
L 108.056038 277.870887 
" clip-path="url(#p4b0658588f)" style="fill: none; stroke: #000000"/>
    <path d="M 107.670565 252.697398 
L 98.846294 232.564005 
" clip-path="url(#p4b0658588f)" style="fill: none; stroke: #000000"/>
    <path d="M 107.670565 252.697398 
L 83.638916 275.736806 
" clip-path="url(#p4b0658588f)" style="fill: none; stroke: #000000"/>
    <path d="M 107.670565 252.697398 
L 113.98437 260.40504 
" clip-path="url(#p4b0658588f)" style="fill: none; stroke: #000000"/>
    <path d="M 107.670565 252.697398 
L 88.125213 217.818793 
" clip-path="url(#p4b0658588f)" style="fill: none; stroke: #000000"/>
    <path d="M 107.670565 252.697398 
L 82.555046 246.644675 
" clip-path="url(#p4b0658588f)" style="fill: none; stroke: #000000"/>
    <path d="M 107.670565 252.697398 
L 78.036892 237.983874 
" clip-path="url(#p4b0658588f)" style="fill: none; stroke: #000000"/>
    <path d="M 153.496893 294.11033 
L 138.820921 278.993237 
" clip-path="url(#p4b0658588f)" style="fill: none; stroke: #000000"/>
    <path d="M 153.496893 294.11033 
L 153.647463 278.135085 
" clip-path="url(#p4b0658588f)" style="fill: none; stroke: #000000"/>
    <path d="M 153.496893 294.11033 
L 138.716649 287.261915 
" clip-path="url(#p4b0658588f)" style="fill: none; stroke: #000000"/>
    <path d="M 76.467814 173.445712 
L 109.963421 178.919776 
" clip-path="url(#p4b0658588f)" style="fill: none; stroke: #000000"/>
    <path d="M 136.671435 136.57821 
L 139.962507 157.90343 
" clip-path="url(#p4b0658588f)" style="fill: none; stroke: #000000"/>
    <path d="M 138.820921 278.993237 
L 133.019513 264.475226 
" clip-path="url(#p4b0658588f)" style="fill: none; stroke: #000000"/>
    <path d="M 138.820921 278.993237 
L 173.856231 255.641224 
" clip-path="url(#p4b0658588f)" style="fill: none; stroke: #000000"/>
    <path d="M 138.820921 278.993237 
L 153.647463 278.135085 
" clip-path="url(#p4b0658588f)" style="fill: none; stroke: #000000"/>
    <path d="M 138.820921 278.993237 
L 172.128443 274.353109 
" clip-path="url(#p4b0658588f)" style="fill: none; stroke: #000000"/>
    <path d="M 138.820921 278.993237 
L 138.716649 287.261915 
" clip-path="url(#p4b0658588f)" style="fill: none; stroke: #000000"/>
    <path d="M 138.820921 278.993237 
L 98.909436 283.61521 
" clip-path="url(#p4b0658588f)" style="fill: none; stroke: #000000"/>
    <path d="M 254.523233 282.930984 
L 326.070426 279.375256 
" clip-path="url(#p4b0658588f)" style="fill: none; stroke: #000000"/>
    <path d="M 254.523233 282.930984 
L 156.326904 263.382488 
" clip-path="url(#p4b0658588f)" style="fill: none; stroke: #000000"/>
    <path d="M 254.523233 282.930984 
L 285.120041 298.868968 
" clip-path="url(#p4b0658588f)" style="fill: none; stroke: #000000"/>
    <path d="M 254.523233 282.930984 
L 285.890951 291.047442 
" clip-path="url(#p4b0658588f)" style="fill: none; stroke: #000000"/>
    <path d="M 254.523233 282.930984 
L 260.667238 287.430918 
" clip-path="url(#p4b0658588f)" style="fill: none; stroke: #000000"/>
    <path d="M 76.44079 281.283261 
L 63.282731 267.999326 
" clip-path="url(#p4b0658588f)" style="fill: none; stroke: #000000"/>
    <path d="M 143.067975 259.421804 
L 127.935377 251.020642 
" clip-path="url(#p4b0658588f)" style="fill: none; stroke: #000000"/>
    <path d="M 143.067975 259.421804 
L 170.612476 279.515973 
" clip-path="url(#p4b0658588f)" style="fill: none; stroke: #000000"/>
    <path d="M 94.125932 268.400977 
L 156.326904 263.382488 
" clip-path="url(#p4b0658588f)" style="fill: none; stroke: #000000"/>
    <path d="M 94.125932 268.400977 
L 43.426662 280.30064 
" clip-path="url(#p4b0658588f)" style="fill: none; stroke: #000000"/>
    <path d="M 94.125932 268.400977 
L 104.657318 249.077331 
" clip-path="url(#p4b0658588f)" style="fill: none; stroke: #000000"/>
    <path d="M 94.252028 297.062841 
L 117.788904 286.164724 
" clip-path="url(#p4b0658588f)" style="fill: none; stroke: #000000"/>
    <path d="M 94.252028 297.062841 
L 108.056038 277.870887 
" clip-path="url(#p4b0658588f)" style="fill: none; stroke: #000000"/>
    <path d="M 127.935377 251.020642 
L 114.909635 234.454038 
" clip-path="url(#p4b0658588f)" style="fill: none; stroke: #000000"/>
    <path d="M 197.412052 248.586836 
L 197.055885 262.524095 
" clip-path="url(#p4b0658588f)" style="fill: none; stroke: #000000"/>
    <path d="M 133.019513 264.475226 
L 156.326904 263.382488 
" clip-path="url(#p4b0658588f)" style="fill: none; stroke: #000000"/>
    <path d="M 46.310877 204.239657 
L 39.986777 208.765521 
" clip-path="url(#p4b0658588f)" style="fill: none; stroke: #000000"/>
    <path d="M 46.310877 204.239657 
L 88.125213 217.818793 
" clip-path="url(#p4b0658588f)" style="fill: none; stroke: #000000"/>
    <path d="M 173.856231 255.641224 
L 153.647463 278.135085 
" clip-path="url(#p4b0658588f)" style="fill: none; stroke: #000000"/>
    <path d="M 173.856231 255.641224 
L 172.128443 274.353109 
" clip-path="url(#p4b0658588f)" style="fill: none; stroke: #000000"/>
    <path d="M 173.856231 255.641224 
L 255.252779 231.932101 
" clip-path="url(#p4b0658588f)" style="fill: none; stroke: #000000"/>
    <path d="M 117.788904 286.164724 
L 156.326904 263.382488 
" clip-path="url(#p4b0658588f)" style="fill: none; stroke: #000000"/>
    <path d="M 117.788904 286.164724 
L 108.056038 277.870887 
" clip-path="url(#p4b0658588f)" style="fill: none; stroke: #000000"/>
    <path d="M 53.331063 238.988464 
L 56.938307 246.772109 
" clip-path="url(#p4b0658588f)" style="fill: none; stroke: #000000"/>
    <path d="M 53.331063 238.988464 
L 98.846294 232.564005 
" clip-path="url(#p4b0658588f)" style="fill: none; stroke: #000000"/>
    <path d="M 53.331063 238.988464 
L 67.670176 255.372435 
" clip-path="url(#p4b0658588f)" style="fill: none; stroke: #000000"/>
    <path d="M 362.636527 30.13256 
L 346.241281 29.990083 
" clip-path="url(#p4b0658588f)" style="fill: none; stroke: #000000"/>
    <path d="M 216.612385 192.157278 
L 220.709663 209.804543 
" clip-path="url(#p4b0658588f)" style="fill: none; stroke: #000000"/>
    <path d="M 216.612385 192.157278 
L 187.470919 193.352124 
" clip-path="url(#p4b0658588f)" style="fill: none; stroke: #000000"/>
    <path d="M 153.647463 278.135085 
L 172.128443 274.353109 
" clip-path="url(#p4b0658588f)" style="fill: none; stroke: #000000"/>
    <path d="M 156.326904 263.382488 
L 104.657318 249.077331 
" clip-path="url(#p4b0658588f)" style="fill: none; stroke: #000000"/>
    <path d="M 156.326904 263.382488 
L 108.056038 277.870887 
" clip-path="url(#p4b0658588f)" style="fill: none; stroke: #000000"/>
    <path d="M 156.326904 263.382488 
L 197.055885 262.524095 
" clip-path="url(#p4b0658588f)" style="fill: none; stroke: #000000"/>
    <path d="M 156.326904 263.382488 
L 113.98437 260.40504 
" clip-path="url(#p4b0658588f)" style="fill: none; stroke: #000000"/>
    <path d="M 104.657318 249.077331 
L 113.98437 260.40504 
" clip-path="url(#p4b0658588f)" style="fill: none; stroke: #000000"/>
    <path d="M 108.056038 277.870887 
L 83.638916 275.736806 
" clip-path="url(#p4b0658588f)" style="fill: none; stroke: #000000"/>
    <path d="M 255.252779 231.932101 
L 297.576307 219.955559 
" clip-path="url(#p4b0658588f)" style="fill: none; stroke: #000000"/>
    <path d="M 39.986777 208.765521 
L 88.125213 217.818793 
" clip-path="url(#p4b0658588f)" style="fill: none; stroke: #000000"/>
    <path d="M 109.963421 178.919776 
L 123.055406 169.414117 
" clip-path="url(#p4b0658588f)" style="fill: none; stroke: #000000"/>
    <path d="M 194.670891 206.070975 
L 187.470919 193.352124 
" clip-path="url(#p4b0658588f)" style="fill: none; stroke: #000000"/>
    <path d="M 179.547141 178.234036 
L 187.470919 193.352124 
" clip-path="url(#p4b0658588f)" style="fill: none; stroke: #000000"/>
    <path d="M 126.468311 209.275828 
L 88.125213 217.818793 
" clip-path="url(#p4b0658588f)" style="fill: none; stroke: #000000"/>
    <path d="M 220.709663 209.804543 
L 264.708495 216.161525 
" clip-path="url(#p4b0658588f)" style="fill: none; stroke: #000000"/>
    <path d="M 220.709663 209.804543 
L 268.210103 211.664754 
" clip-path="url(#p4b0658588f)" style="fill: none; stroke: #000000"/>
    <path d="M 220.709663 209.804543 
L 230.139422 193.281094 
" clip-path="url(#p4b0658588f)" style="fill: none; stroke: #000000"/>
    <path d="M 264.708495 216.161525 
L 268.210103 211.664754 
" clip-path="url(#p4b0658588f)" style="fill: none; stroke: #000000"/>
    <path d="M 187.470919 193.352124 
L 230.139422 193.281094 
" clip-path="url(#p4b0658588f)" style="fill: none; stroke: #000000"/>
    <path d="M 82.555046 246.644675 
L 78.036892 237.983874 
" clip-path="url(#p4b0658588f)" style="fill: none; stroke: #000000"/>
   </g>
   <g id="PathCollection_1">
    <defs>
     <path id="m52ce7858de" d="M 0 2.5 
C 0.663008 2.5 1.29895 2.236584 1.767767 1.767767 
C 2.236584 1.29895 2.5 0.663008 2.5 0 
C 2.5 -0.663008 2.236584 -1.29895 1.767767 -1.767767 
C 1.29895 -2.236584 0.663008 -2.5 0 -2.5 
C -0.663008 -2.5 -1.29895 -2.236584 -1.767767 -1.767767 
C -2.236584 -1.29895 -2.5 -0.663008 -2.5 0 
C -2.5 0.663008 -2.236584 1.29895 -1.767767 1.767767 
C -1.29895 2.236584 -0.663008 2.5 0 2.5 
z
" style="stroke: #1f78b4"/>
    </defs>
    <g clip-path="url(#p4b0658588f)">
     <use xlink:href="#m52ce7858de" x="151.798539" y="213.263688" style="fill: #1f78b4; stroke: #1f78b4"/>
     <use xlink:href="#m52ce7858de" x="75.345836" y="201.918341" style="fill: #1f78b4; stroke: #1f78b4"/>
     <use xlink:href="#m52ce7858de" x="143.224728" y="255.267209" style="fill: #1f78b4; stroke: #1f78b4"/>
     <use xlink:href="#m52ce7858de" x="369.393147" y="280.190216" style="fill: #1f78b4; stroke: #1f78b4"/>
     <use xlink:href="#m52ce7858de" x="144.14989" y="189.789637" style="fill: #1f78b4; stroke: #1f78b4"/>
     <use xlink:href="#m52ce7858de" x="121.925675" y="266.09334" style="fill: #1f78b4; stroke: #1f78b4"/>
     <use xlink:href="#m52ce7858de" x="66.031786" y="261.049093" style="fill: #1f78b4; stroke: #1f78b4"/>
     <use xlink:href="#m52ce7858de" x="167.952381" y="218.950473" style="fill: #1f78b4; stroke: #1f78b4"/>
     <use xlink:href="#m52ce7858de" x="248.059144" y="271.922251" style="fill: #1f78b4; stroke: #1f78b4"/>
     <use xlink:href="#m52ce7858de" x="267.807596" y="297.7923" style="fill: #1f78b4; stroke: #1f78b4"/>
     <use xlink:href="#m52ce7858de" x="203.716499" y="200.948403" style="fill: #1f78b4; stroke: #1f78b4"/>
     <use xlink:href="#m52ce7858de" x="354.776776" y="36.501155" style="fill: #1f78b4; stroke: #1f78b4"/>
     <use xlink:href="#m52ce7858de" x="171.792485" y="177.119338" style="fill: #1f78b4; stroke: #1f78b4"/>
     <use xlink:href="#m52ce7858de" x="130.986504" y="193.70168" style="fill: #1f78b4; stroke: #1f78b4"/>
     <use xlink:href="#m52ce7858de" x="270.90831" y="303.646335" style="fill: #1f78b4; stroke: #1f78b4"/>
     <use xlink:href="#m52ce7858de" x="225.204912" y="245.079683" style="fill: #1f78b4; stroke: #1f78b4"/>
     <use xlink:href="#m52ce7858de" x="151.206175" y="221.035821" style="fill: #1f78b4; stroke: #1f78b4"/>
     <use xlink:href="#m52ce7858de" x="136.465931" y="223.406987" style="fill: #1f78b4; stroke: #1f78b4"/>
     <use xlink:href="#m52ce7858de" x="121.014003" y="261.305419" style="fill: #1f78b4; stroke: #1f78b4"/>
     <use xlink:href="#m52ce7858de" x="102.529921" y="292.138456" style="fill: #1f78b4; stroke: #1f78b4"/>
     <use xlink:href="#m52ce7858de" x="75.367327" y="306.643277" style="fill: #1f78b4; stroke: #1f78b4"/>
     <use xlink:href="#m52ce7858de" x="132.027952" y="291.620538" style="fill: #1f78b4; stroke: #1f78b4"/>
     <use xlink:href="#m52ce7858de" x="191.693044" y="187.710418" style="fill: #1f78b4; stroke: #1f78b4"/>
     <use xlink:href="#m52ce7858de" x="118.792191" y="175.99857" style="fill: #1f78b4; stroke: #1f78b4"/>
     <use xlink:href="#m52ce7858de" x="420.813223" y="265.325706" style="fill: #1f78b4; stroke: #1f78b4"/>
     <use xlink:href="#m52ce7858de" x="313.305881" y="295.425942" style="fill: #1f78b4; stroke: #1f78b4"/>
     <use xlink:href="#m52ce7858de" x="51.46891" y="216.585851" style="fill: #1f78b4; stroke: #1f78b4"/>
     <use xlink:href="#m52ce7858de" x="128.951767" y="315.609917" style="fill: #1f78b4; stroke: #1f78b4"/>
     <use xlink:href="#m52ce7858de" x="321.764566" y="302.961018" style="fill: #1f78b4; stroke: #1f78b4"/>
     <use xlink:href="#m52ce7858de" x="326.674264" y="295.14295" style="fill: #1f78b4; stroke: #1f78b4"/>
     <use xlink:href="#m52ce7858de" x="181.283438" y="206.68638" style="fill: #1f78b4; stroke: #1f78b4"/>
     <use xlink:href="#m52ce7858de" x="237.468358" y="279.4816" style="fill: #1f78b4; stroke: #1f78b4"/>
     <use xlink:href="#m52ce7858de" x="116.012768" y="254.900089" style="fill: #1f78b4; stroke: #1f78b4"/>
     <use xlink:href="#m52ce7858de" x="192.831587" y="200.314425" style="fill: #1f78b4; stroke: #1f78b4"/>
     <use xlink:href="#m52ce7858de" x="95.991747" y="302.206195" style="fill: #1f78b4; stroke: #1f78b4"/>
     <use xlink:href="#m52ce7858de" x="46.919454" y="250.969755" style="fill: #1f78b4; stroke: #1f78b4"/>
     <use xlink:href="#m52ce7858de" x="109.791122" y="204.914719" style="fill: #1f78b4; stroke: #1f78b4"/>
     <use xlink:href="#m52ce7858de" x="266.011643" y="205.364479" style="fill: #1f78b4; stroke: #1f78b4"/>
     <use xlink:href="#m52ce7858de" x="287.655689" y="283.789414" style="fill: #1f78b4; stroke: #1f78b4"/>
     <use xlink:href="#m52ce7858de" x="77.436462" y="268.429411" style="fill: #1f78b4; stroke: #1f78b4"/>
     <use xlink:href="#m52ce7858de" x="319.882454" y="208.666733" style="fill: #1f78b4; stroke: #1f78b4"/>
     <use xlink:href="#m52ce7858de" x="84.882922" y="291.108102" style="fill: #1f78b4; stroke: #1f78b4"/>
     <use xlink:href="#m52ce7858de" x="101.879405" y="175.710206" style="fill: #1f78b4; stroke: #1f78b4"/>
     <use xlink:href="#m52ce7858de" x="381.620463" y="273.121421" style="fill: #1f78b4; stroke: #1f78b4"/>
     <use xlink:href="#m52ce7858de" x="107.670565" y="252.697398" style="fill: #1f78b4; stroke: #1f78b4"/>
     <use xlink:href="#m52ce7858de" x="153.496893" y="294.11033" style="fill: #1f78b4; stroke: #1f78b4"/>
     <use xlink:href="#m52ce7858de" x="76.467814" y="173.445712" style="fill: #1f78b4; stroke: #1f78b4"/>
     <use xlink:href="#m52ce7858de" x="136.671435" y="136.57821" style="fill: #1f78b4; stroke: #1f78b4"/>
     <use xlink:href="#m52ce7858de" x="138.820921" y="278.993237" style="fill: #1f78b4; stroke: #1f78b4"/>
     <use xlink:href="#m52ce7858de" x="254.523233" y="282.930984" style="fill: #1f78b4; stroke: #1f78b4"/>
     <use xlink:href="#m52ce7858de" x="76.44079" y="281.283261" style="fill: #1f78b4; stroke: #1f78b4"/>
     <use xlink:href="#m52ce7858de" x="143.067975" y="259.421804" style="fill: #1f78b4; stroke: #1f78b4"/>
     <use xlink:href="#m52ce7858de" x="94.125932" y="268.400977" style="fill: #1f78b4; stroke: #1f78b4"/>
     <use xlink:href="#m52ce7858de" x="133.240825" y="178.335238" style="fill: #1f78b4; stroke: #1f78b4"/>
     <use xlink:href="#m52ce7858de" x="158.081968" y="178.381708" style="fill: #1f78b4; stroke: #1f78b4"/>
     <use xlink:href="#m52ce7858de" x="326.070426" y="279.375256" style="fill: #1f78b4; stroke: #1f78b4"/>
     <use xlink:href="#m52ce7858de" x="94.252028" y="297.062841" style="fill: #1f78b4; stroke: #1f78b4"/>
     <use xlink:href="#m52ce7858de" x="127.935377" y="251.020642" style="fill: #1f78b4; stroke: #1f78b4"/>
     <use xlink:href="#m52ce7858de" x="197.412052" y="248.586836" style="fill: #1f78b4; stroke: #1f78b4"/>
     <use xlink:href="#m52ce7858de" x="133.019513" y="264.475226" style="fill: #1f78b4; stroke: #1f78b4"/>
     <use xlink:href="#m52ce7858de" x="46.310877" y="204.239657" style="fill: #1f78b4; stroke: #1f78b4"/>
     <use xlink:href="#m52ce7858de" x="173.856231" y="255.641224" style="fill: #1f78b4; stroke: #1f78b4"/>
     <use xlink:href="#m52ce7858de" x="117.788904" y="286.164724" style="fill: #1f78b4; stroke: #1f78b4"/>
     <use xlink:href="#m52ce7858de" x="53.331063" y="238.988464" style="fill: #1f78b4; stroke: #1f78b4"/>
     <use xlink:href="#m52ce7858de" x="362.636527" y="30.13256" style="fill: #1f78b4; stroke: #1f78b4"/>
     <use xlink:href="#m52ce7858de" x="216.612385" y="192.157278" style="fill: #1f78b4; stroke: #1f78b4"/>
     <use xlink:href="#m52ce7858de" x="153.647463" y="278.135085" style="fill: #1f78b4; stroke: #1f78b4"/>
     <use xlink:href="#m52ce7858de" x="156.326904" y="263.382488" style="fill: #1f78b4; stroke: #1f78b4"/>
     <use xlink:href="#m52ce7858de" x="170.612476" y="279.515973" style="fill: #1f78b4; stroke: #1f78b4"/>
     <use xlink:href="#m52ce7858de" x="63.282731" y="267.999326" style="fill: #1f78b4; stroke: #1f78b4"/>
     <use xlink:href="#m52ce7858de" x="56.938307" y="246.772109" style="fill: #1f78b4; stroke: #1f78b4"/>
     <use xlink:href="#m52ce7858de" x="119.842831" y="275.045315" style="fill: #1f78b4; stroke: #1f78b4"/>
     <use xlink:href="#m52ce7858de" x="172.128443" y="274.353109" style="fill: #1f78b4; stroke: #1f78b4"/>
     <use xlink:href="#m52ce7858de" x="43.426662" y="280.30064" style="fill: #1f78b4; stroke: #1f78b4"/>
     <use xlink:href="#m52ce7858de" x="138.491696" y="240.925572" style="fill: #1f78b4; stroke: #1f78b4"/>
     <use xlink:href="#m52ce7858de" x="138.716649" y="287.261915" style="fill: #1f78b4; stroke: #1f78b4"/>
     <use xlink:href="#m52ce7858de" x="104.657318" y="249.077331" style="fill: #1f78b4; stroke: #1f78b4"/>
     <use xlink:href="#m52ce7858de" x="352.770362" y="193.67059" style="fill: #1f78b4; stroke: #1f78b4"/>
     <use xlink:href="#m52ce7858de" x="108.056038" y="277.870887" style="fill: #1f78b4; stroke: #1f78b4"/>
     <use xlink:href="#m52ce7858de" x="98.846294" y="232.564005" style="fill: #1f78b4; stroke: #1f78b4"/>
     <use xlink:href="#m52ce7858de" x="255.252779" y="231.932101" style="fill: #1f78b4; stroke: #1f78b4"/>
     <use xlink:href="#m52ce7858de" x="297.576307" y="219.955559" style="fill: #1f78b4; stroke: #1f78b4"/>
     <use xlink:href="#m52ce7858de" x="39.986777" y="208.765521" style="fill: #1f78b4; stroke: #1f78b4"/>
     <use xlink:href="#m52ce7858de" x="109.963421" y="178.919776" style="fill: #1f78b4; stroke: #1f78b4"/>
     <use xlink:href="#m52ce7858de" x="114.909635" y="234.454038" style="fill: #1f78b4; stroke: #1f78b4"/>
     <use xlink:href="#m52ce7858de" x="194.670891" y="206.070975" style="fill: #1f78b4; stroke: #1f78b4"/>
     <use xlink:href="#m52ce7858de" x="83.638916" y="275.736806" style="fill: #1f78b4; stroke: #1f78b4"/>
     <use xlink:href="#m52ce7858de" x="166.070301" y="201.94864" style="fill: #1f78b4; stroke: #1f78b4"/>
     <use xlink:href="#m52ce7858de" x="67.670176" y="255.372435" style="fill: #1f78b4; stroke: #1f78b4"/>
     <use xlink:href="#m52ce7858de" x="179.547141" y="178.234036" style="fill: #1f78b4; stroke: #1f78b4"/>
     <use xlink:href="#m52ce7858de" x="126.468311" y="209.275828" style="fill: #1f78b4; stroke: #1f78b4"/>
     <use xlink:href="#m52ce7858de" x="361.032127" y="199.183242" style="fill: #1f78b4; stroke: #1f78b4"/>
     <use xlink:href="#m52ce7858de" x="220.709663" y="209.804543" style="fill: #1f78b4; stroke: #1f78b4"/>
     <use xlink:href="#m52ce7858de" x="123.055406" y="169.414117" style="fill: #1f78b4; stroke: #1f78b4"/>
     <use xlink:href="#m52ce7858de" x="264.708495" y="216.161525" style="fill: #1f78b4; stroke: #1f78b4"/>
     <use xlink:href="#m52ce7858de" x="187.470919" y="193.352124" style="fill: #1f78b4; stroke: #1f78b4"/>
     <use xlink:href="#m52ce7858de" x="184.673375" y="230.889139" style="fill: #1f78b4; stroke: #1f78b4"/>
     <use xlink:href="#m52ce7858de" x="87.914503" y="257.178629" style="fill: #1f78b4; stroke: #1f78b4"/>
     <use xlink:href="#m52ce7858de" x="197.055885" y="262.524095" style="fill: #1f78b4; stroke: #1f78b4"/>
     <use xlink:href="#m52ce7858de" x="113.98437" y="260.40504" style="fill: #1f78b4; stroke: #1f78b4"/>
     <use xlink:href="#m52ce7858de" x="285.120041" y="298.868968" style="fill: #1f78b4; stroke: #1f78b4"/>
     <use xlink:href="#m52ce7858de" x="88.125213" y="217.818793" style="fill: #1f78b4; stroke: #1f78b4"/>
     <use xlink:href="#m52ce7858de" x="285.890951" y="291.047442" style="fill: #1f78b4; stroke: #1f78b4"/>
     <use xlink:href="#m52ce7858de" x="82.555046" y="246.644675" style="fill: #1f78b4; stroke: #1f78b4"/>
     <use xlink:href="#m52ce7858de" x="146.718105" y="166.679399" style="fill: #1f78b4; stroke: #1f78b4"/>
     <use xlink:href="#m52ce7858de" x="268.210103" y="211.664754" style="fill: #1f78b4; stroke: #1f78b4"/>
     <use xlink:href="#m52ce7858de" x="139.962507" y="157.90343" style="fill: #1f78b4; stroke: #1f78b4"/>
     <use xlink:href="#m52ce7858de" x="260.667238" y="287.430918" style="fill: #1f78b4; stroke: #1f78b4"/>
     <use xlink:href="#m52ce7858de" x="78.036892" y="237.983874" style="fill: #1f78b4; stroke: #1f78b4"/>
     <use xlink:href="#m52ce7858de" x="230.139422" y="193.281094" style="fill: #1f78b4; stroke: #1f78b4"/>
     <use xlink:href="#m52ce7858de" x="173.387462" y="223.353912" style="fill: #1f78b4; stroke: #1f78b4"/>
     <use xlink:href="#m52ce7858de" x="98.909436" y="283.61521" style="fill: #1f78b4; stroke: #1f78b4"/>
     <use xlink:href="#m52ce7858de" x="346.241281" y="29.990083" style="fill: #1f78b4; stroke: #1f78b4"/>
    </g>
   </g>
  </g>
 </g>
 <defs>
  <clipPath id="p4b0658588f">
   <rect x="0" y="0" width="460.8" height="345.6"/>
  </clipPath>
 </defs>
</svg>
