<?xml version="1.0" encoding="utf-8" standalone="no"?>
<!DOCTYPE svg PUBLIC "-//W3C//DTD SVG 1.1//EN"
  "http://www.w3.org/Graphics/SVG/1.1/DTD/svg11.dtd">
<svg xmlns:xlink="http://www.w3.org/1999/xlink" width="460.8pt" height="345.6pt" viewBox="0 0 460.8 345.6" xmlns="http://www.w3.org/2000/svg" version="1.1">
 <metadata>
  <rdf:RDF xmlns:dc="http://purl.org/dc/elements/1.1/" xmlns:cc="http://creativecommons.org/ns#" xmlns:rdf="http://www.w3.org/1999/02/22-rdf-syntax-ns#">
   <cc:Work>
    <dc:type rdf:resource="http://purl.org/dc/dcmitype/StillImage"/>
    <dc:date>2023-11-11T22:11:47.558887</dc:date>
    <dc:format>image/svg+xml</dc:format>
    <dc:creator>
     <cc:Agent>
      <dc:title>Matplotlib v3.8.1, https://matplotlib.org/</dc:title>
     </cc:Agent>
    </dc:creator>
   </cc:Work>
  </rdf:RDF>
 </metadata>
 <defs>
  <style type="text/css">*{stroke-linejoin: round; stroke-linecap: butt}</style>
 </defs>
 <g id="figure_1">
  <g id="patch_1">
   <path d="M 0 345.6 
L 460.8 345.6 
L 460.8 0 
L 0 0 
z
" style="fill: #ffffff"/>
  </g>
  <g id="axes_1">
   <g id="LineCollection_1">
    <path d="M 305.277217 54.267451 
L 289.691164 65.109748 
" clip-path="url(#p3c3cc5bc6e)" style="fill: none; stroke: #000000"/>
    <path d="M 305.277217 54.267451 
L 302.196568 67.746123 
" clip-path="url(#p3c3cc5bc6e)" style="fill: none; stroke: #000000"/>
    <path d="M 305.277217 54.267451 
L 300.75632 45.7603 
" clip-path="url(#p3c3cc5bc6e)" style="fill: none; stroke: #000000"/>
    <path d="M 289.183638 50.20337 
L 300.042078 64.30722 
" clip-path="url(#p3c3cc5bc6e)" style="fill: none; stroke: #000000"/>
    <path d="M 289.183638 50.20337 
L 273.109715 60.908538 
" clip-path="url(#p3c3cc5bc6e)" style="fill: none; stroke: #000000"/>
    <path d="M 210.149923 90.365899 
L 195.434295 75.311692 
" clip-path="url(#p3c3cc5bc6e)" style="fill: none; stroke: #000000"/>
    <path d="M 210.149923 90.365899 
L 196.515817 93.214503 
" clip-path="url(#p3c3cc5bc6e)" style="fill: none; stroke: #000000"/>
    <path d="M 210.149923 90.365899 
L 190.723746 79.243317 
" clip-path="url(#p3c3cc5bc6e)" style="fill: none; stroke: #000000"/>
    <path d="M 210.149923 90.365899 
L 201.174186 90.200233 
" clip-path="url(#p3c3cc5bc6e)" style="fill: none; stroke: #000000"/>
    <path d="M 210.149923 90.365899 
L 189.583631 106.222275 
" clip-path="url(#p3c3cc5bc6e)" style="fill: none; stroke: #000000"/>
    <path d="M 210.149923 90.365899 
L 218.093729 107.763094 
" clip-path="url(#p3c3cc5bc6e)" style="fill: none; stroke: #000000"/>
    <path d="M 210.149923 90.365899 
L 244.329349 76.510993 
" clip-path="url(#p3c3cc5bc6e)" style="fill: none; stroke: #000000"/>
    <path d="M 80.448752 162.934869 
L 68.110245 162.834933 
" clip-path="url(#p3c3cc5bc6e)" style="fill: none; stroke: #000000"/>
    <path d="M 80.448752 162.934869 
L 107.448587 151.664785 
" clip-path="url(#p3c3cc5bc6e)" style="fill: none; stroke: #000000"/>
    <path d="M 336.774219 67.745696 
L 295.341342 93.586087 
" clip-path="url(#p3c3cc5bc6e)" style="fill: none; stroke: #000000"/>
    <path d="M 336.774219 67.745696 
L 358.928158 77.793674 
" clip-path="url(#p3c3cc5bc6e)" style="fill: none; stroke: #000000"/>
    <path d="M 336.774219 67.745696 
L 329.162351 54.969117 
" clip-path="url(#p3c3cc5bc6e)" style="fill: none; stroke: #000000"/>
    <path d="M 336.774219 67.745696 
L 289.691164 65.109748 
" clip-path="url(#p3c3cc5bc6e)" style="fill: none; stroke: #000000"/>
    <path d="M 336.774219 67.745696 
L 278.655398 82.986877 
" clip-path="url(#p3c3cc5bc6e)" style="fill: none; stroke: #000000"/>
    <path d="M 336.774219 67.745696 
L 347.724835 87.822623 
" clip-path="url(#p3c3cc5bc6e)" style="fill: none; stroke: #000000"/>
    <path d="M 336.774219 67.745696 
L 369.271708 56.122188 
" clip-path="url(#p3c3cc5bc6e)" style="fill: none; stroke: #000000"/>
    <path d="M 336.774219 67.745696 
L 300.042078 64.30722 
" clip-path="url(#p3c3cc5bc6e)" style="fill: none; stroke: #000000"/>
    <path d="M 336.774219 67.745696 
L 368.659641 49.108294 
" clip-path="url(#p3c3cc5bc6e)" style="fill: none; stroke: #000000"/>
    <path d="M 336.774219 67.745696 
L 345.567315 51.428654 
" clip-path="url(#p3c3cc5bc6e)" style="fill: none; stroke: #000000"/>
    <path d="M 336.774219 67.745696 
L 369.497838 62.471157 
" clip-path="url(#p3c3cc5bc6e)" style="fill: none; stroke: #000000"/>
    <path d="M 336.774219 67.745696 
L 355.894915 47.662937 
" clip-path="url(#p3c3cc5bc6e)" style="fill: none; stroke: #000000"/>
    <path d="M 336.774219 67.745696 
L 354.676193 74.45218 
" clip-path="url(#p3c3cc5bc6e)" style="fill: none; stroke: #000000"/>
    <path d="M 336.774219 67.745696 
L 302.196568 67.746123 
" clip-path="url(#p3c3cc5bc6e)" style="fill: none; stroke: #000000"/>
    <path d="M 336.774219 67.745696 
L 359.231041 54.056482 
" clip-path="url(#p3c3cc5bc6e)" style="fill: none; stroke: #000000"/>
    <path d="M 336.774219 67.745696 
L 337.308354 86.053919 
" clip-path="url(#p3c3cc5bc6e)" style="fill: none; stroke: #000000"/>
    <path d="M 336.774219 67.745696 
L 373.633604 67.806611 
" clip-path="url(#p3c3cc5bc6e)" style="fill: none; stroke: #000000"/>
    <path d="M 336.774219 67.745696 
L 387.268241 59.862835 
" clip-path="url(#p3c3cc5bc6e)" style="fill: none; stroke: #000000"/>
    <path d="M 195.434295 75.311692 
L 200.031674 87.255304 
" clip-path="url(#p3c3cc5bc6e)" style="fill: none; stroke: #000000"/>
    <path d="M 195.434295 75.311692 
L 229.212153 82.448757 
" clip-path="url(#p3c3cc5bc6e)" style="fill: none; stroke: #000000"/>
    <path d="M 195.434295 75.311692 
L 168.132452 82.203844 
" clip-path="url(#p3c3cc5bc6e)" style="fill: none; stroke: #000000"/>
    <path d="M 195.434295 75.311692 
L 219.294708 65.587398 
" clip-path="url(#p3c3cc5bc6e)" style="fill: none; stroke: #000000"/>
    <path d="M 195.434295 75.311692 
L 190.723746 79.243317 
" clip-path="url(#p3c3cc5bc6e)" style="fill: none; stroke: #000000"/>
    <path d="M 195.434295 75.311692 
L 201.174186 90.200233 
" clip-path="url(#p3c3cc5bc6e)" style="fill: none; stroke: #000000"/>
    <path d="M 195.434295 75.311692 
L 169.362652 85.69308 
" clip-path="url(#p3c3cc5bc6e)" style="fill: none; stroke: #000000"/>
    <path d="M 195.434295 75.311692 
L 184.034003 70.592295 
" clip-path="url(#p3c3cc5bc6e)" style="fill: none; stroke: #000000"/>
    <path d="M 195.434295 75.311692 
L 244.329349 76.510993 
" clip-path="url(#p3c3cc5bc6e)" style="fill: none; stroke: #000000"/>
    <path d="M 195.434295 75.311692 
L 159.917905 73.146537 
" clip-path="url(#p3c3cc5bc6e)" style="fill: none; stroke: #000000"/>
    <path d="M 195.434295 75.311692 
L 194.203474 53.211329 
" clip-path="url(#p3c3cc5bc6e)" style="fill: none; stroke: #000000"/>
    <path d="M 195.434295 75.311692 
L 156.636108 68.656052 
" clip-path="url(#p3c3cc5bc6e)" style="fill: none; stroke: #000000"/>
    <path d="M 235.72186 67.62913 
L 229.212153 82.448757 
" clip-path="url(#p3c3cc5bc6e)" style="fill: none; stroke: #000000"/>
    <path d="M 235.72186 67.62913 
L 231.122448 62.124536 
" clip-path="url(#p3c3cc5bc6e)" style="fill: none; stroke: #000000"/>
    <path d="M 295.341342 93.586087 
L 332.926654 95.088777 
" clip-path="url(#p3c3cc5bc6e)" style="fill: none; stroke: #000000"/>
    <path d="M 295.341342 93.586087 
L 278.655398 82.986877 
" clip-path="url(#p3c3cc5bc6e)" style="fill: none; stroke: #000000"/>
    <path d="M 295.341342 93.586087 
L 317.226485 109.994175 
" clip-path="url(#p3c3cc5bc6e)" style="fill: none; stroke: #000000"/>
    <path d="M 295.341342 93.586087 
L 328.937114 99.992687 
" clip-path="url(#p3c3cc5bc6e)" style="fill: none; stroke: #000000"/>
    <path d="M 295.341342 93.586087 
L 229.212153 82.448757 
" clip-path="url(#p3c3cc5bc6e)" style="fill: none; stroke: #000000"/>
    <path d="M 295.341342 93.586087 
L 218.093729 107.763094 
" clip-path="url(#p3c3cc5bc6e)" style="fill: none; stroke: #000000"/>
    <path d="M 295.341342 93.586087 
L 320.48066 95.823918 
" clip-path="url(#p3c3cc5bc6e)" style="fill: none; stroke: #000000"/>
    <path d="M 295.341342 93.586087 
L 308.150774 111.827301 
" clip-path="url(#p3c3cc5bc6e)" style="fill: none; stroke: #000000"/>
    <path d="M 295.341342 93.586087 
L 340.081283 89.869122 
" clip-path="url(#p3c3cc5bc6e)" style="fill: none; stroke: #000000"/>
    <path d="M 295.341342 93.586087 
L 337.308354 86.053919 
" clip-path="url(#p3c3cc5bc6e)" style="fill: none; stroke: #000000"/>
    <path d="M 176.117726 130.854844 
L 164.851222 128.572981 
" clip-path="url(#p3c3cc5bc6e)" style="fill: none; stroke: #000000"/>
    <path d="M 176.117726 130.854844 
L 133.73559 138.72376 
" clip-path="url(#p3c3cc5bc6e)" style="fill: none; stroke: #000000"/>
    <path d="M 176.117726 130.854844 
L 154.677426 136.757963 
" clip-path="url(#p3c3cc5bc6e)" style="fill: none; stroke: #000000"/>
    <path d="M 176.117726 130.854844 
L 229.551593 112.020349 
" clip-path="url(#p3c3cc5bc6e)" style="fill: none; stroke: #000000"/>
    <path d="M 176.117726 130.854844 
L 159.542641 142.573371 
" clip-path="url(#p3c3cc5bc6e)" style="fill: none; stroke: #000000"/>
    <path d="M 148.623198 151.803371 
L 140.712602 155.537972 
" clip-path="url(#p3c3cc5bc6e)" style="fill: none; stroke: #000000"/>
    <path d="M 148.623198 151.803371 
L 154.677426 136.757963 
" clip-path="url(#p3c3cc5bc6e)" style="fill: none; stroke: #000000"/>
    <path d="M 148.623198 151.803371 
L 159.542641 142.573371 
" clip-path="url(#p3c3cc5bc6e)" style="fill: none; stroke: #000000"/>
    <path d="M 332.926654 95.088777 
L 347.724835 87.822623 
" clip-path="url(#p3c3cc5bc6e)" style="fill: none; stroke: #000000"/>
    <path d="M 332.926654 95.088777 
L 328.937114 99.992687 
" clip-path="url(#p3c3cc5bc6e)" style="fill: none; stroke: #000000"/>
    <path d="M 332.926654 95.088777 
L 351.946634 96.683761 
" clip-path="url(#p3c3cc5bc6e)" style="fill: none; stroke: #000000"/>
    <path d="M 332.926654 95.088777 
L 340.081283 89.869122 
" clip-path="url(#p3c3cc5bc6e)" style="fill: none; stroke: #000000"/>
    <path d="M 332.926654 95.088777 
L 337.308354 86.053919 
" clip-path="url(#p3c3cc5bc6e)" style="fill: none; stroke: #000000"/>
    <path d="M 116.670015 315.609917 
L 116.844438 303.666697 
" clip-path="url(#p3c3cc5bc6e)" style="fill: none; stroke: #000000"/>
    <path d="M 116.670015 315.609917 
L 106.449036 314.969835 
" clip-path="url(#p3c3cc5bc6e)" style="fill: none; stroke: #000000"/>
    <path d="M 358.928158 77.793674 
L 354.676193 74.45218 
" clip-path="url(#p3c3cc5bc6e)" style="fill: none; stroke: #000000"/>
    <path d="M 358.928158 77.793674 
L 337.308354 86.053919 
" clip-path="url(#p3c3cc5bc6e)" style="fill: none; stroke: #000000"/>
    <path d="M 329.162351 54.969117 
L 289.691164 65.109748 
" clip-path="url(#p3c3cc5bc6e)" style="fill: none; stroke: #000000"/>
    <path d="M 329.162351 54.969117 
L 345.567315 51.428654 
" clip-path="url(#p3c3cc5bc6e)" style="fill: none; stroke: #000000"/>
    <path d="M 329.162351 54.969117 
L 355.894915 47.662937 
" clip-path="url(#p3c3cc5bc6e)" style="fill: none; stroke: #000000"/>
    <path d="M 140.712602 155.537972 
L 154.677426 136.757963 
" clip-path="url(#p3c3cc5bc6e)" style="fill: none; stroke: #000000"/>
    <path d="M 188.96797 130.342872 
L 189.583631 106.222275 
" clip-path="url(#p3c3cc5bc6e)" style="fill: none; stroke: #000000"/>
    <path d="M 188.96797 130.342872 
L 188.912049 146.6775 
" clip-path="url(#p3c3cc5bc6e)" style="fill: none; stroke: #000000"/>
    <path d="M 289.691164 65.109748 
L 219.294708 65.587398 
" clip-path="url(#p3c3cc5bc6e)" style="fill: none; stroke: #000000"/>
    <path d="M 289.691164 65.109748 
L 244.329349 76.510993 
" clip-path="url(#p3c3cc5bc6e)" style="fill: none; stroke: #000000"/>
    <path d="M 289.691164 65.109748 
L 249.204053 61.467627 
" clip-path="url(#p3c3cc5bc6e)" style="fill: none; stroke: #000000"/>
    <path d="M 289.691164 65.109748 
L 302.196568 67.746123 
" clip-path="url(#p3c3cc5bc6e)" style="fill: none; stroke: #000000"/>
    <path d="M 289.691164 65.109748 
L 340.081283 89.869122 
" clip-path="url(#p3c3cc5bc6e)" style="fill: none; stroke: #000000"/>
    <path d="M 289.691164 65.109748 
L 309.536239 46.209329 
" clip-path="url(#p3c3cc5bc6e)" style="fill: none; stroke: #000000"/>
    <path d="M 289.691164 65.109748 
L 300.75632 45.7603 
" clip-path="url(#p3c3cc5bc6e)" style="fill: none; stroke: #000000"/>
    <path d="M 278.655398 82.986877 
L 300.042078 64.30722 
" clip-path="url(#p3c3cc5bc6e)" style="fill: none; stroke: #000000"/>
    <path d="M 278.655398 82.986877 
L 229.551593 112.020349 
" clip-path="url(#p3c3cc5bc6e)" style="fill: none; stroke: #000000"/>
    <path d="M 278.655398 82.986877 
L 244.329349 76.510993 
" clip-path="url(#p3c3cc5bc6e)" style="fill: none; stroke: #000000"/>
    <path d="M 278.655398 82.986877 
L 250.785683 104.686692 
" clip-path="url(#p3c3cc5bc6e)" style="fill: none; stroke: #000000"/>
    <path d="M 278.655398 82.986877 
L 302.196568 67.746123 
" clip-path="url(#p3c3cc5bc6e)" style="fill: none; stroke: #000000"/>
    <path d="M 278.655398 82.986877 
L 273.109715 60.908538 
" clip-path="url(#p3c3cc5bc6e)" style="fill: none; stroke: #000000"/>
    <path d="M 200.031674 87.255304 
L 196.515817 93.214503 
" clip-path="url(#p3c3cc5bc6e)" style="fill: none; stroke: #000000"/>
    <path d="M 200.031674 87.255304 
L 229.212153 82.448757 
" clip-path="url(#p3c3cc5bc6e)" style="fill: none; stroke: #000000"/>
    <path d="M 200.031674 87.255304 
L 190.723746 79.243317 
" clip-path="url(#p3c3cc5bc6e)" style="fill: none; stroke: #000000"/>
    <path d="M 200.031674 87.255304 
L 201.174186 90.200233 
" clip-path="url(#p3c3cc5bc6e)" style="fill: none; stroke: #000000"/>
    <path d="M 200.031674 87.255304 
L 218.093729 107.763094 
" clip-path="url(#p3c3cc5bc6e)" style="fill: none; stroke: #000000"/>
    <path d="M 200.031674 87.255304 
L 184.034003 70.592295 
" clip-path="url(#p3c3cc5bc6e)" style="fill: none; stroke: #000000"/>
    <path d="M 200.031674 87.255304 
L 182.51267 98.748008 
" clip-path="url(#p3c3cc5bc6e)" style="fill: none; stroke: #000000"/>
    <path d="M 137.231848 71.527657 
L 168.132452 82.203844 
" clip-path="url(#p3c3cc5bc6e)" style="fill: none; stroke: #000000"/>
    <path d="M 137.231848 71.527657 
L 156.636108 68.656052 
" clip-path="url(#p3c3cc5bc6e)" style="fill: none; stroke: #000000"/>
    <path d="M 219.942929 29.990083 
L 226.379742 52.679234 
" clip-path="url(#p3c3cc5bc6e)" style="fill: none; stroke: #000000"/>
    <path d="M 168.639642 63.565319 
L 142.435511 46.634381 
" clip-path="url(#p3c3cc5bc6e)" style="fill: none; stroke: #000000"/>
    <path d="M 168.639642 63.565319 
L 141.588414 56.256656 
" clip-path="url(#p3c3cc5bc6e)" style="fill: none; stroke: #000000"/>
    <path d="M 168.639642 63.565319 
L 168.132452 82.203844 
" clip-path="url(#p3c3cc5bc6e)" style="fill: none; stroke: #000000"/>
    <path d="M 168.639642 63.565319 
L 219.294708 65.587398 
" clip-path="url(#p3c3cc5bc6e)" style="fill: none; stroke: #000000"/>
    <path d="M 168.639642 63.565319 
L 169.362652 85.69308 
" clip-path="url(#p3c3cc5bc6e)" style="fill: none; stroke: #000000"/>
    <path d="M 347.724835 87.822623 
L 328.937114 99.992687 
" clip-path="url(#p3c3cc5bc6e)" style="fill: none; stroke: #000000"/>
    <path d="M 347.724835 87.822623 
L 351.946634 96.683761 
" clip-path="url(#p3c3cc5bc6e)" style="fill: none; stroke: #000000"/>
    <path d="M 369.271708 56.122188 
L 368.659641 49.108294 
" clip-path="url(#p3c3cc5bc6e)" style="fill: none; stroke: #000000"/>
    <path d="M 39.986777 170.771253 
L 68.110245 162.834933 
" clip-path="url(#p3c3cc5bc6e)" style="fill: none; stroke: #000000"/>
    <path d="M 107.176735 138.706761 
L 94.379272 137.673084 
" clip-path="url(#p3c3cc5bc6e)" style="fill: none; stroke: #000000"/>
    <path d="M 107.176735 138.706761 
L 100.893717 143.816518 
" clip-path="url(#p3c3cc5bc6e)" style="fill: none; stroke: #000000"/>
    <path d="M 107.176735 138.706761 
L 133.73559 138.72376 
" clip-path="url(#p3c3cc5bc6e)" style="fill: none; stroke: #000000"/>
    <path d="M 107.176735 138.706761 
L 126.602384 134.623045 
" clip-path="url(#p3c3cc5bc6e)" style="fill: none; stroke: #000000"/>
    <path d="M 148.149944 89.993874 
L 187.273552 86.75959 
" clip-path="url(#p3c3cc5bc6e)" style="fill: none; stroke: #000000"/>
    <path d="M 94.379272 137.673084 
L 100.893717 143.816518 
" clip-path="url(#p3c3cc5bc6e)" style="fill: none; stroke: #000000"/>
    <path d="M 94.379272 137.673084 
L 126.602384 134.623045 
" clip-path="url(#p3c3cc5bc6e)" style="fill: none; stroke: #000000"/>
    <path d="M 100.893717 143.816518 
L 133.73559 138.72376 
" clip-path="url(#p3c3cc5bc6e)" style="fill: none; stroke: #000000"/>
    <path d="M 164.851222 128.572981 
L 133.73559 138.72376 
" clip-path="url(#p3c3cc5bc6e)" style="fill: none; stroke: #000000"/>
    <path d="M 164.851222 128.572981 
L 154.677426 136.757963 
" clip-path="url(#p3c3cc5bc6e)" style="fill: none; stroke: #000000"/>
    <path d="M 164.851222 128.572981 
L 218.093729 107.763094 
" clip-path="url(#p3c3cc5bc6e)" style="fill: none; stroke: #000000"/>
    <path d="M 164.851222 128.572981 
L 126.602384 134.623045 
" clip-path="url(#p3c3cc5bc6e)" style="fill: none; stroke: #000000"/>
    <path d="M 164.851222 128.572981 
L 159.542641 142.573371 
" clip-path="url(#p3c3cc5bc6e)" style="fill: none; stroke: #000000"/>
    <path d="M 196.515817 93.214503 
L 162.911777 79.891119 
" clip-path="url(#p3c3cc5bc6e)" style="fill: none; stroke: #000000"/>
    <path d="M 196.515817 93.214503 
L 229.212153 82.448757 
" clip-path="url(#p3c3cc5bc6e)" style="fill: none; stroke: #000000"/>
    <path d="M 196.515817 93.214503 
L 201.174186 90.200233 
" clip-path="url(#p3c3cc5bc6e)" style="fill: none; stroke: #000000"/>
    <path d="M 196.515817 93.214503 
L 189.583631 106.222275 
" clip-path="url(#p3c3cc5bc6e)" style="fill: none; stroke: #000000"/>
    <path d="M 196.515817 93.214503 
L 218.093729 107.763094 
" clip-path="url(#p3c3cc5bc6e)" style="fill: none; stroke: #000000"/>
    <path d="M 196.515817 93.214503 
L 182.51267 98.748008 
" clip-path="url(#p3c3cc5bc6e)" style="fill: none; stroke: #000000"/>
    <path d="M 196.515817 93.214503 
L 206.354439 82.495379 
" clip-path="url(#p3c3cc5bc6e)" style="fill: none; stroke: #000000"/>
    <path d="M 196.515817 93.214503 
L 187.273552 86.75959 
" clip-path="url(#p3c3cc5bc6e)" style="fill: none; stroke: #000000"/>
    <path d="M 141.588414 56.256656 
L 156.636108 68.656052 
" clip-path="url(#p3c3cc5bc6e)" style="fill: none; stroke: #000000"/>
    <path d="M 268.465361 123.571103 
L 250.785683 104.686692 
" clip-path="url(#p3c3cc5bc6e)" style="fill: none; stroke: #000000"/>
    <path d="M 300.042078 64.30722 
L 302.196568 67.746123 
" clip-path="url(#p3c3cc5bc6e)" style="fill: none; stroke: #000000"/>
    <path d="M 300.042078 64.30722 
L 273.109715 60.908538 
" clip-path="url(#p3c3cc5bc6e)" style="fill: none; stroke: #000000"/>
    <path d="M 378.305431 91.71091 
L 340.081283 89.869122 
" clip-path="url(#p3c3cc5bc6e)" style="fill: none; stroke: #000000"/>
    <path d="M 133.73559 138.72376 
L 154.677426 136.757963 
" clip-path="url(#p3c3cc5bc6e)" style="fill: none; stroke: #000000"/>
    <path d="M 133.73559 138.72376 
L 107.448587 151.664785 
" clip-path="url(#p3c3cc5bc6e)" style="fill: none; stroke: #000000"/>
    <path d="M 133.73559 138.72376 
L 126.602384 134.623045 
" clip-path="url(#p3c3cc5bc6e)" style="fill: none; stroke: #000000"/>
    <path d="M 162.911777 79.891119 
L 156.636108 68.656052 
" clip-path="url(#p3c3cc5bc6e)" style="fill: none; stroke: #000000"/>
    <path d="M 186.646563 179.8965 
L 190.818997 198.82123 
" clip-path="url(#p3c3cc5bc6e)" style="fill: none; stroke: #000000"/>
    <path d="M 186.646563 179.8965 
L 188.912049 146.6775 
" clip-path="url(#p3c3cc5bc6e)" style="fill: none; stroke: #000000"/>
    <path d="M 186.646563 179.8965 
L 178.520928 198.484115 
" clip-path="url(#p3c3cc5bc6e)" style="fill: none; stroke: #000000"/>
    <path d="M 258.641954 97.805085 
L 264.367119 101.627202 
" clip-path="url(#p3c3cc5bc6e)" style="fill: none; stroke: #000000"/>
    <path d="M 258.641954 97.805085 
L 245.785491 106.375894 
" clip-path="url(#p3c3cc5bc6e)" style="fill: none; stroke: #000000"/>
    <path d="M 258.641954 97.805085 
L 242.60107 98.12603 
" clip-path="url(#p3c3cc5bc6e)" style="fill: none; stroke: #000000"/>
    <path d="M 258.641954 97.805085 
L 249.343629 89.361536 
" clip-path="url(#p3c3cc5bc6e)" style="fill: none; stroke: #000000"/>
    <path d="M 368.659641 49.108294 
L 380.111258 36.936889 
" clip-path="url(#p3c3cc5bc6e)" style="fill: none; stroke: #000000"/>
    <path d="M 68.110245 162.834933 
L 107.448587 151.664785 
" clip-path="url(#p3c3cc5bc6e)" style="fill: none; stroke: #000000"/>
    <path d="M 229.212153 82.448757 
L 226.379742 52.679234 
" clip-path="url(#p3c3cc5bc6e)" style="fill: none; stroke: #000000"/>
    <path d="M 229.212153 82.448757 
L 219.294708 65.587398 
" clip-path="url(#p3c3cc5bc6e)" style="fill: none; stroke: #000000"/>
    <path d="M 229.212153 82.448757 
L 201.174186 90.200233 
" clip-path="url(#p3c3cc5bc6e)" style="fill: none; stroke: #000000"/>
    <path d="M 229.212153 82.448757 
L 189.583631 106.222275 
" clip-path="url(#p3c3cc5bc6e)" style="fill: none; stroke: #000000"/>
    <path d="M 229.212153 82.448757 
L 218.093729 107.763094 
" clip-path="url(#p3c3cc5bc6e)" style="fill: none; stroke: #000000"/>
    <path d="M 229.212153 82.448757 
L 231.122448 62.124536 
" clip-path="url(#p3c3cc5bc6e)" style="fill: none; stroke: #000000"/>
    <path d="M 229.212153 82.448757 
L 219.055337 59.964887 
" clip-path="url(#p3c3cc5bc6e)" style="fill: none; stroke: #000000"/>
    <path d="M 229.212153 82.448757 
L 250.785683 104.686692 
" clip-path="url(#p3c3cc5bc6e)" style="fill: none; stroke: #000000"/>
    <path d="M 229.212153 82.448757 
L 242.60107 98.12603 
" clip-path="url(#p3c3cc5bc6e)" style="fill: none; stroke: #000000"/>
    <path d="M 229.212153 82.448757 
L 249.204053 61.467627 
" clip-path="url(#p3c3cc5bc6e)" style="fill: none; stroke: #000000"/>
    <path d="M 229.212153 82.448757 
L 249.343629 89.361536 
" clip-path="url(#p3c3cc5bc6e)" style="fill: none; stroke: #000000"/>
    <path d="M 229.212153 82.448757 
L 232.124686 100.236353 
" clip-path="url(#p3c3cc5bc6e)" style="fill: none; stroke: #000000"/>
    <path d="M 229.212153 82.448757 
L 273.109715 60.908538 
" clip-path="url(#p3c3cc5bc6e)" style="fill: none; stroke: #000000"/>
    <path d="M 229.212153 82.448757 
L 206.354439 82.495379 
" clip-path="url(#p3c3cc5bc6e)" style="fill: none; stroke: #000000"/>
    <path d="M 229.212153 82.448757 
L 187.273552 86.75959 
" clip-path="url(#p3c3cc5bc6e)" style="fill: none; stroke: #000000"/>
    <path d="M 144.346423 79.602555 
L 168.132452 82.203844 
" clip-path="url(#p3c3cc5bc6e)" style="fill: none; stroke: #000000"/>
    <path d="M 144.346423 79.602555 
L 169.362652 85.69308 
" clip-path="url(#p3c3cc5bc6e)" style="fill: none; stroke: #000000"/>
    <path d="M 144.346423 79.602555 
L 159.917905 73.146537 
" clip-path="url(#p3c3cc5bc6e)" style="fill: none; stroke: #000000"/>
    <path d="M 380.111258 36.936889 
L 355.894915 47.662937 
" clip-path="url(#p3c3cc5bc6e)" style="fill: none; stroke: #000000"/>
    <path d="M 420.813223 54.349547 
L 387.268241 59.862835 
" clip-path="url(#p3c3cc5bc6e)" style="fill: none; stroke: #000000"/>
    <path d="M 168.132452 82.203844 
L 201.174186 90.200233 
" clip-path="url(#p3c3cc5bc6e)" style="fill: none; stroke: #000000"/>
    <path d="M 168.132452 82.203844 
L 189.583631 106.222275 
" clip-path="url(#p3c3cc5bc6e)" style="fill: none; stroke: #000000"/>
    <path d="M 168.132452 82.203844 
L 169.362652 85.69308 
" clip-path="url(#p3c3cc5bc6e)" style="fill: none; stroke: #000000"/>
    <path d="M 168.132452 82.203844 
L 162.998418 97.750891 
" clip-path="url(#p3c3cc5bc6e)" style="fill: none; stroke: #000000"/>
    <path d="M 168.132452 82.203844 
L 159.917905 73.146537 
" clip-path="url(#p3c3cc5bc6e)" style="fill: none; stroke: #000000"/>
    <path d="M 168.132452 82.203844 
L 156.636108 68.656052 
" clip-path="url(#p3c3cc5bc6e)" style="fill: none; stroke: #000000"/>
    <path d="M 154.677426 136.757963 
L 107.448587 151.664785 
" clip-path="url(#p3c3cc5bc6e)" style="fill: none; stroke: #000000"/>
    <path d="M 154.677426 136.757963 
L 218.093729 107.763094 
" clip-path="url(#p3c3cc5bc6e)" style="fill: none; stroke: #000000"/>
    <path d="M 154.677426 136.757963 
L 130.966632 150.667684 
" clip-path="url(#p3c3cc5bc6e)" style="fill: none; stroke: #000000"/>
    <path d="M 154.677426 136.757963 
L 126.602384 134.623045 
" clip-path="url(#p3c3cc5bc6e)" style="fill: none; stroke: #000000"/>
    <path d="M 154.677426 136.757963 
L 159.542641 142.573371 
" clip-path="url(#p3c3cc5bc6e)" style="fill: none; stroke: #000000"/>
    <path d="M 226.379742 52.679234 
L 231.122448 62.124536 
" clip-path="url(#p3c3cc5bc6e)" style="fill: none; stroke: #000000"/>
    <path d="M 219.294708 65.587398 
L 190.723746 79.243317 
" clip-path="url(#p3c3cc5bc6e)" style="fill: none; stroke: #000000"/>
    <path d="M 219.294708 65.587398 
L 204.871682 43.930792 
" clip-path="url(#p3c3cc5bc6e)" style="fill: none; stroke: #000000"/>
    <path d="M 243.783852 125.345971 
L 218.093729 107.763094 
" clip-path="url(#p3c3cc5bc6e)" style="fill: none; stroke: #000000"/>
    <path d="M 243.783852 125.345971 
L 255.205309 145.338447 
" clip-path="url(#p3c3cc5bc6e)" style="fill: none; stroke: #000000"/>
    <path d="M 243.783852 125.345971 
L 250.785683 104.686692 
" clip-path="url(#p3c3cc5bc6e)" style="fill: none; stroke: #000000"/>
    <path d="M 264.367119 101.627202 
L 245.785491 106.375894 
" clip-path="url(#p3c3cc5bc6e)" style="fill: none; stroke: #000000"/>
    <path d="M 264.367119 101.627202 
L 242.60107 98.12603 
" clip-path="url(#p3c3cc5bc6e)" style="fill: none; stroke: #000000"/>
    <path d="M 190.723746 79.243317 
L 159.549748 88.838707 
" clip-path="url(#p3c3cc5bc6e)" style="fill: none; stroke: #000000"/>
    <path d="M 229.551593 112.020349 
L 222.740443 123.966051 
" clip-path="url(#p3c3cc5bc6e)" style="fill: none; stroke: #000000"/>
    <path d="M 201.174186 90.200233 
L 218.093729 107.763094 
" clip-path="url(#p3c3cc5bc6e)" style="fill: none; stroke: #000000"/>
    <path d="M 280.208861 38.647884 
L 271.736871 38.231316 
" clip-path="url(#p3c3cc5bc6e)" style="fill: none; stroke: #000000"/>
    <path d="M 280.208861 38.647884 
L 273.109715 60.908538 
" clip-path="url(#p3c3cc5bc6e)" style="fill: none; stroke: #000000"/>
    <path d="M 189.583631 106.222275 
L 169.362652 85.69308 
" clip-path="url(#p3c3cc5bc6e)" style="fill: none; stroke: #000000"/>
    <path d="M 189.583631 106.222275 
L 162.998418 97.750891 
" clip-path="url(#p3c3cc5bc6e)" style="fill: none; stroke: #000000"/>
    <path d="M 189.583631 106.222275 
L 188.912049 146.6775 
" clip-path="url(#p3c3cc5bc6e)" style="fill: none; stroke: #000000"/>
    <path d="M 245.785491 106.375894 
L 218.093729 107.763094 
" clip-path="url(#p3c3cc5bc6e)" style="fill: none; stroke: #000000"/>
    <path d="M 245.785491 106.375894 
L 242.60107 98.12603 
" clip-path="url(#p3c3cc5bc6e)" style="fill: none; stroke: #000000"/>
    <path d="M 220.261925 48.167612 
L 219.055337 59.964887 
" clip-path="url(#p3c3cc5bc6e)" style="fill: none; stroke: #000000"/>
    <path d="M 220.261925 48.167612 
L 249.204053 61.467627 
" clip-path="url(#p3c3cc5bc6e)" style="fill: none; stroke: #000000"/>
    <path d="M 220.261925 48.167612 
L 194.203474 53.211329 
" clip-path="url(#p3c3cc5bc6e)" style="fill: none; stroke: #000000"/>
    <path d="M 116.844438 303.666697 
L 106.449036 314.969835 
" clip-path="url(#p3c3cc5bc6e)" style="fill: none; stroke: #000000"/>
    <path d="M 351.946634 96.683761 
L 340.081283 89.869122 
" clip-path="url(#p3c3cc5bc6e)" style="fill: none; stroke: #000000"/>
    <path d="M 351.946634 96.683761 
L 337.308354 86.053919 
" clip-path="url(#p3c3cc5bc6e)" style="fill: none; stroke: #000000"/>
    <path d="M 169.362652 85.69308 
L 162.998418 97.750891 
" clip-path="url(#p3c3cc5bc6e)" style="fill: none; stroke: #000000"/>
    <path d="M 218.093729 107.763094 
L 250.785683 104.686692 
" clip-path="url(#p3c3cc5bc6e)" style="fill: none; stroke: #000000"/>
    <path d="M 218.093729 107.763094 
L 242.60107 98.12603 
" clip-path="url(#p3c3cc5bc6e)" style="fill: none; stroke: #000000"/>
    <path d="M 218.093729 107.763094 
L 222.740443 123.966051 
" clip-path="url(#p3c3cc5bc6e)" style="fill: none; stroke: #000000"/>
    <path d="M 218.093729 107.763094 
L 232.124686 100.236353 
" clip-path="url(#p3c3cc5bc6e)" style="fill: none; stroke: #000000"/>
    <path d="M 250.785683 104.686692 
L 232.124686 100.236353 
" clip-path="url(#p3c3cc5bc6e)" style="fill: none; stroke: #000000"/>
    <path d="M 242.60107 98.12603 
L 249.343629 89.361536 
" clip-path="url(#p3c3cc5bc6e)" style="fill: none; stroke: #000000"/>
    <path d="M 188.912049 146.6775 
L 188.299902 166.258535 
" clip-path="url(#p3c3cc5bc6e)" style="fill: none; stroke: #000000"/>
    <path d="M 271.736871 38.231316 
L 273.109715 60.908538 
" clip-path="url(#p3c3cc5bc6e)" style="fill: none; stroke: #000000"/>
    <path d="M 355.894915 47.662937 
L 359.231041 54.056482 
" clip-path="url(#p3c3cc5bc6e)" style="fill: none; stroke: #000000"/>
    <path d="M 320.48066 95.823918 
L 337.308354 86.053919 
" clip-path="url(#p3c3cc5bc6e)" style="fill: none; stroke: #000000"/>
    <path d="M 354.676193 74.45218 
L 337.308354 86.053919 
" clip-path="url(#p3c3cc5bc6e)" style="fill: none; stroke: #000000"/>
    <path d="M 302.196568 67.746123 
L 273.109715 60.908538 
" clip-path="url(#p3c3cc5bc6e)" style="fill: none; stroke: #000000"/>
    <path d="M 340.081283 89.869122 
L 371.300266 103.8143 
" clip-path="url(#p3c3cc5bc6e)" style="fill: none; stroke: #000000"/>
    <path d="M 340.081283 89.869122 
L 376.089222 99.039913 
" clip-path="url(#p3c3cc5bc6e)" style="fill: none; stroke: #000000"/>
    <path d="M 340.081283 89.869122 
L 362.091213 93.256417 
" clip-path="url(#p3c3cc5bc6e)" style="fill: none; stroke: #000000"/>
    <path d="M 371.300266 103.8143 
L 376.089222 99.039913 
" clip-path="url(#p3c3cc5bc6e)" style="fill: none; stroke: #000000"/>
    <path d="M 337.308354 86.053919 
L 362.091213 93.256417 
" clip-path="url(#p3c3cc5bc6e)" style="fill: none; stroke: #000000"/>
    <path d="M 206.354439 82.495379 
L 187.273552 86.75959 
" clip-path="url(#p3c3cc5bc6e)" style="fill: none; stroke: #000000"/>
   </g>
   <g id="PathCollection_1">
    <defs>
     <path id="m11b44aeb07" d="M 0 2.5 
C 0.663008 2.5 1.29895 2.236584 1.767767 1.767767 
C 2.236584 1.29895 2.5 0.663008 2.5 0 
C 2.5 -0.663008 2.236584 -1.29895 1.767767 -1.767767 
C 1.29895 -2.236584 0.663008 -2.5 0 -2.5 
C -0.663008 -2.5 -1.29895 -2.236584 -1.767767 -1.767767 
C -2.236584 -1.29895 -2.5 -0.663008 -2.5 0 
C -2.5 0.663008 -2.236584 1.29895 -1.767767 1.767767 
C -1.29895 2.236584 -0.663008 2.5 0 2.5 
z
" style="stroke: #1f78b4"/>
    </defs>
    <g clip-path="url(#p3c3cc5bc6e)">
     <use xlink:href="#m11b44aeb07" x="305.277217" y="54.267451" style="fill: #1f78b4; stroke: #1f78b4"/>
     <use xlink:href="#m11b44aeb07" x="289.183638" y="50.20337" style="fill: #1f78b4; stroke: #1f78b4"/>
     <use xlink:href="#m11b44aeb07" x="210.149923" y="90.365899" style="fill: #1f78b4; stroke: #1f78b4"/>
     <use xlink:href="#m11b44aeb07" x="80.448752" y="162.934869" style="fill: #1f78b4; stroke: #1f78b4"/>
     <use xlink:href="#m11b44aeb07" x="336.774219" y="67.745696" style="fill: #1f78b4; stroke: #1f78b4"/>
     <use xlink:href="#m11b44aeb07" x="195.434295" y="75.311692" style="fill: #1f78b4; stroke: #1f78b4"/>
     <use xlink:href="#m11b44aeb07" x="235.72186" y="67.62913" style="fill: #1f78b4; stroke: #1f78b4"/>
     <use xlink:href="#m11b44aeb07" x="295.341342" y="93.586087" style="fill: #1f78b4; stroke: #1f78b4"/>
     <use xlink:href="#m11b44aeb07" x="176.117726" y="130.854844" style="fill: #1f78b4; stroke: #1f78b4"/>
     <use xlink:href="#m11b44aeb07" x="148.623198" y="151.803371" style="fill: #1f78b4; stroke: #1f78b4"/>
     <use xlink:href="#m11b44aeb07" x="332.926654" y="95.088777" style="fill: #1f78b4; stroke: #1f78b4"/>
     <use xlink:href="#m11b44aeb07" x="116.670015" y="315.609917" style="fill: #1f78b4; stroke: #1f78b4"/>
     <use xlink:href="#m11b44aeb07" x="358.928158" y="77.793674" style="fill: #1f78b4; stroke: #1f78b4"/>
     <use xlink:href="#m11b44aeb07" x="329.162351" y="54.969117" style="fill: #1f78b4; stroke: #1f78b4"/>
     <use xlink:href="#m11b44aeb07" x="140.712602" y="155.537972" style="fill: #1f78b4; stroke: #1f78b4"/>
     <use xlink:href="#m11b44aeb07" x="188.96797" y="130.342872" style="fill: #1f78b4; stroke: #1f78b4"/>
     <use xlink:href="#m11b44aeb07" x="289.691164" y="65.109748" style="fill: #1f78b4; stroke: #1f78b4"/>
     <use xlink:href="#m11b44aeb07" x="278.655398" y="82.986877" style="fill: #1f78b4; stroke: #1f78b4"/>
     <use xlink:href="#m11b44aeb07" x="200.031674" y="87.255304" style="fill: #1f78b4; stroke: #1f78b4"/>
     <use xlink:href="#m11b44aeb07" x="137.231848" y="71.527657" style="fill: #1f78b4; stroke: #1f78b4"/>
     <use xlink:href="#m11b44aeb07" x="219.942929" y="29.990083" style="fill: #1f78b4; stroke: #1f78b4"/>
     <use xlink:href="#m11b44aeb07" x="168.639642" y="63.565319" style="fill: #1f78b4; stroke: #1f78b4"/>
     <use xlink:href="#m11b44aeb07" x="347.724835" y="87.822623" style="fill: #1f78b4; stroke: #1f78b4"/>
     <use xlink:href="#m11b44aeb07" x="369.271708" y="56.122188" style="fill: #1f78b4; stroke: #1f78b4"/>
     <use xlink:href="#m11b44aeb07" x="39.986777" y="170.771253" style="fill: #1f78b4; stroke: #1f78b4"/>
     <use xlink:href="#m11b44aeb07" x="107.176735" y="138.706761" style="fill: #1f78b4; stroke: #1f78b4"/>
     <use xlink:href="#m11b44aeb07" x="148.149944" y="89.993874" style="fill: #1f78b4; stroke: #1f78b4"/>
     <use xlink:href="#m11b44aeb07" x="142.435511" y="46.634381" style="fill: #1f78b4; stroke: #1f78b4"/>
     <use xlink:href="#m11b44aeb07" x="94.379272" y="137.673084" style="fill: #1f78b4; stroke: #1f78b4"/>
     <use xlink:href="#m11b44aeb07" x="100.893717" y="143.816518" style="fill: #1f78b4; stroke: #1f78b4"/>
     <use xlink:href="#m11b44aeb07" x="317.226485" y="109.994175" style="fill: #1f78b4; stroke: #1f78b4"/>
     <use xlink:href="#m11b44aeb07" x="164.851222" y="128.572981" style="fill: #1f78b4; stroke: #1f78b4"/>
     <use xlink:href="#m11b44aeb07" x="196.515817" y="93.214503" style="fill: #1f78b4; stroke: #1f78b4"/>
     <use xlink:href="#m11b44aeb07" x="328.937114" y="99.992687" style="fill: #1f78b4; stroke: #1f78b4"/>
     <use xlink:href="#m11b44aeb07" x="141.588414" y="56.256656" style="fill: #1f78b4; stroke: #1f78b4"/>
     <use xlink:href="#m11b44aeb07" x="268.465361" y="123.571103" style="fill: #1f78b4; stroke: #1f78b4"/>
     <use xlink:href="#m11b44aeb07" x="300.042078" y="64.30722" style="fill: #1f78b4; stroke: #1f78b4"/>
     <use xlink:href="#m11b44aeb07" x="378.305431" y="91.71091" style="fill: #1f78b4; stroke: #1f78b4"/>
     <use xlink:href="#m11b44aeb07" x="133.73559" y="138.72376" style="fill: #1f78b4; stroke: #1f78b4"/>
     <use xlink:href="#m11b44aeb07" x="162.911777" y="79.891119" style="fill: #1f78b4; stroke: #1f78b4"/>
     <use xlink:href="#m11b44aeb07" x="186.646563" y="179.8965" style="fill: #1f78b4; stroke: #1f78b4"/>
     <use xlink:href="#m11b44aeb07" x="258.641954" y="97.805085" style="fill: #1f78b4; stroke: #1f78b4"/>
     <use xlink:href="#m11b44aeb07" x="368.659641" y="49.108294" style="fill: #1f78b4; stroke: #1f78b4"/>
     <use xlink:href="#m11b44aeb07" x="68.110245" y="162.834933" style="fill: #1f78b4; stroke: #1f78b4"/>
     <use xlink:href="#m11b44aeb07" x="229.212153" y="82.448757" style="fill: #1f78b4; stroke: #1f78b4"/>
     <use xlink:href="#m11b44aeb07" x="144.346423" y="79.602555" style="fill: #1f78b4; stroke: #1f78b4"/>
     <use xlink:href="#m11b44aeb07" x="380.111258" y="36.936889" style="fill: #1f78b4; stroke: #1f78b4"/>
     <use xlink:href="#m11b44aeb07" x="420.813223" y="54.349547" style="fill: #1f78b4; stroke: #1f78b4"/>
     <use xlink:href="#m11b44aeb07" x="168.132452" y="82.203844" style="fill: #1f78b4; stroke: #1f78b4"/>
     <use xlink:href="#m11b44aeb07" x="154.677426" y="136.757963" style="fill: #1f78b4; stroke: #1f78b4"/>
     <use xlink:href="#m11b44aeb07" x="226.379742" y="52.679234" style="fill: #1f78b4; stroke: #1f78b4"/>
     <use xlink:href="#m11b44aeb07" x="219.294708" y="65.587398" style="fill: #1f78b4; stroke: #1f78b4"/>
     <use xlink:href="#m11b44aeb07" x="243.783852" y="125.345971" style="fill: #1f78b4; stroke: #1f78b4"/>
     <use xlink:href="#m11b44aeb07" x="345.567315" y="51.428654" style="fill: #1f78b4; stroke: #1f78b4"/>
     <use xlink:href="#m11b44aeb07" x="369.497838" y="62.471157" style="fill: #1f78b4; stroke: #1f78b4"/>
     <use xlink:href="#m11b44aeb07" x="107.448587" y="151.664785" style="fill: #1f78b4; stroke: #1f78b4"/>
     <use xlink:href="#m11b44aeb07" x="264.367119" y="101.627202" style="fill: #1f78b4; stroke: #1f78b4"/>
     <use xlink:href="#m11b44aeb07" x="190.723746" y="79.243317" style="fill: #1f78b4; stroke: #1f78b4"/>
     <use xlink:href="#m11b44aeb07" x="229.551593" y="112.020349" style="fill: #1f78b4; stroke: #1f78b4"/>
     <use xlink:href="#m11b44aeb07" x="201.174186" y="90.200233" style="fill: #1f78b4; stroke: #1f78b4"/>
     <use xlink:href="#m11b44aeb07" x="280.208861" y="38.647884" style="fill: #1f78b4; stroke: #1f78b4"/>
     <use xlink:href="#m11b44aeb07" x="189.583631" y="106.222275" style="fill: #1f78b4; stroke: #1f78b4"/>
     <use xlink:href="#m11b44aeb07" x="245.785491" y="106.375894" style="fill: #1f78b4; stroke: #1f78b4"/>
     <use xlink:href="#m11b44aeb07" x="220.261925" y="48.167612" style="fill: #1f78b4; stroke: #1f78b4"/>
     <use xlink:href="#m11b44aeb07" x="116.844438" y="303.666697" style="fill: #1f78b4; stroke: #1f78b4"/>
     <use xlink:href="#m11b44aeb07" x="351.946634" y="96.683761" style="fill: #1f78b4; stroke: #1f78b4"/>
     <use xlink:href="#m11b44aeb07" x="169.362652" y="85.69308" style="fill: #1f78b4; stroke: #1f78b4"/>
     <use xlink:href="#m11b44aeb07" x="218.093729" y="107.763094" style="fill: #1f78b4; stroke: #1f78b4"/>
     <use xlink:href="#m11b44aeb07" x="204.871682" y="43.930792" style="fill: #1f78b4; stroke: #1f78b4"/>
     <use xlink:href="#m11b44aeb07" x="231.122448" y="62.124536" style="fill: #1f78b4; stroke: #1f78b4"/>
     <use xlink:href="#m11b44aeb07" x="219.055337" y="59.964887" style="fill: #1f78b4; stroke: #1f78b4"/>
     <use xlink:href="#m11b44aeb07" x="184.034003" y="70.592295" style="fill: #1f78b4; stroke: #1f78b4"/>
     <use xlink:href="#m11b44aeb07" x="162.998418" y="97.750891" style="fill: #1f78b4; stroke: #1f78b4"/>
     <use xlink:href="#m11b44aeb07" x="255.205309" y="145.338447" style="fill: #1f78b4; stroke: #1f78b4"/>
     <use xlink:href="#m11b44aeb07" x="244.329349" y="76.510993" style="fill: #1f78b4; stroke: #1f78b4"/>
     <use xlink:href="#m11b44aeb07" x="159.917905" y="73.146537" style="fill: #1f78b4; stroke: #1f78b4"/>
     <use xlink:href="#m11b44aeb07" x="250.785683" y="104.686692" style="fill: #1f78b4; stroke: #1f78b4"/>
     <use xlink:href="#m11b44aeb07" x="190.818997" y="198.82123" style="fill: #1f78b4; stroke: #1f78b4"/>
     <use xlink:href="#m11b44aeb07" x="242.60107" y="98.12603" style="fill: #1f78b4; stroke: #1f78b4"/>
     <use xlink:href="#m11b44aeb07" x="249.204053" y="61.467627" style="fill: #1f78b4; stroke: #1f78b4"/>
     <use xlink:href="#m11b44aeb07" x="188.912049" y="146.6775" style="fill: #1f78b4; stroke: #1f78b4"/>
     <use xlink:href="#m11b44aeb07" x="188.299902" y="166.258535" style="fill: #1f78b4; stroke: #1f78b4"/>
     <use xlink:href="#m11b44aeb07" x="271.736871" y="38.231316" style="fill: #1f78b4; stroke: #1f78b4"/>
     <use xlink:href="#m11b44aeb07" x="355.894915" y="47.662937" style="fill: #1f78b4; stroke: #1f78b4"/>
     <use xlink:href="#m11b44aeb07" x="159.549748" y="88.838707" style="fill: #1f78b4; stroke: #1f78b4"/>
     <use xlink:href="#m11b44aeb07" x="320.48066" y="95.823918" style="fill: #1f78b4; stroke: #1f78b4"/>
     <use xlink:href="#m11b44aeb07" x="249.343629" y="89.361536" style="fill: #1f78b4; stroke: #1f78b4"/>
     <use xlink:href="#m11b44aeb07" x="308.150774" y="111.827301" style="fill: #1f78b4; stroke: #1f78b4"/>
     <use xlink:href="#m11b44aeb07" x="194.203474" y="53.211329" style="fill: #1f78b4; stroke: #1f78b4"/>
     <use xlink:href="#m11b44aeb07" x="354.676193" y="74.45218" style="fill: #1f78b4; stroke: #1f78b4"/>
     <use xlink:href="#m11b44aeb07" x="302.196568" y="67.746123" style="fill: #1f78b4; stroke: #1f78b4"/>
     <use xlink:href="#m11b44aeb07" x="178.520928" y="198.484115" style="fill: #1f78b4; stroke: #1f78b4"/>
     <use xlink:href="#m11b44aeb07" x="340.081283" y="89.869122" style="fill: #1f78b4; stroke: #1f78b4"/>
     <use xlink:href="#m11b44aeb07" x="359.231041" y="54.056482" style="fill: #1f78b4; stroke: #1f78b4"/>
     <use xlink:href="#m11b44aeb07" x="371.300266" y="103.8143" style="fill: #1f78b4; stroke: #1f78b4"/>
     <use xlink:href="#m11b44aeb07" x="337.308354" y="86.053919" style="fill: #1f78b4; stroke: #1f78b4"/>
     <use xlink:href="#m11b44aeb07" x="309.536239" y="46.209329" style="fill: #1f78b4; stroke: #1f78b4"/>
     <use xlink:href="#m11b44aeb07" x="182.51267" y="98.748008" style="fill: #1f78b4; stroke: #1f78b4"/>
     <use xlink:href="#m11b44aeb07" x="222.740443" y="123.966051" style="fill: #1f78b4; stroke: #1f78b4"/>
     <use xlink:href="#m11b44aeb07" x="232.124686" y="100.236353" style="fill: #1f78b4; stroke: #1f78b4"/>
     <use xlink:href="#m11b44aeb07" x="130.966632" y="150.667684" style="fill: #1f78b4; stroke: #1f78b4"/>
     <use xlink:href="#m11b44aeb07" x="273.109715" y="60.908538" style="fill: #1f78b4; stroke: #1f78b4"/>
     <use xlink:href="#m11b44aeb07" x="126.602384" y="134.623045" style="fill: #1f78b4; stroke: #1f78b4"/>
     <use xlink:href="#m11b44aeb07" x="206.354439" y="82.495379" style="fill: #1f78b4; stroke: #1f78b4"/>
     <use xlink:href="#m11b44aeb07" x="373.633604" y="67.806611" style="fill: #1f78b4; stroke: #1f78b4"/>
     <use xlink:href="#m11b44aeb07" x="376.089222" y="99.039913" style="fill: #1f78b4; stroke: #1f78b4"/>
     <use xlink:href="#m11b44aeb07" x="387.268241" y="59.862835" style="fill: #1f78b4; stroke: #1f78b4"/>
     <use xlink:href="#m11b44aeb07" x="159.542641" y="142.573371" style="fill: #1f78b4; stroke: #1f78b4"/>
     <use xlink:href="#m11b44aeb07" x="187.273552" y="86.75959" style="fill: #1f78b4; stroke: #1f78b4"/>
     <use xlink:href="#m11b44aeb07" x="362.091213" y="93.256417" style="fill: #1f78b4; stroke: #1f78b4"/>
     <use xlink:href="#m11b44aeb07" x="300.75632" y="45.7603" style="fill: #1f78b4; stroke: #1f78b4"/>
     <use xlink:href="#m11b44aeb07" x="156.636108" y="68.656052" style="fill: #1f78b4; stroke: #1f78b4"/>
     <use xlink:href="#m11b44aeb07" x="106.449036" y="314.969835" style="fill: #1f78b4; stroke: #1f78b4"/>
    </g>
   </g>
  </g>
 </g>
 <defs>
  <clipPath id="p3c3cc5bc6e">
   <rect x="0" y="0" width="460.8" height="345.6"/>
  </clipPath>
 </defs>
</svg>
