<?xml version="1.0" encoding="utf-8" standalone="no"?>
<!DOCTYPE svg PUBLIC "-//W3C//DTD SVG 1.1//EN"
  "http://www.w3.org/Graphics/SVG/1.1/DTD/svg11.dtd">
<svg xmlns:xlink="http://www.w3.org/1999/xlink" width="460.8pt" height="345.6pt" viewBox="0 0 460.8 345.6" xmlns="http://www.w3.org/2000/svg" version="1.1">
 <metadata>
  <rdf:RDF xmlns:dc="http://purl.org/dc/elements/1.1/" xmlns:cc="http://creativecommons.org/ns#" xmlns:rdf="http://www.w3.org/1999/02/22-rdf-syntax-ns#">
   <cc:Work>
    <dc:type rdf:resource="http://purl.org/dc/dcmitype/StillImage"/>
    <dc:date>2023-05-08T17:41:33.854535</dc:date>
    <dc:format>image/svg+xml</dc:format>
    <dc:creator>
     <cc:Agent>
      <dc:title>Matplotlib v3.7.1, https://matplotlib.org/</dc:title>
     </cc:Agent>
    </dc:creator>
   </cc:Work>
  </rdf:RDF>
 </metadata>
 <defs>
  <style type="text/css">*{stroke-linejoin: round; stroke-linecap: butt}</style>
 </defs>
 <g id="figure_1">
  <g id="patch_1">
   <path d="M 0 345.6 
L 460.8 345.6 
L 460.8 0 
L 0 0 
z
" style="fill: #ffffff"/>
  </g>
  <g id="axes_1">
   <g id="LineCollection_1">
    <path d="M 123.730161 315.609917 
L 139.212331 291.194837 
" clip-path="url(#p5c58ee5a51)" style="fill: none; stroke: #000000"/>
    <path d="M 123.730161 315.609917 
L 155.095848 311.16828 
" clip-path="url(#p5c58ee5a51)" style="fill: none; stroke: #000000"/>
    <path d="M 368.419907 95.393358 
L 420.813223 103.315457 
" clip-path="url(#p5c58ee5a51)" style="fill: none; stroke: #000000"/>
    <path d="M 368.419907 95.393358 
L 300.641908 82.79703 
" clip-path="url(#p5c58ee5a51)" style="fill: none; stroke: #000000"/>
    <path d="M 235.160886 39.144096 
L 260.985521 55.415947 
" clip-path="url(#p5c58ee5a51)" style="fill: none; stroke: #000000"/>
    <path d="M 235.160886 39.144096 
L 220.771664 63.071338 
" clip-path="url(#p5c58ee5a51)" style="fill: none; stroke: #000000"/>
    <path d="M 235.160886 39.144096 
L 207.939747 29.990083 
" clip-path="url(#p5c58ee5a51)" style="fill: none; stroke: #000000"/>
    <path d="M 260.985521 55.415947 
L 220.771664 63.071338 
" clip-path="url(#p5c58ee5a51)" style="fill: none; stroke: #000000"/>
    <path d="M 99.218564 85.759938 
L 106.360306 104.747286 
" clip-path="url(#p5c58ee5a51)" style="fill: none; stroke: #000000"/>
    <path d="M 99.218564 85.759938 
L 39.986777 86.200372 
" clip-path="url(#p5c58ee5a51)" style="fill: none; stroke: #000000"/>
    <path d="M 99.218564 85.759938 
L 162.598039 78.061968 
" clip-path="url(#p5c58ee5a51)" style="fill: none; stroke: #000000"/>
    <path d="M 99.218564 85.759938 
L 146.690496 83.191903 
" clip-path="url(#p5c58ee5a51)" style="fill: none; stroke: #000000"/>
    <path d="M 106.360306 104.747286 
L 146.690496 83.191903 
" clip-path="url(#p5c58ee5a51)" style="fill: none; stroke: #000000"/>
    <path d="M 173.194985 64.392227 
L 162.598039 78.061968 
" clip-path="url(#p5c58ee5a51)" style="fill: none; stroke: #000000"/>
    <path d="M 173.194985 64.392227 
L 220.771664 63.071338 
" clip-path="url(#p5c58ee5a51)" style="fill: none; stroke: #000000"/>
    <path d="M 173.194985 64.392227 
L 146.690496 83.191903 
" clip-path="url(#p5c58ee5a51)" style="fill: none; stroke: #000000"/>
    <path d="M 139.212331 291.194837 
L 155.095848 311.16828 
" clip-path="url(#p5c58ee5a51)" style="fill: none; stroke: #000000"/>
    <path d="M 162.598039 78.061968 
L 220.771664 63.071338 
" clip-path="url(#p5c58ee5a51)" style="fill: none; stroke: #000000"/>
    <path d="M 162.598039 78.061968 
L 146.690496 83.191903 
" clip-path="url(#p5c58ee5a51)" style="fill: none; stroke: #000000"/>
    <path d="M 220.771664 63.071338 
L 268.763192 35.200213 
" clip-path="url(#p5c58ee5a51)" style="fill: none; stroke: #000000"/>
    <path d="M 220.771664 63.071338 
L 146.690496 83.191903 
" clip-path="url(#p5c58ee5a51)" style="fill: none; stroke: #000000"/>
    <path d="M 220.771664 63.071338 
L 207.939747 29.990083 
" clip-path="url(#p5c58ee5a51)" style="fill: none; stroke: #000000"/>
    <path d="M 220.771664 63.071338 
L 300.641908 82.79703 
" clip-path="url(#p5c58ee5a51)" style="fill: none; stroke: #000000"/>
   </g>
   <g id="PathCollection_1">
    <defs>
     <path id="m323f45655e" d="M 0 5 
C 1.326016 5 2.597899 4.473168 3.535534 3.535534 
C 4.473168 2.597899 5 1.326016 5 0 
C 5 -1.326016 4.473168 -2.597899 3.535534 -3.535534 
C 2.597899 -4.473168 1.326016 -5 0 -5 
C -1.326016 -5 -2.597899 -4.473168 -3.535534 -3.535534 
C -4.473168 -2.597899 -5 -1.326016 -5 0 
C -5 1.326016 -4.473168 2.597899 -3.535534 3.535534 
C -2.597899 4.473168 -1.326016 5 0 5 
z
" style="stroke: #1f78b4"/>
    </defs>
    <g clip-path="url(#p5c58ee5a51)">
     <use xlink:href="#m323f45655e" x="123.730161" y="315.609917" style="fill: #1f78b4; stroke: #1f78b4"/>
     <use xlink:href="#m323f45655e" x="368.419907" y="95.393358" style="fill: #1f78b4; stroke: #1f78b4"/>
     <use xlink:href="#m323f45655e" x="235.160886" y="39.144096" style="fill: #1f78b4; stroke: #1f78b4"/>
     <use xlink:href="#m323f45655e" x="260.985521" y="55.415947" style="fill: #1f78b4; stroke: #1f78b4"/>
     <use xlink:href="#m323f45655e" x="99.218564" y="85.759938" style="fill: #1f78b4; stroke: #1f78b4"/>
     <use xlink:href="#m323f45655e" x="106.360306" y="104.747286" style="fill: #1f78b4; stroke: #1f78b4"/>
     <use xlink:href="#m323f45655e" x="39.986777" y="86.200372" style="fill: #1f78b4; stroke: #1f78b4"/>
     <use xlink:href="#m323f45655e" x="173.194985" y="64.392227" style="fill: #1f78b4; stroke: #1f78b4"/>
     <use xlink:href="#m323f45655e" x="139.212331" y="291.194837" style="fill: #1f78b4; stroke: #1f78b4"/>
     <use xlink:href="#m323f45655e" x="162.598039" y="78.061968" style="fill: #1f78b4; stroke: #1f78b4"/>
     <use xlink:href="#m323f45655e" x="420.813223" y="103.315457" style="fill: #1f78b4; stroke: #1f78b4"/>
     <use xlink:href="#m323f45655e" x="220.771664" y="63.071338" style="fill: #1f78b4; stroke: #1f78b4"/>
     <use xlink:href="#m323f45655e" x="155.095848" y="311.16828" style="fill: #1f78b4; stroke: #1f78b4"/>
     <use xlink:href="#m323f45655e" x="268.763192" y="35.200213" style="fill: #1f78b4; stroke: #1f78b4"/>
     <use xlink:href="#m323f45655e" x="146.690496" y="83.191903" style="fill: #1f78b4; stroke: #1f78b4"/>
     <use xlink:href="#m323f45655e" x="207.939747" y="29.990083" style="fill: #1f78b4; stroke: #1f78b4"/>
     <use xlink:href="#m323f45655e" x="300.641908" y="82.79703" style="fill: #1f78b4; stroke: #1f78b4"/>
    </g>
   </g>
  </g>
 </g>
 <defs>
  <clipPath id="p5c58ee5a51">
   <rect x="0" y="0" width="460.8" height="345.6"/>
  </clipPath>
 </defs>
</svg>
