<?xml version="1.0" encoding="utf-8" standalone="no"?>
<!DOCTYPE svg PUBLIC "-//W3C//DTD SVG 1.1//EN"
  "http://www.w3.org/Graphics/SVG/1.1/DTD/svg11.dtd">
<svg xmlns:xlink="http://www.w3.org/1999/xlink" width="460.8pt" height="345.6pt" viewBox="0 0 460.8 345.6" xmlns="http://www.w3.org/2000/svg" version="1.1">
 <metadata>
  <rdf:RDF xmlns:dc="http://purl.org/dc/elements/1.1/" xmlns:cc="http://creativecommons.org/ns#" xmlns:rdf="http://www.w3.org/1999/02/22-rdf-syntax-ns#">
   <cc:Work>
    <dc:type rdf:resource="http://purl.org/dc/dcmitype/StillImage"/>
    <dc:date>2023-05-08T17:41:01.318378</dc:date>
    <dc:format>image/svg+xml</dc:format>
    <dc:creator>
     <cc:Agent>
      <dc:title>Matplotlib v3.7.1, https://matplotlib.org/</dc:title>
     </cc:Agent>
    </dc:creator>
   </cc:Work>
  </rdf:RDF>
 </metadata>
 <defs>
  <style type="text/css">*{stroke-linejoin: round; stroke-linecap: butt}</style>
 </defs>
 <g id="figure_1">
  <g id="patch_1">
   <path d="M 0 345.6 
L 460.8 345.6 
L 460.8 0 
L 0 0 
z
" style="fill: #ffffff"/>
  </g>
  <g id="axes_1">
   <g id="LineCollection_1">
    <path d="M 49.310306 295.485604 
L 54.534207 316.720972 
" clip-path="url(#p8546ceffd4)" style="fill: none; stroke: #000000"/>
    <path d="M 49.310306 295.485604 
L 34.059526 316.574511 
" clip-path="url(#p8546ceffd4)" style="fill: none; stroke: #000000"/>
    <path d="M 283.658507 247.311184 
L 292.326433 282.194553 
" clip-path="url(#p8546ceffd4)" style="fill: none; stroke: #000000"/>
    <path d="M 283.658507 247.311184 
L 273.522259 200.772264 
" clip-path="url(#p8546ceffd4)" style="fill: none; stroke: #000000"/>
    <path d="M 295.200635 147.973478 
L 296.340963 128.164323 
" clip-path="url(#p8546ceffd4)" style="fill: none; stroke: #000000"/>
    <path d="M 295.200635 147.973478 
L 265.342001 142.85057 
" clip-path="url(#p8546ceffd4)" style="fill: none; stroke: #000000"/>
    <path d="M 295.200635 147.973478 
L 286.49354 165.156262 
" clip-path="url(#p8546ceffd4)" style="fill: none; stroke: #000000"/>
    <path d="M 296.340963 128.164323 
L 265.342001 142.85057 
" clip-path="url(#p8546ceffd4)" style="fill: none; stroke: #000000"/>
    <path d="M 213.235596 88.417448 
L 198.801948 105.951619 
" clip-path="url(#p8546ceffd4)" style="fill: none; stroke: #000000"/>
    <path d="M 213.235596 88.417448 
L 197.741388 53.322222 
" clip-path="url(#p8546ceffd4)" style="fill: none; stroke: #000000"/>
    <path d="M 213.235596 88.417448 
L 239.256072 113.390904 
" clip-path="url(#p8546ceffd4)" style="fill: none; stroke: #000000"/>
    <path d="M 213.235596 88.417448 
L 226.139795 120.343406 
" clip-path="url(#p8546ceffd4)" style="fill: none; stroke: #000000"/>
    <path d="M 198.801948 105.951619 
L 226.139795 120.343406 
" clip-path="url(#p8546ceffd4)" style="fill: none; stroke: #000000"/>
    <path d="M 239.897324 138.40997 
L 239.256072 113.390904 
" clip-path="url(#p8546ceffd4)" style="fill: none; stroke: #000000"/>
    <path d="M 239.897324 138.40997 
L 265.342001 142.85057 
" clip-path="url(#p8546ceffd4)" style="fill: none; stroke: #000000"/>
    <path d="M 239.897324 138.40997 
L 226.139795 120.343406 
" clip-path="url(#p8546ceffd4)" style="fill: none; stroke: #000000"/>
    <path d="M 54.534207 316.720972 
L 34.059526 316.574511 
" clip-path="url(#p8546ceffd4)" style="fill: none; stroke: #000000"/>
    <path d="M 239.256072 113.390904 
L 265.342001 142.85057 
" clip-path="url(#p8546ceffd4)" style="fill: none; stroke: #000000"/>
    <path d="M 239.256072 113.390904 
L 226.139795 120.343406 
" clip-path="url(#p8546ceffd4)" style="fill: none; stroke: #000000"/>
    <path d="M 265.342001 142.85057 
L 279.60911 106.261749 
" clip-path="url(#p8546ceffd4)" style="fill: none; stroke: #000000"/>
    <path d="M 265.342001 142.85057 
L 226.139795 120.343406 
" clip-path="url(#p8546ceffd4)" style="fill: none; stroke: #000000"/>
    <path d="M 265.342001 142.85057 
L 286.49354 165.156262 
" clip-path="url(#p8546ceffd4)" style="fill: none; stroke: #000000"/>
    <path d="M 265.342001 142.85057 
L 273.522259 200.772264 
" clip-path="url(#p8546ceffd4)" style="fill: none; stroke: #000000"/>
   </g>
   <g id="PathCollection_1">
    <defs>
     <path id="m2d39653741" d="M 0 5 
C 1.326016 5 2.597899 4.473168 3.535534 3.535534 
C 4.473168 2.597899 5 1.326016 5 0 
C 5 -1.326016 4.473168 -2.597899 3.535534 -3.535534 
C 2.597899 -4.473168 1.326016 -5 0 -5 
C -1.326016 -5 -2.597899 -4.473168 -3.535534 -3.535534 
C -4.473168 -2.597899 -5 -1.326016 -5 0 
C -5 1.326016 -4.473168 2.597899 -3.535534 3.535534 
C -2.597899 4.473168 -1.326016 5 0 5 
z
" style="stroke: #1f78b4"/>
    </defs>
    <g clip-path="url(#p8546ceffd4)">
     <use xlink:href="#m2d39653741" x="49.310306" y="295.485604" style="fill: #1f78b4; stroke: #1f78b4"/>
     <use xlink:href="#m2d39653741" x="283.658507" y="247.311184" style="fill: #1f78b4; stroke: #1f78b4"/>
     <use xlink:href="#m2d39653741" x="439.854545" y="265.307769" style="fill: #1f78b4; stroke: #1f78b4"/>
     <use xlink:href="#m2d39653741" x="295.200635" y="147.973478" style="fill: #1f78b4; stroke: #1f78b4"/>
     <use xlink:href="#m2d39653741" x="296.340963" y="128.164323" style="fill: #1f78b4; stroke: #1f78b4"/>
     <use xlink:href="#m2d39653741" x="213.235596" y="88.417448" style="fill: #1f78b4; stroke: #1f78b4"/>
     <use xlink:href="#m2d39653741" x="198.801948" y="105.951619" style="fill: #1f78b4; stroke: #1f78b4"/>
     <use xlink:href="#m2d39653741" x="197.741388" y="53.322222" style="fill: #1f78b4; stroke: #1f78b4"/>
     <use xlink:href="#m2d39653741" x="239.897324" y="138.40997" style="fill: #1f78b4; stroke: #1f78b4"/>
     <use xlink:href="#m2d39653741" x="54.534207" y="316.720972" style="fill: #1f78b4; stroke: #1f78b4"/>
     <use xlink:href="#m2d39653741" x="239.256072" y="113.390904" style="fill: #1f78b4; stroke: #1f78b4"/>
     <use xlink:href="#m2d39653741" x="292.326433" y="282.194553" style="fill: #1f78b4; stroke: #1f78b4"/>
     <use xlink:href="#m2d39653741" x="265.342001" y="142.85057" style="fill: #1f78b4; stroke: #1f78b4"/>
     <use xlink:href="#m2d39653741" x="34.059526" y="316.574511" style="fill: #1f78b4; stroke: #1f78b4"/>
     <use xlink:href="#m2d39653741" x="279.60911" y="106.261749" style="fill: #1f78b4; stroke: #1f78b4"/>
     <use xlink:href="#m2d39653741" x="226.139795" y="120.343406" style="fill: #1f78b4; stroke: #1f78b4"/>
     <use xlink:href="#m2d39653741" x="286.49354" y="165.156262" style="fill: #1f78b4; stroke: #1f78b4"/>
     <use xlink:href="#m2d39653741" x="273.522259" y="200.772264" style="fill: #1f78b4; stroke: #1f78b4"/>
     <use xlink:href="#m2d39653741" x="28.992384" y="15.709091" style="fill: #1f78b4; stroke: #1f78b4"/>
    </g>
   </g>
  </g>
 </g>
 <defs>
  <clipPath id="p8546ceffd4">
   <rect x="0" y="0" width="460.8" height="345.6"/>
  </clipPath>
 </defs>
</svg>
