<?xml version="1.0" encoding="utf-8" standalone="no"?>
<!DOCTYPE svg PUBLIC "-//W3C//DTD SVG 1.1//EN"
  "http://www.w3.org/Graphics/SVG/1.1/DTD/svg11.dtd">
<svg xmlns:xlink="http://www.w3.org/1999/xlink" width="460.8pt" height="345.6pt" viewBox="0 0 460.8 345.6" xmlns="http://www.w3.org/2000/svg" version="1.1">
 <metadata>
  <rdf:RDF xmlns:dc="http://purl.org/dc/elements/1.1/" xmlns:cc="http://creativecommons.org/ns#" xmlns:rdf="http://www.w3.org/1999/02/22-rdf-syntax-ns#">
   <cc:Work>
    <dc:type rdf:resource="http://purl.org/dc/dcmitype/StillImage"/>
    <dc:date>2023-05-07T19:28:04.489733</dc:date>
    <dc:format>image/svg+xml</dc:format>
    <dc:creator>
     <cc:Agent>
      <dc:title>Matplotlib v3.7.1, https://matplotlib.org/</dc:title>
     </cc:Agent>
    </dc:creator>
   </cc:Work>
  </rdf:RDF>
 </metadata>
 <defs>
  <style type="text/css">*{stroke-linejoin: round; stroke-linecap: butt}</style>
 </defs>
 <g id="figure_1">
  <g id="patch_1">
   <path d="M 0 345.6 
L 460.8 345.6 
L 460.8 0 
L 0 0 
z
" style="fill: #ffffff"/>
  </g>
  <g id="axes_1">
   <g id="LineCollection_1">
    <path d="M 132.347482 266.98749 
L 171.074161 252.142841 
" clip-path="url(#p293567a8b2)" style="fill: none; stroke: #000000"/>
    <path d="M 132.347482 266.98749 
L 163.595217 276.084107 
" clip-path="url(#p293567a8b2)" style="fill: none; stroke: #000000"/>
    <path d="M 132.347482 266.98749 
L 93.488287 286.650174 
" clip-path="url(#p293567a8b2)" style="fill: none; stroke: #000000"/>
    <path d="M 132.347482 266.98749 
L 155.026032 242.256115 
" clip-path="url(#p293567a8b2)" style="fill: none; stroke: #000000"/>
    <path d="M 252.739782 213.543226 
L 191.755013 219.538467 
" clip-path="url(#p293567a8b2)" style="fill: none; stroke: #000000"/>
    <path d="M 252.739782 213.543226 
L 282.59321 198.609032 
" clip-path="url(#p293567a8b2)" style="fill: none; stroke: #000000"/>
    <path d="M 171.074161 252.142841 
L 163.595217 276.084107 
" clip-path="url(#p293567a8b2)" style="fill: none; stroke: #000000"/>
    <path d="M 171.074161 252.142841 
L 155.026032 242.256115 
" clip-path="url(#p293567a8b2)" style="fill: none; stroke: #000000"/>
    <path d="M 171.074161 252.142841 
L 191.755013 219.538467 
" clip-path="url(#p293567a8b2)" style="fill: none; stroke: #000000"/>
    <path d="M 171.074161 252.142841 
L 189.459849 238.297153 
" clip-path="url(#p293567a8b2)" style="fill: none; stroke: #000000"/>
    <path d="M 155.026032 242.256115 
L 191.755013 219.538467 
" clip-path="url(#p293567a8b2)" style="fill: none; stroke: #000000"/>
    <path d="M 155.026032 242.256115 
L 189.459849 238.297153 
" clip-path="url(#p293567a8b2)" style="fill: none; stroke: #000000"/>
    <path d="M 191.755013 219.538467 
L 189.459849 238.297153 
" clip-path="url(#p293567a8b2)" style="fill: none; stroke: #000000"/>
    <path d="M 191.755013 219.538467 
L 142.281911 207.348505 
" clip-path="url(#p293567a8b2)" style="fill: none; stroke: #000000"/>
    <path d="M 191.755013 219.538467 
L 238.382854 199.559794 
" clip-path="url(#p293567a8b2)" style="fill: none; stroke: #000000"/>
    <path d="M 191.755013 219.538467 
L 177.975541 194.474855 
" clip-path="url(#p293567a8b2)" style="fill: none; stroke: #000000"/>
    <path d="M 377.829584 69.905172 
L 412.631641 59.039452 
" clip-path="url(#p293567a8b2)" style="fill: none; stroke: #000000"/>
    <path d="M 377.829584 69.905172 
L 386.697101 51.263928 
" clip-path="url(#p293567a8b2)" style="fill: none; stroke: #000000"/>
    <path d="M 412.631641 59.039452 
L 386.697101 51.263928 
" clip-path="url(#p293567a8b2)" style="fill: none; stroke: #000000"/>
    <path d="M 238.382854 199.559794 
L 282.59321 198.609032 
" clip-path="url(#p293567a8b2)" style="fill: none; stroke: #000000"/>
   </g>
   <g id="PathCollection_1">
    <defs>
     <path id="me89673b191" d="M 0 5 
C 1.326016 5 2.597899 4.473168 3.535534 3.535534 
C 4.473168 2.597899 5 1.326016 5 0 
C 5 -1.326016 4.473168 -2.597899 3.535534 -3.535534 
C 2.597899 -4.473168 1.326016 -5 0 -5 
C -1.326016 -5 -2.597899 -4.473168 -3.535534 -3.535534 
C -4.473168 -2.597899 -5 -1.326016 -5 0 
C -5 1.326016 -4.473168 2.597899 -3.535534 3.535534 
C -2.597899 4.473168 -1.326016 5 0 5 
z
" style="stroke: #1f78b4"/>
    </defs>
    <g clip-path="url(#p293567a8b2)">
     <use xlink:href="#me89673b191" x="132.347482" y="266.98749" style="fill: #1f78b4; stroke: #1f78b4"/>
     <use xlink:href="#me89673b191" x="252.739782" y="213.543226" style="fill: #1f78b4; stroke: #1f78b4"/>
     <use xlink:href="#me89673b191" x="171.074161" y="252.142841" style="fill: #1f78b4; stroke: #1f78b4"/>
     <use xlink:href="#me89673b191" x="163.595217" y="276.084107" style="fill: #1f78b4; stroke: #1f78b4"/>
     <use xlink:href="#me89673b191" x="93.488287" y="286.650174" style="fill: #1f78b4; stroke: #1f78b4"/>
     <use xlink:href="#me89673b191" x="155.026032" y="242.256115" style="fill: #1f78b4; stroke: #1f78b4"/>
     <use xlink:href="#me89673b191" x="191.755013" y="219.538467" style="fill: #1f78b4; stroke: #1f78b4"/>
     <use xlink:href="#me89673b191" x="439.854545" y="329.890909" style="fill: #1f78b4; stroke: #1f78b4"/>
     <use xlink:href="#me89673b191" x="52.0438" y="15.709091" style="fill: #1f78b4; stroke: #1f78b4"/>
     <use xlink:href="#me89673b191" x="377.829584" y="69.905172" style="fill: #1f78b4; stroke: #1f78b4"/>
     <use xlink:href="#me89673b191" x="412.631641" y="59.039452" style="fill: #1f78b4; stroke: #1f78b4"/>
     <use xlink:href="#me89673b191" x="189.459849" y="238.297153" style="fill: #1f78b4; stroke: #1f78b4"/>
     <use xlink:href="#me89673b191" x="142.281911" y="207.348505" style="fill: #1f78b4; stroke: #1f78b4"/>
     <use xlink:href="#me89673b191" x="238.382854" y="199.559794" style="fill: #1f78b4; stroke: #1f78b4"/>
     <use xlink:href="#me89673b191" x="386.697101" y="51.263928" style="fill: #1f78b4; stroke: #1f78b4"/>
     <use xlink:href="#me89673b191" x="177.975541" y="194.474855" style="fill: #1f78b4; stroke: #1f78b4"/>
     <use xlink:href="#me89673b191" x="20.945455" y="69.555605" style="fill: #1f78b4; stroke: #1f78b4"/>
     <use xlink:href="#me89673b191" x="282.59321" y="198.609032" style="fill: #1f78b4; stroke: #1f78b4"/>
    </g>
   </g>
  </g>
 </g>
 <defs>
  <clipPath id="p293567a8b2">
   <rect x="0" y="0" width="460.8" height="345.6"/>
  </clipPath>
 </defs>
</svg>
