<?xml version="1.0" encoding="utf-8" standalone="no"?>
<!DOCTYPE svg PUBLIC "-//W3C//DTD SVG 1.1//EN"
  "http://www.w3.org/Graphics/SVG/1.1/DTD/svg11.dtd">
<svg xmlns:xlink="http://www.w3.org/1999/xlink" width="460.8pt" height="345.6pt" viewBox="0 0 460.8 345.6" xmlns="http://www.w3.org/2000/svg" version="1.1">
 <metadata>
  <rdf:RDF xmlns:dc="http://purl.org/dc/elements/1.1/" xmlns:cc="http://creativecommons.org/ns#" xmlns:rdf="http://www.w3.org/1999/02/22-rdf-syntax-ns#">
   <cc:Work>
    <dc:type rdf:resource="http://purl.org/dc/dcmitype/StillImage"/>
    <dc:date>2023-11-11T21:56:42.240339</dc:date>
    <dc:format>image/svg+xml</dc:format>
    <dc:creator>
     <cc:Agent>
      <dc:title>Matplotlib v3.8.1, https://matplotlib.org/</dc:title>
     </cc:Agent>
    </dc:creator>
   </cc:Work>
  </rdf:RDF>
 </metadata>
 <defs>
  <style type="text/css">*{stroke-linejoin: round; stroke-linecap: butt}</style>
 </defs>
 <g id="figure_1">
  <g id="patch_1">
   <path d="M 0 345.6 
L 460.8 345.6 
L 460.8 0 
L 0 0 
z
" style="fill: #ffffff"/>
  </g>
  <g id="axes_1">
   <g id="LineCollection_1">
    <path d="M 239.683878 159.237989 
L 250.841592 168.563331 
" clip-path="url(#pd8525c5879)" style="fill: none; stroke: #000000"/>
    <path d="M 239.683878 159.237989 
L 261.640024 163.069384 
" clip-path="url(#pd8525c5879)" style="fill: none; stroke: #000000"/>
    <path d="M 239.683878 159.237989 
L 228.859534 161.467245 
" clip-path="url(#pd8525c5879)" style="fill: none; stroke: #000000"/>
    <path d="M 248.485219 150.289876 
L 265.348937 159.612773 
" clip-path="url(#pd8525c5879)" style="fill: none; stroke: #000000"/>
    <path d="M 248.485219 150.289876 
L 249.475328 162.471438 
" clip-path="url(#pd8525c5879)" style="fill: none; stroke: #000000"/>
    <path d="M 266.287635 182.327957 
L 256.628365 171.600153 
" clip-path="url(#pd8525c5879)" style="fill: none; stroke: #000000"/>
    <path d="M 266.287635 182.327957 
L 272.066207 183.376681 
" clip-path="url(#pd8525c5879)" style="fill: none; stroke: #000000"/>
    <path d="M 266.287635 182.327957 
L 241.596259 175.977582 
" clip-path="url(#pd8525c5879)" style="fill: none; stroke: #000000"/>
    <path d="M 266.287635 182.327957 
L 272.820716 180.01624 
" clip-path="url(#pd8525c5879)" style="fill: none; stroke: #000000"/>
    <path d="M 266.287635 182.327957 
L 276.393889 189.85767 
" clip-path="url(#pd8525c5879)" style="fill: none; stroke: #000000"/>
    <path d="M 266.287635 182.327957 
L 294.530541 194.696063 
" clip-path="url(#pd8525c5879)" style="fill: none; stroke: #000000"/>
    <path d="M 266.287635 182.327957 
L 260.707199 173.877845 
" clip-path="url(#pd8525c5879)" style="fill: none; stroke: #000000"/>
    <path d="M 396.931778 226.856266 
L 404.9694 228.051758 
" clip-path="url(#pd8525c5879)" style="fill: none; stroke: #000000"/>
    <path d="M 396.931778 226.856266 
L 378.24146 219.322997 
" clip-path="url(#pd8525c5879)" style="fill: none; stroke: #000000"/>
    <path d="M 288.200616 163.776214 
L 278.309832 190.649967 
" clip-path="url(#pd8525c5879)" style="fill: none; stroke: #000000"/>
    <path d="M 288.200616 163.776214 
L 298.355792 172.146889 
" clip-path="url(#pd8525c5879)" style="fill: none; stroke: #000000"/>
    <path d="M 288.200616 163.776214 
L 277.160434 154.785012 
" clip-path="url(#pd8525c5879)" style="fill: none; stroke: #000000"/>
    <path d="M 288.200616 163.776214 
L 250.841592 168.563331 
" clip-path="url(#pd8525c5879)" style="fill: none; stroke: #000000"/>
    <path d="M 288.200616 163.776214 
L 278.736505 173.912733 
" clip-path="url(#pd8525c5879)" style="fill: none; stroke: #000000"/>
    <path d="M 288.200616 163.776214 
L 280.674412 185.819117 
" clip-path="url(#pd8525c5879)" style="fill: none; stroke: #000000"/>
    <path d="M 288.200616 163.776214 
L 306.539337 149.924882 
" clip-path="url(#pd8525c5879)" style="fill: none; stroke: #000000"/>
    <path d="M 288.200616 163.776214 
L 265.348937 159.612773 
" clip-path="url(#pd8525c5879)" style="fill: none; stroke: #000000"/>
    <path d="M 288.200616 163.776214 
L 301.21489 144.993818 
" clip-path="url(#pd8525c5879)" style="fill: none; stroke: #000000"/>
    <path d="M 288.200616 163.776214 
L 293.067812 151.730912 
" clip-path="url(#pd8525c5879)" style="fill: none; stroke: #000000"/>
    <path d="M 288.200616 163.776214 
L 288.700406 150.501039 
" clip-path="url(#pd8525c5879)" style="fill: none; stroke: #000000"/>
    <path d="M 288.200616 163.776214 
L 293.03338 146.24779 
" clip-path="url(#pd8525c5879)" style="fill: none; stroke: #000000"/>
    <path d="M 288.200616 163.776214 
L 298.87317 174.681913 
" clip-path="url(#pd8525c5879)" style="fill: none; stroke: #000000"/>
    <path d="M 288.200616 163.776214 
L 261.640024 163.069384 
" clip-path="url(#pd8525c5879)" style="fill: none; stroke: #000000"/>
    <path d="M 288.200616 163.776214 
L 301.648017 151.458127 
" clip-path="url(#pd8525c5879)" style="fill: none; stroke: #000000"/>
    <path d="M 288.200616 163.776214 
L 284.006451 184.403843 
" clip-path="url(#pd8525c5879)" style="fill: none; stroke: #000000"/>
    <path d="M 288.200616 163.776214 
L 311.557268 156.855466 
" clip-path="url(#pd8525c5879)" style="fill: none; stroke: #000000"/>
    <path d="M 288.200616 163.776214 
L 317.453215 149.470644 
" clip-path="url(#pd8525c5879)" style="fill: none; stroke: #000000"/>
    <path d="M 256.628365 171.600153 
L 261.349285 182.148093 
" clip-path="url(#pd8525c5879)" style="fill: none; stroke: #000000"/>
    <path d="M 256.628365 171.600153 
L 259.748332 186.56324 
" clip-path="url(#pd8525c5879)" style="fill: none; stroke: #000000"/>
    <path d="M 256.628365 171.600153 
L 272.343997 165.929765 
" clip-path="url(#pd8525c5879)" style="fill: none; stroke: #000000"/>
    <path d="M 256.628365 171.600153 
L 246.883751 165.757303 
" clip-path="url(#pd8525c5879)" style="fill: none; stroke: #000000"/>
    <path d="M 256.628365 171.600153 
L 241.596259 175.977582 
" clip-path="url(#pd8525c5879)" style="fill: none; stroke: #000000"/>
    <path d="M 256.628365 171.600153 
L 272.820716 180.01624 
" clip-path="url(#pd8525c5879)" style="fill: none; stroke: #000000"/>
    <path d="M 256.628365 171.600153 
L 272.761883 168.893526 
" clip-path="url(#pd8525c5879)" style="fill: none; stroke: #000000"/>
    <path d="M 256.628365 171.600153 
L 243.8475 173.908893 
" clip-path="url(#pd8525c5879)" style="fill: none; stroke: #000000"/>
    <path d="M 256.628365 171.600153 
L 260.707199 173.877845 
" clip-path="url(#pd8525c5879)" style="fill: none; stroke: #000000"/>
    <path d="M 256.628365 171.600153 
L 270.100757 159.280606 
" clip-path="url(#pd8525c5879)" style="fill: none; stroke: #000000"/>
    <path d="M 256.628365 171.600153 
L 226.272493 172.190094 
" clip-path="url(#pd8525c5879)" style="fill: none; stroke: #000000"/>
    <path d="M 256.628365 171.600153 
L 263.707069 155.076849 
" clip-path="url(#pd8525c5879)" style="fill: none; stroke: #000000"/>
    <path d="M 235.433879 191.879553 
L 259.748332 186.56324 
" clip-path="url(#pd8525c5879)" style="fill: none; stroke: #000000"/>
    <path d="M 235.433879 191.879553 
L 237.08617 195.776959 
" clip-path="url(#pd8525c5879)" style="fill: none; stroke: #000000"/>
    <path d="M 278.309832 190.649967 
L 270.569583 194.83069 
" clip-path="url(#pd8525c5879)" style="fill: none; stroke: #000000"/>
    <path d="M 278.309832 190.649967 
L 278.736505 173.912733 
" clip-path="url(#pd8525c5879)" style="fill: none; stroke: #000000"/>
    <path d="M 278.309832 190.649967 
L 279.967225 207.722768 
" clip-path="url(#pd8525c5879)" style="fill: none; stroke: #000000"/>
    <path d="M 278.309832 190.649967 
L 280.715547 197.992534 
" clip-path="url(#pd8525c5879)" style="fill: none; stroke: #000000"/>
    <path d="M 278.309832 190.649967 
L 259.748332 186.56324 
" clip-path="url(#pd8525c5879)" style="fill: none; stroke: #000000"/>
    <path d="M 278.309832 190.649967 
L 294.530541 194.696063 
" clip-path="url(#pd8525c5879)" style="fill: none; stroke: #000000"/>
    <path d="M 278.309832 190.649967 
L 291.643254 196.545011 
" clip-path="url(#pd8525c5879)" style="fill: none; stroke: #000000"/>
    <path d="M 278.309832 190.649967 
L 287.748833 205.149784 
" clip-path="url(#pd8525c5879)" style="fill: none; stroke: #000000"/>
    <path d="M 278.309832 190.649967 
L 247.080045 194.831841 
" clip-path="url(#pd8525c5879)" style="fill: none; stroke: #000000"/>
    <path d="M 278.309832 190.649967 
L 284.006451 184.403843 
" clip-path="url(#pd8525c5879)" style="fill: none; stroke: #000000"/>
    <path d="M 343.092118 201.631009 
L 338.133603 205.035584 
" clip-path="url(#pd8525c5879)" style="fill: none; stroke: #000000"/>
    <path d="M 343.092118 201.631009 
L 363.367623 208.441685 
" clip-path="url(#pd8525c5879)" style="fill: none; stroke: #000000"/>
    <path d="M 343.092118 201.631009 
L 345.282513 210.619862 
" clip-path="url(#pd8525c5879)" style="fill: none; stroke: #000000"/>
    <path d="M 343.092118 201.631009 
L 314.132528 189.240272 
" clip-path="url(#pd8525c5879)" style="fill: none; stroke: #000000"/>
    <path d="M 343.092118 201.631009 
L 352.340202 209.789722 
" clip-path="url(#pd8525c5879)" style="fill: none; stroke: #000000"/>
    <path d="M 357.570827 217.92018 
L 355.025595 223.191247 
" clip-path="url(#pd8525c5879)" style="fill: none; stroke: #000000"/>
    <path d="M 357.570827 217.92018 
L 345.282513 210.619862 
" clip-path="url(#pd8525c5879)" style="fill: none; stroke: #000000"/>
    <path d="M 357.570827 217.92018 
L 352.340202 209.789722 
" clip-path="url(#pd8525c5879)" style="fill: none; stroke: #000000"/>
    <path d="M 270.569583 194.83069 
L 280.674412 185.819117 
" clip-path="url(#pd8525c5879)" style="fill: none; stroke: #000000"/>
    <path d="M 270.569583 194.83069 
L 280.715547 197.992534 
" clip-path="url(#pd8525c5879)" style="fill: none; stroke: #000000"/>
    <path d="M 270.569583 194.83069 
L 266.061332 192.790035 
" clip-path="url(#pd8525c5879)" style="fill: none; stroke: #000000"/>
    <path d="M 270.569583 194.83069 
L 247.080045 194.831841 
" clip-path="url(#pd8525c5879)" style="fill: none; stroke: #000000"/>
    <path d="M 270.569583 194.83069 
L 284.006451 184.403843 
" clip-path="url(#pd8525c5879)" style="fill: none; stroke: #000000"/>
    <path d="M 109.105384 301.26035 
L 106.457126 307.205128 
" clip-path="url(#pd8525c5879)" style="fill: none; stroke: #000000"/>
    <path d="M 109.105384 301.26035 
L 116.93196 301.157465 
" clip-path="url(#pd8525c5879)" style="fill: none; stroke: #000000"/>
    <path d="M 298.355792 172.146889 
L 298.87317 174.681913 
" clip-path="url(#pd8525c5879)" style="fill: none; stroke: #000000"/>
    <path d="M 298.355792 172.146889 
L 284.006451 184.403843 
" clip-path="url(#pd8525c5879)" style="fill: none; stroke: #000000"/>
    <path d="M 277.160434 154.785012 
L 250.841592 168.563331 
" clip-path="url(#pd8525c5879)" style="fill: none; stroke: #000000"/>
    <path d="M 277.160434 154.785012 
L 293.067812 151.730912 
" clip-path="url(#pd8525c5879)" style="fill: none; stroke: #000000"/>
    <path d="M 277.160434 154.785012 
L 293.03338 146.24779 
" clip-path="url(#pd8525c5879)" style="fill: none; stroke: #000000"/>
    <path d="M 355.025595 223.191247 
L 345.282513 210.619862 
" clip-path="url(#pd8525c5879)" style="fill: none; stroke: #000000"/>
    <path d="M 284.886204 209.683457 
L 276.393889 189.85767 
" clip-path="url(#pd8525c5879)" style="fill: none; stroke: #000000"/>
    <path d="M 284.886204 209.683457 
L 280.757445 220.606031 
" clip-path="url(#pd8525c5879)" style="fill: none; stroke: #000000"/>
    <path d="M 250.841592 168.563331 
L 246.883751 165.757303 
" clip-path="url(#pd8525c5879)" style="fill: none; stroke: #000000"/>
    <path d="M 250.841592 168.563331 
L 260.707199 173.877845 
" clip-path="url(#pd8525c5879)" style="fill: none; stroke: #000000"/>
    <path d="M 250.841592 168.563331 
L 234.716759 179.257216 
" clip-path="url(#pd8525c5879)" style="fill: none; stroke: #000000"/>
    <path d="M 250.841592 168.563331 
L 261.640024 163.069384 
" clip-path="url(#pd8525c5879)" style="fill: none; stroke: #000000"/>
    <path d="M 250.841592 168.563331 
L 247.080045 194.831841 
" clip-path="url(#pd8525c5879)" style="fill: none; stroke: #000000"/>
    <path d="M 250.841592 168.563331 
L 223.456577 160.504662 
" clip-path="url(#pd8525c5879)" style="fill: none; stroke: #000000"/>
    <path d="M 250.841592 168.563331 
L 228.859534 161.467245 
" clip-path="url(#pd8525c5879)" style="fill: none; stroke: #000000"/>
    <path d="M 278.736505 173.912733 
L 265.348937 159.612773 
" clip-path="url(#pd8525c5879)" style="fill: none; stroke: #000000"/>
    <path d="M 278.736505 173.912733 
L 314.132528 189.240272 
" clip-path="url(#pd8525c5879)" style="fill: none; stroke: #000000"/>
    <path d="M 278.736505 173.912733 
L 260.707199 173.877845 
" clip-path="url(#pd8525c5879)" style="fill: none; stroke: #000000"/>
    <path d="M 278.736505 173.912733 
L 295.732257 185.119482 
" clip-path="url(#pd8525c5879)" style="fill: none; stroke: #000000"/>
    <path d="M 278.736505 173.912733 
L 261.640024 163.069384 
" clip-path="url(#pd8525c5879)" style="fill: none; stroke: #000000"/>
    <path d="M 278.736505 173.912733 
L 249.475328 162.471438 
" clip-path="url(#pd8525c5879)" style="fill: none; stroke: #000000"/>
    <path d="M 261.349285 182.148093 
L 272.066207 183.376681 
" clip-path="url(#pd8525c5879)" style="fill: none; stroke: #000000"/>
    <path d="M 261.349285 182.148093 
L 259.748332 186.56324 
" clip-path="url(#pd8525c5879)" style="fill: none; stroke: #000000"/>
    <path d="M 261.349285 182.148093 
L 241.596259 175.977582 
" clip-path="url(#pd8525c5879)" style="fill: none; stroke: #000000"/>
    <path d="M 261.349285 182.148093 
L 272.820716 180.01624 
" clip-path="url(#pd8525c5879)" style="fill: none; stroke: #000000"/>
    <path d="M 261.349285 182.148093 
L 294.530541 194.696063 
" clip-path="url(#pd8525c5879)" style="fill: none; stroke: #000000"/>
    <path d="M 261.349285 182.148093 
L 243.8475 173.908893 
" clip-path="url(#pd8525c5879)" style="fill: none; stroke: #000000"/>
    <path d="M 261.349285 182.148093 
L 251.101869 186.073954 
" clip-path="url(#pd8525c5879)" style="fill: none; stroke: #000000"/>
    <path d="M 272.118334 148.985836 
L 272.343997 165.929765 
" clip-path="url(#pd8525c5879)" style="fill: none; stroke: #000000"/>
    <path d="M 272.118334 148.985836 
L 263.707069 155.076849 
" clip-path="url(#pd8525c5879)" style="fill: none; stroke: #000000"/>
    <path d="M 209.243682 209.917058 
L 230.585547 199.832045 
" clip-path="url(#pd8525c5879)" style="fill: none; stroke: #000000"/>
    <path d="M 261.197525 151.800756 
L 257.018355 134.107908 
" clip-path="url(#pd8525c5879)" style="fill: none; stroke: #000000"/>
    <path d="M 261.197525 151.800756 
L 260.54024 140.956099 
" clip-path="url(#pd8525c5879)" style="fill: none; stroke: #000000"/>
    <path d="M 261.197525 151.800756 
L 272.343997 165.929765 
" clip-path="url(#pd8525c5879)" style="fill: none; stroke: #000000"/>
    <path d="M 261.197525 151.800756 
L 246.883751 165.757303 
" clip-path="url(#pd8525c5879)" style="fill: none; stroke: #000000"/>
    <path d="M 261.197525 151.800756 
L 272.761883 168.893526 
" clip-path="url(#pd8525c5879)" style="fill: none; stroke: #000000"/>
    <path d="M 280.674412 185.819117 
L 280.715547 197.992534 
" clip-path="url(#pd8525c5879)" style="fill: none; stroke: #000000"/>
    <path d="M 280.674412 185.819117 
L 266.061332 192.790035 
" clip-path="url(#pd8525c5879)" style="fill: none; stroke: #000000"/>
    <path d="M 306.539337 149.924882 
L 301.21489 144.993818 
" clip-path="url(#pd8525c5879)" style="fill: none; stroke: #000000"/>
    <path d="M 423.978478 233.961119 
L 404.9694 228.051758 
" clip-path="url(#pd8525c5879)" style="fill: none; stroke: #000000"/>
    <path d="M 380.395118 210.225848 
L 388.594197 212.091843 
" clip-path="url(#pd8525c5879)" style="fill: none; stroke: #000000"/>
    <path d="M 380.395118 210.225848 
L 386.334184 207.67173 
" clip-path="url(#pd8525c5879)" style="fill: none; stroke: #000000"/>
    <path d="M 380.395118 210.225848 
L 363.367623 208.441685 
" clip-path="url(#pd8525c5879)" style="fill: none; stroke: #000000"/>
    <path d="M 380.395118 210.225848 
L 365.994961 210.151654 
" clip-path="url(#pd8525c5879)" style="fill: none; stroke: #000000"/>
    <path d="M 310.518425 175.308444 
L 285.473608 181.523487 
" clip-path="url(#pd8525c5879)" style="fill: none; stroke: #000000"/>
    <path d="M 388.594197 212.091843 
L 386.334184 207.67173 
" clip-path="url(#pd8525c5879)" style="fill: none; stroke: #000000"/>
    <path d="M 388.594197 212.091843 
L 365.994961 210.151654 
" clip-path="url(#pd8525c5879)" style="fill: none; stroke: #000000"/>
    <path d="M 386.334184 207.67173 
L 363.367623 208.441685 
" clip-path="url(#pd8525c5879)" style="fill: none; stroke: #000000"/>
    <path d="M 338.133603 205.035584 
L 363.367623 208.441685 
" clip-path="url(#pd8525c5879)" style="fill: none; stroke: #000000"/>
    <path d="M 338.133603 205.035584 
L 345.282513 210.619862 
" clip-path="url(#pd8525c5879)" style="fill: none; stroke: #000000"/>
    <path d="M 338.133603 205.035584 
L 294.530541 194.696063 
" clip-path="url(#pd8525c5879)" style="fill: none; stroke: #000000"/>
    <path d="M 338.133603 205.035584 
L 365.994961 210.151654 
" clip-path="url(#pd8525c5879)" style="fill: none; stroke: #000000"/>
    <path d="M 338.133603 205.035584 
L 352.340202 209.789722 
" clip-path="url(#pd8525c5879)" style="fill: none; stroke: #000000"/>
    <path d="M 272.066207 183.376681 
L 267.075707 166.368346 
" clip-path="url(#pd8525c5879)" style="fill: none; stroke: #000000"/>
    <path d="M 272.066207 183.376681 
L 259.748332 186.56324 
" clip-path="url(#pd8525c5879)" style="fill: none; stroke: #000000"/>
    <path d="M 272.066207 183.376681 
L 272.820716 180.01624 
" clip-path="url(#pd8525c5879)" style="fill: none; stroke: #000000"/>
    <path d="M 272.066207 183.376681 
L 276.393889 189.85767 
" clip-path="url(#pd8525c5879)" style="fill: none; stroke: #000000"/>
    <path d="M 272.066207 183.376681 
L 294.530541 194.696063 
" clip-path="url(#pd8525c5879)" style="fill: none; stroke: #000000"/>
    <path d="M 272.066207 183.376681 
L 251.101869 186.073954 
" clip-path="url(#pd8525c5879)" style="fill: none; stroke: #000000"/>
    <path d="M 272.066207 183.376681 
L 270.239344 187.743204 
" clip-path="url(#pd8525c5879)" style="fill: none; stroke: #000000"/>
    <path d="M 272.066207 183.376681 
L 285.473608 181.523487 
" clip-path="url(#pd8525c5879)" style="fill: none; stroke: #000000"/>
    <path d="M 260.54024 140.956099 
L 263.707069 155.076849 
" clip-path="url(#pd8525c5879)" style="fill: none; stroke: #000000"/>
    <path d="M 320.961202 181.623513 
L 295.732257 185.119482 
" clip-path="url(#pd8525c5879)" style="fill: none; stroke: #000000"/>
    <path d="M 265.348937 159.612773 
L 261.640024 163.069384 
" clip-path="url(#pd8525c5879)" style="fill: none; stroke: #000000"/>
    <path d="M 265.348937 159.612773 
L 249.475328 162.471438 
" clip-path="url(#pd8525c5879)" style="fill: none; stroke: #000000"/>
    <path d="M 221.174611 202.333444 
L 247.080045 194.831841 
" clip-path="url(#pd8525c5879)" style="fill: none; stroke: #000000"/>
    <path d="M 363.367623 208.441685 
L 345.282513 210.619862 
" clip-path="url(#pd8525c5879)" style="fill: none; stroke: #000000"/>
    <path d="M 363.367623 208.441685 
L 378.24146 219.322997 
" clip-path="url(#pd8525c5879)" style="fill: none; stroke: #000000"/>
    <path d="M 363.367623 208.441685 
L 365.994961 210.151654 
" clip-path="url(#pd8525c5879)" style="fill: none; stroke: #000000"/>
    <path d="M 267.075707 166.368346 
L 263.707069 155.076849 
" clip-path="url(#pd8525c5879)" style="fill: none; stroke: #000000"/>
    <path d="M 280.32974 245.227605 
L 275.860886 259.008821 
" clip-path="url(#pd8525c5879)" style="fill: none; stroke: #000000"/>
    <path d="M 280.32974 245.227605 
L 280.757445 220.606031 
" clip-path="url(#pd8525c5879)" style="fill: none; stroke: #000000"/>
    <path d="M 280.32974 245.227605 
L 284.075519 259.083683 
" clip-path="url(#pd8525c5879)" style="fill: none; stroke: #000000"/>
    <path d="M 261.168675 215.352359 
L 266.276441 219.05546 
" clip-path="url(#pd8525c5879)" style="fill: none; stroke: #000000"/>
    <path d="M 261.168675 215.352359 
L 276.019737 211.396638 
" clip-path="url(#pd8525c5879)" style="fill: none; stroke: #000000"/>
    <path d="M 261.168675 215.352359 
L 269.144287 205.313937 
" clip-path="url(#pd8525c5879)" style="fill: none; stroke: #000000"/>
    <path d="M 261.168675 215.352359 
L 256.083012 205.235717 
" clip-path="url(#pd8525c5879)" style="fill: none; stroke: #000000"/>
    <path d="M 301.21489 144.993818 
L 301.219673 134.242038 
" clip-path="url(#pd8525c5879)" style="fill: none; stroke: #000000"/>
    <path d="M 404.9694 228.051758 
L 378.24146 219.322997 
" clip-path="url(#pd8525c5879)" style="fill: none; stroke: #000000"/>
    <path d="M 259.748332 186.56324 
L 230.585547 199.832045 
" clip-path="url(#pd8525c5879)" style="fill: none; stroke: #000000"/>
    <path d="M 259.748332 186.56324 
L 246.883751 165.757303 
" clip-path="url(#pd8525c5879)" style="fill: none; stroke: #000000"/>
    <path d="M 259.748332 186.56324 
L 272.820716 180.01624 
" clip-path="url(#pd8525c5879)" style="fill: none; stroke: #000000"/>
    <path d="M 259.748332 186.56324 
L 276.393889 189.85767 
" clip-path="url(#pd8525c5879)" style="fill: none; stroke: #000000"/>
    <path d="M 259.748332 186.56324 
L 294.530541 194.696063 
" clip-path="url(#pd8525c5879)" style="fill: none; stroke: #000000"/>
    <path d="M 259.748332 186.56324 
L 237.08617 195.776959 
" clip-path="url(#pd8525c5879)" style="fill: none; stroke: #000000"/>
    <path d="M 259.748332 186.56324 
L 228.841285 186.076263 
" clip-path="url(#pd8525c5879)" style="fill: none; stroke: #000000"/>
    <path d="M 259.748332 186.56324 
L 295.732257 185.119482 
" clip-path="url(#pd8525c5879)" style="fill: none; stroke: #000000"/>
    <path d="M 259.748332 186.56324 
L 269.144287 205.313937 
" clip-path="url(#pd8525c5879)" style="fill: none; stroke: #000000"/>
    <path d="M 259.748332 186.56324 
L 234.716759 179.257216 
" clip-path="url(#pd8525c5879)" style="fill: none; stroke: #000000"/>
    <path d="M 259.748332 186.56324 
L 256.083012 205.235717 
" clip-path="url(#pd8525c5879)" style="fill: none; stroke: #000000"/>
    <path d="M 259.748332 186.56324 
L 286.255379 190.550195 
" clip-path="url(#pd8525c5879)" style="fill: none; stroke: #000000"/>
    <path d="M 259.748332 186.56324 
L 249.475328 162.471438 
" clip-path="url(#pd8525c5879)" style="fill: none; stroke: #000000"/>
    <path d="M 259.748332 186.56324 
L 270.239344 187.743204 
" clip-path="url(#pd8525c5879)" style="fill: none; stroke: #000000"/>
    <path d="M 259.748332 186.56324 
L 285.473608 181.523487 
" clip-path="url(#pd8525c5879)" style="fill: none; stroke: #000000"/>
    <path d="M 282.181101 159.032831 
L 272.343997 165.929765 
" clip-path="url(#pd8525c5879)" style="fill: none; stroke: #000000"/>
    <path d="M 282.181101 159.032831 
L 272.761883 168.893526 
" clip-path="url(#pd8525c5879)" style="fill: none; stroke: #000000"/>
    <path d="M 282.181101 159.032831 
L 270.100757 159.280606 
" clip-path="url(#pd8525c5879)" style="fill: none; stroke: #000000"/>
    <path d="M 301.219673 134.242038 
L 293.03338 146.24779 
" clip-path="url(#pd8525c5879)" style="fill: none; stroke: #000000"/>
    <path d="M 336.151926 139.044774 
L 317.453215 149.470644 
" clip-path="url(#pd8525c5879)" style="fill: none; stroke: #000000"/>
    <path d="M 272.343997 165.929765 
L 272.820716 180.01624 
" clip-path="url(#pd8525c5879)" style="fill: none; stroke: #000000"/>
    <path d="M 272.343997 165.929765 
L 276.393889 189.85767 
" clip-path="url(#pd8525c5879)" style="fill: none; stroke: #000000"/>
    <path d="M 272.343997 165.929765 
L 272.761883 168.893526 
" clip-path="url(#pd8525c5879)" style="fill: none; stroke: #000000"/>
    <path d="M 272.343997 165.929765 
L 282.406862 174.915341 
" clip-path="url(#pd8525c5879)" style="fill: none; stroke: #000000"/>
    <path d="M 272.343997 165.929765 
L 270.100757 159.280606 
" clip-path="url(#pd8525c5879)" style="fill: none; stroke: #000000"/>
    <path d="M 272.343997 165.929765 
L 263.707069 155.076849 
" clip-path="url(#pd8525c5879)" style="fill: none; stroke: #000000"/>
    <path d="M 345.282513 210.619862 
L 378.24146 219.322997 
" clip-path="url(#pd8525c5879)" style="fill: none; stroke: #000000"/>
    <path d="M 345.282513 210.619862 
L 294.530541 194.696063 
" clip-path="url(#pd8525c5879)" style="fill: none; stroke: #000000"/>
    <path d="M 345.282513 210.619862 
L 362.019806 221.958835 
" clip-path="url(#pd8525c5879)" style="fill: none; stroke: #000000"/>
    <path d="M 345.282513 210.619862 
L 365.994961 210.151654 
" clip-path="url(#pd8525c5879)" style="fill: none; stroke: #000000"/>
    <path d="M 345.282513 210.619862 
L 352.340202 209.789722 
" clip-path="url(#pd8525c5879)" style="fill: none; stroke: #000000"/>
    <path d="M 230.585547 199.832045 
L 237.08617 195.776959 
" clip-path="url(#pd8525c5879)" style="fill: none; stroke: #000000"/>
    <path d="M 246.883751 165.757303 
L 241.596259 175.977582 
" clip-path="url(#pd8525c5879)" style="fill: none; stroke: #000000"/>
    <path d="M 246.883751 165.757303 
L 233.389859 150.926304 
" clip-path="url(#pd8525c5879)" style="fill: none; stroke: #000000"/>
    <path d="M 319.558457 188.577047 
L 294.530541 194.696063 
" clip-path="url(#pd8525c5879)" style="fill: none; stroke: #000000"/>
    <path d="M 319.558457 188.577047 
L 343.892898 185.130354 
" clip-path="url(#pd8525c5879)" style="fill: none; stroke: #000000"/>
    <path d="M 319.558457 188.577047 
L 295.732257 185.119482 
" clip-path="url(#pd8525c5879)" style="fill: none; stroke: #000000"/>
    <path d="M 266.276441 219.05546 
L 276.019737 211.396638 
" clip-path="url(#pd8525c5879)" style="fill: none; stroke: #000000"/>
    <path d="M 266.276441 219.05546 
L 269.144287 205.313937 
" clip-path="url(#pd8525c5879)" style="fill: none; stroke: #000000"/>
    <path d="M 241.596259 175.977582 
L 213.140716 172.794041 
" clip-path="url(#pd8525c5879)" style="fill: none; stroke: #000000"/>
    <path d="M 314.132528 189.240272 
L 315.202174 198.254391 
" clip-path="url(#pd8525c5879)" style="fill: none; stroke: #000000"/>
    <path d="M 272.820716 180.01624 
L 294.530541 194.696063 
" clip-path="url(#pd8525c5879)" style="fill: none; stroke: #000000"/>
    <path d="M 225.16419 151.463169 
L 228.984342 148.307037 
" clip-path="url(#pd8525c5879)" style="fill: none; stroke: #000000"/>
    <path d="M 225.16419 151.463169 
L 249.475328 162.471438 
" clip-path="url(#pd8525c5879)" style="fill: none; stroke: #000000"/>
    <path d="M 276.393889 189.85767 
L 272.761883 168.893526 
" clip-path="url(#pd8525c5879)" style="fill: none; stroke: #000000"/>
    <path d="M 276.393889 189.85767 
L 282.406862 174.915341 
" clip-path="url(#pd8525c5879)" style="fill: none; stroke: #000000"/>
    <path d="M 276.393889 189.85767 
L 280.757445 220.606031 
" clip-path="url(#pd8525c5879)" style="fill: none; stroke: #000000"/>
    <path d="M 276.019737 211.396638 
L 294.530541 194.696063 
" clip-path="url(#pd8525c5879)" style="fill: none; stroke: #000000"/>
    <path d="M 276.019737 211.396638 
L 269.144287 205.313937 
" clip-path="url(#pd8525c5879)" style="fill: none; stroke: #000000"/>
    <path d="M 215.105241 179.695947 
L 228.841285 186.076263 
" clip-path="url(#pd8525c5879)" style="fill: none; stroke: #000000"/>
    <path d="M 215.105241 179.695947 
L 234.716759 179.257216 
" clip-path="url(#pd8525c5879)" style="fill: none; stroke: #000000"/>
    <path d="M 215.105241 179.695947 
L 226.272493 172.190094 
" clip-path="url(#pd8525c5879)" style="fill: none; stroke: #000000"/>
    <path d="M 106.457126 307.205128 
L 116.93196 301.157465 
" clip-path="url(#pd8525c5879)" style="fill: none; stroke: #000000"/>
    <path d="M 266.061332 192.790035 
L 247.080045 194.831841 
" clip-path="url(#pd8525c5879)" style="fill: none; stroke: #000000"/>
    <path d="M 266.061332 192.790035 
L 284.006451 184.403843 
" clip-path="url(#pd8525c5879)" style="fill: none; stroke: #000000"/>
    <path d="M 272.761883 168.893526 
L 282.406862 174.915341 
" clip-path="url(#pd8525c5879)" style="fill: none; stroke: #000000"/>
    <path d="M 294.530541 194.696063 
L 295.732257 185.119482 
" clip-path="url(#pd8525c5879)" style="fill: none; stroke: #000000"/>
    <path d="M 294.530541 194.696063 
L 269.144287 205.313937 
" clip-path="url(#pd8525c5879)" style="fill: none; stroke: #000000"/>
    <path d="M 294.530541 194.696063 
L 315.202174 198.254391 
" clip-path="url(#pd8525c5879)" style="fill: none; stroke: #000000"/>
    <path d="M 294.530541 194.696063 
L 286.255379 190.550195 
" clip-path="url(#pd8525c5879)" style="fill: none; stroke: #000000"/>
    <path d="M 295.732257 185.119482 
L 286.255379 190.550195 
" clip-path="url(#pd8525c5879)" style="fill: none; stroke: #000000"/>
    <path d="M 269.144287 205.313937 
L 256.083012 205.235717 
" clip-path="url(#pd8525c5879)" style="fill: none; stroke: #000000"/>
    <path d="M 280.757445 220.606031 
L 282.398086 235.478673 
" clip-path="url(#pd8525c5879)" style="fill: none; stroke: #000000"/>
    <path d="M 228.984342 148.307037 
L 249.475328 162.471438 
" clip-path="url(#pd8525c5879)" style="fill: none; stroke: #000000"/>
    <path d="M 293.03338 146.24779 
L 301.648017 151.458127 
" clip-path="url(#pd8525c5879)" style="fill: none; stroke: #000000"/>
    <path d="M 291.643254 196.545011 
L 284.006451 184.403843 
" clip-path="url(#pd8525c5879)" style="fill: none; stroke: #000000"/>
    <path d="M 298.87317 174.681913 
L 284.006451 184.403843 
" clip-path="url(#pd8525c5879)" style="fill: none; stroke: #000000"/>
    <path d="M 261.640024 163.069384 
L 249.475328 162.471438 
" clip-path="url(#pd8525c5879)" style="fill: none; stroke: #000000"/>
    <path d="M 247.080045 194.831841 
L 230.887862 208.965935 
" clip-path="url(#pd8525c5879)" style="fill: none; stroke: #000000"/>
    <path d="M 247.080045 194.831841 
L 226.247701 206.675836 
" clip-path="url(#pd8525c5879)" style="fill: none; stroke: #000000"/>
    <path d="M 247.080045 194.831841 
L 262.341517 196.414989 
" clip-path="url(#pd8525c5879)" style="fill: none; stroke: #000000"/>
    <path d="M 230.887862 208.965935 
L 226.247701 206.675836 
" clip-path="url(#pd8525c5879)" style="fill: none; stroke: #000000"/>
    <path d="M 284.006451 184.403843 
L 262.341517 196.414989 
" clip-path="url(#pd8525c5879)" style="fill: none; stroke: #000000"/>
    <path d="M 270.239344 187.743204 
L 285.473608 181.523487 
" clip-path="url(#pd8525c5879)" style="fill: none; stroke: #000000"/>
   </g>
   <g id="PathCollection_1">
    <defs>
     <path id="mc80a74c075" d="M 0 2.5 
C 0.663008 2.5 1.29895 2.236584 1.767767 1.767767 
C 2.236584 1.29895 2.5 0.663008 2.5 0 
C 2.5 -0.663008 2.236584 -1.29895 1.767767 -1.767767 
C 1.29895 -2.236584 0.663008 -2.5 0 -2.5 
C -0.663008 -2.5 -1.29895 -2.236584 -1.767767 -1.767767 
C -2.236584 -1.29895 -2.5 -0.663008 -2.5 0 
C -2.5 0.663008 -2.236584 1.29895 -1.767767 1.767767 
C -1.29895 2.236584 -0.663008 2.5 0 2.5 
z
" style="stroke: #1f78b4"/>
    </defs>
    <g clip-path="url(#pd8525c5879)">
     <use xlink:href="#mc80a74c075" x="239.683878" y="159.237989" style="fill: #1f78b4; stroke: #1f78b4"/>
     <use xlink:href="#mc80a74c075" x="248.485219" y="150.289876" style="fill: #1f78b4; stroke: #1f78b4"/>
     <use xlink:href="#mc80a74c075" x="266.287635" y="182.327957" style="fill: #1f78b4; stroke: #1f78b4"/>
     <use xlink:href="#mc80a74c075" x="396.931778" y="226.856266" style="fill: #1f78b4; stroke: #1f78b4"/>
     <use xlink:href="#mc80a74c075" x="288.200616" y="163.776214" style="fill: #1f78b4; stroke: #1f78b4"/>
     <use xlink:href="#mc80a74c075" x="432.789315" y="329.890909" style="fill: #1f78b4; stroke: #1f78b4"/>
     <use xlink:href="#mc80a74c075" x="256.628365" y="171.600153" style="fill: #1f78b4; stroke: #1f78b4"/>
     <use xlink:href="#mc80a74c075" x="235.433879" y="191.879553" style="fill: #1f78b4; stroke: #1f78b4"/>
     <use xlink:href="#mc80a74c075" x="278.309832" y="190.649967" style="fill: #1f78b4; stroke: #1f78b4"/>
     <use xlink:href="#mc80a74c075" x="343.092118" y="201.631009" style="fill: #1f78b4; stroke: #1f78b4"/>
     <use xlink:href="#mc80a74c075" x="357.570827" y="217.92018" style="fill: #1f78b4; stroke: #1f78b4"/>
     <use xlink:href="#mc80a74c075" x="270.569583" y="194.83069" style="fill: #1f78b4; stroke: #1f78b4"/>
     <use xlink:href="#mc80a74c075" x="109.105384" y="301.26035" style="fill: #1f78b4; stroke: #1f78b4"/>
     <use xlink:href="#mc80a74c075" x="298.355792" y="172.146889" style="fill: #1f78b4; stroke: #1f78b4"/>
     <use xlink:href="#mc80a74c075" x="277.160434" y="154.785012" style="fill: #1f78b4; stroke: #1f78b4"/>
     <use xlink:href="#mc80a74c075" x="355.025595" y="223.191247" style="fill: #1f78b4; stroke: #1f78b4"/>
     <use xlink:href="#mc80a74c075" x="284.886204" y="209.683457" style="fill: #1f78b4; stroke: #1f78b4"/>
     <use xlink:href="#mc80a74c075" x="250.841592" y="168.563331" style="fill: #1f78b4; stroke: #1f78b4"/>
     <use xlink:href="#mc80a74c075" x="278.736505" y="173.912733" style="fill: #1f78b4; stroke: #1f78b4"/>
     <use xlink:href="#mc80a74c075" x="261.349285" y="182.148093" style="fill: #1f78b4; stroke: #1f78b4"/>
     <use xlink:href="#mc80a74c075" x="272.118334" y="148.985836" style="fill: #1f78b4; stroke: #1f78b4"/>
     <use xlink:href="#mc80a74c075" x="209.243682" y="209.917058" style="fill: #1f78b4; stroke: #1f78b4"/>
     <use xlink:href="#mc80a74c075" x="261.197525" y="151.800756" style="fill: #1f78b4; stroke: #1f78b4"/>
     <use xlink:href="#mc80a74c075" x="280.674412" y="185.819117" style="fill: #1f78b4; stroke: #1f78b4"/>
     <use xlink:href="#mc80a74c075" x="306.539337" y="149.924882" style="fill: #1f78b4; stroke: #1f78b4"/>
     <use xlink:href="#mc80a74c075" x="423.978478" y="233.961119" style="fill: #1f78b4; stroke: #1f78b4"/>
     <use xlink:href="#mc80a74c075" x="380.395118" y="210.225848" style="fill: #1f78b4; stroke: #1f78b4"/>
     <use xlink:href="#mc80a74c075" x="310.518425" y="175.308444" style="fill: #1f78b4; stroke: #1f78b4"/>
     <use xlink:href="#mc80a74c075" x="257.018355" y="134.107908" style="fill: #1f78b4; stroke: #1f78b4"/>
     <use xlink:href="#mc80a74c075" x="388.594197" y="212.091843" style="fill: #1f78b4; stroke: #1f78b4"/>
     <use xlink:href="#mc80a74c075" x="386.334184" y="207.67173" style="fill: #1f78b4; stroke: #1f78b4"/>
     <use xlink:href="#mc80a74c075" x="279.967225" y="207.722768" style="fill: #1f78b4; stroke: #1f78b4"/>
     <use xlink:href="#mc80a74c075" x="338.133603" y="205.035584" style="fill: #1f78b4; stroke: #1f78b4"/>
     <use xlink:href="#mc80a74c075" x="272.066207" y="183.376681" style="fill: #1f78b4; stroke: #1f78b4"/>
     <use xlink:href="#mc80a74c075" x="280.715547" y="197.992534" style="fill: #1f78b4; stroke: #1f78b4"/>
     <use xlink:href="#mc80a74c075" x="260.54024" y="140.956099" style="fill: #1f78b4; stroke: #1f78b4"/>
     <use xlink:href="#mc80a74c075" x="320.961202" y="181.623513" style="fill: #1f78b4; stroke: #1f78b4"/>
     <use xlink:href="#mc80a74c075" x="265.348937" y="159.612773" style="fill: #1f78b4; stroke: #1f78b4"/>
     <use xlink:href="#mc80a74c075" x="221.174611" y="202.333444" style="fill: #1f78b4; stroke: #1f78b4"/>
     <use xlink:href="#mc80a74c075" x="363.367623" y="208.441685" style="fill: #1f78b4; stroke: #1f78b4"/>
     <use xlink:href="#mc80a74c075" x="267.075707" y="166.368346" style="fill: #1f78b4; stroke: #1f78b4"/>
     <use xlink:href="#mc80a74c075" x="280.32974" y="245.227605" style="fill: #1f78b4; stroke: #1f78b4"/>
     <use xlink:href="#mc80a74c075" x="261.168675" y="215.352359" style="fill: #1f78b4; stroke: #1f78b4"/>
     <use xlink:href="#mc80a74c075" x="301.21489" y="144.993818" style="fill: #1f78b4; stroke: #1f78b4"/>
     <use xlink:href="#mc80a74c075" x="404.9694" y="228.051758" style="fill: #1f78b4; stroke: #1f78b4"/>
     <use xlink:href="#mc80a74c075" x="259.748332" y="186.56324" style="fill: #1f78b4; stroke: #1f78b4"/>
     <use xlink:href="#mc80a74c075" x="282.181101" y="159.032831" style="fill: #1f78b4; stroke: #1f78b4"/>
     <use xlink:href="#mc80a74c075" x="301.219673" y="134.242038" style="fill: #1f78b4; stroke: #1f78b4"/>
     <use xlink:href="#mc80a74c075" x="336.151926" y="139.044774" style="fill: #1f78b4; stroke: #1f78b4"/>
     <use xlink:href="#mc80a74c075" x="272.343997" y="165.929765" style="fill: #1f78b4; stroke: #1f78b4"/>
     <use xlink:href="#mc80a74c075" x="345.282513" y="210.619862" style="fill: #1f78b4; stroke: #1f78b4"/>
     <use xlink:href="#mc80a74c075" x="230.585547" y="199.832045" style="fill: #1f78b4; stroke: #1f78b4"/>
     <use xlink:href="#mc80a74c075" x="246.883751" y="165.757303" style="fill: #1f78b4; stroke: #1f78b4"/>
     <use xlink:href="#mc80a74c075" x="319.558457" y="188.577047" style="fill: #1f78b4; stroke: #1f78b4"/>
     <use xlink:href="#mc80a74c075" x="293.067812" y="151.730912" style="fill: #1f78b4; stroke: #1f78b4"/>
     <use xlink:href="#mc80a74c075" x="288.700406" y="150.501039" style="fill: #1f78b4; stroke: #1f78b4"/>
     <use xlink:href="#mc80a74c075" x="378.24146" y="219.322997" style="fill: #1f78b4; stroke: #1f78b4"/>
     <use xlink:href="#mc80a74c075" x="266.276441" y="219.05546" style="fill: #1f78b4; stroke: #1f78b4"/>
     <use xlink:href="#mc80a74c075" x="241.596259" y="175.977582" style="fill: #1f78b4; stroke: #1f78b4"/>
     <use xlink:href="#mc80a74c075" x="314.132528" y="189.240272" style="fill: #1f78b4; stroke: #1f78b4"/>
     <use xlink:href="#mc80a74c075" x="272.820716" y="180.01624" style="fill: #1f78b4; stroke: #1f78b4"/>
     <use xlink:href="#mc80a74c075" x="225.16419" y="151.463169" style="fill: #1f78b4; stroke: #1f78b4"/>
     <use xlink:href="#mc80a74c075" x="276.393889" y="189.85767" style="fill: #1f78b4; stroke: #1f78b4"/>
     <use xlink:href="#mc80a74c075" x="276.019737" y="211.396638" style="fill: #1f78b4; stroke: #1f78b4"/>
     <use xlink:href="#mc80a74c075" x="215.105241" y="179.695947" style="fill: #1f78b4; stroke: #1f78b4"/>
     <use xlink:href="#mc80a74c075" x="106.457126" y="307.205128" style="fill: #1f78b4; stroke: #1f78b4"/>
     <use xlink:href="#mc80a74c075" x="266.061332" y="192.790035" style="fill: #1f78b4; stroke: #1f78b4"/>
     <use xlink:href="#mc80a74c075" x="272.761883" y="168.893526" style="fill: #1f78b4; stroke: #1f78b4"/>
     <use xlink:href="#mc80a74c075" x="294.530541" y="194.696063" style="fill: #1f78b4; stroke: #1f78b4"/>
     <use xlink:href="#mc80a74c075" x="233.389859" y="150.926304" style="fill: #1f78b4; stroke: #1f78b4"/>
     <use xlink:href="#mc80a74c075" x="237.08617" y="195.776959" style="fill: #1f78b4; stroke: #1f78b4"/>
     <use xlink:href="#mc80a74c075" x="228.841285" y="186.076263" style="fill: #1f78b4; stroke: #1f78b4"/>
     <use xlink:href="#mc80a74c075" x="243.8475" y="173.908893" style="fill: #1f78b4; stroke: #1f78b4"/>
     <use xlink:href="#mc80a74c075" x="282.406862" y="174.915341" style="fill: #1f78b4; stroke: #1f78b4"/>
     <use xlink:href="#mc80a74c075" x="343.892898" y="185.130354" style="fill: #1f78b4; stroke: #1f78b4"/>
     <use xlink:href="#mc80a74c075" x="260.707199" y="173.877845" style="fill: #1f78b4; stroke: #1f78b4"/>
     <use xlink:href="#mc80a74c075" x="270.100757" y="159.280606" style="fill: #1f78b4; stroke: #1f78b4"/>
     <use xlink:href="#mc80a74c075" x="295.732257" y="185.119482" style="fill: #1f78b4; stroke: #1f78b4"/>
     <use xlink:href="#mc80a74c075" x="275.860886" y="259.008821" style="fill: #1f78b4; stroke: #1f78b4"/>
     <use xlink:href="#mc80a74c075" x="269.144287" y="205.313937" style="fill: #1f78b4; stroke: #1f78b4"/>
     <use xlink:href="#mc80a74c075" x="234.716759" y="179.257216" style="fill: #1f78b4; stroke: #1f78b4"/>
     <use xlink:href="#mc80a74c075" x="280.757445" y="220.606031" style="fill: #1f78b4; stroke: #1f78b4"/>
     <use xlink:href="#mc80a74c075" x="282.398086" y="235.478673" style="fill: #1f78b4; stroke: #1f78b4"/>
     <use xlink:href="#mc80a74c075" x="228.984342" y="148.307037" style="fill: #1f78b4; stroke: #1f78b4"/>
     <use xlink:href="#mc80a74c075" x="293.03338" y="146.24779" style="fill: #1f78b4; stroke: #1f78b4"/>
     <use xlink:href="#mc80a74c075" x="213.140716" y="172.794041" style="fill: #1f78b4; stroke: #1f78b4"/>
     <use xlink:href="#mc80a74c075" x="291.643254" y="196.545011" style="fill: #1f78b4; stroke: #1f78b4"/>
     <use xlink:href="#mc80a74c075" x="256.083012" y="205.235717" style="fill: #1f78b4; stroke: #1f78b4"/>
     <use xlink:href="#mc80a74c075" x="287.748833" y="205.149784" style="fill: #1f78b4; stroke: #1f78b4"/>
     <use xlink:href="#mc80a74c075" x="226.272493" y="172.190094" style="fill: #1f78b4; stroke: #1f78b4"/>
     <use xlink:href="#mc80a74c075" x="298.87317" y="174.681913" style="fill: #1f78b4; stroke: #1f78b4"/>
     <use xlink:href="#mc80a74c075" x="261.640024" y="163.069384" style="fill: #1f78b4; stroke: #1f78b4"/>
     <use xlink:href="#mc80a74c075" x="284.075519" y="259.083683" style="fill: #1f78b4; stroke: #1f78b4"/>
     <use xlink:href="#mc80a74c075" x="247.080045" y="194.831841" style="fill: #1f78b4; stroke: #1f78b4"/>
     <use xlink:href="#mc80a74c075" x="301.648017" y="151.458127" style="fill: #1f78b4; stroke: #1f78b4"/>
     <use xlink:href="#mc80a74c075" x="20.945455" y="93.020119" style="fill: #1f78b4; stroke: #1f78b4"/>
     <use xlink:href="#mc80a74c075" x="230.887862" y="208.965935" style="fill: #1f78b4; stroke: #1f78b4"/>
     <use xlink:href="#mc80a74c075" x="284.006451" y="184.403843" style="fill: #1f78b4; stroke: #1f78b4"/>
     <use xlink:href="#mc80a74c075" x="223.456577" y="160.504662" style="fill: #1f78b4; stroke: #1f78b4"/>
     <use xlink:href="#mc80a74c075" x="251.101869" y="186.073954" style="fill: #1f78b4; stroke: #1f78b4"/>
     <use xlink:href="#mc80a74c075" x="315.202174" y="198.254391" style="fill: #1f78b4; stroke: #1f78b4"/>
     <use xlink:href="#mc80a74c075" x="286.255379" y="190.550195" style="fill: #1f78b4; stroke: #1f78b4"/>
     <use xlink:href="#mc80a74c075" x="362.019806" y="221.958835" style="fill: #1f78b4; stroke: #1f78b4"/>
     <use xlink:href="#mc80a74c075" x="249.475328" y="162.471438" style="fill: #1f78b4; stroke: #1f78b4"/>
     <use xlink:href="#mc80a74c075" x="365.994961" y="210.151654" style="fill: #1f78b4; stroke: #1f78b4"/>
     <use xlink:href="#mc80a74c075" x="270.239344" y="187.743204" style="fill: #1f78b4; stroke: #1f78b4"/>
     <use xlink:href="#mc80a74c075" x="311.557268" y="156.855466" style="fill: #1f78b4; stroke: #1f78b4"/>
     <use xlink:href="#mc80a74c075" x="226.247701" y="206.675836" style="fill: #1f78b4; stroke: #1f78b4"/>
     <use xlink:href="#mc80a74c075" x="317.453215" y="149.470644" style="fill: #1f78b4; stroke: #1f78b4"/>
     <use xlink:href="#mc80a74c075" x="339.31773" y="15.709091" style="fill: #1f78b4; stroke: #1f78b4"/>
     <use xlink:href="#mc80a74c075" x="352.340202" y="209.789722" style="fill: #1f78b4; stroke: #1f78b4"/>
     <use xlink:href="#mc80a74c075" x="285.473608" y="181.523487" style="fill: #1f78b4; stroke: #1f78b4"/>
     <use xlink:href="#mc80a74c075" x="262.341517" y="196.414989" style="fill: #1f78b4; stroke: #1f78b4"/>
     <use xlink:href="#mc80a74c075" x="78.328781" y="65.934296" style="fill: #1f78b4; stroke: #1f78b4"/>
     <use xlink:href="#mc80a74c075" x="228.859534" y="161.467245" style="fill: #1f78b4; stroke: #1f78b4"/>
     <use xlink:href="#mc80a74c075" x="263.707069" y="155.076849" style="fill: #1f78b4; stroke: #1f78b4"/>
     <use xlink:href="#mc80a74c075" x="116.93196" y="301.157465" style="fill: #1f78b4; stroke: #1f78b4"/>
    </g>
   </g>
  </g>
 </g>
 <defs>
  <clipPath id="pd8525c5879">
   <rect x="0" y="0" width="460.8" height="345.6"/>
  </clipPath>
 </defs>
</svg>
