<?xml version="1.0" encoding="utf-8" standalone="no"?>
<!DOCTYPE svg PUBLIC "-//W3C//DTD SVG 1.1//EN"
  "http://www.w3.org/Graphics/SVG/1.1/DTD/svg11.dtd">
<svg xmlns:xlink="http://www.w3.org/1999/xlink" width="460.8pt" height="345.6pt" viewBox="0 0 460.8 345.6" xmlns="http://www.w3.org/2000/svg" version="1.1">
 <metadata>
  <rdf:RDF xmlns:dc="http://purl.org/dc/elements/1.1/" xmlns:cc="http://creativecommons.org/ns#" xmlns:rdf="http://www.w3.org/1999/02/22-rdf-syntax-ns#">
   <cc:Work>
    <dc:type rdf:resource="http://purl.org/dc/dcmitype/StillImage"/>
    <dc:date>2023-11-11T22:10:29.266583</dc:date>
    <dc:format>image/svg+xml</dc:format>
    <dc:creator>
     <cc:Agent>
      <dc:title>Matplotlib v3.8.1, https://matplotlib.org/</dc:title>
     </cc:Agent>
    </dc:creator>
   </cc:Work>
  </rdf:RDF>
 </metadata>
 <defs>
  <style type="text/css">*{stroke-linejoin: round; stroke-linecap: butt}</style>
 </defs>
 <g id="figure_1">
  <g id="patch_1">
   <path d="M 0 345.6 
L 460.8 345.6 
L 460.8 0 
L 0 0 
z
" style="fill: #ffffff"/>
  </g>
  <g id="axes_1">
   <g id="LineCollection_1">
    <path d="M 316.301216 191.472032 
L 307.772189 183.053663 
" clip-path="url(#p3052af6190)" style="fill: none; stroke: #000000"/>
    <path d="M 316.301216 191.472032 
L 318.117285 186.944424 
" clip-path="url(#p3052af6190)" style="fill: none; stroke: #000000"/>
    <path d="M 316.301216 191.472032 
L 322.162766 191.163818 
" clip-path="url(#p3052af6190)" style="fill: none; stroke: #000000"/>
    <path d="M 332.137571 176.880048 
L 323.459228 185.069017 
" clip-path="url(#p3052af6190)" style="fill: none; stroke: #000000"/>
    <path d="M 332.137571 176.880048 
L 311.809483 173.822559 
" clip-path="url(#p3052af6190)" style="fill: none; stroke: #000000"/>
    <path d="M 267.674877 152.924833 
L 266.180509 144.959604 
" clip-path="url(#p3052af6190)" style="fill: none; stroke: #000000"/>
    <path d="M 267.674877 152.924833 
L 252.388937 154.631644 
" clip-path="url(#p3052af6190)" style="fill: none; stroke: #000000"/>
    <path d="M 267.674877 152.924833 
L 275.925562 141.78394 
" clip-path="url(#p3052af6190)" style="fill: none; stroke: #000000"/>
    <path d="M 267.674877 152.924833 
L 259.394934 152.497867 
" clip-path="url(#p3052af6190)" style="fill: none; stroke: #000000"/>
    <path d="M 267.674877 152.924833 
L 253.010043 136.550568 
" clip-path="url(#p3052af6190)" style="fill: none; stroke: #000000"/>
    <path d="M 267.674877 152.924833 
L 267.137422 171.125281 
" clip-path="url(#p3052af6190)" style="fill: none; stroke: #000000"/>
    <path d="M 267.674877 152.924833 
L 285.462377 166.802753 
" clip-path="url(#p3052af6190)" style="fill: none; stroke: #000000"/>
    <path d="M 183.097756 180.82609 
L 175.594748 181.422578 
" clip-path="url(#p3052af6190)" style="fill: none; stroke: #000000"/>
    <path d="M 183.097756 180.82609 
L 205.164402 177.82803 
" clip-path="url(#p3052af6190)" style="fill: none; stroke: #000000"/>
    <path d="M 332.714409 199.564708 
L 295.065847 194.790454 
" clip-path="url(#p3052af6190)" style="fill: none; stroke: #000000"/>
    <path d="M 332.714409 199.564708 
L 333.119067 213.854648 
" clip-path="url(#p3052af6190)" style="fill: none; stroke: #000000"/>
    <path d="M 332.714409 199.564708 
L 336.288783 193.110477 
" clip-path="url(#p3052af6190)" style="fill: none; stroke: #000000"/>
    <path d="M 332.714409 199.564708 
L 307.772189 183.053663 
" clip-path="url(#p3052af6190)" style="fill: none; stroke: #000000"/>
    <path d="M 332.714409 199.564708 
L 301.321263 185.238707 
" clip-path="url(#p3052af6190)" style="fill: none; stroke: #000000"/>
    <path d="M 332.714409 199.564708 
L 321.698626 212.304295 
" clip-path="url(#p3052af6190)" style="fill: none; stroke: #000000"/>
    <path d="M 332.714409 199.564708 
L 349.42392 212.960286 
" clip-path="url(#p3052af6190)" style="fill: none; stroke: #000000"/>
    <path d="M 332.714409 199.564708 
L 323.459228 185.069017 
" clip-path="url(#p3052af6190)" style="fill: none; stroke: #000000"/>
    <path d="M 332.714409 199.564708 
L 356.792884 210.471439 
" clip-path="url(#p3052af6190)" style="fill: none; stroke: #000000"/>
    <path d="M 332.714409 199.564708 
L 349.062192 195.824078 
" clip-path="url(#p3052af6190)" style="fill: none; stroke: #000000"/>
    <path d="M 332.714409 199.564708 
L 356.849412 199.733373 
" clip-path="url(#p3052af6190)" style="fill: none; stroke: #000000"/>
    <path d="M 332.714409 199.564708 
L 352.611728 202.776745 
" clip-path="url(#p3052af6190)" style="fill: none; stroke: #000000"/>
    <path d="M 332.714409 199.564708 
L 333.742168 210.863885 
" clip-path="url(#p3052af6190)" style="fill: none; stroke: #000000"/>
    <path d="M 332.714409 199.564708 
L 318.117285 186.944424 
" clip-path="url(#p3052af6190)" style="fill: none; stroke: #000000"/>
    <path d="M 332.714409 199.564708 
L 349.148383 207.895638 
" clip-path="url(#p3052af6190)" style="fill: none; stroke: #000000"/>
    <path d="M 332.714409 199.564708 
L 316.41617 209.450758 
" clip-path="url(#p3052af6190)" style="fill: none; stroke: #000000"/>
    <path d="M 332.714409 199.564708 
L 355.464863 206.204861 
" clip-path="url(#p3052af6190)" style="fill: none; stroke: #000000"/>
    <path d="M 332.714409 199.564708 
L 366.221361 197.909215 
" clip-path="url(#p3052af6190)" style="fill: none; stroke: #000000"/>
    <path d="M 266.180509 144.959604 
L 263.336824 151.696518 
" clip-path="url(#p3052af6190)" style="fill: none; stroke: #000000"/>
    <path d="M 266.180509 144.959604 
L 270.019242 163.466875 
" clip-path="url(#p3052af6190)" style="fill: none; stroke: #000000"/>
    <path d="M 266.180509 144.959604 
L 251.130958 133.623536 
" clip-path="url(#p3052af6190)" style="fill: none; stroke: #000000"/>
    <path d="M 266.180509 144.959604 
L 280.278004 154.446767 
" clip-path="url(#p3052af6190)" style="fill: none; stroke: #000000"/>
    <path d="M 266.180509 144.959604 
L 275.925562 141.78394 
" clip-path="url(#p3052af6190)" style="fill: none; stroke: #000000"/>
    <path d="M 266.180509 144.959604 
L 259.394934 152.497867 
" clip-path="url(#p3052af6190)" style="fill: none; stroke: #000000"/>
    <path d="M 266.180509 144.959604 
L 254.395873 130.507582 
" clip-path="url(#p3052af6190)" style="fill: none; stroke: #000000"/>
    <path d="M 266.180509 144.959604 
L 267.065413 138.34572 
" clip-path="url(#p3052af6190)" style="fill: none; stroke: #000000"/>
    <path d="M 266.180509 144.959604 
L 285.462377 166.802753 
" clip-path="url(#p3052af6190)" style="fill: none; stroke: #000000"/>
    <path d="M 266.180509 144.959604 
L 261.760034 128.605313 
" clip-path="url(#p3052af6190)" style="fill: none; stroke: #000000"/>
    <path d="M 266.180509 144.959604 
L 287.755085 138.190468 
" clip-path="url(#p3052af6190)" style="fill: none; stroke: #000000"/>
    <path d="M 266.180509 144.959604 
L 240.79842 134.483784 
" clip-path="url(#p3052af6190)" style="fill: none; stroke: #000000"/>
    <path d="M 251.887091 166.270606 
L 270.019242 163.466875 
" clip-path="url(#p3052af6190)" style="fill: none; stroke: #000000"/>
    <path d="M 251.887091 166.270606 
L 244.953612 162.090519 
" clip-path="url(#p3052af6190)" style="fill: none; stroke: #000000"/>
    <path d="M 295.065847 194.790454 
L 307.760755 210.566852 
" clip-path="url(#p3052af6190)" style="fill: none; stroke: #000000"/>
    <path d="M 295.065847 194.790454 
L 301.321263 185.238707 
" clip-path="url(#p3052af6190)" style="fill: none; stroke: #000000"/>
    <path d="M 295.065847 194.790454 
L 282.539741 206.96998 
" clip-path="url(#p3052af6190)" style="fill: none; stroke: #000000"/>
    <path d="M 295.065847 194.790454 
L 308.384495 206.471996 
" clip-path="url(#p3052af6190)" style="fill: none; stroke: #000000"/>
    <path d="M 295.065847 194.790454 
L 270.019242 163.466875 
" clip-path="url(#p3052af6190)" style="fill: none; stroke: #000000"/>
    <path d="M 295.065847 194.790454 
L 267.137422 171.125281 
" clip-path="url(#p3052af6190)" style="fill: none; stroke: #000000"/>
    <path d="M 295.065847 194.790454 
L 301.23478 206.84536 
" clip-path="url(#p3052af6190)" style="fill: none; stroke: #000000"/>
    <path d="M 295.065847 194.790454 
L 288.033669 208.965725 
" clip-path="url(#p3052af6190)" style="fill: none; stroke: #000000"/>
    <path d="M 295.065847 194.790454 
L 301.386942 212.588877 
" clip-path="url(#p3052af6190)" style="fill: none; stroke: #000000"/>
    <path d="M 295.065847 194.790454 
L 316.41617 209.450758 
" clip-path="url(#p3052af6190)" style="fill: none; stroke: #000000"/>
    <path d="M 249.740458 180.069409 
L 242.41205 177.623564 
" clip-path="url(#p3052af6190)" style="fill: none; stroke: #000000"/>
    <path d="M 249.740458 180.069409 
L 225.273445 180.738059 
" clip-path="url(#p3052af6190)" style="fill: none; stroke: #000000"/>
    <path d="M 249.740458 180.069409 
L 241.990416 171.051993 
" clip-path="url(#p3052af6190)" style="fill: none; stroke: #000000"/>
    <path d="M 249.740458 180.069409 
L 274.129804 187.114048 
" clip-path="url(#p3052af6190)" style="fill: none; stroke: #000000"/>
    <path d="M 249.740458 180.069409 
L 254.595945 170.897176 
" clip-path="url(#p3052af6190)" style="fill: none; stroke: #000000"/>
    <path d="M 264.18012 162.45381 
L 261.075383 159.444433 
" clip-path="url(#p3052af6190)" style="fill: none; stroke: #000000"/>
    <path d="M 264.18012 162.45381 
L 241.990416 171.051993 
" clip-path="url(#p3052af6190)" style="fill: none; stroke: #000000"/>
    <path d="M 264.18012 162.45381 
L 254.595945 170.897176 
" clip-path="url(#p3052af6190)" style="fill: none; stroke: #000000"/>
    <path d="M 307.760755 210.566852 
L 321.698626 212.304295 
" clip-path="url(#p3052af6190)" style="fill: none; stroke: #000000"/>
    <path d="M 307.760755 210.566852 
L 308.384495 206.471996 
" clip-path="url(#p3052af6190)" style="fill: none; stroke: #000000"/>
    <path d="M 307.760755 210.566852 
L 313.936643 218.320355 
" clip-path="url(#p3052af6190)" style="fill: none; stroke: #000000"/>
    <path d="M 307.760755 210.566852 
L 301.386942 212.588877 
" clip-path="url(#p3052af6190)" style="fill: none; stroke: #000000"/>
    <path d="M 307.760755 210.566852 
L 316.41617 209.450758 
" clip-path="url(#p3052af6190)" style="fill: none; stroke: #000000"/>
    <path d="M 421.48408 310.808163 
L 426.283855 317.759476 
" clip-path="url(#p3052af6190)" style="fill: none; stroke: #000000"/>
    <path d="M 421.48408 310.808163 
L 417.81812 315.302847 
" clip-path="url(#p3052af6190)" style="fill: none; stroke: #000000"/>
    <path d="M 333.119067 213.854648 
L 333.742168 210.863885 
" clip-path="url(#p3052af6190)" style="fill: none; stroke: #000000"/>
    <path d="M 333.119067 213.854648 
L 316.41617 209.450758 
" clip-path="url(#p3052af6190)" style="fill: none; stroke: #000000"/>
    <path d="M 336.288783 193.110477 
L 307.772189 183.053663 
" clip-path="url(#p3052af6190)" style="fill: none; stroke: #000000"/>
    <path d="M 336.288783 193.110477 
L 349.062192 195.824078 
" clip-path="url(#p3052af6190)" style="fill: none; stroke: #000000"/>
    <path d="M 336.288783 193.110477 
L 352.611728 202.776745 
" clip-path="url(#p3052af6190)" style="fill: none; stroke: #000000"/>
    <path d="M 261.075383 159.444433 
L 241.990416 171.051993 
" clip-path="url(#p3052af6190)" style="fill: none; stroke: #000000"/>
    <path d="M 244.019927 118.140795 
L 253.010043 136.550568 
" clip-path="url(#p3052af6190)" style="fill: none; stroke: #000000"/>
    <path d="M 244.019927 118.140795 
L 238.075658 109.393269 
" clip-path="url(#p3052af6190)" style="fill: none; stroke: #000000"/>
    <path d="M 307.772189 183.053663 
L 280.278004 154.446767 
" clip-path="url(#p3052af6190)" style="fill: none; stroke: #000000"/>
    <path d="M 307.772189 183.053663 
L 285.462377 166.802753 
" clip-path="url(#p3052af6190)" style="fill: none; stroke: #000000"/>
    <path d="M 307.772189 183.053663 
L 297.600002 165.201157 
" clip-path="url(#p3052af6190)" style="fill: none; stroke: #000000"/>
    <path d="M 307.772189 183.053663 
L 318.117285 186.944424 
" clip-path="url(#p3052af6190)" style="fill: none; stroke: #000000"/>
    <path d="M 307.772189 183.053663 
L 301.386942 212.588877 
" clip-path="url(#p3052af6190)" style="fill: none; stroke: #000000"/>
    <path d="M 307.772189 183.053663 
L 326.402674 178.849174 
" clip-path="url(#p3052af6190)" style="fill: none; stroke: #000000"/>
    <path d="M 307.772189 183.053663 
L 322.162766 191.163818 
" clip-path="url(#p3052af6190)" style="fill: none; stroke: #000000"/>
    <path d="M 301.321263 185.238707 
L 323.459228 185.069017 
" clip-path="url(#p3052af6190)" style="fill: none; stroke: #000000"/>
    <path d="M 301.321263 185.238707 
L 274.129804 187.114048 
" clip-path="url(#p3052af6190)" style="fill: none; stroke: #000000"/>
    <path d="M 301.321263 185.238707 
L 285.462377 166.802753 
" clip-path="url(#p3052af6190)" style="fill: none; stroke: #000000"/>
    <path d="M 301.321263 185.238707 
L 272.750924 181.809766 
" clip-path="url(#p3052af6190)" style="fill: none; stroke: #000000"/>
    <path d="M 301.321263 185.238707 
L 318.117285 186.944424 
" clip-path="url(#p3052af6190)" style="fill: none; stroke: #000000"/>
    <path d="M 301.321263 185.238707 
L 311.809483 173.822559 
" clip-path="url(#p3052af6190)" style="fill: none; stroke: #000000"/>
    <path d="M 263.336824 151.696518 
L 252.388937 154.631644 
" clip-path="url(#p3052af6190)" style="fill: none; stroke: #000000"/>
    <path d="M 263.336824 151.696518 
L 270.019242 163.466875 
" clip-path="url(#p3052af6190)" style="fill: none; stroke: #000000"/>
    <path d="M 263.336824 151.696518 
L 275.925562 141.78394 
" clip-path="url(#p3052af6190)" style="fill: none; stroke: #000000"/>
    <path d="M 263.336824 151.696518 
L 259.394934 152.497867 
" clip-path="url(#p3052af6190)" style="fill: none; stroke: #000000"/>
    <path d="M 263.336824 151.696518 
L 267.137422 171.125281 
" clip-path="url(#p3052af6190)" style="fill: none; stroke: #000000"/>
    <path d="M 263.336824 151.696518 
L 267.065413 138.34572 
" clip-path="url(#p3052af6190)" style="fill: none; stroke: #000000"/>
    <path d="M 263.336824 151.696518 
L 243.928743 147.891744 
" clip-path="url(#p3052af6190)" style="fill: none; stroke: #000000"/>
    <path d="M 235.09257 124.640148 
L 251.130958 133.623536 
" clip-path="url(#p3052af6190)" style="fill: none; stroke: #000000"/>
    <path d="M 235.09257 124.640148 
L 240.79842 134.483784 
" clip-path="url(#p3052af6190)" style="fill: none; stroke: #000000"/>
    <path d="M 208.492609 157.20168 
L 234.087685 160.394951 
" clip-path="url(#p3052af6190)" style="fill: none; stroke: #000000"/>
    <path d="M 247.831851 137.851539 
L 223.672369 129.788482 
" clip-path="url(#p3052af6190)" style="fill: none; stroke: #000000"/>
    <path d="M 247.831851 137.851539 
L 231.031336 129.008334 
" clip-path="url(#p3052af6190)" style="fill: none; stroke: #000000"/>
    <path d="M 247.831851 137.851539 
L 251.130958 133.623536 
" clip-path="url(#p3052af6190)" style="fill: none; stroke: #000000"/>
    <path d="M 247.831851 137.851539 
L 280.278004 154.446767 
" clip-path="url(#p3052af6190)" style="fill: none; stroke: #000000"/>
    <path d="M 247.831851 137.851539 
L 254.395873 130.507582 
" clip-path="url(#p3052af6190)" style="fill: none; stroke: #000000"/>
    <path d="M 321.698626 212.304295 
L 308.384495 206.471996 
" clip-path="url(#p3052af6190)" style="fill: none; stroke: #000000"/>
    <path d="M 321.698626 212.304295 
L 313.936643 218.320355 
" clip-path="url(#p3052af6190)" style="fill: none; stroke: #000000"/>
    <path d="M 349.42392 212.960286 
L 356.792884 210.471439 
" clip-path="url(#p3052af6190)" style="fill: none; stroke: #000000"/>
    <path d="M 154.870056 183.972973 
L 175.594748 181.422578 
" clip-path="url(#p3052af6190)" style="fill: none; stroke: #000000"/>
    <path d="M 215.99835 187.897637 
L 214.596447 192.796049 
" clip-path="url(#p3052af6190)" style="fill: none; stroke: #000000"/>
    <path d="M 215.99835 187.897637 
L 208.163923 189.15927 
" clip-path="url(#p3052af6190)" style="fill: none; stroke: #000000"/>
    <path d="M 215.99835 187.897637 
L 225.273445 180.738059 
" clip-path="url(#p3052af6190)" style="fill: none; stroke: #000000"/>
    <path d="M 215.99835 187.897637 
L 228.683522 183.441935 
" clip-path="url(#p3052af6190)" style="fill: none; stroke: #000000"/>
    <path d="M 214.480642 161.545859 
L 239.161059 161.301384 
" clip-path="url(#p3052af6190)" style="fill: none; stroke: #000000"/>
    <path d="M 214.596447 192.796049 
L 208.163923 189.15927 
" clip-path="url(#p3052af6190)" style="fill: none; stroke: #000000"/>
    <path d="M 214.596447 192.796049 
L 228.683522 183.441935 
" clip-path="url(#p3052af6190)" style="fill: none; stroke: #000000"/>
    <path d="M 208.163923 189.15927 
L 225.273445 180.738059 
" clip-path="url(#p3052af6190)" style="fill: none; stroke: #000000"/>
    <path d="M 242.41205 177.623564 
L 225.273445 180.738059 
" clip-path="url(#p3052af6190)" style="fill: none; stroke: #000000"/>
    <path d="M 242.41205 177.623564 
L 241.990416 171.051993 
" clip-path="url(#p3052af6190)" style="fill: none; stroke: #000000"/>
    <path d="M 242.41205 177.623564 
L 267.137422 171.125281 
" clip-path="url(#p3052af6190)" style="fill: none; stroke: #000000"/>
    <path d="M 242.41205 177.623564 
L 228.683522 183.441935 
" clip-path="url(#p3052af6190)" style="fill: none; stroke: #000000"/>
    <path d="M 242.41205 177.623564 
L 254.595945 170.897176 
" clip-path="url(#p3052af6190)" style="fill: none; stroke: #000000"/>
    <path d="M 252.388937 154.631644 
L 233.251355 143.334946 
" clip-path="url(#p3052af6190)" style="fill: none; stroke: #000000"/>
    <path d="M 252.388937 154.631644 
L 270.019242 163.466875 
" clip-path="url(#p3052af6190)" style="fill: none; stroke: #000000"/>
    <path d="M 252.388937 154.631644 
L 259.394934 152.497867 
" clip-path="url(#p3052af6190)" style="fill: none; stroke: #000000"/>
    <path d="M 252.388937 154.631644 
L 253.010043 136.550568 
" clip-path="url(#p3052af6190)" style="fill: none; stroke: #000000"/>
    <path d="M 252.388937 154.631644 
L 267.137422 171.125281 
" clip-path="url(#p3052af6190)" style="fill: none; stroke: #000000"/>
    <path d="M 252.388937 154.631644 
L 243.928743 147.891744 
" clip-path="url(#p3052af6190)" style="fill: none; stroke: #000000"/>
    <path d="M 252.388937 154.631644 
L 249.001498 161.740229 
" clip-path="url(#p3052af6190)" style="fill: none; stroke: #000000"/>
    <path d="M 252.388937 154.631644 
L 239.161059 161.301384 
" clip-path="url(#p3052af6190)" style="fill: none; stroke: #000000"/>
    <path d="M 231.031336 129.008334 
L 240.79842 134.483784 
" clip-path="url(#p3052af6190)" style="fill: none; stroke: #000000"/>
    <path d="M 262.31319 196.136022 
L 272.750924 181.809766 
" clip-path="url(#p3052af6190)" style="fill: none; stroke: #000000"/>
    <path d="M 323.459228 185.069017 
L 318.117285 186.944424 
" clip-path="url(#p3052af6190)" style="fill: none; stroke: #000000"/>
    <path d="M 323.459228 185.069017 
L 311.809483 173.822559 
" clip-path="url(#p3052af6190)" style="fill: none; stroke: #000000"/>
    <path d="M 291.509901 227.501332 
L 301.386942 212.588877 
" clip-path="url(#p3052af6190)" style="fill: none; stroke: #000000"/>
    <path d="M 225.273445 180.738059 
L 241.990416 171.051993 
" clip-path="url(#p3052af6190)" style="fill: none; stroke: #000000"/>
    <path d="M 225.273445 180.738059 
L 205.164402 177.82803 
" clip-path="url(#p3052af6190)" style="fill: none; stroke: #000000"/>
    <path d="M 225.273445 180.738059 
L 228.683522 183.441935 
" clip-path="url(#p3052af6190)" style="fill: none; stroke: #000000"/>
    <path d="M 233.251355 143.334946 
L 240.79842 134.483784 
" clip-path="url(#p3052af6190)" style="fill: none; stroke: #000000"/>
    <path d="M 225.612793 88.412023 
L 222.240178 75.130818 
" clip-path="url(#p3052af6190)" style="fill: none; stroke: #000000"/>
    <path d="M 225.612793 88.412023 
L 238.075658 109.393269 
" clip-path="url(#p3052af6190)" style="fill: none; stroke: #000000"/>
    <path d="M 225.612793 88.412023 
L 214.570641 77.487437 
" clip-path="url(#p3052af6190)" style="fill: none; stroke: #000000"/>
    <path d="M 300.682584 158.207315 
L 305.385676 160.493024 
" clip-path="url(#p3052af6190)" style="fill: none; stroke: #000000"/>
    <path d="M 300.682584 158.207315 
L 291.620198 165.960619 
" clip-path="url(#p3052af6190)" style="fill: none; stroke: #000000"/>
    <path d="M 300.682584 158.207315 
L 287.022233 162.972505 
" clip-path="url(#p3052af6190)" style="fill: none; stroke: #000000"/>
    <path d="M 300.682584 158.207315 
L 289.159931 157.804698 
" clip-path="url(#p3052af6190)" style="fill: none; stroke: #000000"/>
    <path d="M 356.792884 210.471439 
L 370.786591 210.819887 
" clip-path="url(#p3052af6190)" style="fill: none; stroke: #000000"/>
    <path d="M 175.594748 181.422578 
L 205.164402 177.82803 
" clip-path="url(#p3052af6190)" style="fill: none; stroke: #000000"/>
    <path d="M 270.019242 163.466875 
L 234.087685 160.394951 
" clip-path="url(#p3052af6190)" style="fill: none; stroke: #000000"/>
    <path d="M 270.019242 163.466875 
L 280.278004 154.446767 
" clip-path="url(#p3052af6190)" style="fill: none; stroke: #000000"/>
    <path d="M 270.019242 163.466875 
L 259.394934 152.497867 
" clip-path="url(#p3052af6190)" style="fill: none; stroke: #000000"/>
    <path d="M 270.019242 163.466875 
L 253.010043 136.550568 
" clip-path="url(#p3052af6190)" style="fill: none; stroke: #000000"/>
    <path d="M 270.019242 163.466875 
L 267.137422 171.125281 
" clip-path="url(#p3052af6190)" style="fill: none; stroke: #000000"/>
    <path d="M 270.019242 163.466875 
L 244.953612 162.090519 
" clip-path="url(#p3052af6190)" style="fill: none; stroke: #000000"/>
    <path d="M 270.019242 163.466875 
L 288.025247 151.496996 
" clip-path="url(#p3052af6190)" style="fill: none; stroke: #000000"/>
    <path d="M 270.019242 163.466875 
L 272.750924 181.809766 
" clip-path="url(#p3052af6190)" style="fill: none; stroke: #000000"/>
    <path d="M 270.019242 163.466875 
L 287.022233 162.972505 
" clip-path="url(#p3052af6190)" style="fill: none; stroke: #000000"/>
    <path d="M 270.019242 163.466875 
L 297.600002 165.201157 
" clip-path="url(#p3052af6190)" style="fill: none; stroke: #000000"/>
    <path d="M 270.019242 163.466875 
L 289.159931 157.804698 
" clip-path="url(#p3052af6190)" style="fill: none; stroke: #000000"/>
    <path d="M 270.019242 163.466875 
L 268.863548 175.470985 
" clip-path="url(#p3052af6190)" style="fill: none; stroke: #000000"/>
    <path d="M 270.019242 163.466875 
L 311.809483 173.822559 
" clip-path="url(#p3052af6190)" style="fill: none; stroke: #000000"/>
    <path d="M 270.019242 163.466875 
L 249.001498 161.740229 
" clip-path="url(#p3052af6190)" style="fill: none; stroke: #000000"/>
    <path d="M 270.019242 163.466875 
L 239.161059 161.301384 
" clip-path="url(#p3052af6190)" style="fill: none; stroke: #000000"/>
    <path d="M 253.816189 121.972181 
L 251.130958 133.623536 
" clip-path="url(#p3052af6190)" style="fill: none; stroke: #000000"/>
    <path d="M 253.816189 121.972181 
L 254.395873 130.507582 
" clip-path="url(#p3052af6190)" style="fill: none; stroke: #000000"/>
    <path d="M 253.816189 121.972181 
L 261.760034 128.605313 
" clip-path="url(#p3052af6190)" style="fill: none; stroke: #000000"/>
    <path d="M 370.786591 210.819887 
L 352.611728 202.776745 
" clip-path="url(#p3052af6190)" style="fill: none; stroke: #000000"/>
    <path d="M 388.741926 196.451302 
L 366.221361 197.909215 
" clip-path="url(#p3052af6190)" style="fill: none; stroke: #000000"/>
    <path d="M 251.130958 133.623536 
L 259.394934 152.497867 
" clip-path="url(#p3052af6190)" style="fill: none; stroke: #000000"/>
    <path d="M 251.130958 133.623536 
L 253.010043 136.550568 
" clip-path="url(#p3052af6190)" style="fill: none; stroke: #000000"/>
    <path d="M 251.130958 133.623536 
L 254.395873 130.507582 
" clip-path="url(#p3052af6190)" style="fill: none; stroke: #000000"/>
    <path d="M 251.130958 133.623536 
L 246.321214 125.709013 
" clip-path="url(#p3052af6190)" style="fill: none; stroke: #000000"/>
    <path d="M 251.130958 133.623536 
L 261.760034 128.605313 
" clip-path="url(#p3052af6190)" style="fill: none; stroke: #000000"/>
    <path d="M 251.130958 133.623536 
L 240.79842 134.483784 
" clip-path="url(#p3052af6190)" style="fill: none; stroke: #000000"/>
    <path d="M 241.990416 171.051993 
L 205.164402 177.82803 
" clip-path="url(#p3052af6190)" style="fill: none; stroke: #000000"/>
    <path d="M 241.990416 171.051993 
L 267.137422 171.125281 
" clip-path="url(#p3052af6190)" style="fill: none; stroke: #000000"/>
    <path d="M 241.990416 171.051993 
L 249.816057 154.263488 
" clip-path="url(#p3052af6190)" style="fill: none; stroke: #000000"/>
    <path d="M 241.990416 171.051993 
L 228.683522 183.441935 
" clip-path="url(#p3052af6190)" style="fill: none; stroke: #000000"/>
    <path d="M 241.990416 171.051993 
L 254.595945 170.897176 
" clip-path="url(#p3052af6190)" style="fill: none; stroke: #000000"/>
    <path d="M 234.087685 160.394951 
L 244.953612 162.090519 
" clip-path="url(#p3052af6190)" style="fill: none; stroke: #000000"/>
    <path d="M 280.278004 154.446767 
L 275.925562 141.78394 
" clip-path="url(#p3052af6190)" style="fill: none; stroke: #000000"/>
    <path d="M 280.278004 154.446767 
L 296.670991 141.484679 
" clip-path="url(#p3052af6190)" style="fill: none; stroke: #000000"/>
    <path d="M 255.688186 188.659658 
L 267.137422 171.125281 
" clip-path="url(#p3052af6190)" style="fill: none; stroke: #000000"/>
    <path d="M 255.688186 188.659658 
L 241.560377 201.859213 
" clip-path="url(#p3052af6190)" style="fill: none; stroke: #000000"/>
    <path d="M 255.688186 188.659658 
L 272.750924 181.809766 
" clip-path="url(#p3052af6190)" style="fill: none; stroke: #000000"/>
    <path d="M 305.385676 160.493024 
L 291.620198 165.960619 
" clip-path="url(#p3052af6190)" style="fill: none; stroke: #000000"/>
    <path d="M 305.385676 160.493024 
L 287.022233 162.972505 
" clip-path="url(#p3052af6190)" style="fill: none; stroke: #000000"/>
    <path d="M 275.925562 141.78394 
L 285.515459 126.457539 
" clip-path="url(#p3052af6190)" style="fill: none; stroke: #000000"/>
    <path d="M 274.129804 187.114048 
L 264.187248 184.651837 
" clip-path="url(#p3052af6190)" style="fill: none; stroke: #000000"/>
    <path d="M 259.394934 152.497867 
L 267.137422 171.125281 
" clip-path="url(#p3052af6190)" style="fill: none; stroke: #000000"/>
    <path d="M 334.389277 169.378418 
L 332.618428 165.626396 
" clip-path="url(#p3052af6190)" style="fill: none; stroke: #000000"/>
    <path d="M 334.389277 169.378418 
L 311.809483 173.822559 
" clip-path="url(#p3052af6190)" style="fill: none; stroke: #000000"/>
    <path d="M 253.010043 136.550568 
L 254.395873 130.507582 
" clip-path="url(#p3052af6190)" style="fill: none; stroke: #000000"/>
    <path d="M 253.010043 136.550568 
L 246.321214 125.709013 
" clip-path="url(#p3052af6190)" style="fill: none; stroke: #000000"/>
    <path d="M 253.010043 136.550568 
L 238.075658 109.393269 
" clip-path="url(#p3052af6190)" style="fill: none; stroke: #000000"/>
    <path d="M 291.620198 165.960619 
L 267.137422 171.125281 
" clip-path="url(#p3052af6190)" style="fill: none; stroke: #000000"/>
    <path d="M 291.620198 165.960619 
L 287.022233 162.972505 
" clip-path="url(#p3052af6190)" style="fill: none; stroke: #000000"/>
    <path d="M 299.910062 148.340407 
L 288.025247 151.496996 
" clip-path="url(#p3052af6190)" style="fill: none; stroke: #000000"/>
    <path d="M 299.910062 148.340407 
L 297.600002 165.201157 
" clip-path="url(#p3052af6190)" style="fill: none; stroke: #000000"/>
    <path d="M 299.910062 148.340407 
L 287.755085 138.190468 
" clip-path="url(#p3052af6190)" style="fill: none; stroke: #000000"/>
    <path d="M 426.283855 317.759476 
L 417.81812 315.302847 
" clip-path="url(#p3052af6190)" style="fill: none; stroke: #000000"/>
    <path d="M 313.936643 218.320355 
L 301.386942 212.588877 
" clip-path="url(#p3052af6190)" style="fill: none; stroke: #000000"/>
    <path d="M 313.936643 218.320355 
L 316.41617 209.450758 
" clip-path="url(#p3052af6190)" style="fill: none; stroke: #000000"/>
    <path d="M 254.395873 130.507582 
L 246.321214 125.709013 
" clip-path="url(#p3052af6190)" style="fill: none; stroke: #000000"/>
    <path d="M 267.137422 171.125281 
L 272.750924 181.809766 
" clip-path="url(#p3052af6190)" style="fill: none; stroke: #000000"/>
    <path d="M 267.137422 171.125281 
L 287.022233 162.972505 
" clip-path="url(#p3052af6190)" style="fill: none; stroke: #000000"/>
    <path d="M 267.137422 171.125281 
L 264.187248 184.651837 
" clip-path="url(#p3052af6190)" style="fill: none; stroke: #000000"/>
    <path d="M 267.137422 171.125281 
L 268.863548 175.470985 
" clip-path="url(#p3052af6190)" style="fill: none; stroke: #000000"/>
    <path d="M 272.750924 181.809766 
L 268.863548 175.470985 
" clip-path="url(#p3052af6190)" style="fill: none; stroke: #000000"/>
    <path d="M 287.022233 162.972505 
L 289.159931 157.804698 
" clip-path="url(#p3052af6190)" style="fill: none; stroke: #000000"/>
    <path d="M 238.075658 109.393269 
L 230.423358 96.526557 
" clip-path="url(#p3052af6190)" style="fill: none; stroke: #000000"/>
    <path d="M 332.618428 165.626396 
L 311.809483 173.822559 
" clip-path="url(#p3052af6190)" style="fill: none; stroke: #000000"/>
    <path d="M 352.611728 202.776745 
L 349.148383 207.895638 
" clip-path="url(#p3052af6190)" style="fill: none; stroke: #000000"/>
    <path d="M 301.23478 206.84536 
L 316.41617 209.450758 
" clip-path="url(#p3052af6190)" style="fill: none; stroke: #000000"/>
    <path d="M 333.742168 210.863885 
L 316.41617 209.450758 
" clip-path="url(#p3052af6190)" style="fill: none; stroke: #000000"/>
    <path d="M 318.117285 186.944424 
L 311.809483 173.822559 
" clip-path="url(#p3052af6190)" style="fill: none; stroke: #000000"/>
    <path d="M 301.386942 212.588877 
L 303.46652 229.4424 
" clip-path="url(#p3052af6190)" style="fill: none; stroke: #000000"/>
    <path d="M 301.386942 212.588877 
L 297.961454 229.187045 
" clip-path="url(#p3052af6190)" style="fill: none; stroke: #000000"/>
    <path d="M 301.386942 212.588877 
L 311.64429 222.529396 
" clip-path="url(#p3052af6190)" style="fill: none; stroke: #000000"/>
    <path d="M 303.46652 229.4424 
L 297.961454 229.187045 
" clip-path="url(#p3052af6190)" style="fill: none; stroke: #000000"/>
    <path d="M 316.41617 209.450758 
L 311.64429 222.529396 
" clip-path="url(#p3052af6190)" style="fill: none; stroke: #000000"/>
    <path d="M 249.001498 161.740229 
L 239.161059 161.301384 
" clip-path="url(#p3052af6190)" style="fill: none; stroke: #000000"/>
   </g>
   <g id="PathCollection_1">
    <defs>
     <path id="m031fa97e85" d="M 0 2.5 
C 0.663008 2.5 1.29895 2.236584 1.767767 1.767767 
C 2.236584 1.29895 2.5 0.663008 2.5 0 
C 2.5 -0.663008 2.236584 -1.29895 1.767767 -1.767767 
C 1.29895 -2.236584 0.663008 -2.5 0 -2.5 
C -0.663008 -2.5 -1.29895 -2.236584 -1.767767 -1.767767 
C -2.236584 -1.29895 -2.5 -0.663008 -2.5 0 
C -2.5 0.663008 -2.236584 1.29895 -1.767767 1.767767 
C -1.29895 2.236584 -0.663008 2.5 0 2.5 
z
" style="stroke: #1f78b4"/>
    </defs>
    <g clip-path="url(#p3052af6190)">
     <use xlink:href="#m031fa97e85" x="316.301216" y="191.472032" style="fill: #1f78b4; stroke: #1f78b4"/>
     <use xlink:href="#m031fa97e85" x="332.137571" y="176.880048" style="fill: #1f78b4; stroke: #1f78b4"/>
     <use xlink:href="#m031fa97e85" x="267.674877" y="152.924833" style="fill: #1f78b4; stroke: #1f78b4"/>
     <use xlink:href="#m031fa97e85" x="183.097756" y="180.82609" style="fill: #1f78b4; stroke: #1f78b4"/>
     <use xlink:href="#m031fa97e85" x="332.714409" y="199.564708" style="fill: #1f78b4; stroke: #1f78b4"/>
     <use xlink:href="#m031fa97e85" x="395.27392" y="15.709091" style="fill: #1f78b4; stroke: #1f78b4"/>
     <use xlink:href="#m031fa97e85" x="266.180509" y="144.959604" style="fill: #1f78b4; stroke: #1f78b4"/>
     <use xlink:href="#m031fa97e85" x="251.887091" y="166.270606" style="fill: #1f78b4; stroke: #1f78b4"/>
     <use xlink:href="#m031fa97e85" x="295.065847" y="194.790454" style="fill: #1f78b4; stroke: #1f78b4"/>
     <use xlink:href="#m031fa97e85" x="249.740458" y="180.069409" style="fill: #1f78b4; stroke: #1f78b4"/>
     <use xlink:href="#m031fa97e85" x="264.18012" y="162.45381" style="fill: #1f78b4; stroke: #1f78b4"/>
     <use xlink:href="#m031fa97e85" x="307.760755" y="210.566852" style="fill: #1f78b4; stroke: #1f78b4"/>
     <use xlink:href="#m031fa97e85" x="421.48408" y="310.808163" style="fill: #1f78b4; stroke: #1f78b4"/>
     <use xlink:href="#m031fa97e85" x="333.119067" y="213.854648" style="fill: #1f78b4; stroke: #1f78b4"/>
     <use xlink:href="#m031fa97e85" x="336.288783" y="193.110477" style="fill: #1f78b4; stroke: #1f78b4"/>
     <use xlink:href="#m031fa97e85" x="261.075383" y="159.444433" style="fill: #1f78b4; stroke: #1f78b4"/>
     <use xlink:href="#m031fa97e85" x="244.019927" y="118.140795" style="fill: #1f78b4; stroke: #1f78b4"/>
     <use xlink:href="#m031fa97e85" x="307.772189" y="183.053663" style="fill: #1f78b4; stroke: #1f78b4"/>
     <use xlink:href="#m031fa97e85" x="301.321263" y="185.238707" style="fill: #1f78b4; stroke: #1f78b4"/>
     <use xlink:href="#m031fa97e85" x="263.336824" y="151.696518" style="fill: #1f78b4; stroke: #1f78b4"/>
     <use xlink:href="#m031fa97e85" x="235.09257" y="124.640148" style="fill: #1f78b4; stroke: #1f78b4"/>
     <use xlink:href="#m031fa97e85" x="208.492609" y="157.20168" style="fill: #1f78b4; stroke: #1f78b4"/>
     <use xlink:href="#m031fa97e85" x="247.831851" y="137.851539" style="fill: #1f78b4; stroke: #1f78b4"/>
     <use xlink:href="#m031fa97e85" x="321.698626" y="212.304295" style="fill: #1f78b4; stroke: #1f78b4"/>
     <use xlink:href="#m031fa97e85" x="349.42392" y="212.960286" style="fill: #1f78b4; stroke: #1f78b4"/>
     <use xlink:href="#m031fa97e85" x="154.870056" y="183.972973" style="fill: #1f78b4; stroke: #1f78b4"/>
     <use xlink:href="#m031fa97e85" x="215.99835" y="187.897637" style="fill: #1f78b4; stroke: #1f78b4"/>
     <use xlink:href="#m031fa97e85" x="214.480642" y="161.545859" style="fill: #1f78b4; stroke: #1f78b4"/>
     <use xlink:href="#m031fa97e85" x="223.672369" y="129.788482" style="fill: #1f78b4; stroke: #1f78b4"/>
     <use xlink:href="#m031fa97e85" x="214.596447" y="192.796049" style="fill: #1f78b4; stroke: #1f78b4"/>
     <use xlink:href="#m031fa97e85" x="208.163923" y="189.15927" style="fill: #1f78b4; stroke: #1f78b4"/>
     <use xlink:href="#m031fa97e85" x="282.539741" y="206.96998" style="fill: #1f78b4; stroke: #1f78b4"/>
     <use xlink:href="#m031fa97e85" x="242.41205" y="177.623564" style="fill: #1f78b4; stroke: #1f78b4"/>
     <use xlink:href="#m031fa97e85" x="252.388937" y="154.631644" style="fill: #1f78b4; stroke: #1f78b4"/>
     <use xlink:href="#m031fa97e85" x="308.384495" y="206.471996" style="fill: #1f78b4; stroke: #1f78b4"/>
     <use xlink:href="#m031fa97e85" x="231.031336" y="129.008334" style="fill: #1f78b4; stroke: #1f78b4"/>
     <use xlink:href="#m031fa97e85" x="262.31319" y="196.136022" style="fill: #1f78b4; stroke: #1f78b4"/>
     <use xlink:href="#m031fa97e85" x="323.459228" y="185.069017" style="fill: #1f78b4; stroke: #1f78b4"/>
     <use xlink:href="#m031fa97e85" x="291.509901" y="227.501332" style="fill: #1f78b4; stroke: #1f78b4"/>
     <use xlink:href="#m031fa97e85" x="225.273445" y="180.738059" style="fill: #1f78b4; stroke: #1f78b4"/>
     <use xlink:href="#m031fa97e85" x="233.251355" y="143.334946" style="fill: #1f78b4; stroke: #1f78b4"/>
     <use xlink:href="#m031fa97e85" x="225.612793" y="88.412023" style="fill: #1f78b4; stroke: #1f78b4"/>
     <use xlink:href="#m031fa97e85" x="300.682584" y="158.207315" style="fill: #1f78b4; stroke: #1f78b4"/>
     <use xlink:href="#m031fa97e85" x="356.792884" y="210.471439" style="fill: #1f78b4; stroke: #1f78b4"/>
     <use xlink:href="#m031fa97e85" x="175.594748" y="181.422578" style="fill: #1f78b4; stroke: #1f78b4"/>
     <use xlink:href="#m031fa97e85" x="270.019242" y="163.466875" style="fill: #1f78b4; stroke: #1f78b4"/>
     <use xlink:href="#m031fa97e85" x="253.816189" y="121.972181" style="fill: #1f78b4; stroke: #1f78b4"/>
     <use xlink:href="#m031fa97e85" x="370.786591" y="210.819887" style="fill: #1f78b4; stroke: #1f78b4"/>
     <use xlink:href="#m031fa97e85" x="388.741926" y="196.451302" style="fill: #1f78b4; stroke: #1f78b4"/>
     <use xlink:href="#m031fa97e85" x="251.130958" y="133.623536" style="fill: #1f78b4; stroke: #1f78b4"/>
     <use xlink:href="#m031fa97e85" x="241.990416" y="171.051993" style="fill: #1f78b4; stroke: #1f78b4"/>
     <use xlink:href="#m031fa97e85" x="234.087685" y="160.394951" style="fill: #1f78b4; stroke: #1f78b4"/>
     <use xlink:href="#m031fa97e85" x="280.278004" y="154.446767" style="fill: #1f78b4; stroke: #1f78b4"/>
     <use xlink:href="#m031fa97e85" x="255.688186" y="188.659658" style="fill: #1f78b4; stroke: #1f78b4"/>
     <use xlink:href="#m031fa97e85" x="349.062192" y="195.824078" style="fill: #1f78b4; stroke: #1f78b4"/>
     <use xlink:href="#m031fa97e85" x="356.849412" y="199.733373" style="fill: #1f78b4; stroke: #1f78b4"/>
     <use xlink:href="#m031fa97e85" x="205.164402" y="177.82803" style="fill: #1f78b4; stroke: #1f78b4"/>
     <use xlink:href="#m031fa97e85" x="305.385676" y="160.493024" style="fill: #1f78b4; stroke: #1f78b4"/>
     <use xlink:href="#m031fa97e85" x="275.925562" y="141.78394" style="fill: #1f78b4; stroke: #1f78b4"/>
     <use xlink:href="#m031fa97e85" x="274.129804" y="187.114048" style="fill: #1f78b4; stroke: #1f78b4"/>
     <use xlink:href="#m031fa97e85" x="259.394934" y="152.497867" style="fill: #1f78b4; stroke: #1f78b4"/>
     <use xlink:href="#m031fa97e85" x="334.389277" y="169.378418" style="fill: #1f78b4; stroke: #1f78b4"/>
     <use xlink:href="#m031fa97e85" x="253.010043" y="136.550568" style="fill: #1f78b4; stroke: #1f78b4"/>
     <use xlink:href="#m031fa97e85" x="291.620198" y="165.960619" style="fill: #1f78b4; stroke: #1f78b4"/>
     <use xlink:href="#m031fa97e85" x="299.910062" y="148.340407" style="fill: #1f78b4; stroke: #1f78b4"/>
     <use xlink:href="#m031fa97e85" x="426.283855" y="317.759476" style="fill: #1f78b4; stroke: #1f78b4"/>
     <use xlink:href="#m031fa97e85" x="313.936643" y="218.320355" style="fill: #1f78b4; stroke: #1f78b4"/>
     <use xlink:href="#m031fa97e85" x="254.395873" y="130.507582" style="fill: #1f78b4; stroke: #1f78b4"/>
     <use xlink:href="#m031fa97e85" x="267.137422" y="171.125281" style="fill: #1f78b4; stroke: #1f78b4"/>
     <use xlink:href="#m031fa97e85" x="296.670991" y="141.484679" style="fill: #1f78b4; stroke: #1f78b4"/>
     <use xlink:href="#m031fa97e85" x="244.953612" y="162.090519" style="fill: #1f78b4; stroke: #1f78b4"/>
     <use xlink:href="#m031fa97e85" x="288.025247" y="151.496996" style="fill: #1f78b4; stroke: #1f78b4"/>
     <use xlink:href="#m031fa97e85" x="267.065413" y="138.34572" style="fill: #1f78b4; stroke: #1f78b4"/>
     <use xlink:href="#m031fa97e85" x="246.321214" y="125.709013" style="fill: #1f78b4; stroke: #1f78b4"/>
     <use xlink:href="#m031fa97e85" x="241.560377" y="201.859213" style="fill: #1f78b4; stroke: #1f78b4"/>
     <use xlink:href="#m031fa97e85" x="285.462377" y="166.802753" style="fill: #1f78b4; stroke: #1f78b4"/>
     <use xlink:href="#m031fa97e85" x="261.760034" y="128.605313" style="fill: #1f78b4; stroke: #1f78b4"/>
     <use xlink:href="#m031fa97e85" x="272.750924" y="181.809766" style="fill: #1f78b4; stroke: #1f78b4"/>
     <use xlink:href="#m031fa97e85" x="222.240178" y="75.130818" style="fill: #1f78b4; stroke: #1f78b4"/>
     <use xlink:href="#m031fa97e85" x="287.022233" y="162.972505" style="fill: #1f78b4; stroke: #1f78b4"/>
     <use xlink:href="#m031fa97e85" x="297.600002" y="165.201157" style="fill: #1f78b4; stroke: #1f78b4"/>
     <use xlink:href="#m031fa97e85" x="238.075658" y="109.393269" style="fill: #1f78b4; stroke: #1f78b4"/>
     <use xlink:href="#m031fa97e85" x="230.423358" y="96.526557" style="fill: #1f78b4; stroke: #1f78b4"/>
     <use xlink:href="#m031fa97e85" x="332.618428" y="165.626396" style="fill: #1f78b4; stroke: #1f78b4"/>
     <use xlink:href="#m031fa97e85" x="352.611728" y="202.776745" style="fill: #1f78b4; stroke: #1f78b4"/>
     <use xlink:href="#m031fa97e85" x="285.515459" y="126.457539" style="fill: #1f78b4; stroke: #1f78b4"/>
     <use xlink:href="#m031fa97e85" x="301.23478" y="206.84536" style="fill: #1f78b4; stroke: #1f78b4"/>
     <use xlink:href="#m031fa97e85" x="289.159931" y="157.804698" style="fill: #1f78b4; stroke: #1f78b4"/>
     <use xlink:href="#m031fa97e85" x="288.033669" y="208.965725" style="fill: #1f78b4; stroke: #1f78b4"/>
     <use xlink:href="#m031fa97e85" x="287.755085" y="138.190468" style="fill: #1f78b4; stroke: #1f78b4"/>
     <use xlink:href="#m031fa97e85" x="333.742168" y="210.863885" style="fill: #1f78b4; stroke: #1f78b4"/>
     <use xlink:href="#m031fa97e85" x="318.117285" y="186.944424" style="fill: #1f78b4; stroke: #1f78b4"/>
     <use xlink:href="#m031fa97e85" x="214.570641" y="77.487437" style="fill: #1f78b4; stroke: #1f78b4"/>
     <use xlink:href="#m031fa97e85" x="301.386942" y="212.588877" style="fill: #1f78b4; stroke: #1f78b4"/>
     <use xlink:href="#m031fa97e85" x="349.148383" y="207.895638" style="fill: #1f78b4; stroke: #1f78b4"/>
     <use xlink:href="#m031fa97e85" x="236.082029" y="19.699255" style="fill: #1f78b4; stroke: #1f78b4"/>
     <use xlink:href="#m031fa97e85" x="303.46652" y="229.4424" style="fill: #1f78b4; stroke: #1f78b4"/>
     <use xlink:href="#m031fa97e85" x="316.41617" y="209.450758" style="fill: #1f78b4; stroke: #1f78b4"/>
     <use xlink:href="#m031fa97e85" x="326.402674" y="178.849174" style="fill: #1f78b4; stroke: #1f78b4"/>
     <use xlink:href="#m031fa97e85" x="243.928743" y="147.891744" style="fill: #1f78b4; stroke: #1f78b4"/>
     <use xlink:href="#m031fa97e85" x="264.187248" y="184.651837" style="fill: #1f78b4; stroke: #1f78b4"/>
     <use xlink:href="#m031fa97e85" x="268.863548" y="175.470985" style="fill: #1f78b4; stroke: #1f78b4"/>
     <use xlink:href="#m031fa97e85" x="249.816057" y="154.263488" style="fill: #1f78b4; stroke: #1f78b4"/>
     <use xlink:href="#m031fa97e85" x="311.809483" y="173.822559" style="fill: #1f78b4; stroke: #1f78b4"/>
     <use xlink:href="#m031fa97e85" x="228.683522" y="183.441935" style="fill: #1f78b4; stroke: #1f78b4"/>
     <use xlink:href="#m031fa97e85" x="249.001498" y="161.740229" style="fill: #1f78b4; stroke: #1f78b4"/>
     <use xlink:href="#m031fa97e85" x="355.464863" y="206.204861" style="fill: #1f78b4; stroke: #1f78b4"/>
     <use xlink:href="#m031fa97e85" x="297.961454" y="229.187045" style="fill: #1f78b4; stroke: #1f78b4"/>
     <use xlink:href="#m031fa97e85" x="366.221361" y="197.909215" style="fill: #1f78b4; stroke: #1f78b4"/>
     <use xlink:href="#m031fa97e85" x="20.945455" y="108.408556" style="fill: #1f78b4; stroke: #1f78b4"/>
     <use xlink:href="#m031fa97e85" x="254.595945" y="170.897176" style="fill: #1f78b4; stroke: #1f78b4"/>
     <use xlink:href="#m031fa97e85" x="239.161059" y="161.301384" style="fill: #1f78b4; stroke: #1f78b4"/>
     <use xlink:href="#m031fa97e85" x="311.64429" y="222.529396" style="fill: #1f78b4; stroke: #1f78b4"/>
     <use xlink:href="#m031fa97e85" x="105.22401" y="314.584848" style="fill: #1f78b4; stroke: #1f78b4"/>
     <use xlink:href="#m031fa97e85" x="322.162766" y="191.163818" style="fill: #1f78b4; stroke: #1f78b4"/>
     <use xlink:href="#m031fa97e85" x="240.79842" y="134.483784" style="fill: #1f78b4; stroke: #1f78b4"/>
     <use xlink:href="#m031fa97e85" x="417.81812" y="315.302847" style="fill: #1f78b4; stroke: #1f78b4"/>
    </g>
   </g>
  </g>
 </g>
 <defs>
  <clipPath id="p3052af6190">
   <rect x="0" y="0" width="460.8" height="345.6"/>
  </clipPath>
 </defs>
</svg>
