<?xml version="1.0" encoding="utf-8" standalone="no"?>
<!DOCTYPE svg PUBLIC "-//W3C//DTD SVG 1.1//EN"
  "http://www.w3.org/Graphics/SVG/1.1/DTD/svg11.dtd">
<svg xmlns:xlink="http://www.w3.org/1999/xlink" width="460.8pt" height="345.6pt" viewBox="0 0 460.8 345.6" xmlns="http://www.w3.org/2000/svg" version="1.1">
 <metadata>
  <rdf:RDF xmlns:dc="http://purl.org/dc/elements/1.1/" xmlns:cc="http://creativecommons.org/ns#" xmlns:rdf="http://www.w3.org/1999/02/22-rdf-syntax-ns#">
   <cc:Work>
    <dc:type rdf:resource="http://purl.org/dc/dcmitype/StillImage"/>
    <dc:date>2023-11-11T21:54:15.058781</dc:date>
    <dc:format>image/svg+xml</dc:format>
    <dc:creator>
     <cc:Agent>
      <dc:title>Matplotlib v3.8.1, https://matplotlib.org/</dc:title>
     </cc:Agent>
    </dc:creator>
   </cc:Work>
  </rdf:RDF>
 </metadata>
 <defs>
  <style type="text/css">*{stroke-linejoin: round; stroke-linecap: butt}</style>
 </defs>
 <g id="figure_1">
  <g id="patch_1">
   <path d="M 0 345.6 
L 460.8 345.6 
L 460.8 0 
L 0 0 
z
" style="fill: #ffffff"/>
  </g>
  <g id="axes_1">
   <g id="LineCollection_1">
    <path d="M 103.769683 83.171396 
L 93.457398 76.479278 
" clip-path="url(#pa90aa328b9)" style="fill: none; stroke: #000000"/>
    <path d="M 282.744859 149.870324 
L 272.322945 154.299324 
" clip-path="url(#pa90aa328b9)" style="fill: none; stroke: #000000"/>
    <path d="M 282.744859 149.870324 
L 269.521981 158.043664 
" clip-path="url(#pa90aa328b9)" style="fill: none; stroke: #000000"/>
    <path d="M 229.055142 170.526389 
L 236.044544 157.158153 
" clip-path="url(#pa90aa328b9)" style="fill: none; stroke: #000000"/>
    <path d="M 229.055142 170.526389 
L 229.186522 176.303962 
" clip-path="url(#pa90aa328b9)" style="fill: none; stroke: #000000"/>
    <path d="M 229.055142 170.526389 
L 229.616271 157.550418 
" clip-path="url(#pa90aa328b9)" style="fill: none; stroke: #000000"/>
    <path d="M 229.055142 170.526389 
L 233.384942 170.31037 
" clip-path="url(#pa90aa328b9)" style="fill: none; stroke: #000000"/>
    <path d="M 229.055142 170.526389 
L 219.541767 180.376028 
" clip-path="url(#pa90aa328b9)" style="fill: none; stroke: #000000"/>
    <path d="M 229.055142 170.526389 
L 238.869824 184.673653 
" clip-path="url(#pa90aa328b9)" style="fill: none; stroke: #000000"/>
    <path d="M 241.721243 245.239176 
L 233.801383 246.499261 
" clip-path="url(#pa90aa328b9)" style="fill: none; stroke: #000000"/>
    <path d="M 241.721243 245.239176 
L 245.77575 232.244543 
" clip-path="url(#pa90aa328b9)" style="fill: none; stroke: #000000"/>
    <path d="M 236.044544 157.158153 
L 245.063193 166.853038 
" clip-path="url(#pa90aa328b9)" style="fill: none; stroke: #000000"/>
    <path d="M 236.044544 157.158153 
L 218.734126 164.425497 
" clip-path="url(#pa90aa328b9)" style="fill: none; stroke: #000000"/>
    <path d="M 236.044544 157.158153 
L 235.964033 149.866196 
" clip-path="url(#pa90aa328b9)" style="fill: none; stroke: #000000"/>
    <path d="M 236.044544 157.158153 
L 229.616271 157.550418 
" clip-path="url(#pa90aa328b9)" style="fill: none; stroke: #000000"/>
    <path d="M 236.044544 157.158153 
L 233.384942 170.31037 
" clip-path="url(#pa90aa328b9)" style="fill: none; stroke: #000000"/>
    <path d="M 236.044544 157.158153 
L 238.240798 142.514001 
" clip-path="url(#pa90aa328b9)" style="fill: none; stroke: #000000"/>
    <path d="M 236.044544 157.158153 
L 248.90349 143.803616 
" clip-path="url(#pa90aa328b9)" style="fill: none; stroke: #000000"/>
    <path d="M 261.114178 163.404418 
L 245.063193 166.853038 
" clip-path="url(#pa90aa328b9)" style="fill: none; stroke: #000000"/>
    <path d="M 261.114178 163.404418 
L 263.733344 167.712365 
" clip-path="url(#pa90aa328b9)" style="fill: none; stroke: #000000"/>
    <path d="M 215.712564 158.11713 
L 195.14286 148.786749 
" clip-path="url(#pa90aa328b9)" style="fill: none; stroke: #000000"/>
    <path d="M 215.712564 158.11713 
L 251.961746 163.96886 
" clip-path="url(#pa90aa328b9)" style="fill: none; stroke: #000000"/>
    <path d="M 215.712564 158.11713 
L 211.698086 144.440674 
" clip-path="url(#pa90aa328b9)" style="fill: none; stroke: #000000"/>
    <path d="M 215.712564 158.11713 
L 202.068857 151.538221 
" clip-path="url(#pa90aa328b9)" style="fill: none; stroke: #000000"/>
    <path d="M 215.712564 158.11713 
L 245.063193 166.853038 
" clip-path="url(#pa90aa328b9)" style="fill: none; stroke: #000000"/>
    <path d="M 215.712564 158.11713 
L 238.869824 184.673653 
" clip-path="url(#pa90aa328b9)" style="fill: none; stroke: #000000"/>
    <path d="M 215.712564 158.11713 
L 196.757013 156.590634 
" clip-path="url(#pa90aa328b9)" style="fill: none; stroke: #000000"/>
    <path d="M 215.712564 158.11713 
L 206.169258 146.485555 
" clip-path="url(#pa90aa328b9)" style="fill: none; stroke: #000000"/>
    <path d="M 215.712564 158.11713 
L 188.051162 143.608728 
" clip-path="url(#pa90aa328b9)" style="fill: none; stroke: #000000"/>
    <path d="M 215.712564 158.11713 
L 187.636765 151.674196 
" clip-path="url(#pa90aa328b9)" style="fill: none; stroke: #000000"/>
    <path d="M 260.860464 205.563785 
L 251.723541 207.616433 
" clip-path="url(#pa90aa328b9)" style="fill: none; stroke: #000000"/>
    <path d="M 260.860464 205.563785 
L 256.774431 221.296814 
" clip-path="url(#pa90aa328b9)" style="fill: none; stroke: #000000"/>
    <path d="M 260.860464 205.563785 
L 255.115633 212.858233 
" clip-path="url(#pa90aa328b9)" style="fill: none; stroke: #000000"/>
    <path d="M 260.860464 205.563785 
L 261.321876 185.487788 
" clip-path="url(#pa90aa328b9)" style="fill: none; stroke: #000000"/>
    <path d="M 260.860464 205.563785 
L 263.303677 212.447253 
" clip-path="url(#pa90aa328b9)" style="fill: none; stroke: #000000"/>
    <path d="M 268.624262 217.544843 
L 273.684427 218.306022 
" clip-path="url(#pa90aa328b9)" style="fill: none; stroke: #000000"/>
    <path d="M 268.624262 217.544843 
L 255.115633 212.858233 
" clip-path="url(#pa90aa328b9)" style="fill: none; stroke: #000000"/>
    <path d="M 268.624262 217.544843 
L 263.303677 212.447253 
" clip-path="url(#pa90aa328b9)" style="fill: none; stroke: #000000"/>
    <path d="M 195.14286 148.786749 
L 202.068857 151.538221 
" clip-path="url(#pa90aa328b9)" style="fill: none; stroke: #000000"/>
    <path d="M 195.14286 148.786749 
L 182.046726 143.709419 
" clip-path="url(#pa90aa328b9)" style="fill: none; stroke: #000000"/>
    <path d="M 195.14286 148.786749 
L 188.051162 143.608728 
" clip-path="url(#pa90aa328b9)" style="fill: none; stroke: #000000"/>
    <path d="M 195.14286 148.786749 
L 187.636765 151.674196 
" clip-path="url(#pa90aa328b9)" style="fill: none; stroke: #000000"/>
    <path d="M 305.978859 38.599747 
L 301.967991 34.460504 
" clip-path="url(#pa90aa328b9)" style="fill: none; stroke: #000000"/>
    <path d="M 305.978859 38.599747 
L 299.129614 43.101748 
" clip-path="url(#pa90aa328b9)" style="fill: none; stroke: #000000"/>
    <path d="M 168.614386 151.790871 
L 187.636765 151.674196 
" clip-path="url(#pa90aa328b9)" style="fill: none; stroke: #000000"/>
    <path d="M 397.872283 219.977468 
L 410.605743 217.424375 
" clip-path="url(#pa90aa328b9)" style="fill: none; stroke: #000000"/>
    <path d="M 273.684427 218.306022 
L 255.115633 212.858233 
" clip-path="url(#pa90aa328b9)" style="fill: none; stroke: #000000"/>
    <path d="M 206.353503 192.784028 
L 219.541767 180.376028 
" clip-path="url(#pa90aa328b9)" style="fill: none; stroke: #000000"/>
    <path d="M 206.353503 192.784028 
L 207.303917 201.432658 
" clip-path="url(#pa90aa328b9)" style="fill: none; stroke: #000000"/>
    <path d="M 251.961746 163.96886 
L 272.322945 154.299324 
" clip-path="url(#pa90aa328b9)" style="fill: none; stroke: #000000"/>
    <path d="M 251.961746 163.96886 
L 261.321876 185.487788 
" clip-path="url(#pa90aa328b9)" style="fill: none; stroke: #000000"/>
    <path d="M 251.961746 163.96886 
L 269.521981 158.043664 
" clip-path="url(#pa90aa328b9)" style="fill: none; stroke: #000000"/>
    <path d="M 200.279758 166.816032 
L 218.734126 164.425497 
" clip-path="url(#pa90aa328b9)" style="fill: none; stroke: #000000"/>
    <path d="M 291.549146 169.600542 
L 271.829818 168.71164 
" clip-path="url(#pa90aa328b9)" style="fill: none; stroke: #000000"/>
    <path d="M 222.025701 145.698031 
L 218.358392 130.476773 
" clip-path="url(#pa90aa328b9)" style="fill: none; stroke: #000000"/>
    <path d="M 222.025701 145.698031 
L 218.734126 164.425497 
" clip-path="url(#pa90aa328b9)" style="fill: none; stroke: #000000"/>
    <path d="M 222.025701 145.698031 
L 235.964033 149.866196 
" clip-path="url(#pa90aa328b9)" style="fill: none; stroke: #000000"/>
    <path d="M 418.621779 190.271831 
L 417.990268 198.389309 
" clip-path="url(#pa90aa328b9)" style="fill: none; stroke: #000000"/>
    <path d="M 221.906707 255.036946 
L 233.801383 246.499261 
" clip-path="url(#pa90aa328b9)" style="fill: none; stroke: #000000"/>
    <path d="M 260.17758 232.109564 
L 262.74546 237.440108 
" clip-path="url(#pa90aa328b9)" style="fill: none; stroke: #000000"/>
    <path d="M 260.17758 232.109564 
L 266.665115 233.258802 
" clip-path="url(#pa90aa328b9)" style="fill: none; stroke: #000000"/>
    <path d="M 260.17758 232.109564 
L 256.774431 221.296814 
" clip-path="url(#pa90aa328b9)" style="fill: none; stroke: #000000"/>
    <path d="M 260.17758 232.109564 
L 256.546958 224.249234 
" clip-path="url(#pa90aa328b9)" style="fill: none; stroke: #000000"/>
    <path d="M 262.74546 237.440108 
L 266.665115 233.258802 
" clip-path="url(#pa90aa328b9)" style="fill: none; stroke: #000000"/>
    <path d="M 262.74546 237.440108 
L 256.546958 224.249234 
" clip-path="url(#pa90aa328b9)" style="fill: none; stroke: #000000"/>
    <path d="M 266.665115 233.258802 
L 256.774431 221.296814 
" clip-path="url(#pa90aa328b9)" style="fill: none; stroke: #000000"/>
    <path d="M 251.723541 207.616433 
L 256.774431 221.296814 
" clip-path="url(#pa90aa328b9)" style="fill: none; stroke: #000000"/>
    <path d="M 251.723541 207.616433 
L 255.115633 212.858233 
" clip-path="url(#pa90aa328b9)" style="fill: none; stroke: #000000"/>
    <path d="M 251.723541 207.616433 
L 238.869824 184.673653 
" clip-path="url(#pa90aa328b9)" style="fill: none; stroke: #000000"/>
    <path d="M 251.723541 207.616433 
L 256.546958 224.249234 
" clip-path="url(#pa90aa328b9)" style="fill: none; stroke: #000000"/>
    <path d="M 251.723541 207.616433 
L 263.303677 212.447253 
" clip-path="url(#pa90aa328b9)" style="fill: none; stroke: #000000"/>
    <path d="M 229.186522 176.303962 
L 212.269811 183.260094 
" clip-path="url(#pa90aa328b9)" style="fill: none; stroke: #000000"/>
    <path d="M 229.186522 176.303962 
L 245.063193 166.853038 
" clip-path="url(#pa90aa328b9)" style="fill: none; stroke: #000000"/>
    <path d="M 229.186522 176.303962 
L 233.384942 170.31037 
" clip-path="url(#pa90aa328b9)" style="fill: none; stroke: #000000"/>
    <path d="M 229.186522 176.303962 
L 219.541767 180.376028 
" clip-path="url(#pa90aa328b9)" style="fill: none; stroke: #000000"/>
    <path d="M 229.186522 176.303962 
L 238.869824 184.673653 
" clip-path="url(#pa90aa328b9)" style="fill: none; stroke: #000000"/>
    <path d="M 229.186522 176.303962 
L 234.749692 167.030229 
" clip-path="url(#pa90aa328b9)" style="fill: none; stroke: #000000"/>
    <path d="M 272.322945 154.299324 
L 269.521981 158.043664 
" clip-path="url(#pa90aa328b9)" style="fill: none; stroke: #000000"/>
    <path d="M 175.805571 131.895207 
L 188.051162 143.608728 
" clip-path="url(#pa90aa328b9)" style="fill: none; stroke: #000000"/>
    <path d="M 256.774431 221.296814 
L 255.115633 212.858233 
" clip-path="url(#pa90aa328b9)" style="fill: none; stroke: #000000"/>
    <path d="M 256.774431 221.296814 
L 245.77575 232.244543 
" clip-path="url(#pa90aa328b9)" style="fill: none; stroke: #000000"/>
    <path d="M 256.774431 221.296814 
L 256.546958 224.249234 
" clip-path="url(#pa90aa328b9)" style="fill: none; stroke: #000000"/>
    <path d="M 202.198984 221.104685 
L 202.41529 236.256283 
" clip-path="url(#pa90aa328b9)" style="fill: none; stroke: #000000"/>
    <path d="M 202.198984 221.104685 
L 207.303917 201.432658 
" clip-path="url(#pa90aa328b9)" style="fill: none; stroke: #000000"/>
    <path d="M 248.445641 189.42411 
L 240.764287 191.559946 
" clip-path="url(#pa90aa328b9)" style="fill: none; stroke: #000000"/>
    <path d="M 248.445641 189.42411 
L 245.441143 182.019887 
" clip-path="url(#pa90aa328b9)" style="fill: none; stroke: #000000"/>
    <path d="M 248.445641 189.42411 
L 251.519198 179.544985 
" clip-path="url(#pa90aa328b9)" style="fill: none; stroke: #000000"/>
    <path d="M 417.990268 198.389309 
L 414.261602 207.668088 
" clip-path="url(#pa90aa328b9)" style="fill: none; stroke: #000000"/>
    <path d="M 233.801383 246.499261 
L 245.77575 232.244543 
" clip-path="url(#pa90aa328b9)" style="fill: none; stroke: #000000"/>
    <path d="M 245.063193 166.853038 
L 271.829818 168.71164 
" clip-path="url(#pa90aa328b9)" style="fill: none; stroke: #000000"/>
    <path d="M 245.063193 166.853038 
L 235.964033 149.866196 
" clip-path="url(#pa90aa328b9)" style="fill: none; stroke: #000000"/>
    <path d="M 245.063193 166.853038 
L 233.384942 170.31037 
" clip-path="url(#pa90aa328b9)" style="fill: none; stroke: #000000"/>
    <path d="M 245.063193 166.853038 
L 219.541767 180.376028 
" clip-path="url(#pa90aa328b9)" style="fill: none; stroke: #000000"/>
    <path d="M 245.063193 166.853038 
L 238.869824 184.673653 
" clip-path="url(#pa90aa328b9)" style="fill: none; stroke: #000000"/>
    <path d="M 245.063193 166.853038 
L 263.733344 167.712365 
" clip-path="url(#pa90aa328b9)" style="fill: none; stroke: #000000"/>
    <path d="M 245.063193 166.853038 
L 253.757252 151.875496 
" clip-path="url(#pa90aa328b9)" style="fill: none; stroke: #000000"/>
    <path d="M 245.063193 166.853038 
L 245.441143 182.019887 
" clip-path="url(#pa90aa328b9)" style="fill: none; stroke: #000000"/>
    <path d="M 245.063193 166.853038 
L 258.239869 153.290813 
" clip-path="url(#pa90aa328b9)" style="fill: none; stroke: #000000"/>
    <path d="M 245.063193 166.853038 
L 251.519198 179.544985 
" clip-path="url(#pa90aa328b9)" style="fill: none; stroke: #000000"/>
    <path d="M 245.063193 166.853038 
L 246.330495 175.978986 
" clip-path="url(#pa90aa328b9)" style="fill: none; stroke: #000000"/>
    <path d="M 245.063193 166.853038 
L 269.521981 158.043664 
" clip-path="url(#pa90aa328b9)" style="fill: none; stroke: #000000"/>
    <path d="M 245.063193 166.853038 
L 234.749692 167.030229 
" clip-path="url(#pa90aa328b9)" style="fill: none; stroke: #000000"/>
    <path d="M 414.261602 207.668088 
L 410.605743 217.424375 
" clip-path="url(#pa90aa328b9)" style="fill: none; stroke: #000000"/>
    <path d="M 218.182691 27.105655 
L 222.657406 31.794241 
" clip-path="url(#pa90aa328b9)" style="fill: none; stroke: #000000"/>
    <path d="M 218.734126 164.425497 
L 233.384942 170.31037 
" clip-path="url(#pa90aa328b9)" style="fill: none; stroke: #000000"/>
    <path d="M 218.734126 164.425497 
L 219.541767 180.376028 
" clip-path="url(#pa90aa328b9)" style="fill: none; stroke: #000000"/>
    <path d="M 218.734126 164.425497 
L 208.609949 174.085537 
" clip-path="url(#pa90aa328b9)" style="fill: none; stroke: #000000"/>
    <path d="M 255.115633 212.858233 
L 245.77575 232.244543 
" clip-path="url(#pa90aa328b9)" style="fill: none; stroke: #000000"/>
    <path d="M 255.115633 212.858233 
L 238.869824 184.673653 
" clip-path="url(#pa90aa328b9)" style="fill: none; stroke: #000000"/>
    <path d="M 255.115633 212.858233 
L 267.241314 224.014925 
" clip-path="url(#pa90aa328b9)" style="fill: none; stroke: #000000"/>
    <path d="M 255.115633 212.858233 
L 256.546958 224.249234 
" clip-path="url(#pa90aa328b9)" style="fill: none; stroke: #000000"/>
    <path d="M 255.115633 212.858233 
L 263.303677 212.447253 
" clip-path="url(#pa90aa328b9)" style="fill: none; stroke: #000000"/>
    <path d="M 271.829818 168.71164 
L 263.733344 167.712365 
" clip-path="url(#pa90aa328b9)" style="fill: none; stroke: #000000"/>
    <path d="M 235.964033 149.866196 
L 229.616271 157.550418 
" clip-path="url(#pa90aa328b9)" style="fill: none; stroke: #000000"/>
    <path d="M 235.964033 149.866196 
L 238.054191 134.428231 
" clip-path="url(#pa90aa328b9)" style="fill: none; stroke: #000000"/>
    <path d="M 229.320779 195.468077 
L 238.869824 184.673653 
" clip-path="url(#pa90aa328b9)" style="fill: none; stroke: #000000"/>
    <path d="M 261.321876 185.487788 
L 255.254668 190.13668 
" clip-path="url(#pa90aa328b9)" style="fill: none; stroke: #000000"/>
    <path d="M 233.384942 170.31037 
L 238.869824 184.673653 
" clip-path="url(#pa90aa328b9)" style="fill: none; stroke: #000000"/>
    <path d="M 219.541767 180.376028 
L 208.609949 174.085537 
" clip-path="url(#pa90aa328b9)" style="fill: none; stroke: #000000"/>
    <path d="M 219.541767 180.376028 
L 207.303917 201.432658 
" clip-path="url(#pa90aa328b9)" style="fill: none; stroke: #000000"/>
    <path d="M 240.764287 191.559946 
L 238.869824 184.673653 
" clip-path="url(#pa90aa328b9)" style="fill: none; stroke: #000000"/>
    <path d="M 240.764287 191.559946 
L 245.441143 182.019887 
" clip-path="url(#pa90aa328b9)" style="fill: none; stroke: #000000"/>
    <path d="M 260.504777 142.892531 
L 253.757252 151.875496 
" clip-path="url(#pa90aa328b9)" style="fill: none; stroke: #000000"/>
    <path d="M 260.504777 142.892531 
L 258.239869 153.290813 
" clip-path="url(#pa90aa328b9)" style="fill: none; stroke: #000000"/>
    <path d="M 260.504777 142.892531 
L 248.90349 143.803616 
" clip-path="url(#pa90aa328b9)" style="fill: none; stroke: #000000"/>
    <path d="M 301.967991 34.460504 
L 299.129614 43.101748 
" clip-path="url(#pa90aa328b9)" style="fill: none; stroke: #000000"/>
    <path d="M 182.046726 143.709419 
L 188.051162 143.608728 
" clip-path="url(#pa90aa328b9)" style="fill: none; stroke: #000000"/>
    <path d="M 182.046726 143.709419 
L 187.636765 151.674196 
" clip-path="url(#pa90aa328b9)" style="fill: none; stroke: #000000"/>
    <path d="M 238.869824 184.673653 
L 245.441143 182.019887 
" clip-path="url(#pa90aa328b9)" style="fill: none; stroke: #000000"/>
    <path d="M 238.869824 184.673653 
L 255.254668 190.13668 
" clip-path="url(#pa90aa328b9)" style="fill: none; stroke: #000000"/>
    <path d="M 238.869824 184.673653 
L 246.330495 175.978986 
" clip-path="url(#pa90aa328b9)" style="fill: none; stroke: #000000"/>
    <path d="M 245.441143 182.019887 
L 251.519198 179.544985 
" clip-path="url(#pa90aa328b9)" style="fill: none; stroke: #000000"/>
    <path d="M 289.864799 152.823381 
L 269.521981 158.043664 
" clip-path="url(#pa90aa328b9)" style="fill: none; stroke: #000000"/>
    <path d="M 410.605743 217.424375 
L 423.359443 222.459711 
" clip-path="url(#pa90aa328b9)" style="fill: none; stroke: #000000"/>
    <path d="M 196.757013 156.590634 
L 187.636765 151.674196 
" clip-path="url(#pa90aa328b9)" style="fill: none; stroke: #000000"/>
    <path d="M 188.051162 143.608728 
L 170.051663 136.642778 
" clip-path="url(#pa90aa328b9)" style="fill: none; stroke: #000000"/>
    <path d="M 188.051162 143.608728 
L 174.727701 144.9747 
" clip-path="url(#pa90aa328b9)" style="fill: none; stroke: #000000"/>
    <path d="M 187.636765 151.674196 
L 174.727701 144.9747 
" clip-path="url(#pa90aa328b9)" style="fill: none; stroke: #000000"/>
   </g>
   <g id="PathCollection_1">
    <defs>
     <path id="m80dee0cdd5" d="M 0 2.5 
C 0.663008 2.5 1.29895 2.236584 1.767767 1.767767 
C 2.236584 1.29895 2.5 0.663008 2.5 0 
C 2.5 -0.663008 2.236584 -1.29895 1.767767 -1.767767 
C 1.29895 -2.236584 0.663008 -2.5 0 -2.5 
C -0.663008 -2.5 -1.29895 -2.236584 -1.767767 -1.767767 
C -2.236584 -1.29895 -2.5 -0.663008 -2.5 0 
C -2.5 0.663008 -2.236584 1.29895 -1.767767 1.767767 
C -1.29895 2.236584 -0.663008 2.5 0 2.5 
z
" style="stroke: #1f78b4"/>
    </defs>
    <g clip-path="url(#pa90aa328b9)">
     <use xlink:href="#m80dee0cdd5" x="103.769683" y="83.171396" style="fill: #1f78b4; stroke: #1f78b4"/>
     <use xlink:href="#m80dee0cdd5" x="282.744859" y="149.870324" style="fill: #1f78b4; stroke: #1f78b4"/>
     <use xlink:href="#m80dee0cdd5" x="229.055142" y="170.526389" style="fill: #1f78b4; stroke: #1f78b4"/>
     <use xlink:href="#m80dee0cdd5" x="241.721243" y="245.239176" style="fill: #1f78b4; stroke: #1f78b4"/>
     <use xlink:href="#m80dee0cdd5" x="202.835508" y="324.107277" style="fill: #1f78b4; stroke: #1f78b4"/>
     <use xlink:href="#m80dee0cdd5" x="236.044544" y="157.158153" style="fill: #1f78b4; stroke: #1f78b4"/>
     <use xlink:href="#m80dee0cdd5" x="261.114178" y="163.404418" style="fill: #1f78b4; stroke: #1f78b4"/>
     <use xlink:href="#m80dee0cdd5" x="215.712564" y="158.11713" style="fill: #1f78b4; stroke: #1f78b4"/>
     <use xlink:href="#m80dee0cdd5" x="260.860464" y="205.563785" style="fill: #1f78b4; stroke: #1f78b4"/>
     <use xlink:href="#m80dee0cdd5" x="268.624262" y="217.544843" style="fill: #1f78b4; stroke: #1f78b4"/>
     <use xlink:href="#m80dee0cdd5" x="195.14286" y="148.786749" style="fill: #1f78b4; stroke: #1f78b4"/>
     <use xlink:href="#m80dee0cdd5" x="305.978859" y="38.599747" style="fill: #1f78b4; stroke: #1f78b4"/>
     <use xlink:href="#m80dee0cdd5" x="168.614386" y="151.790871" style="fill: #1f78b4; stroke: #1f78b4"/>
     <use xlink:href="#m80dee0cdd5" x="397.872283" y="219.977468" style="fill: #1f78b4; stroke: #1f78b4"/>
     <use xlink:href="#m80dee0cdd5" x="273.684427" y="218.306022" style="fill: #1f78b4; stroke: #1f78b4"/>
     <use xlink:href="#m80dee0cdd5" x="206.353503" y="192.784028" style="fill: #1f78b4; stroke: #1f78b4"/>
     <use xlink:href="#m80dee0cdd5" x="251.961746" y="163.96886" style="fill: #1f78b4; stroke: #1f78b4"/>
     <use xlink:href="#m80dee0cdd5" x="200.279758" y="166.816032" style="fill: #1f78b4; stroke: #1f78b4"/>
     <use xlink:href="#m80dee0cdd5" x="291.549146" y="169.600542" style="fill: #1f78b4; stroke: #1f78b4"/>
     <use xlink:href="#m80dee0cdd5" x="222.025701" y="145.698031" style="fill: #1f78b4; stroke: #1f78b4"/>
     <use xlink:href="#m80dee0cdd5" x="418.621779" y="190.271831" style="fill: #1f78b4; stroke: #1f78b4"/>
     <use xlink:href="#m80dee0cdd5" x="221.906707" y="255.036946" style="fill: #1f78b4; stroke: #1f78b4"/>
     <use xlink:href="#m80dee0cdd5" x="260.17758" y="232.109564" style="fill: #1f78b4; stroke: #1f78b4"/>
     <use xlink:href="#m80dee0cdd5" x="218.358392" y="130.476773" style="fill: #1f78b4; stroke: #1f78b4"/>
     <use xlink:href="#m80dee0cdd5" x="262.74546" y="237.440108" style="fill: #1f78b4; stroke: #1f78b4"/>
     <use xlink:href="#m80dee0cdd5" x="266.665115" y="233.258802" style="fill: #1f78b4; stroke: #1f78b4"/>
     <use xlink:href="#m80dee0cdd5" x="211.698086" y="144.440674" style="fill: #1f78b4; stroke: #1f78b4"/>
     <use xlink:href="#m80dee0cdd5" x="251.723541" y="207.616433" style="fill: #1f78b4; stroke: #1f78b4"/>
     <use xlink:href="#m80dee0cdd5" x="229.186522" y="176.303962" style="fill: #1f78b4; stroke: #1f78b4"/>
     <use xlink:href="#m80dee0cdd5" x="202.068857" y="151.538221" style="fill: #1f78b4; stroke: #1f78b4"/>
     <use xlink:href="#m80dee0cdd5" x="336.27113" y="329.890909" style="fill: #1f78b4; stroke: #1f78b4"/>
     <use xlink:href="#m80dee0cdd5" x="272.322945" y="154.299324" style="fill: #1f78b4; stroke: #1f78b4"/>
     <use xlink:href="#m80dee0cdd5" x="175.805571" y="131.895207" style="fill: #1f78b4; stroke: #1f78b4"/>
     <use xlink:href="#m80dee0cdd5" x="256.774431" y="221.296814" style="fill: #1f78b4; stroke: #1f78b4"/>
     <use xlink:href="#m80dee0cdd5" x="212.269811" y="183.260094" style="fill: #1f78b4; stroke: #1f78b4"/>
     <use xlink:href="#m80dee0cdd5" x="202.198984" y="221.104685" style="fill: #1f78b4; stroke: #1f78b4"/>
     <use xlink:href="#m80dee0cdd5" x="248.445641" y="189.42411" style="fill: #1f78b4; stroke: #1f78b4"/>
     <use xlink:href="#m80dee0cdd5" x="417.990268" y="198.389309" style="fill: #1f78b4; stroke: #1f78b4"/>
     <use xlink:href="#m80dee0cdd5" x="233.801383" y="246.499261" style="fill: #1f78b4; stroke: #1f78b4"/>
     <use xlink:href="#m80dee0cdd5" x="245.063193" y="166.853038" style="fill: #1f78b4; stroke: #1f78b4"/>
     <use xlink:href="#m80dee0cdd5" x="414.261602" y="207.668088" style="fill: #1f78b4; stroke: #1f78b4"/>
     <use xlink:href="#m80dee0cdd5" x="218.182691" y="27.105655" style="fill: #1f78b4; stroke: #1f78b4"/>
     <use xlink:href="#m80dee0cdd5" x="218.734126" y="164.425497" style="fill: #1f78b4; stroke: #1f78b4"/>
     <use xlink:href="#m80dee0cdd5" x="255.115633" y="212.858233" style="fill: #1f78b4; stroke: #1f78b4"/>
     <use xlink:href="#m80dee0cdd5" x="271.829818" y="168.71164" style="fill: #1f78b4; stroke: #1f78b4"/>
     <use xlink:href="#m80dee0cdd5" x="235.964033" y="149.866196" style="fill: #1f78b4; stroke: #1f78b4"/>
     <use xlink:href="#m80dee0cdd5" x="229.320779" y="195.468077" style="fill: #1f78b4; stroke: #1f78b4"/>
     <use xlink:href="#m80dee0cdd5" x="51.949945" y="273.592234" style="fill: #1f78b4; stroke: #1f78b4"/>
     <use xlink:href="#m80dee0cdd5" x="245.77575" y="232.244543" style="fill: #1f78b4; stroke: #1f78b4"/>
     <use xlink:href="#m80dee0cdd5" x="229.616271" y="157.550418" style="fill: #1f78b4; stroke: #1f78b4"/>
     <use xlink:href="#m80dee0cdd5" x="261.321876" y="185.487788" style="fill: #1f78b4; stroke: #1f78b4"/>
     <use xlink:href="#m80dee0cdd5" x="233.384942" y="170.31037" style="fill: #1f78b4; stroke: #1f78b4"/>
     <use xlink:href="#m80dee0cdd5" x="219.541767" y="180.376028" style="fill: #1f78b4; stroke: #1f78b4"/>
     <use xlink:href="#m80dee0cdd5" x="240.764287" y="191.559946" style="fill: #1f78b4; stroke: #1f78b4"/>
     <use xlink:href="#m80dee0cdd5" x="260.504777" y="142.892531" style="fill: #1f78b4; stroke: #1f78b4"/>
     <use xlink:href="#m80dee0cdd5" x="301.967991" y="34.460504" style="fill: #1f78b4; stroke: #1f78b4"/>
     <use xlink:href="#m80dee0cdd5" x="182.046726" y="143.709419" style="fill: #1f78b4; stroke: #1f78b4"/>
     <use xlink:href="#m80dee0cdd5" x="238.869824" y="184.673653" style="fill: #1f78b4; stroke: #1f78b4"/>
     <use xlink:href="#m80dee0cdd5" x="238.054191" y="134.428231" style="fill: #1f78b4; stroke: #1f78b4"/>
     <use xlink:href="#m80dee0cdd5" x="263.733344" y="167.712365" style="fill: #1f78b4; stroke: #1f78b4"/>
     <use xlink:href="#m80dee0cdd5" x="253.757252" y="151.875496" style="fill: #1f78b4; stroke: #1f78b4"/>
     <use xlink:href="#m80dee0cdd5" x="238.240798" y="142.514001" style="fill: #1f78b4; stroke: #1f78b4"/>
     <use xlink:href="#m80dee0cdd5" x="208.609949" y="174.085537" style="fill: #1f78b4; stroke: #1f78b4"/>
     <use xlink:href="#m80dee0cdd5" x="202.41529" y="236.256283" style="fill: #1f78b4; stroke: #1f78b4"/>
     <use xlink:href="#m80dee0cdd5" x="245.441143" y="182.019887" style="fill: #1f78b4; stroke: #1f78b4"/>
     <use xlink:href="#m80dee0cdd5" x="258.239869" y="153.290813" style="fill: #1f78b4; stroke: #1f78b4"/>
     <use xlink:href="#m80dee0cdd5" x="207.303917" y="201.432658" style="fill: #1f78b4; stroke: #1f78b4"/>
     <use xlink:href="#m80dee0cdd5" x="289.864799" y="152.823381" style="fill: #1f78b4; stroke: #1f78b4"/>
     <use xlink:href="#m80dee0cdd5" x="410.605743" y="217.424375" style="fill: #1f78b4; stroke: #1f78b4"/>
     <use xlink:href="#m80dee0cdd5" x="196.757013" y="156.590634" style="fill: #1f78b4; stroke: #1f78b4"/>
     <use xlink:href="#m80dee0cdd5" x="251.519198" y="179.544985" style="fill: #1f78b4; stroke: #1f78b4"/>
     <use xlink:href="#m80dee0cdd5" x="206.169258" y="146.485555" style="fill: #1f78b4; stroke: #1f78b4"/>
     <use xlink:href="#m80dee0cdd5" x="248.90349" y="143.803616" style="fill: #1f78b4; stroke: #1f78b4"/>
     <use xlink:href="#m80dee0cdd5" x="188.051162" y="143.608728" style="fill: #1f78b4; stroke: #1f78b4"/>
     <use xlink:href="#m80dee0cdd5" x="423.359443" y="222.459711" style="fill: #1f78b4; stroke: #1f78b4"/>
     <use xlink:href="#m80dee0cdd5" x="375.695345" y="298.339722" style="fill: #1f78b4; stroke: #1f78b4"/>
     <use xlink:href="#m80dee0cdd5" x="187.636765" y="151.674196" style="fill: #1f78b4; stroke: #1f78b4"/>
     <use xlink:href="#m80dee0cdd5" x="101.549935" y="319.759595" style="fill: #1f78b4; stroke: #1f78b4"/>
     <use xlink:href="#m80dee0cdd5" x="255.254668" y="190.13668" style="fill: #1f78b4; stroke: #1f78b4"/>
     <use xlink:href="#m80dee0cdd5" x="246.330495" y="175.978986" style="fill: #1f78b4; stroke: #1f78b4"/>
     <use xlink:href="#m80dee0cdd5" x="267.241314" y="224.014925" style="fill: #1f78b4; stroke: #1f78b4"/>
     <use xlink:href="#m80dee0cdd5" x="269.521981" y="158.043664" style="fill: #1f78b4; stroke: #1f78b4"/>
     <use xlink:href="#m80dee0cdd5" x="256.546958" y="224.249234" style="fill: #1f78b4; stroke: #1f78b4"/>
     <use xlink:href="#m80dee0cdd5" x="234.749692" y="167.030229" style="fill: #1f78b4; stroke: #1f78b4"/>
     <use xlink:href="#m80dee0cdd5" x="20.945455" y="189.40997" style="fill: #1f78b4; stroke: #1f78b4"/>
     <use xlink:href="#m80dee0cdd5" x="170.051663" y="136.642778" style="fill: #1f78b4; stroke: #1f78b4"/>
     <use xlink:href="#m80dee0cdd5" x="222.657406" y="31.794241" style="fill: #1f78b4; stroke: #1f78b4"/>
     <use xlink:href="#m80dee0cdd5" x="61.681872" y="256.374588" style="fill: #1f78b4; stroke: #1f78b4"/>
     <use xlink:href="#m80dee0cdd5" x="263.303677" y="212.447253" style="fill: #1f78b4; stroke: #1f78b4"/>
     <use xlink:href="#m80dee0cdd5" x="174.727701" y="144.9747" style="fill: #1f78b4; stroke: #1f78b4"/>
     <use xlink:href="#m80dee0cdd5" x="439.04072" y="139.516659" style="fill: #1f78b4; stroke: #1f78b4"/>
     <use xlink:href="#m80dee0cdd5" x="93.457398" y="76.479278" style="fill: #1f78b4; stroke: #1f78b4"/>
     <use xlink:href="#m80dee0cdd5" x="299.129614" y="43.101748" style="fill: #1f78b4; stroke: #1f78b4"/>
    </g>
   </g>
  </g>
 </g>
 <defs>
  <clipPath id="pa90aa328b9">
   <rect x="0" y="0" width="460.8" height="345.6"/>
  </clipPath>
 </defs>
</svg>
