<?xml version="1.0" encoding="utf-8" standalone="no"?>
<!DOCTYPE svg PUBLIC "-//W3C//DTD SVG 1.1//EN"
  "http://www.w3.org/Graphics/SVG/1.1/DTD/svg11.dtd">
<svg xmlns:xlink="http://www.w3.org/1999/xlink" width="460.8pt" height="345.6pt" viewBox="0 0 460.8 345.6" xmlns="http://www.w3.org/2000/svg" version="1.1">
 <metadata>
  <rdf:RDF xmlns:dc="http://purl.org/dc/elements/1.1/" xmlns:cc="http://creativecommons.org/ns#" xmlns:rdf="http://www.w3.org/1999/02/22-rdf-syntax-ns#">
   <cc:Work>
    <dc:type rdf:resource="http://purl.org/dc/dcmitype/StillImage"/>
    <dc:date>2023-11-12T00:18:56.297385</dc:date>
    <dc:format>image/svg+xml</dc:format>
    <dc:creator>
     <cc:Agent>
      <dc:title>Matplotlib v3.8.1, https://matplotlib.org/</dc:title>
     </cc:Agent>
    </dc:creator>
   </cc:Work>
  </rdf:RDF>
 </metadata>
 <defs>
  <style type="text/css">*{stroke-linejoin: round; stroke-linecap: butt}</style>
 </defs>
 <g id="figure_1">
  <g id="patch_1">
   <path d="M 0 345.6 
L 460.8 345.6 
L 460.8 0 
L 0 0 
z
" style="fill: #ffffff"/>
  </g>
  <g id="axes_1">
   <g id="LineCollection_1">
    <path d="M 217.332289 173.660017 
L 217.056827 162.21439 
" clip-path="url(#p8193762309)" style="fill: none; stroke: #000000"/>
    <path d="M 217.332289 173.660017 
L 231.109787 163.982778 
" clip-path="url(#p8193762309)" style="fill: none; stroke: #000000"/>
    <path d="M 217.332289 173.660017 
L 212.389073 179.562399 
" clip-path="url(#p8193762309)" style="fill: none; stroke: #000000"/>
    <path d="M 226.466964 167.700175 
L 235.938818 161.389739 
" clip-path="url(#p8193762309)" style="fill: none; stroke: #000000"/>
    <path d="M 226.466964 167.700175 
L 218.008553 158.694529 
" clip-path="url(#p8193762309)" style="fill: none; stroke: #000000"/>
    <path d="M 176.559854 130.971499 
L 167.708682 127.496798 
" clip-path="url(#p8193762309)" style="fill: none; stroke: #000000"/>
    <path d="M 176.559854 130.971499 
L 170.77034 132.492247 
" clip-path="url(#p8193762309)" style="fill: none; stroke: #000000"/>
    <path d="M 176.559854 130.971499 
L 164.074986 122.664089 
" clip-path="url(#p8193762309)" style="fill: none; stroke: #000000"/>
    <path d="M 176.559854 130.971499 
L 175.039699 124.0906 
" clip-path="url(#p8193762309)" style="fill: none; stroke: #000000"/>
    <path d="M 176.559854 130.971499 
L 149.805414 136.77836 
" clip-path="url(#p8193762309)" style="fill: none; stroke: #000000"/>
    <path d="M 176.559854 130.971499 
L 197.428176 122.356458 
" clip-path="url(#p8193762309)" style="fill: none; stroke: #000000"/>
    <path d="M 176.559854 130.971499 
L 198.290505 143.466316 
" clip-path="url(#p8193762309)" style="fill: none; stroke: #000000"/>
    <path d="M 242.565845 44.645405 
L 250.433519 43.306437 
" clip-path="url(#p8193762309)" style="fill: none; stroke: #000000"/>
    <path d="M 242.565845 44.645405 
L 233.682701 59.724704 
" clip-path="url(#p8193762309)" style="fill: none; stroke: #000000"/>
    <path d="M 254.455734 170.372126 
L 234.917093 147.131568 
" clip-path="url(#p8193762309)" style="fill: none; stroke: #000000"/>
    <path d="M 254.455734 170.372126 
L 272.287391 166.91817 
" clip-path="url(#p8193762309)" style="fill: none; stroke: #000000"/>
    <path d="M 254.455734 170.372126 
L 243.418249 177.540289 
" clip-path="url(#p8193762309)" style="fill: none; stroke: #000000"/>
    <path d="M 254.455734 170.372126 
L 217.056827 162.21439 
" clip-path="url(#p8193762309)" style="fill: none; stroke: #000000"/>
    <path d="M 254.455734 170.372126 
L 227.77014 148.025378 
" clip-path="url(#p8193762309)" style="fill: none; stroke: #000000"/>
    <path d="M 254.455734 170.372126 
L 266.12905 159.245771 
" clip-path="url(#p8193762309)" style="fill: none; stroke: #000000"/>
    <path d="M 254.455734 170.372126 
L 274.957201 181.310392 
" clip-path="url(#p8193762309)" style="fill: none; stroke: #000000"/>
    <path d="M 254.455734 170.372126 
L 235.938818 161.389739 
" clip-path="url(#p8193762309)" style="fill: none; stroke: #000000"/>
    <path d="M 254.455734 170.372126 
L 274.181836 186.818669 
" clip-path="url(#p8193762309)" style="fill: none; stroke: #000000"/>
    <path d="M 254.455734 170.372126 
L 255.692202 183.46732 
" clip-path="url(#p8193762309)" style="fill: none; stroke: #000000"/>
    <path d="M 254.455734 170.372126 
L 278.441337 177.161166 
" clip-path="url(#p8193762309)" style="fill: none; stroke: #000000"/>
    <path d="M 254.455734 170.372126 
L 262.945523 186.69002 
" clip-path="url(#p8193762309)" style="fill: none; stroke: #000000"/>
    <path d="M 254.455734 170.372126 
L 274.106193 163.370348 
" clip-path="url(#p8193762309)" style="fill: none; stroke: #000000"/>
    <path d="M 254.455734 170.372126 
L 231.109787 163.982778 
" clip-path="url(#p8193762309)" style="fill: none; stroke: #000000"/>
    <path d="M 254.455734 170.372126 
L 268.265732 182.961079 
" clip-path="url(#p8193762309)" style="fill: none; stroke: #000000"/>
    <path d="M 254.455734 170.372126 
L 259.064044 158.020284 
" clip-path="url(#p8193762309)" style="fill: none; stroke: #000000"/>
    <path d="M 254.455734 170.372126 
L 280.053034 172.645565 
" clip-path="url(#p8193762309)" style="fill: none; stroke: #000000"/>
    <path d="M 254.455734 170.372126 
L 269.265019 194.462039 
" clip-path="url(#p8193762309)" style="fill: none; stroke: #000000"/>
    <path d="M 167.708682 127.496798 
L 177.518031 124.846723 
" clip-path="url(#p8193762309)" style="fill: none; stroke: #000000"/>
    <path d="M 167.708682 127.496798 
L 189.763743 138.700708 
" clip-path="url(#p8193762309)" style="fill: none; stroke: #000000"/>
    <path d="M 167.708682 127.496798 
L 150.514456 118.924982 
" clip-path="url(#p8193762309)" style="fill: none; stroke: #000000"/>
    <path d="M 167.708682 127.496798 
L 184.88362 132.007715 
" clip-path="url(#p8193762309)" style="fill: none; stroke: #000000"/>
    <path d="M 167.708682 127.496798 
L 164.074986 122.664089 
" clip-path="url(#p8193762309)" style="fill: none; stroke: #000000"/>
    <path d="M 167.708682 127.496798 
L 175.039699 124.0906 
" clip-path="url(#p8193762309)" style="fill: none; stroke: #000000"/>
    <path d="M 167.708682 127.496798 
L 147.108412 121.117621 
" clip-path="url(#p8193762309)" style="fill: none; stroke: #000000"/>
    <path d="M 167.708682 127.496798 
L 169.089427 114.289947 
" clip-path="url(#p8193762309)" style="fill: none; stroke: #000000"/>
    <path d="M 167.708682 127.496798 
L 198.290505 143.466316 
" clip-path="url(#p8193762309)" style="fill: none; stroke: #000000"/>
    <path d="M 167.708682 127.496798 
L 151.778362 112.511796 
" clip-path="url(#p8193762309)" style="fill: none; stroke: #000000"/>
    <path d="M 167.708682 127.496798 
L 159.566628 148.603686 
" clip-path="url(#p8193762309)" style="fill: none; stroke: #000000"/>
    <path d="M 167.708682 127.496798 
L 145.810981 113.799579 
" clip-path="url(#p8193762309)" style="fill: none; stroke: #000000"/>
    <path d="M 204.152111 132.655671 
L 189.763743 138.700708 
" clip-path="url(#p8193762309)" style="fill: none; stroke: #000000"/>
    <path d="M 204.152111 132.655671 
L 202.590088 126.654881 
" clip-path="url(#p8193762309)" style="fill: none; stroke: #000000"/>
    <path d="M 234.917093 147.131568 
L 252.533143 157.996315 
" clip-path="url(#p8193762309)" style="fill: none; stroke: #000000"/>
    <path d="M 234.917093 147.131568 
L 227.77014 148.025378 
" clip-path="url(#p8193762309)" style="fill: none; stroke: #000000"/>
    <path d="M 234.917093 147.131568 
L 250.377165 135.56251 
" clip-path="url(#p8193762309)" style="fill: none; stroke: #000000"/>
    <path d="M 234.917093 147.131568 
L 257.237052 150.587507 
" clip-path="url(#p8193762309)" style="fill: none; stroke: #000000"/>
    <path d="M 234.917093 147.131568 
L 189.763743 138.700708 
" clip-path="url(#p8193762309)" style="fill: none; stroke: #000000"/>
    <path d="M 234.917093 147.131568 
L 197.428176 122.356458 
" clip-path="url(#p8193762309)" style="fill: none; stroke: #000000"/>
    <path d="M 234.917093 147.131568 
L 256.254902 146.237901 
" clip-path="url(#p8193762309)" style="fill: none; stroke: #000000"/>
    <path d="M 234.917093 147.131568 
L 255.542067 138.35546 
" clip-path="url(#p8193762309)" style="fill: none; stroke: #000000"/>
    <path d="M 234.917093 147.131568 
L 243.055927 171.154593 
" clip-path="url(#p8193762309)" style="fill: none; stroke: #000000"/>
    <path d="M 234.917093 147.131568 
L 259.064044 158.020284 
" clip-path="url(#p8193762309)" style="fill: none; stroke: #000000"/>
    <path d="M 223.825389 91.499541 
L 211.005397 90.480274 
" clip-path="url(#p8193762309)" style="fill: none; stroke: #000000"/>
    <path d="M 223.825389 91.499541 
L 219.30786 71.878272 
" clip-path="url(#p8193762309)" style="fill: none; stroke: #000000"/>
    <path d="M 223.825389 91.499541 
L 216.76482 83.618932 
" clip-path="url(#p8193762309)" style="fill: none; stroke: #000000"/>
    <path d="M 223.825389 91.499541 
L 228.108505 117.659914 
" clip-path="url(#p8193762309)" style="fill: none; stroke: #000000"/>
    <path d="M 223.825389 91.499541 
L 224.206637 81.620743 
" clip-path="url(#p8193762309)" style="fill: none; stroke: #000000"/>
    <path d="M 230.081828 74.545777 
L 228.340089 69.652729 
" clip-path="url(#p8193762309)" style="fill: none; stroke: #000000"/>
    <path d="M 230.081828 74.545777 
L 216.76482 83.618932 
" clip-path="url(#p8193762309)" style="fill: none; stroke: #000000"/>
    <path d="M 230.081828 74.545777 
L 224.206637 81.620743 
" clip-path="url(#p8193762309)" style="fill: none; stroke: #000000"/>
    <path d="M 252.533143 157.996315 
L 266.12905 159.245771 
" clip-path="url(#p8193762309)" style="fill: none; stroke: #000000"/>
    <path d="M 252.533143 157.996315 
L 257.237052 150.587507 
" clip-path="url(#p8193762309)" style="fill: none; stroke: #000000"/>
    <path d="M 252.533143 157.996315 
L 261.262004 164.850256 
" clip-path="url(#p8193762309)" style="fill: none; stroke: #000000"/>
    <path d="M 252.533143 157.996315 
L 243.055927 171.154593 
" clip-path="url(#p8193762309)" style="fill: none; stroke: #000000"/>
    <path d="M 252.533143 157.996315 
L 259.064044 158.020284 
" clip-path="url(#p8193762309)" style="fill: none; stroke: #000000"/>
    <path d="M 422.558033 125.264236 
L 421.991555 130.62318 
" clip-path="url(#p8193762309)" style="fill: none; stroke: #000000"/>
    <path d="M 422.558033 125.264236 
L 409.913126 128.666189 
" clip-path="url(#p8193762309)" style="fill: none; stroke: #000000"/>
    <path d="M 272.287391 166.91817 
L 274.106193 163.370348 
" clip-path="url(#p8193762309)" style="fill: none; stroke: #000000"/>
    <path d="M 272.287391 166.91817 
L 259.064044 158.020284 
" clip-path="url(#p8193762309)" style="fill: none; stroke: #000000"/>
    <path d="M 243.418249 177.540289 
L 217.056827 162.21439 
" clip-path="url(#p8193762309)" style="fill: none; stroke: #000000"/>
    <path d="M 243.418249 177.540289 
L 255.692202 183.46732 
" clip-path="url(#p8193762309)" style="fill: none; stroke: #000000"/>
    <path d="M 243.418249 177.540289 
L 262.945523 186.69002 
" clip-path="url(#p8193762309)" style="fill: none; stroke: #000000"/>
    <path d="M 228.340089 69.652729 
L 216.76482 83.618932 
" clip-path="url(#p8193762309)" style="fill: none; stroke: #000000"/>
    <path d="M 125.795055 146.317965 
L 149.805414 136.77836 
" clip-path="url(#p8193762309)" style="fill: none; stroke: #000000"/>
    <path d="M 125.795055 146.317965 
L 117.725562 156.265267 
" clip-path="url(#p8193762309)" style="fill: none; stroke: #000000"/>
    <path d="M 217.056827 162.21439 
L 184.88362 132.007715 
" clip-path="url(#p8193762309)" style="fill: none; stroke: #000000"/>
    <path d="M 217.056827 162.21439 
L 198.290505 143.466316 
" clip-path="url(#p8193762309)" style="fill: none; stroke: #000000"/>
    <path d="M 217.056827 162.21439 
L 193.690521 157.663013 
" clip-path="url(#p8193762309)" style="fill: none; stroke: #000000"/>
    <path d="M 217.056827 162.21439 
L 231.109787 163.982778 
" clip-path="url(#p8193762309)" style="fill: none; stroke: #000000"/>
    <path d="M 217.056827 162.21439 
L 243.055927 171.154593 
" clip-path="url(#p8193762309)" style="fill: none; stroke: #000000"/>
    <path d="M 217.056827 162.21439 
L 205.492772 178.757343 
" clip-path="url(#p8193762309)" style="fill: none; stroke: #000000"/>
    <path d="M 217.056827 162.21439 
L 212.389073 179.562399 
" clip-path="url(#p8193762309)" style="fill: none; stroke: #000000"/>
    <path d="M 227.77014 148.025378 
L 235.938818 161.389739 
" clip-path="url(#p8193762309)" style="fill: none; stroke: #000000"/>
    <path d="M 227.77014 148.025378 
L 228.108505 117.659914 
" clip-path="url(#p8193762309)" style="fill: none; stroke: #000000"/>
    <path d="M 227.77014 148.025378 
L 198.290505 143.466316 
" clip-path="url(#p8193762309)" style="fill: none; stroke: #000000"/>
    <path d="M 227.77014 148.025378 
L 209.934097 135.560201 
" clip-path="url(#p8193762309)" style="fill: none; stroke: #000000"/>
    <path d="M 227.77014 148.025378 
L 231.109787 163.982778 
" clip-path="url(#p8193762309)" style="fill: none; stroke: #000000"/>
    <path d="M 227.77014 148.025378 
L 218.008553 158.694529 
" clip-path="url(#p8193762309)" style="fill: none; stroke: #000000"/>
    <path d="M 177.518031 124.846723 
L 170.77034 132.492247 
" clip-path="url(#p8193762309)" style="fill: none; stroke: #000000"/>
    <path d="M 177.518031 124.846723 
L 189.763743 138.700708 
" clip-path="url(#p8193762309)" style="fill: none; stroke: #000000"/>
    <path d="M 177.518031 124.846723 
L 164.074986 122.664089 
" clip-path="url(#p8193762309)" style="fill: none; stroke: #000000"/>
    <path d="M 177.518031 124.846723 
L 175.039699 124.0906 
" clip-path="url(#p8193762309)" style="fill: none; stroke: #000000"/>
    <path d="M 177.518031 124.846723 
L 197.428176 122.356458 
" clip-path="url(#p8193762309)" style="fill: none; stroke: #000000"/>
    <path d="M 177.518031 124.846723 
L 169.089427 114.289947 
" clip-path="url(#p8193762309)" style="fill: none; stroke: #000000"/>
    <path d="M 177.518031 124.846723 
L 160.121208 126.115014 
" clip-path="url(#p8193762309)" style="fill: none; stroke: #000000"/>
    <path d="M 132.545217 108.539435 
L 150.514456 118.924982 
" clip-path="url(#p8193762309)" style="fill: none; stroke: #000000"/>
    <path d="M 132.545217 108.539435 
L 145.810981 113.799579 
" clip-path="url(#p8193762309)" style="fill: none; stroke: #000000"/>
    <path d="M 221.907279 108.053508 
L 207.712636 121.011524 
" clip-path="url(#p8193762309)" style="fill: none; stroke: #000000"/>
    <path d="M 159.195179 110.492658 
L 150.838226 92.223026 
" clip-path="url(#p8193762309)" style="fill: none; stroke: #000000"/>
    <path d="M 159.195179 110.492658 
L 142.90902 100.592868 
" clip-path="url(#p8193762309)" style="fill: none; stroke: #000000"/>
    <path d="M 159.195179 110.492658 
L 150.514456 118.924982 
" clip-path="url(#p8193762309)" style="fill: none; stroke: #000000"/>
    <path d="M 159.195179 110.492658 
L 184.88362 132.007715 
" clip-path="url(#p8193762309)" style="fill: none; stroke: #000000"/>
    <path d="M 159.195179 110.492658 
L 147.108412 121.117621 
" clip-path="url(#p8193762309)" style="fill: none; stroke: #000000"/>
    <path d="M 266.12905 159.245771 
L 257.237052 150.587507 
" clip-path="url(#p8193762309)" style="fill: none; stroke: #000000"/>
    <path d="M 266.12905 159.245771 
L 261.262004 164.850256 
" clip-path="url(#p8193762309)" style="fill: none; stroke: #000000"/>
    <path d="M 274.957201 181.310392 
L 274.181836 186.818669 
" clip-path="url(#p8193762309)" style="fill: none; stroke: #000000"/>
    <path d="M 264.231834 33.130317 
L 250.433519 43.306437 
" clip-path="url(#p8193762309)" style="fill: none; stroke: #000000"/>
    <path d="M 213.337259 58.363611 
L 209.283907 52.58287 
" clip-path="url(#p8193762309)" style="fill: none; stroke: #000000"/>
    <path d="M 213.337259 58.363611 
L 218.033757 53.891596 
" clip-path="url(#p8193762309)" style="fill: none; stroke: #000000"/>
    <path d="M 213.337259 58.363611 
L 219.30786 71.878272 
" clip-path="url(#p8193762309)" style="fill: none; stroke: #000000"/>
    <path d="M 213.337259 58.363611 
L 211.030292 69.500522 
" clip-path="url(#p8193762309)" style="fill: none; stroke: #000000"/>
    <path d="M 150.998038 163.533976 
L 167.899748 149.469888 
" clip-path="url(#p8193762309)" style="fill: none; stroke: #000000"/>
    <path d="M 209.283907 52.58287 
L 218.033757 53.891596 
" clip-path="url(#p8193762309)" style="fill: none; stroke: #000000"/>
    <path d="M 209.283907 52.58287 
L 211.030292 69.500522 
" clip-path="url(#p8193762309)" style="fill: none; stroke: #000000"/>
    <path d="M 218.033757 53.891596 
L 219.30786 71.878272 
" clip-path="url(#p8193762309)" style="fill: none; stroke: #000000"/>
    <path d="M 211.005397 90.480274 
L 219.30786 71.878272 
" clip-path="url(#p8193762309)" style="fill: none; stroke: #000000"/>
    <path d="M 211.005397 90.480274 
L 216.76482 83.618932 
" clip-path="url(#p8193762309)" style="fill: none; stroke: #000000"/>
    <path d="M 211.005397 90.480274 
L 197.428176 122.356458 
" clip-path="url(#p8193762309)" style="fill: none; stroke: #000000"/>
    <path d="M 211.005397 90.480274 
L 211.030292 69.500522 
" clip-path="url(#p8193762309)" style="fill: none; stroke: #000000"/>
    <path d="M 211.005397 90.480274 
L 224.206637 81.620743 
" clip-path="url(#p8193762309)" style="fill: none; stroke: #000000"/>
    <path d="M 170.77034 132.492247 
L 147.688709 126.223153 
" clip-path="url(#p8193762309)" style="fill: none; stroke: #000000"/>
    <path d="M 170.77034 132.492247 
L 189.763743 138.700708 
" clip-path="url(#p8193762309)" style="fill: none; stroke: #000000"/>
    <path d="M 170.77034 132.492247 
L 175.039699 124.0906 
" clip-path="url(#p8193762309)" style="fill: none; stroke: #000000"/>
    <path d="M 170.77034 132.492247 
L 149.805414 136.77836 
" clip-path="url(#p8193762309)" style="fill: none; stroke: #000000"/>
    <path d="M 170.77034 132.492247 
L 197.428176 122.356458 
" clip-path="url(#p8193762309)" style="fill: none; stroke: #000000"/>
    <path d="M 170.77034 132.492247 
L 160.121208 126.115014 
" clip-path="url(#p8193762309)" style="fill: none; stroke: #000000"/>
    <path d="M 170.77034 132.492247 
L 175.700683 144.818627 
" clip-path="url(#p8193762309)" style="fill: none; stroke: #000000"/>
    <path d="M 170.77034 132.492247 
L 167.899748 149.469888 
" clip-path="url(#p8193762309)" style="fill: none; stroke: #000000"/>
    <path d="M 142.90902 100.592868 
L 145.810981 113.799579 
" clip-path="url(#p8193762309)" style="fill: none; stroke: #000000"/>
    <path d="M 226.28886 128.161954 
L 209.934097 135.560201 
" clip-path="url(#p8193762309)" style="fill: none; stroke: #000000"/>
    <path d="M 235.938818 161.389739 
L 231.109787 163.982778 
" clip-path="url(#p8193762309)" style="fill: none; stroke: #000000"/>
    <path d="M 235.938818 161.389739 
L 218.008553 158.694529 
" clip-path="url(#p8193762309)" style="fill: none; stroke: #000000"/>
    <path d="M 249.705094 189.687582 
L 243.055927 171.154593 
" clip-path="url(#p8193762309)" style="fill: none; stroke: #000000"/>
    <path d="M 219.30786 71.878272 
L 216.76482 83.618932 
" clip-path="url(#p8193762309)" style="fill: none; stroke: #000000"/>
    <path d="M 219.30786 71.878272 
L 233.682701 59.724704 
" clip-path="url(#p8193762309)" style="fill: none; stroke: #000000"/>
    <path d="M 219.30786 71.878272 
L 211.030292 69.500522 
" clip-path="url(#p8193762309)" style="fill: none; stroke: #000000"/>
    <path d="M 147.688709 126.223153 
L 145.810981 113.799579 
" clip-path="url(#p8193762309)" style="fill: none; stroke: #000000"/>
    <path d="M 94.242849 174.186455 
L 82.049795 186.309321 
" clip-path="url(#p8193762309)" style="fill: none; stroke: #000000"/>
    <path d="M 94.242849 174.186455 
L 117.725562 156.265267 
" clip-path="url(#p8193762309)" style="fill: none; stroke: #000000"/>
    <path d="M 94.242849 174.186455 
L 76.627775 180.978173 
" clip-path="url(#p8193762309)" style="fill: none; stroke: #000000"/>
    <path d="M 159.272121 142.22326 
L 154.22084 140.451275 
" clip-path="url(#p8193762309)" style="fill: none; stroke: #000000"/>
    <path d="M 159.272121 142.22326 
L 169.023721 133.867932 
" clip-path="url(#p8193762309)" style="fill: none; stroke: #000000"/>
    <path d="M 159.272121 142.22326 
L 174.809911 136.783006 
" clip-path="url(#p8193762309)" style="fill: none; stroke: #000000"/>
    <path d="M 159.272121 142.22326 
L 170.52889 144.15005 
" clip-path="url(#p8193762309)" style="fill: none; stroke: #000000"/>
    <path d="M 274.181836 186.818669 
L 279.191103 197.156986 
" clip-path="url(#p8193762309)" style="fill: none; stroke: #000000"/>
    <path d="M 250.433519 43.306437 
L 233.682701 59.724704 
" clip-path="url(#p8193762309)" style="fill: none; stroke: #000000"/>
    <path d="M 189.763743 138.700708 
L 207.712636 121.011524 
" clip-path="url(#p8193762309)" style="fill: none; stroke: #000000"/>
    <path d="M 189.763743 138.700708 
L 184.88362 132.007715 
" clip-path="url(#p8193762309)" style="fill: none; stroke: #000000"/>
    <path d="M 189.763743 138.700708 
L 175.039699 124.0906 
" clip-path="url(#p8193762309)" style="fill: none; stroke: #000000"/>
    <path d="M 189.763743 138.700708 
L 149.805414 136.77836 
" clip-path="url(#p8193762309)" style="fill: none; stroke: #000000"/>
    <path d="M 189.763743 138.700708 
L 197.428176 122.356458 
" clip-path="url(#p8193762309)" style="fill: none; stroke: #000000"/>
    <path d="M 189.763743 138.700708 
L 202.590088 126.654881 
" clip-path="url(#p8193762309)" style="fill: none; stroke: #000000"/>
    <path d="M 189.763743 138.700708 
L 178.953522 155.275073 
" clip-path="url(#p8193762309)" style="fill: none; stroke: #000000"/>
    <path d="M 189.763743 138.700708 
L 209.934097 135.560201 
" clip-path="url(#p8193762309)" style="fill: none; stroke: #000000"/>
    <path d="M 189.763743 138.700708 
L 174.809911 136.783006 
" clip-path="url(#p8193762309)" style="fill: none; stroke: #000000"/>
    <path d="M 189.763743 138.700708 
L 193.690521 157.663013 
" clip-path="url(#p8193762309)" style="fill: none; stroke: #000000"/>
    <path d="M 189.763743 138.700708 
L 170.52889 144.15005 
" clip-path="url(#p8193762309)" style="fill: none; stroke: #000000"/>
    <path d="M 189.763743 138.700708 
L 199.085384 130.559901 
" clip-path="url(#p8193762309)" style="fill: none; stroke: #000000"/>
    <path d="M 189.763743 138.700708 
L 218.008553 158.694529 
" clip-path="url(#p8193762309)" style="fill: none; stroke: #000000"/>
    <path d="M 189.763743 138.700708 
L 175.700683 144.818627 
" clip-path="url(#p8193762309)" style="fill: none; stroke: #000000"/>
    <path d="M 189.763743 138.700708 
L 167.899748 149.469888 
" clip-path="url(#p8193762309)" style="fill: none; stroke: #000000"/>
    <path d="M 140.657135 108.917671 
L 150.514456 118.924982 
" clip-path="url(#p8193762309)" style="fill: none; stroke: #000000"/>
    <path d="M 140.657135 108.917671 
L 147.108412 121.117621 
" clip-path="url(#p8193762309)" style="fill: none; stroke: #000000"/>
    <path d="M 140.657135 108.917671 
L 151.778362 112.511796 
" clip-path="url(#p8193762309)" style="fill: none; stroke: #000000"/>
    <path d="M 279.191103 197.156986 
L 262.945523 186.69002 
" clip-path="url(#p8193762309)" style="fill: none; stroke: #000000"/>
    <path d="M 280.10097 210.614135 
L 269.265019 194.462039 
" clip-path="url(#p8193762309)" style="fill: none; stroke: #000000"/>
    <path d="M 150.514456 118.924982 
L 175.039699 124.0906 
" clip-path="url(#p8193762309)" style="fill: none; stroke: #000000"/>
    <path d="M 150.514456 118.924982 
L 149.805414 136.77836 
" clip-path="url(#p8193762309)" style="fill: none; stroke: #000000"/>
    <path d="M 150.514456 118.924982 
L 147.108412 121.117621 
" clip-path="url(#p8193762309)" style="fill: none; stroke: #000000"/>
    <path d="M 150.514456 118.924982 
L 135.838285 126.317984 
" clip-path="url(#p8193762309)" style="fill: none; stroke: #000000"/>
    <path d="M 150.514456 118.924982 
L 151.778362 112.511796 
" clip-path="url(#p8193762309)" style="fill: none; stroke: #000000"/>
    <path d="M 150.514456 118.924982 
L 145.810981 113.799579 
" clip-path="url(#p8193762309)" style="fill: none; stroke: #000000"/>
    <path d="M 216.76482 83.618932 
L 233.682701 59.724704 
" clip-path="url(#p8193762309)" style="fill: none; stroke: #000000"/>
    <path d="M 216.76482 83.618932 
L 197.428176 122.356458 
" clip-path="url(#p8193762309)" style="fill: none; stroke: #000000"/>
    <path d="M 216.76482 83.618932 
L 217.644999 66.190242 
" clip-path="url(#p8193762309)" style="fill: none; stroke: #000000"/>
    <path d="M 216.76482 83.618932 
L 211.030292 69.500522 
" clip-path="url(#p8193762309)" style="fill: none; stroke: #000000"/>
    <path d="M 216.76482 83.618932 
L 224.206637 81.620743 
" clip-path="url(#p8193762309)" style="fill: none; stroke: #000000"/>
    <path d="M 207.712636 121.011524 
L 202.590088 126.654881 
" clip-path="url(#p8193762309)" style="fill: none; stroke: #000000"/>
    <path d="M 184.88362 132.007715 
L 164.074986 122.664089 
" clip-path="url(#p8193762309)" style="fill: none; stroke: #000000"/>
    <path d="M 184.88362 132.007715 
L 185.049378 114.67507 
" clip-path="url(#p8193762309)" style="fill: none; stroke: #000000"/>
    <path d="M 195.993614 141.65327 
L 197.428176 122.356458 
" clip-path="url(#p8193762309)" style="fill: none; stroke: #000000"/>
    <path d="M 195.993614 141.65327 
L 188.142213 158.743697 
" clip-path="url(#p8193762309)" style="fill: none; stroke: #000000"/>
    <path d="M 195.993614 141.65327 
L 209.934097 135.560201 
" clip-path="url(#p8193762309)" style="fill: none; stroke: #000000"/>
    <path d="M 154.22084 140.451275 
L 169.023721 133.867932 
" clip-path="url(#p8193762309)" style="fill: none; stroke: #000000"/>
    <path d="M 154.22084 140.451275 
L 174.809911 136.783006 
" clip-path="url(#p8193762309)" style="fill: none; stroke: #000000"/>
    <path d="M 164.074986 122.664089 
L 138.36892 116.51844 
" clip-path="url(#p8193762309)" style="fill: none; stroke: #000000"/>
    <path d="M 228.108505 117.659914 
L 214.715031 112.74046 
" clip-path="url(#p8193762309)" style="fill: none; stroke: #000000"/>
    <path d="M 175.039699 124.0906 
L 197.428176 122.356458 
" clip-path="url(#p8193762309)" style="fill: none; stroke: #000000"/>
    <path d="M 227.294925 173.084679 
L 220.875829 176.355097 
" clip-path="url(#p8193762309)" style="fill: none; stroke: #000000"/>
    <path d="M 227.294925 173.084679 
L 218.008553 158.694529 
" clip-path="url(#p8193762309)" style="fill: none; stroke: #000000"/>
    <path d="M 149.805414 136.77836 
L 147.108412 121.117621 
" clip-path="url(#p8193762309)" style="fill: none; stroke: #000000"/>
    <path d="M 149.805414 136.77836 
L 135.838285 126.317984 
" clip-path="url(#p8193762309)" style="fill: none; stroke: #000000"/>
    <path d="M 149.805414 136.77836 
L 117.725562 156.265267 
" clip-path="url(#p8193762309)" style="fill: none; stroke: #000000"/>
    <path d="M 169.023721 133.867932 
L 197.428176 122.356458 
" clip-path="url(#p8193762309)" style="fill: none; stroke: #000000"/>
    <path d="M 169.023721 133.867932 
L 174.809911 136.783006 
" clip-path="url(#p8193762309)" style="fill: none; stroke: #000000"/>
    <path d="M 171.729471 161.505725 
L 178.953522 155.275073 
" clip-path="url(#p8193762309)" style="fill: none; stroke: #000000"/>
    <path d="M 171.729471 161.505725 
L 193.690521 157.663013 
" clip-path="url(#p8193762309)" style="fill: none; stroke: #000000"/>
    <path d="M 171.729471 161.505725 
L 159.566628 148.603686 
" clip-path="url(#p8193762309)" style="fill: none; stroke: #000000"/>
    <path d="M 421.991555 130.62318 
L 409.913126 128.666189 
" clip-path="url(#p8193762309)" style="fill: none; stroke: #000000"/>
    <path d="M 261.262004 164.850256 
L 243.055927 171.154593 
" clip-path="url(#p8193762309)" style="fill: none; stroke: #000000"/>
    <path d="M 261.262004 164.850256 
L 259.064044 158.020284 
" clip-path="url(#p8193762309)" style="fill: none; stroke: #000000"/>
    <path d="M 147.108412 121.117621 
L 135.838285 126.317984 
" clip-path="url(#p8193762309)" style="fill: none; stroke: #000000"/>
    <path d="M 197.428176 122.356458 
L 209.934097 135.560201 
" clip-path="url(#p8193762309)" style="fill: none; stroke: #000000"/>
    <path d="M 197.428176 122.356458 
L 174.809911 136.783006 
" clip-path="url(#p8193762309)" style="fill: none; stroke: #000000"/>
    <path d="M 197.428176 122.356458 
L 214.715031 112.74046 
" clip-path="url(#p8193762309)" style="fill: none; stroke: #000000"/>
    <path d="M 197.428176 122.356458 
L 199.085384 130.559901 
" clip-path="url(#p8193762309)" style="fill: none; stroke: #000000"/>
    <path d="M 209.934097 135.560201 
L 199.085384 130.559901 
" clip-path="url(#p8193762309)" style="fill: none; stroke: #000000"/>
    <path d="M 174.809911 136.783006 
L 170.52889 144.15005 
" clip-path="url(#p8193762309)" style="fill: none; stroke: #000000"/>
    <path d="M 117.725562 156.265267 
L 104.617247 166.627567 
" clip-path="url(#p8193762309)" style="fill: none; stroke: #000000"/>
    <path d="M 220.875829 176.355097 
L 218.008553 158.694529 
" clip-path="url(#p8193762309)" style="fill: none; stroke: #000000"/>
    <path d="M 262.945523 186.69002 
L 268.265732 182.961079 
" clip-path="url(#p8193762309)" style="fill: none; stroke: #000000"/>
    <path d="M 256.254902 146.237901 
L 259.064044 158.020284 
" clip-path="url(#p8193762309)" style="fill: none; stroke: #000000"/>
    <path d="M 274.106193 163.370348 
L 259.064044 158.020284 
" clip-path="url(#p8193762309)" style="fill: none; stroke: #000000"/>
    <path d="M 231.109787 163.982778 
L 218.008553 158.694529 
" clip-path="url(#p8193762309)" style="fill: none; stroke: #000000"/>
    <path d="M 243.055927 171.154593 
L 243.270183 190.689402 
" clip-path="url(#p8193762309)" style="fill: none; stroke: #000000"/>
    <path d="M 243.055927 171.154593 
L 238.058355 188.629441 
" clip-path="url(#p8193762309)" style="fill: none; stroke: #000000"/>
    <path d="M 243.055927 171.154593 
L 257.305386 166.510742 
" clip-path="url(#p8193762309)" style="fill: none; stroke: #000000"/>
    <path d="M 243.270183 190.689402 
L 238.058355 188.629441 
" clip-path="url(#p8193762309)" style="fill: none; stroke: #000000"/>
    <path d="M 259.064044 158.020284 
L 257.305386 166.510742 
" clip-path="url(#p8193762309)" style="fill: none; stroke: #000000"/>
    <path d="M 175.700683 144.818627 
L 167.899748 149.469888 
" clip-path="url(#p8193762309)" style="fill: none; stroke: #000000"/>
   </g>
   <g id="PathCollection_1">
    <defs>
     <path id="m7ac5566b1a" d="M 0 2.5 
C 0.663008 2.5 1.29895 2.236584 1.767767 1.767767 
C 2.236584 1.29895 2.5 0.663008 2.5 0 
C 2.5 -0.663008 2.236584 -1.29895 1.767767 -1.767767 
C 1.29895 -2.236584 0.663008 -2.5 0 -2.5 
C -0.663008 -2.5 -1.29895 -2.236584 -1.767767 -1.767767 
C -2.236584 -1.29895 -2.5 -0.663008 -2.5 0 
C -2.5 0.663008 -2.236584 1.29895 -1.767767 1.767767 
C -1.29895 2.236584 -0.663008 2.5 0 2.5 
z
" style="stroke: #1f78b4"/>
    </defs>
    <g clip-path="url(#p8193762309)">
     <use xlink:href="#m7ac5566b1a" x="217.332289" y="173.660017" style="fill: #1f78b4; stroke: #1f78b4"/>
     <use xlink:href="#m7ac5566b1a" x="226.466964" y="167.700175" style="fill: #1f78b4; stroke: #1f78b4"/>
     <use xlink:href="#m7ac5566b1a" x="176.559854" y="130.971499" style="fill: #1f78b4; stroke: #1f78b4"/>
     <use xlink:href="#m7ac5566b1a" x="242.565845" y="44.645405" style="fill: #1f78b4; stroke: #1f78b4"/>
     <use xlink:href="#m7ac5566b1a" x="254.455734" y="170.372126" style="fill: #1f78b4; stroke: #1f78b4"/>
     <use xlink:href="#m7ac5566b1a" x="20.945455" y="15.709091" style="fill: #1f78b4; stroke: #1f78b4"/>
     <use xlink:href="#m7ac5566b1a" x="167.708682" y="127.496798" style="fill: #1f78b4; stroke: #1f78b4"/>
     <use xlink:href="#m7ac5566b1a" x="204.152111" y="132.655671" style="fill: #1f78b4; stroke: #1f78b4"/>
     <use xlink:href="#m7ac5566b1a" x="234.917093" y="147.131568" style="fill: #1f78b4; stroke: #1f78b4"/>
     <use xlink:href="#m7ac5566b1a" x="223.825389" y="91.499541" style="fill: #1f78b4; stroke: #1f78b4"/>
     <use xlink:href="#m7ac5566b1a" x="230.081828" y="74.545777" style="fill: #1f78b4; stroke: #1f78b4"/>
     <use xlink:href="#m7ac5566b1a" x="252.533143" y="157.996315" style="fill: #1f78b4; stroke: #1f78b4"/>
     <use xlink:href="#m7ac5566b1a" x="422.558033" y="125.264236" style="fill: #1f78b4; stroke: #1f78b4"/>
     <use xlink:href="#m7ac5566b1a" x="272.287391" y="166.91817" style="fill: #1f78b4; stroke: #1f78b4"/>
     <use xlink:href="#m7ac5566b1a" x="243.418249" y="177.540289" style="fill: #1f78b4; stroke: #1f78b4"/>
     <use xlink:href="#m7ac5566b1a" x="228.340089" y="69.652729" style="fill: #1f78b4; stroke: #1f78b4"/>
     <use xlink:href="#m7ac5566b1a" x="125.795055" y="146.317965" style="fill: #1f78b4; stroke: #1f78b4"/>
     <use xlink:href="#m7ac5566b1a" x="217.056827" y="162.21439" style="fill: #1f78b4; stroke: #1f78b4"/>
     <use xlink:href="#m7ac5566b1a" x="227.77014" y="148.025378" style="fill: #1f78b4; stroke: #1f78b4"/>
     <use xlink:href="#m7ac5566b1a" x="177.518031" y="124.846723" style="fill: #1f78b4; stroke: #1f78b4"/>
     <use xlink:href="#m7ac5566b1a" x="132.545217" y="108.539435" style="fill: #1f78b4; stroke: #1f78b4"/>
     <use xlink:href="#m7ac5566b1a" x="221.907279" y="108.053508" style="fill: #1f78b4; stroke: #1f78b4"/>
     <use xlink:href="#m7ac5566b1a" x="159.195179" y="110.492658" style="fill: #1f78b4; stroke: #1f78b4"/>
     <use xlink:href="#m7ac5566b1a" x="266.12905" y="159.245771" style="fill: #1f78b4; stroke: #1f78b4"/>
     <use xlink:href="#m7ac5566b1a" x="274.957201" y="181.310392" style="fill: #1f78b4; stroke: #1f78b4"/>
     <use xlink:href="#m7ac5566b1a" x="264.231834" y="33.130317" style="fill: #1f78b4; stroke: #1f78b4"/>
     <use xlink:href="#m7ac5566b1a" x="213.337259" y="58.363611" style="fill: #1f78b4; stroke: #1f78b4"/>
     <use xlink:href="#m7ac5566b1a" x="150.998038" y="163.533976" style="fill: #1f78b4; stroke: #1f78b4"/>
     <use xlink:href="#m7ac5566b1a" x="150.838226" y="92.223026" style="fill: #1f78b4; stroke: #1f78b4"/>
     <use xlink:href="#m7ac5566b1a" x="209.283907" y="52.58287" style="fill: #1f78b4; stroke: #1f78b4"/>
     <use xlink:href="#m7ac5566b1a" x="218.033757" y="53.891596" style="fill: #1f78b4; stroke: #1f78b4"/>
     <use xlink:href="#m7ac5566b1a" x="250.377165" y="135.56251" style="fill: #1f78b4; stroke: #1f78b4"/>
     <use xlink:href="#m7ac5566b1a" x="211.005397" y="90.480274" style="fill: #1f78b4; stroke: #1f78b4"/>
     <use xlink:href="#m7ac5566b1a" x="170.77034" y="132.492247" style="fill: #1f78b4; stroke: #1f78b4"/>
     <use xlink:href="#m7ac5566b1a" x="257.237052" y="150.587507" style="fill: #1f78b4; stroke: #1f78b4"/>
     <use xlink:href="#m7ac5566b1a" x="142.90902" y="100.592868" style="fill: #1f78b4; stroke: #1f78b4"/>
     <use xlink:href="#m7ac5566b1a" x="226.28886" y="128.161954" style="fill: #1f78b4; stroke: #1f78b4"/>
     <use xlink:href="#m7ac5566b1a" x="235.938818" y="161.389739" style="fill: #1f78b4; stroke: #1f78b4"/>
     <use xlink:href="#m7ac5566b1a" x="249.705094" y="189.687582" style="fill: #1f78b4; stroke: #1f78b4"/>
     <use xlink:href="#m7ac5566b1a" x="219.30786" y="71.878272" style="fill: #1f78b4; stroke: #1f78b4"/>
     <use xlink:href="#m7ac5566b1a" x="147.688709" y="126.223153" style="fill: #1f78b4; stroke: #1f78b4"/>
     <use xlink:href="#m7ac5566b1a" x="94.242849" y="174.186455" style="fill: #1f78b4; stroke: #1f78b4"/>
     <use xlink:href="#m7ac5566b1a" x="159.272121" y="142.22326" style="fill: #1f78b4; stroke: #1f78b4"/>
     <use xlink:href="#m7ac5566b1a" x="274.181836" y="186.818669" style="fill: #1f78b4; stroke: #1f78b4"/>
     <use xlink:href="#m7ac5566b1a" x="250.433519" y="43.306437" style="fill: #1f78b4; stroke: #1f78b4"/>
     <use xlink:href="#m7ac5566b1a" x="189.763743" y="138.700708" style="fill: #1f78b4; stroke: #1f78b4"/>
     <use xlink:href="#m7ac5566b1a" x="140.657135" y="108.917671" style="fill: #1f78b4; stroke: #1f78b4"/>
     <use xlink:href="#m7ac5566b1a" x="279.191103" y="197.156986" style="fill: #1f78b4; stroke: #1f78b4"/>
     <use xlink:href="#m7ac5566b1a" x="280.10097" y="210.614135" style="fill: #1f78b4; stroke: #1f78b4"/>
     <use xlink:href="#m7ac5566b1a" x="150.514456" y="118.924982" style="fill: #1f78b4; stroke: #1f78b4"/>
     <use xlink:href="#m7ac5566b1a" x="216.76482" y="83.618932" style="fill: #1f78b4; stroke: #1f78b4"/>
     <use xlink:href="#m7ac5566b1a" x="207.712636" y="121.011524" style="fill: #1f78b4; stroke: #1f78b4"/>
     <use xlink:href="#m7ac5566b1a" x="184.88362" y="132.007715" style="fill: #1f78b4; stroke: #1f78b4"/>
     <use xlink:href="#m7ac5566b1a" x="195.993614" y="141.65327" style="fill: #1f78b4; stroke: #1f78b4"/>
     <use xlink:href="#m7ac5566b1a" x="255.692202" y="183.46732" style="fill: #1f78b4; stroke: #1f78b4"/>
     <use xlink:href="#m7ac5566b1a" x="278.441337" y="177.161166" style="fill: #1f78b4; stroke: #1f78b4"/>
     <use xlink:href="#m7ac5566b1a" x="233.682701" y="59.724704" style="fill: #1f78b4; stroke: #1f78b4"/>
     <use xlink:href="#m7ac5566b1a" x="154.22084" y="140.451275" style="fill: #1f78b4; stroke: #1f78b4"/>
     <use xlink:href="#m7ac5566b1a" x="164.074986" y="122.664089" style="fill: #1f78b4; stroke: #1f78b4"/>
     <use xlink:href="#m7ac5566b1a" x="228.108505" y="117.659914" style="fill: #1f78b4; stroke: #1f78b4"/>
     <use xlink:href="#m7ac5566b1a" x="175.039699" y="124.0906" style="fill: #1f78b4; stroke: #1f78b4"/>
     <use xlink:href="#m7ac5566b1a" x="227.294925" y="173.084679" style="fill: #1f78b4; stroke: #1f78b4"/>
     <use xlink:href="#m7ac5566b1a" x="149.805414" y="136.77836" style="fill: #1f78b4; stroke: #1f78b4"/>
     <use xlink:href="#m7ac5566b1a" x="169.023721" y="133.867932" style="fill: #1f78b4; stroke: #1f78b4"/>
     <use xlink:href="#m7ac5566b1a" x="171.729471" y="161.505725" style="fill: #1f78b4; stroke: #1f78b4"/>
     <use xlink:href="#m7ac5566b1a" x="421.991555" y="130.62318" style="fill: #1f78b4; stroke: #1f78b4"/>
     <use xlink:href="#m7ac5566b1a" x="261.262004" y="164.850256" style="fill: #1f78b4; stroke: #1f78b4"/>
     <use xlink:href="#m7ac5566b1a" x="147.108412" y="121.117621" style="fill: #1f78b4; stroke: #1f78b4"/>
     <use xlink:href="#m7ac5566b1a" x="197.428176" y="122.356458" style="fill: #1f78b4; stroke: #1f78b4"/>
     <use xlink:href="#m7ac5566b1a" x="185.049378" y="114.67507" style="fill: #1f78b4; stroke: #1f78b4"/>
     <use xlink:href="#m7ac5566b1a" x="202.590088" y="126.654881" style="fill: #1f78b4; stroke: #1f78b4"/>
     <use xlink:href="#m7ac5566b1a" x="178.953522" y="155.275073" style="fill: #1f78b4; stroke: #1f78b4"/>
     <use xlink:href="#m7ac5566b1a" x="169.089427" y="114.289947" style="fill: #1f78b4; stroke: #1f78b4"/>
     <use xlink:href="#m7ac5566b1a" x="135.838285" y="126.317984" style="fill: #1f78b4; stroke: #1f78b4"/>
     <use xlink:href="#m7ac5566b1a" x="188.142213" y="158.743697" style="fill: #1f78b4; stroke: #1f78b4"/>
     <use xlink:href="#m7ac5566b1a" x="198.290505" y="143.466316" style="fill: #1f78b4; stroke: #1f78b4"/>
     <use xlink:href="#m7ac5566b1a" x="151.778362" y="112.511796" style="fill: #1f78b4; stroke: #1f78b4"/>
     <use xlink:href="#m7ac5566b1a" x="209.934097" y="135.560201" style="fill: #1f78b4; stroke: #1f78b4"/>
     <use xlink:href="#m7ac5566b1a" x="82.049795" y="186.309321" style="fill: #1f78b4; stroke: #1f78b4"/>
     <use xlink:href="#m7ac5566b1a" x="174.809911" y="136.783006" style="fill: #1f78b4; stroke: #1f78b4"/>
     <use xlink:href="#m7ac5566b1a" x="193.690521" y="157.663013" style="fill: #1f78b4; stroke: #1f78b4"/>
     <use xlink:href="#m7ac5566b1a" x="117.725562" y="156.265267" style="fill: #1f78b4; stroke: #1f78b4"/>
     <use xlink:href="#m7ac5566b1a" x="104.617247" y="166.627567" style="fill: #1f78b4; stroke: #1f78b4"/>
     <use xlink:href="#m7ac5566b1a" x="220.875829" y="176.355097" style="fill: #1f78b4; stroke: #1f78b4"/>
     <use xlink:href="#m7ac5566b1a" x="262.945523" y="186.69002" style="fill: #1f78b4; stroke: #1f78b4"/>
     <use xlink:href="#m7ac5566b1a" x="138.36892" y="116.51844" style="fill: #1f78b4; stroke: #1f78b4"/>
     <use xlink:href="#m7ac5566b1a" x="256.254902" y="146.237901" style="fill: #1f78b4; stroke: #1f78b4"/>
     <use xlink:href="#m7ac5566b1a" x="170.52889" y="144.15005" style="fill: #1f78b4; stroke: #1f78b4"/>
     <use xlink:href="#m7ac5566b1a" x="255.542067" y="138.35546" style="fill: #1f78b4; stroke: #1f78b4"/>
     <use xlink:href="#m7ac5566b1a" x="159.566628" y="148.603686" style="fill: #1f78b4; stroke: #1f78b4"/>
     <use xlink:href="#m7ac5566b1a" x="274.106193" y="163.370348" style="fill: #1f78b4; stroke: #1f78b4"/>
     <use xlink:href="#m7ac5566b1a" x="231.109787" y="163.982778" style="fill: #1f78b4; stroke: #1f78b4"/>
     <use xlink:href="#m7ac5566b1a" x="76.627775" y="180.978173" style="fill: #1f78b4; stroke: #1f78b4"/>
     <use xlink:href="#m7ac5566b1a" x="243.055927" y="171.154593" style="fill: #1f78b4; stroke: #1f78b4"/>
     <use xlink:href="#m7ac5566b1a" x="268.265732" y="182.961079" style="fill: #1f78b4; stroke: #1f78b4"/>
     <use xlink:href="#m7ac5566b1a" x="190.438769" y="329.890909" style="fill: #1f78b4; stroke: #1f78b4"/>
     <use xlink:href="#m7ac5566b1a" x="243.270183" y="190.689402" style="fill: #1f78b4; stroke: #1f78b4"/>
     <use xlink:href="#m7ac5566b1a" x="259.064044" y="158.020284" style="fill: #1f78b4; stroke: #1f78b4"/>
     <use xlink:href="#m7ac5566b1a" x="205.492772" y="178.757343" style="fill: #1f78b4; stroke: #1f78b4"/>
     <use xlink:href="#m7ac5566b1a" x="160.121208" y="126.115014" style="fill: #1f78b4; stroke: #1f78b4"/>
     <use xlink:href="#m7ac5566b1a" x="214.715031" y="112.74046" style="fill: #1f78b4; stroke: #1f78b4"/>
     <use xlink:href="#m7ac5566b1a" x="199.085384" y="130.559901" style="fill: #1f78b4; stroke: #1f78b4"/>
     <use xlink:href="#m7ac5566b1a" x="217.644999" y="66.190242" style="fill: #1f78b4; stroke: #1f78b4"/>
     <use xlink:href="#m7ac5566b1a" x="218.008553" y="158.694529" style="fill: #1f78b4; stroke: #1f78b4"/>
     <use xlink:href="#m7ac5566b1a" x="211.030292" y="69.500522" style="fill: #1f78b4; stroke: #1f78b4"/>
     <use xlink:href="#m7ac5566b1a" x="175.700683" y="144.818627" style="fill: #1f78b4; stroke: #1f78b4"/>
     <use xlink:href="#m7ac5566b1a" x="280.053034" y="172.645565" style="fill: #1f78b4; stroke: #1f78b4"/>
     <use xlink:href="#m7ac5566b1a" x="238.058355" y="188.629441" style="fill: #1f78b4; stroke: #1f78b4"/>
     <use xlink:href="#m7ac5566b1a" x="269.265019" y="194.462039" style="fill: #1f78b4; stroke: #1f78b4"/>
     <use xlink:href="#m7ac5566b1a" x="325.184" y="312.224633" style="fill: #1f78b4; stroke: #1f78b4"/>
     <use xlink:href="#m7ac5566b1a" x="224.206637" y="81.620743" style="fill: #1f78b4; stroke: #1f78b4"/>
     <use xlink:href="#m7ac5566b1a" x="167.899748" y="149.469888" style="fill: #1f78b4; stroke: #1f78b4"/>
     <use xlink:href="#m7ac5566b1a" x="257.305386" y="166.510742" style="fill: #1f78b4; stroke: #1f78b4"/>
     <use xlink:href="#m7ac5566b1a" x="162.230815" y="313.39912" style="fill: #1f78b4; stroke: #1f78b4"/>
     <use xlink:href="#m7ac5566b1a" x="212.389073" y="179.562399" style="fill: #1f78b4; stroke: #1f78b4"/>
     <use xlink:href="#m7ac5566b1a" x="145.810981" y="113.799579" style="fill: #1f78b4; stroke: #1f78b4"/>
     <use xlink:href="#m7ac5566b1a" x="409.913126" y="128.666189" style="fill: #1f78b4; stroke: #1f78b4"/>
    </g>
   </g>
  </g>
 </g>
 <defs>
  <clipPath id="p8193762309">
   <rect x="0" y="0" width="460.8" height="345.6"/>
  </clipPath>
 </defs>
</svg>
