<?xml version="1.0" encoding="utf-8" standalone="no"?>
<!DOCTYPE svg PUBLIC "-//W3C//DTD SVG 1.1//EN"
  "http://www.w3.org/Graphics/SVG/1.1/DTD/svg11.dtd">
<svg xmlns:xlink="http://www.w3.org/1999/xlink" width="460.8pt" height="345.6pt" viewBox="0 0 460.8 345.6" xmlns="http://www.w3.org/2000/svg" version="1.1">
 <metadata>
  <rdf:RDF xmlns:dc="http://purl.org/dc/elements/1.1/" xmlns:cc="http://creativecommons.org/ns#" xmlns:rdf="http://www.w3.org/1999/02/22-rdf-syntax-ns#">
   <cc:Work>
    <dc:type rdf:resource="http://purl.org/dc/dcmitype/StillImage"/>
    <dc:date>2023-11-11T21:40:41.260211</dc:date>
    <dc:format>image/svg+xml</dc:format>
    <dc:creator>
     <cc:Agent>
      <dc:title>Matplotlib v3.8.1, https://matplotlib.org/</dc:title>
     </cc:Agent>
    </dc:creator>
   </cc:Work>
  </rdf:RDF>
 </metadata>
 <defs>
  <style type="text/css">*{stroke-linejoin: round; stroke-linecap: butt}</style>
 </defs>
 <g id="figure_1">
  <g id="patch_1">
   <path d="M 0 345.6 
L 460.8 345.6 
L 460.8 0 
L 0 0 
z
" style="fill: #ffffff"/>
  </g>
  <g id="axes_1">
   <g id="LineCollection_1">
    <path d="M 255.957724 130.173671 
L 264.199164 135.529141 
" clip-path="url(#p3cff58a2a2)" style="fill: none; stroke: #000000"/>
    <path d="M 255.957724 130.173671 
L 272.136252 110.644634 
" clip-path="url(#p3cff58a2a2)" style="fill: none; stroke: #000000"/>
    <path d="M 255.957724 130.173671 
L 247.563121 142.773475 
" clip-path="url(#p3cff58a2a2)" style="fill: none; stroke: #000000"/>
    <path d="M 289.732198 83.157355 
L 278.879814 94.936782 
" clip-path="url(#p3cff58a2a2)" style="fill: none; stroke: #000000"/>
    <path d="M 289.732198 83.157355 
L 296.325624 105.285321 
" clip-path="url(#p3cff58a2a2)" style="fill: none; stroke: #000000"/>
    <path d="M 307.979303 171.533989 
L 305.015386 187.301998 
" clip-path="url(#p3cff58a2a2)" style="fill: none; stroke: #000000"/>
    <path d="M 307.979303 171.533989 
L 322.347144 177.327112 
" clip-path="url(#p3cff58a2a2)" style="fill: none; stroke: #000000"/>
    <path d="M 307.979303 171.533989 
L 294.428592 186.215406 
" clip-path="url(#p3cff58a2a2)" style="fill: none; stroke: #000000"/>
    <path d="M 307.979303 171.533989 
L 317.381095 175.723534 
" clip-path="url(#p3cff58a2a2)" style="fill: none; stroke: #000000"/>
    <path d="M 307.979303 171.533989 
L 301.745864 203.592202 
" clip-path="url(#p3cff58a2a2)" style="fill: none; stroke: #000000"/>
    <path d="M 307.979303 171.533989 
L 329.630116 143.350872 
" clip-path="url(#p3cff58a2a2)" style="fill: none; stroke: #000000"/>
    <path d="M 307.979303 171.533989 
L 290.738834 150.734096 
" clip-path="url(#p3cff58a2a2)" style="fill: none; stroke: #000000"/>
    <path d="M 391.273089 219.600169 
L 379.110734 230.023511 
" clip-path="url(#p3cff58a2a2)" style="fill: none; stroke: #000000"/>
    <path d="M 391.273089 219.600169 
L 387.639149 192.623336 
" clip-path="url(#p3cff58a2a2)" style="fill: none; stroke: #000000"/>
    <path d="M 253.206484 90.426883 
L 274.421973 123.832653 
" clip-path="url(#p3cff58a2a2)" style="fill: none; stroke: #000000"/>
    <path d="M 253.206484 90.426883 
L 235.884883 89.001104 
" clip-path="url(#p3cff58a2a2)" style="fill: none; stroke: #000000"/>
    <path d="M 253.206484 90.426883 
L 253.854344 97.36269 
" clip-path="url(#p3cff58a2a2)" style="fill: none; stroke: #000000"/>
    <path d="M 253.206484 90.426883 
L 264.199164 135.529141 
" clip-path="url(#p3cff58a2a2)" style="fill: none; stroke: #000000"/>
    <path d="M 253.206484 90.426883 
L 290.617676 114.127577 
" clip-path="url(#p3cff58a2a2)" style="fill: none; stroke: #000000"/>
    <path d="M 253.206484 90.426883 
L 237.607878 106.006807 
" clip-path="url(#p3cff58a2a2)" style="fill: none; stroke: #000000"/>
    <path d="M 253.206484 90.426883 
L 240.96798 63.529875 
" clip-path="url(#p3cff58a2a2)" style="fill: none; stroke: #000000"/>
    <path d="M 253.206484 90.426883 
L 278.879814 94.936782 
" clip-path="url(#p3cff58a2a2)" style="fill: none; stroke: #000000"/>
    <path d="M 253.206484 90.426883 
L 247.498182 57.305875 
" clip-path="url(#p3cff58a2a2)" style="fill: none; stroke: #000000"/>
    <path d="M 253.206484 90.426883 
L 245.280967 80.285598 
" clip-path="url(#p3cff58a2a2)" style="fill: none; stroke: #000000"/>
    <path d="M 253.206484 90.426883 
L 234.382569 69.879303 
" clip-path="url(#p3cff58a2a2)" style="fill: none; stroke: #000000"/>
    <path d="M 253.206484 90.426883 
L 251.726983 68.465637 
" clip-path="url(#p3cff58a2a2)" style="fill: none; stroke: #000000"/>
    <path d="M 253.206484 90.426883 
L 232.257222 92.643063 
" clip-path="url(#p3cff58a2a2)" style="fill: none; stroke: #000000"/>
    <path d="M 253.206484 90.426883 
L 272.136252 110.644634 
" clip-path="url(#p3cff58a2a2)" style="fill: none; stroke: #000000"/>
    <path d="M 253.206484 90.426883 
L 247.563769 64.879676 
" clip-path="url(#p3cff58a2a2)" style="fill: none; stroke: #000000"/>
    <path d="M 253.206484 90.426883 
L 243.729751 107.682657 
" clip-path="url(#p3cff58a2a2)" style="fill: none; stroke: #000000"/>
    <path d="M 253.206484 90.426883 
L 229.630984 75.890779 
" clip-path="url(#p3cff58a2a2)" style="fill: none; stroke: #000000"/>
    <path d="M 253.206484 90.426883 
L 233.032987 54.573978 
" clip-path="url(#p3cff58a2a2)" style="fill: none; stroke: #000000"/>
    <path d="M 305.015386 187.301998 
L 313.866405 168.458818 
" clip-path="url(#p3cff58a2a2)" style="fill: none; stroke: #000000"/>
    <path d="M 305.015386 187.301998 
L 314.104112 154.093341 
" clip-path="url(#p3cff58a2a2)" style="fill: none; stroke: #000000"/>
    <path d="M 305.015386 187.301998 
L 309.916202 211.939897 
" clip-path="url(#p3cff58a2a2)" style="fill: none; stroke: #000000"/>
    <path d="M 305.015386 187.301998 
L 286.595392 177.570089 
" clip-path="url(#p3cff58a2a2)" style="fill: none; stroke: #000000"/>
    <path d="M 305.015386 187.301998 
L 294.428592 186.215406 
" clip-path="url(#p3cff58a2a2)" style="fill: none; stroke: #000000"/>
    <path d="M 305.015386 187.301998 
L 317.381095 175.723534 
" clip-path="url(#p3cff58a2a2)" style="fill: none; stroke: #000000"/>
    <path d="M 305.015386 187.301998 
L 304.511802 216.55112 
" clip-path="url(#p3cff58a2a2)" style="fill: none; stroke: #000000"/>
    <path d="M 305.015386 187.301998 
L 299.562856 174.403477 
" clip-path="url(#p3cff58a2a2)" style="fill: none; stroke: #000000"/>
    <path d="M 305.015386 187.301998 
L 290.738834 150.734096 
" clip-path="url(#p3cff58a2a2)" style="fill: none; stroke: #000000"/>
    <path d="M 305.015386 187.301998 
L 301.600566 214.321041 
" clip-path="url(#p3cff58a2a2)" style="fill: none; stroke: #000000"/>
    <path d="M 305.015386 187.301998 
L 308.855063 197.931042 
" clip-path="url(#p3cff58a2a2)" style="fill: none; stroke: #000000"/>
    <path d="M 305.015386 187.301998 
L 317.068872 219.975507 
" clip-path="url(#p3cff58a2a2)" style="fill: none; stroke: #000000"/>
    <path d="M 331.076439 150.337935 
L 314.104112 154.093341 
" clip-path="url(#p3cff58a2a2)" style="fill: none; stroke: #000000"/>
    <path d="M 331.076439 150.337935 
L 336.382321 155.060148 
" clip-path="url(#p3cff58a2a2)" style="fill: none; stroke: #000000"/>
    <path d="M 274.421973 123.832653 
L 244.833344 120.265503 
" clip-path="url(#p3cff58a2a2)" style="fill: none; stroke: #000000"/>
    <path d="M 274.421973 123.832653 
L 290.617676 114.127577 
" clip-path="url(#p3cff58a2a2)" style="fill: none; stroke: #000000"/>
    <path d="M 274.421973 123.832653 
L 271.375603 100.253169 
" clip-path="url(#p3cff58a2a2)" style="fill: none; stroke: #000000"/>
    <path d="M 274.421973 123.832653 
L 251.191207 116.153904 
" clip-path="url(#p3cff58a2a2)" style="fill: none; stroke: #000000"/>
    <path d="M 274.421973 123.832653 
L 314.104112 154.093341 
" clip-path="url(#p3cff58a2a2)" style="fill: none; stroke: #000000"/>
    <path d="M 274.421973 123.832653 
L 329.630116 143.350872 
" clip-path="url(#p3cff58a2a2)" style="fill: none; stroke: #000000"/>
    <path d="M 274.421973 123.832653 
L 257.585015 110.182009 
" clip-path="url(#p3cff58a2a2)" style="fill: none; stroke: #000000"/>
    <path d="M 274.421973 123.832653 
L 262.195644 123.606777 
" clip-path="url(#p3cff58a2a2)" style="fill: none; stroke: #000000"/>
    <path d="M 274.421973 123.832653 
L 234.874552 131.486641 
" clip-path="url(#p3cff58a2a2)" style="fill: none; stroke: #000000"/>
    <path d="M 274.421973 123.832653 
L 243.729751 107.682657 
" clip-path="url(#p3cff58a2a2)" style="fill: none; stroke: #000000"/>
    <path d="M 369.337212 138.178049 
L 372.274084 146.360475 
" clip-path="url(#p3cff58a2a2)" style="fill: none; stroke: #000000"/>
    <path d="M 369.337212 138.178049 
L 392.684482 157.255944 
" clip-path="url(#p3cff58a2a2)" style="fill: none; stroke: #000000"/>
    <path d="M 369.337212 138.178049 
L 379.065711 156.369785 
" clip-path="url(#p3cff58a2a2)" style="fill: none; stroke: #000000"/>
    <path d="M 369.337212 138.178049 
L 331.514408 120.479568 
" clip-path="url(#p3cff58a2a2)" style="fill: none; stroke: #000000"/>
    <path d="M 369.337212 138.178049 
L 386.316737 142.834003 
" clip-path="url(#p3cff58a2a2)" style="fill: none; stroke: #000000"/>
    <path d="M 397.991876 151.283912 
L 402.642694 159.630941 
" clip-path="url(#p3cff58a2a2)" style="fill: none; stroke: #000000"/>
    <path d="M 397.991876 151.283912 
L 379.065711 156.369785 
" clip-path="url(#p3cff58a2a2)" style="fill: none; stroke: #000000"/>
    <path d="M 397.991876 151.283912 
L 386.316737 142.834003 
" clip-path="url(#p3cff58a2a2)" style="fill: none; stroke: #000000"/>
    <path d="M 244.833344 120.265503 
L 237.607878 106.006807 
" clip-path="url(#p3cff58a2a2)" style="fill: none; stroke: #000000"/>
    <path d="M 244.833344 120.265503 
L 251.191207 116.153904 
" clip-path="url(#p3cff58a2a2)" style="fill: none; stroke: #000000"/>
    <path d="M 244.833344 120.265503 
L 230.362802 116.849195 
" clip-path="url(#p3cff58a2a2)" style="fill: none; stroke: #000000"/>
    <path d="M 244.833344 120.265503 
L 234.874552 131.486641 
" clip-path="url(#p3cff58a2a2)" style="fill: none; stroke: #000000"/>
    <path d="M 244.833344 120.265503 
L 243.729751 107.682657 
" clip-path="url(#p3cff58a2a2)" style="fill: none; stroke: #000000"/>
    <path d="M 39.986777 166.170579 
L 47.9543 167.566638 
" clip-path="url(#p3cff58a2a2)" style="fill: none; stroke: #000000"/>
    <path d="M 39.986777 166.170579 
L 56.610846 164.833018 
" clip-path="url(#p3cff58a2a2)" style="fill: none; stroke: #000000"/>
    <path d="M 235.884883 89.001104 
L 232.257222 92.643063 
" clip-path="url(#p3cff58a2a2)" style="fill: none; stroke: #000000"/>
    <path d="M 235.884883 89.001104 
L 243.729751 107.682657 
" clip-path="url(#p3cff58a2a2)" style="fill: none; stroke: #000000"/>
    <path d="M 253.854344 97.36269 
L 264.199164 135.529141 
" clip-path="url(#p3cff58a2a2)" style="fill: none; stroke: #000000"/>
    <path d="M 253.854344 97.36269 
L 245.280967 80.285598 
" clip-path="url(#p3cff58a2a2)" style="fill: none; stroke: #000000"/>
    <path d="M 253.854344 97.36269 
L 251.726983 68.465637 
" clip-path="url(#p3cff58a2a2)" style="fill: none; stroke: #000000"/>
    <path d="M 402.642694 159.630941 
L 379.065711 156.369785 
" clip-path="url(#p3cff58a2a2)" style="fill: none; stroke: #000000"/>
    <path d="M 288.522287 234.30515 
L 301.745864 203.592202 
" clip-path="url(#p3cff58a2a2)" style="fill: none; stroke: #000000"/>
    <path d="M 288.522287 234.30515 
L 283.386345 251.759208 
" clip-path="url(#p3cff58a2a2)" style="fill: none; stroke: #000000"/>
    <path d="M 264.199164 135.529141 
L 286.595392 177.570089 
" clip-path="url(#p3cff58a2a2)" style="fill: none; stroke: #000000"/>
    <path d="M 264.199164 135.529141 
L 290.738834 150.734096 
" clip-path="url(#p3cff58a2a2)" style="fill: none; stroke: #000000"/>
    <path d="M 264.199164 135.529141 
L 288.158225 155.930323 
" clip-path="url(#p3cff58a2a2)" style="fill: none; stroke: #000000"/>
    <path d="M 264.199164 135.529141 
L 272.136252 110.644634 
" clip-path="url(#p3cff58a2a2)" style="fill: none; stroke: #000000"/>
    <path d="M 264.199164 135.529141 
L 234.874552 131.486641 
" clip-path="url(#p3cff58a2a2)" style="fill: none; stroke: #000000"/>
    <path d="M 264.199164 135.529141 
L 245.990702 153.592961 
" clip-path="url(#p3cff58a2a2)" style="fill: none; stroke: #000000"/>
    <path d="M 264.199164 135.529141 
L 247.563121 142.773475 
" clip-path="url(#p3cff58a2a2)" style="fill: none; stroke: #000000"/>
    <path d="M 290.617676 114.127577 
L 278.879814 94.936782 
" clip-path="url(#p3cff58a2a2)" style="fill: none; stroke: #000000"/>
    <path d="M 290.617676 114.127577 
L 331.514408 120.479568 
" clip-path="url(#p3cff58a2a2)" style="fill: none; stroke: #000000"/>
    <path d="M 290.617676 114.127577 
L 290.738834 150.734096 
" clip-path="url(#p3cff58a2a2)" style="fill: none; stroke: #000000"/>
    <path d="M 290.617676 114.127577 
L 317.500123 120.553734 
" clip-path="url(#p3cff58a2a2)" style="fill: none; stroke: #000000"/>
    <path d="M 290.617676 114.127577 
L 272.136252 110.644634 
" clip-path="url(#p3cff58a2a2)" style="fill: none; stroke: #000000"/>
    <path d="M 290.617676 114.127577 
L 296.325624 105.285321 
" clip-path="url(#p3cff58a2a2)" style="fill: none; stroke: #000000"/>
    <path d="M 313.866405 168.458818 
L 322.347144 177.327112 
" clip-path="url(#p3cff58a2a2)" style="fill: none; stroke: #000000"/>
    <path d="M 313.866405 168.458818 
L 314.104112 154.093341 
" clip-path="url(#p3cff58a2a2)" style="fill: none; stroke: #000000"/>
    <path d="M 313.866405 168.458818 
L 294.428592 186.215406 
" clip-path="url(#p3cff58a2a2)" style="fill: none; stroke: #000000"/>
    <path d="M 313.866405 168.458818 
L 317.381095 175.723534 
" clip-path="url(#p3cff58a2a2)" style="fill: none; stroke: #000000"/>
    <path d="M 313.866405 168.458818 
L 329.630116 143.350872 
" clip-path="url(#p3cff58a2a2)" style="fill: none; stroke: #000000"/>
    <path d="M 313.866405 168.458818 
L 299.562856 174.403477 
" clip-path="url(#p3cff58a2a2)" style="fill: none; stroke: #000000"/>
    <path d="M 313.866405 168.458818 
L 328.393095 172.242679 
" clip-path="url(#p3cff58a2a2)" style="fill: none; stroke: #000000"/>
    <path d="M 321.025161 235.175559 
L 309.916202 211.939897 
" clip-path="url(#p3cff58a2a2)" style="fill: none; stroke: #000000"/>
    <path d="M 321.025161 235.175559 
L 317.068872 219.975507 
" clip-path="url(#p3cff58a2a2)" style="fill: none; stroke: #000000"/>
    <path d="M 363.913251 174.057699 
L 343.893818 163.268634 
" clip-path="url(#p3cff58a2a2)" style="fill: none; stroke: #000000"/>
    <path d="M 296.211542 223.149776 
L 294.741262 253.277207 
" clip-path="url(#p3cff58a2a2)" style="fill: none; stroke: #000000"/>
    <path d="M 296.211542 223.149776 
L 309.425122 242.070925 
" clip-path="url(#p3cff58a2a2)" style="fill: none; stroke: #000000"/>
    <path d="M 296.211542 223.149776 
L 309.916202 211.939897 
" clip-path="url(#p3cff58a2a2)" style="fill: none; stroke: #000000"/>
    <path d="M 296.211542 223.149776 
L 286.595392 177.570089 
" clip-path="url(#p3cff58a2a2)" style="fill: none; stroke: #000000"/>
    <path d="M 296.211542 223.149776 
L 304.511802 216.55112 
" clip-path="url(#p3cff58a2a2)" style="fill: none; stroke: #000000"/>
    <path d="M 237.607878 106.006807 
L 251.191207 116.153904 
" clip-path="url(#p3cff58a2a2)" style="fill: none; stroke: #000000"/>
    <path d="M 237.607878 106.006807 
L 230.362802 116.849195 
" clip-path="url(#p3cff58a2a2)" style="fill: none; stroke: #000000"/>
    <path d="M 240.96798 63.529875 
L 247.498182 57.305875 
" clip-path="url(#p3cff58a2a2)" style="fill: none; stroke: #000000"/>
    <path d="M 365.51151 257.936836 
L 379.110734 230.023511 
" clip-path="url(#p3cff58a2a2)" style="fill: none; stroke: #000000"/>
    <path d="M 412.99762 148.363749 
L 420.813223 143.210222 
" clip-path="url(#p3cff58a2a2)" style="fill: none; stroke: #000000"/>
    <path d="M 412.99762 148.363749 
L 417.94895 155.12948 
" clip-path="url(#p3cff58a2a2)" style="fill: none; stroke: #000000"/>
    <path d="M 412.99762 148.363749 
L 392.684482 157.255944 
" clip-path="url(#p3cff58a2a2)" style="fill: none; stroke: #000000"/>
    <path d="M 412.99762 148.363749 
L 398.572397 145.455683 
" clip-path="url(#p3cff58a2a2)" style="fill: none; stroke: #000000"/>
    <path d="M 354.298206 196.026038 
L 336.228636 177.555687 
" clip-path="url(#p3cff58a2a2)" style="fill: none; stroke: #000000"/>
    <path d="M 420.813223 143.210222 
L 417.94895 155.12948 
" clip-path="url(#p3cff58a2a2)" style="fill: none; stroke: #000000"/>
    <path d="M 420.813223 143.210222 
L 398.572397 145.455683 
" clip-path="url(#p3cff58a2a2)" style="fill: none; stroke: #000000"/>
    <path d="M 417.94895 155.12948 
L 392.684482 157.255944 
" clip-path="url(#p3cff58a2a2)" style="fill: none; stroke: #000000"/>
    <path d="M 372.274084 146.360475 
L 392.684482 157.255944 
" clip-path="url(#p3cff58a2a2)" style="fill: none; stroke: #000000"/>
    <path d="M 372.274084 146.360475 
L 379.065711 156.369785 
" clip-path="url(#p3cff58a2a2)" style="fill: none; stroke: #000000"/>
    <path d="M 372.274084 146.360475 
L 329.630116 143.350872 
" clip-path="url(#p3cff58a2a2)" style="fill: none; stroke: #000000"/>
    <path d="M 372.274084 146.360475 
L 398.572397 145.455683 
" clip-path="url(#p3cff58a2a2)" style="fill: none; stroke: #000000"/>
    <path d="M 372.274084 146.360475 
L 386.316737 142.834003 
" clip-path="url(#p3cff58a2a2)" style="fill: none; stroke: #000000"/>
    <path d="M 322.347144 177.327112 
L 329.180368 206.2834 
" clip-path="url(#p3cff58a2a2)" style="fill: none; stroke: #000000"/>
    <path d="M 322.347144 177.327112 
L 314.104112 154.093341 
" clip-path="url(#p3cff58a2a2)" style="fill: none; stroke: #000000"/>
    <path d="M 322.347144 177.327112 
L 317.381095 175.723534 
" clip-path="url(#p3cff58a2a2)" style="fill: none; stroke: #000000"/>
    <path d="M 322.347144 177.327112 
L 301.745864 203.592202 
" clip-path="url(#p3cff58a2a2)" style="fill: none; stroke: #000000"/>
    <path d="M 322.347144 177.327112 
L 329.630116 143.350872 
" clip-path="url(#p3cff58a2a2)" style="fill: none; stroke: #000000"/>
    <path d="M 322.347144 177.327112 
L 328.393095 172.242679 
" clip-path="url(#p3cff58a2a2)" style="fill: none; stroke: #000000"/>
    <path d="M 322.347144 177.327112 
L 331.266763 166.934573 
" clip-path="url(#p3cff58a2a2)" style="fill: none; stroke: #000000"/>
    <path d="M 322.347144 177.327112 
L 336.228636 177.555687 
" clip-path="url(#p3cff58a2a2)" style="fill: none; stroke: #000000"/>
    <path d="M 309.425122 242.070925 
L 317.068872 219.975507 
" clip-path="url(#p3cff58a2a2)" style="fill: none; stroke: #000000"/>
    <path d="M 324.90106 93.26498 
L 317.500123 120.553734 
" clip-path="url(#p3cff58a2a2)" style="fill: none; stroke: #000000"/>
    <path d="M 278.879814 94.936782 
L 272.136252 110.644634 
" clip-path="url(#p3cff58a2a2)" style="fill: none; stroke: #000000"/>
    <path d="M 278.879814 94.936782 
L 296.325624 105.285321 
" clip-path="url(#p3cff58a2a2)" style="fill: none; stroke: #000000"/>
    <path d="M 213.121795 145.30606 
L 234.874552 131.486641 
" clip-path="url(#p3cff58a2a2)" style="fill: none; stroke: #000000"/>
    <path d="M 392.684482 157.255944 
L 379.065711 156.369785 
" clip-path="url(#p3cff58a2a2)" style="fill: none; stroke: #000000"/>
    <path d="M 392.684482 157.255944 
L 387.639149 192.623336 
" clip-path="url(#p3cff58a2a2)" style="fill: none; stroke: #000000"/>
    <path d="M 392.684482 157.255944 
L 398.572397 145.455683 
" clip-path="url(#p3cff58a2a2)" style="fill: none; stroke: #000000"/>
    <path d="M 329.180368 206.2834 
L 317.068872 219.975507 
" clip-path="url(#p3cff58a2a2)" style="fill: none; stroke: #000000"/>
    <path d="M 269.87786 290.393166 
L 258.388109 310.950078 
" clip-path="url(#p3cff58a2a2)" style="fill: none; stroke: #000000"/>
    <path d="M 269.87786 290.393166 
L 283.386345 251.759208 
" clip-path="url(#p3cff58a2a2)" style="fill: none; stroke: #000000"/>
    <path d="M 269.87786 290.393166 
L 266.307969 315.609917 
" clip-path="url(#p3cff58a2a2)" style="fill: none; stroke: #000000"/>
    <path d="M 354.111612 118.619241 
L 357.486802 110.001371 
" clip-path="url(#p3cff58a2a2)" style="fill: none; stroke: #000000"/>
    <path d="M 354.111612 118.619241 
L 348.897625 122.367324 
" clip-path="url(#p3cff58a2a2)" style="fill: none; stroke: #000000"/>
    <path d="M 354.111612 118.619241 
L 340.891452 129.144766 
" clip-path="url(#p3cff58a2a2)" style="fill: none; stroke: #000000"/>
    <path d="M 354.111612 118.619241 
L 338.228237 135.066223 
" clip-path="url(#p3cff58a2a2)" style="fill: none; stroke: #000000"/>
    <path d="M 247.498182 57.305875 
L 246.527408 42.559678 
" clip-path="url(#p3cff58a2a2)" style="fill: none; stroke: #000000"/>
    <path d="M 379.110734 230.023511 
L 387.639149 192.623336 
" clip-path="url(#p3cff58a2a2)" style="fill: none; stroke: #000000"/>
    <path d="M 314.104112 154.093341 
L 343.893818 163.268634 
" clip-path="url(#p3cff58a2a2)" style="fill: none; stroke: #000000"/>
    <path d="M 314.104112 154.093341 
L 286.595392 177.570089 
" clip-path="url(#p3cff58a2a2)" style="fill: none; stroke: #000000"/>
    <path d="M 314.104112 154.093341 
L 317.381095 175.723534 
" clip-path="url(#p3cff58a2a2)" style="fill: none; stroke: #000000"/>
    <path d="M 314.104112 154.093341 
L 301.745864 203.592202 
" clip-path="url(#p3cff58a2a2)" style="fill: none; stroke: #000000"/>
    <path d="M 314.104112 154.093341 
L 329.630116 143.350872 
" clip-path="url(#p3cff58a2a2)" style="fill: none; stroke: #000000"/>
    <path d="M 314.104112 154.093341 
L 336.382321 155.060148 
" clip-path="url(#p3cff58a2a2)" style="fill: none; stroke: #000000"/>
    <path d="M 314.104112 154.093341 
L 313.427811 178.034885 
" clip-path="url(#p3cff58a2a2)" style="fill: none; stroke: #000000"/>
    <path d="M 314.104112 154.093341 
L 317.500123 120.553734 
" clip-path="url(#p3cff58a2a2)" style="fill: none; stroke: #000000"/>
    <path d="M 314.104112 154.093341 
L 340.891452 129.144766 
" clip-path="url(#p3cff58a2a2)" style="fill: none; stroke: #000000"/>
    <path d="M 314.104112 154.093341 
L 288.158225 155.930323 
" clip-path="url(#p3cff58a2a2)" style="fill: none; stroke: #000000"/>
    <path d="M 314.104112 154.093341 
L 338.228237 135.066223 
" clip-path="url(#p3cff58a2a2)" style="fill: none; stroke: #000000"/>
    <path d="M 314.104112 154.093341 
L 320.417532 134.122252 
" clip-path="url(#p3cff58a2a2)" style="fill: none; stroke: #000000"/>
    <path d="M 314.104112 154.093341 
L 296.325624 105.285321 
" clip-path="url(#p3cff58a2a2)" style="fill: none; stroke: #000000"/>
    <path d="M 314.104112 154.093341 
L 331.266763 166.934573 
" clip-path="url(#p3cff58a2a2)" style="fill: none; stroke: #000000"/>
    <path d="M 314.104112 154.093341 
L 336.228636 177.555687 
" clip-path="url(#p3cff58a2a2)" style="fill: none; stroke: #000000"/>
    <path d="M 306.462907 231.198307 
L 309.916202 211.939897 
" clip-path="url(#p3cff58a2a2)" style="fill: none; stroke: #000000"/>
    <path d="M 306.462907 231.198307 
L 304.511802 216.55112 
" clip-path="url(#p3cff58a2a2)" style="fill: none; stroke: #000000"/>
    <path d="M 306.462907 231.198307 
L 301.600566 214.321041 
" clip-path="url(#p3cff58a2a2)" style="fill: none; stroke: #000000"/>
    <path d="M 246.527408 42.559678 
L 251.726983 68.465637 
" clip-path="url(#p3cff58a2a2)" style="fill: none; stroke: #000000"/>
    <path d="M 221.034288 29.990083 
L 233.032987 54.573978 
" clip-path="url(#p3cff58a2a2)" style="fill: none; stroke: #000000"/>
    <path d="M 309.916202 211.939897 
L 317.381095 175.723534 
" clip-path="url(#p3cff58a2a2)" style="fill: none; stroke: #000000"/>
    <path d="M 309.916202 211.939897 
L 301.745864 203.592202 
" clip-path="url(#p3cff58a2a2)" style="fill: none; stroke: #000000"/>
    <path d="M 309.916202 211.939897 
L 304.511802 216.55112 
" clip-path="url(#p3cff58a2a2)" style="fill: none; stroke: #000000"/>
    <path d="M 309.916202 211.939897 
L 295.883481 219.396026 
" clip-path="url(#p3cff58a2a2)" style="fill: none; stroke: #000000"/>
    <path d="M 309.916202 211.939897 
L 301.600566 214.321041 
" clip-path="url(#p3cff58a2a2)" style="fill: none; stroke: #000000"/>
    <path d="M 309.916202 211.939897 
L 317.068872 219.975507 
" clip-path="url(#p3cff58a2a2)" style="fill: none; stroke: #000000"/>
    <path d="M 379.065711 156.369785 
L 387.639149 192.623336 
" clip-path="url(#p3cff58a2a2)" style="fill: none; stroke: #000000"/>
    <path d="M 379.065711 156.369785 
L 329.630116 143.350872 
" clip-path="url(#p3cff58a2a2)" style="fill: none; stroke: #000000"/>
    <path d="M 379.065711 156.369785 
L 400.049093 169.966451 
" clip-path="url(#p3cff58a2a2)" style="fill: none; stroke: #000000"/>
    <path d="M 379.065711 156.369785 
L 398.572397 145.455683 
" clip-path="url(#p3cff58a2a2)" style="fill: none; stroke: #000000"/>
    <path d="M 379.065711 156.369785 
L 386.316737 142.834003 
" clip-path="url(#p3cff58a2a2)" style="fill: none; stroke: #000000"/>
    <path d="M 343.893818 163.268634 
L 336.382321 155.060148 
" clip-path="url(#p3cff58a2a2)" style="fill: none; stroke: #000000"/>
    <path d="M 286.595392 177.570089 
L 294.428592 186.215406 
" clip-path="url(#p3cff58a2a2)" style="fill: none; stroke: #000000"/>
    <path d="M 286.595392 177.570089 
L 266.645375 193.065278 
" clip-path="url(#p3cff58a2a2)" style="fill: none; stroke: #000000"/>
    <path d="M 335.274354 107.046106 
L 329.630116 143.350872 
" clip-path="url(#p3cff58a2a2)" style="fill: none; stroke: #000000"/>
    <path d="M 335.274354 107.046106 
L 347.654577 80.373403 
" clip-path="url(#p3cff58a2a2)" style="fill: none; stroke: #000000"/>
    <path d="M 335.274354 107.046106 
L 317.500123 120.553734 
" clip-path="url(#p3cff58a2a2)" style="fill: none; stroke: #000000"/>
    <path d="M 357.486802 110.001371 
L 348.897625 122.367324 
" clip-path="url(#p3cff58a2a2)" style="fill: none; stroke: #000000"/>
    <path d="M 357.486802 110.001371 
L 340.891452 129.144766 
" clip-path="url(#p3cff58a2a2)" style="fill: none; stroke: #000000"/>
    <path d="M 294.428592 186.215406 
L 276.97573 204.226528 
" clip-path="url(#p3cff58a2a2)" style="fill: none; stroke: #000000"/>
    <path d="M 331.514408 120.479568 
L 339.667007 119.037344 
" clip-path="url(#p3cff58a2a2)" style="fill: none; stroke: #000000"/>
    <path d="M 317.381095 175.723534 
L 329.630116 143.350872 
" clip-path="url(#p3cff58a2a2)" style="fill: none; stroke: #000000"/>
    <path d="M 299.502659 76.301464 
L 304.838314 78.865588 
" clip-path="url(#p3cff58a2a2)" style="fill: none; stroke: #000000"/>
    <path d="M 299.502659 76.301464 
L 296.325624 105.285321 
" clip-path="url(#p3cff58a2a2)" style="fill: none; stroke: #000000"/>
    <path d="M 301.745864 203.592202 
L 304.511802 216.55112 
" clip-path="url(#p3cff58a2a2)" style="fill: none; stroke: #000000"/>
    <path d="M 301.745864 203.592202 
L 295.883481 219.396026 
" clip-path="url(#p3cff58a2a2)" style="fill: none; stroke: #000000"/>
    <path d="M 301.745864 203.592202 
L 283.386345 251.759208 
" clip-path="url(#p3cff58a2a2)" style="fill: none; stroke: #000000"/>
    <path d="M 348.897625 122.367324 
L 329.630116 143.350872 
" clip-path="url(#p3cff58a2a2)" style="fill: none; stroke: #000000"/>
    <path d="M 348.897625 122.367324 
L 340.891452 129.144766 
" clip-path="url(#p3cff58a2a2)" style="fill: none; stroke: #000000"/>
    <path d="M 300.289985 179.907813 
L 313.427811 178.034885 
" clip-path="url(#p3cff58a2a2)" style="fill: none; stroke: #000000"/>
    <path d="M 300.289985 179.907813 
L 288.158225 155.930323 
" clip-path="url(#p3cff58a2a2)" style="fill: none; stroke: #000000"/>
    <path d="M 300.289985 179.907813 
L 308.855063 197.931042 
" clip-path="url(#p3cff58a2a2)" style="fill: none; stroke: #000000"/>
    <path d="M 47.9543 167.566638 
L 56.610846 164.833018 
" clip-path="url(#p3cff58a2a2)" style="fill: none; stroke: #000000"/>
    <path d="M 230.362802 116.849195 
L 234.874552 131.486641 
" clip-path="url(#p3cff58a2a2)" style="fill: none; stroke: #000000"/>
    <path d="M 230.362802 116.849195 
L 243.729751 107.682657 
" clip-path="url(#p3cff58a2a2)" style="fill: none; stroke: #000000"/>
    <path d="M 304.511802 216.55112 
L 295.883481 219.396026 
" clip-path="url(#p3cff58a2a2)" style="fill: none; stroke: #000000"/>
    <path d="M 329.630116 143.350872 
L 317.500123 120.553734 
" clip-path="url(#p3cff58a2a2)" style="fill: none; stroke: #000000"/>
    <path d="M 329.630116 143.350872 
L 340.891452 129.144766 
" clip-path="url(#p3cff58a2a2)" style="fill: none; stroke: #000000"/>
    <path d="M 329.630116 143.350872 
L 339.667007 119.037344 
" clip-path="url(#p3cff58a2a2)" style="fill: none; stroke: #000000"/>
    <path d="M 329.630116 143.350872 
L 320.417532 134.122252 
" clip-path="url(#p3cff58a2a2)" style="fill: none; stroke: #000000"/>
    <path d="M 317.500123 120.553734 
L 320.417532 134.122252 
" clip-path="url(#p3cff58a2a2)" style="fill: none; stroke: #000000"/>
    <path d="M 340.891452 129.144766 
L 338.228237 135.066223 
" clip-path="url(#p3cff58a2a2)" style="fill: none; stroke: #000000"/>
    <path d="M 283.386345 251.759208 
L 275.1141 275.122926 
" clip-path="url(#p3cff58a2a2)" style="fill: none; stroke: #000000"/>
    <path d="M 304.838314 78.865588 
L 296.325624 105.285321 
" clip-path="url(#p3cff58a2a2)" style="fill: none; stroke: #000000"/>
    <path d="M 251.726983 68.465637 
L 247.563769 64.879676 
" clip-path="url(#p3cff58a2a2)" style="fill: none; stroke: #000000"/>
    <path d="M 257.585015 110.182009 
L 243.729751 107.682657 
" clip-path="url(#p3cff58a2a2)" style="fill: none; stroke: #000000"/>
    <path d="M 232.257222 92.643063 
L 243.729751 107.682657 
" clip-path="url(#p3cff58a2a2)" style="fill: none; stroke: #000000"/>
    <path d="M 272.136252 110.644634 
L 296.325624 105.285321 
" clip-path="url(#p3cff58a2a2)" style="fill: none; stroke: #000000"/>
    <path d="M 234.874552 131.486641 
L 209.551927 130.667032 
" clip-path="url(#p3cff58a2a2)" style="fill: none; stroke: #000000"/>
    <path d="M 234.874552 131.486641 
L 210.0959 137.476868 
" clip-path="url(#p3cff58a2a2)" style="fill: none; stroke: #000000"/>
    <path d="M 234.874552 131.486641 
L 222.557304 116.502078 
" clip-path="url(#p3cff58a2a2)" style="fill: none; stroke: #000000"/>
    <path d="M 209.551927 130.667032 
L 210.0959 137.476868 
" clip-path="url(#p3cff58a2a2)" style="fill: none; stroke: #000000"/>
    <path d="M 243.729751 107.682657 
L 222.557304 116.502078 
" clip-path="url(#p3cff58a2a2)" style="fill: none; stroke: #000000"/>
    <path d="M 331.266763 166.934573 
L 336.228636 177.555687 
" clip-path="url(#p3cff58a2a2)" style="fill: none; stroke: #000000"/>
   </g>
   <g id="PathCollection_1">
    <defs>
     <path id="mcd6d454799" d="M 0 2.5 
C 0.663008 2.5 1.29895 2.236584 1.767767 1.767767 
C 2.236584 1.29895 2.5 0.663008 2.5 0 
C 2.5 -0.663008 2.236584 -1.29895 1.767767 -1.767767 
C 1.29895 -2.236584 0.663008 -2.5 0 -2.5 
C -0.663008 -2.5 -1.29895 -2.236584 -1.767767 -1.767767 
C -2.236584 -1.29895 -2.5 -0.663008 -2.5 0 
C -2.5 0.663008 -2.236584 1.29895 -1.767767 1.767767 
C -1.29895 2.236584 -0.663008 2.5 0 2.5 
z
" style="stroke: #1f78b4"/>
    </defs>
    <g clip-path="url(#p3cff58a2a2)">
     <use xlink:href="#mcd6d454799" x="255.957724" y="130.173671" style="fill: #1f78b4; stroke: #1f78b4"/>
     <use xlink:href="#mcd6d454799" x="289.732198" y="83.157355" style="fill: #1f78b4; stroke: #1f78b4"/>
     <use xlink:href="#mcd6d454799" x="307.979303" y="171.533989" style="fill: #1f78b4; stroke: #1f78b4"/>
     <use xlink:href="#mcd6d454799" x="391.273089" y="219.600169" style="fill: #1f78b4; stroke: #1f78b4"/>
     <use xlink:href="#mcd6d454799" x="253.206484" y="90.426883" style="fill: #1f78b4; stroke: #1f78b4"/>
     <use xlink:href="#mcd6d454799" x="305.015386" y="187.301998" style="fill: #1f78b4; stroke: #1f78b4"/>
     <use xlink:href="#mcd6d454799" x="331.076439" y="150.337935" style="fill: #1f78b4; stroke: #1f78b4"/>
     <use xlink:href="#mcd6d454799" x="274.421973" y="123.832653" style="fill: #1f78b4; stroke: #1f78b4"/>
     <use xlink:href="#mcd6d454799" x="369.337212" y="138.178049" style="fill: #1f78b4; stroke: #1f78b4"/>
     <use xlink:href="#mcd6d454799" x="397.991876" y="151.283912" style="fill: #1f78b4; stroke: #1f78b4"/>
     <use xlink:href="#mcd6d454799" x="244.833344" y="120.265503" style="fill: #1f78b4; stroke: #1f78b4"/>
     <use xlink:href="#mcd6d454799" x="39.986777" y="166.170579" style="fill: #1f78b4; stroke: #1f78b4"/>
     <use xlink:href="#mcd6d454799" x="235.884883" y="89.001104" style="fill: #1f78b4; stroke: #1f78b4"/>
     <use xlink:href="#mcd6d454799" x="253.854344" y="97.36269" style="fill: #1f78b4; stroke: #1f78b4"/>
     <use xlink:href="#mcd6d454799" x="402.642694" y="159.630941" style="fill: #1f78b4; stroke: #1f78b4"/>
     <use xlink:href="#mcd6d454799" x="288.522287" y="234.30515" style="fill: #1f78b4; stroke: #1f78b4"/>
     <use xlink:href="#mcd6d454799" x="264.199164" y="135.529141" style="fill: #1f78b4; stroke: #1f78b4"/>
     <use xlink:href="#mcd6d454799" x="290.617676" y="114.127577" style="fill: #1f78b4; stroke: #1f78b4"/>
     <use xlink:href="#mcd6d454799" x="313.866405" y="168.458818" style="fill: #1f78b4; stroke: #1f78b4"/>
     <use xlink:href="#mcd6d454799" x="321.025161" y="235.175559" style="fill: #1f78b4; stroke: #1f78b4"/>
     <use xlink:href="#mcd6d454799" x="363.913251" y="174.057699" style="fill: #1f78b4; stroke: #1f78b4"/>
     <use xlink:href="#mcd6d454799" x="296.211542" y="223.149776" style="fill: #1f78b4; stroke: #1f78b4"/>
     <use xlink:href="#mcd6d454799" x="237.607878" y="106.006807" style="fill: #1f78b4; stroke: #1f78b4"/>
     <use xlink:href="#mcd6d454799" x="240.96798" y="63.529875" style="fill: #1f78b4; stroke: #1f78b4"/>
     <use xlink:href="#mcd6d454799" x="365.51151" y="257.936836" style="fill: #1f78b4; stroke: #1f78b4"/>
     <use xlink:href="#mcd6d454799" x="412.99762" y="148.363749" style="fill: #1f78b4; stroke: #1f78b4"/>
     <use xlink:href="#mcd6d454799" x="354.298206" y="196.026038" style="fill: #1f78b4; stroke: #1f78b4"/>
     <use xlink:href="#mcd6d454799" x="294.741262" y="253.277207" style="fill: #1f78b4; stroke: #1f78b4"/>
     <use xlink:href="#mcd6d454799" x="420.813223" y="143.210222" style="fill: #1f78b4; stroke: #1f78b4"/>
     <use xlink:href="#mcd6d454799" x="417.94895" y="155.12948" style="fill: #1f78b4; stroke: #1f78b4"/>
     <use xlink:href="#mcd6d454799" x="271.375603" y="100.253169" style="fill: #1f78b4; stroke: #1f78b4"/>
     <use xlink:href="#mcd6d454799" x="372.274084" y="146.360475" style="fill: #1f78b4; stroke: #1f78b4"/>
     <use xlink:href="#mcd6d454799" x="322.347144" y="177.327112" style="fill: #1f78b4; stroke: #1f78b4"/>
     <use xlink:href="#mcd6d454799" x="251.191207" y="116.153904" style="fill: #1f78b4; stroke: #1f78b4"/>
     <use xlink:href="#mcd6d454799" x="309.425122" y="242.070925" style="fill: #1f78b4; stroke: #1f78b4"/>
     <use xlink:href="#mcd6d454799" x="324.90106" y="93.26498" style="fill: #1f78b4; stroke: #1f78b4"/>
     <use xlink:href="#mcd6d454799" x="278.879814" y="94.936782" style="fill: #1f78b4; stroke: #1f78b4"/>
     <use xlink:href="#mcd6d454799" x="213.121795" y="145.30606" style="fill: #1f78b4; stroke: #1f78b4"/>
     <use xlink:href="#mcd6d454799" x="392.684482" y="157.255944" style="fill: #1f78b4; stroke: #1f78b4"/>
     <use xlink:href="#mcd6d454799" x="329.180368" y="206.2834" style="fill: #1f78b4; stroke: #1f78b4"/>
     <use xlink:href="#mcd6d454799" x="269.87786" y="290.393166" style="fill: #1f78b4; stroke: #1f78b4"/>
     <use xlink:href="#mcd6d454799" x="354.111612" y="118.619241" style="fill: #1f78b4; stroke: #1f78b4"/>
     <use xlink:href="#mcd6d454799" x="247.498182" y="57.305875" style="fill: #1f78b4; stroke: #1f78b4"/>
     <use xlink:href="#mcd6d454799" x="379.110734" y="230.023511" style="fill: #1f78b4; stroke: #1f78b4"/>
     <use xlink:href="#mcd6d454799" x="314.104112" y="154.093341" style="fill: #1f78b4; stroke: #1f78b4"/>
     <use xlink:href="#mcd6d454799" x="306.462907" y="231.198307" style="fill: #1f78b4; stroke: #1f78b4"/>
     <use xlink:href="#mcd6d454799" x="246.527408" y="42.559678" style="fill: #1f78b4; stroke: #1f78b4"/>
     <use xlink:href="#mcd6d454799" x="221.034288" y="29.990083" style="fill: #1f78b4; stroke: #1f78b4"/>
     <use xlink:href="#mcd6d454799" x="309.916202" y="211.939897" style="fill: #1f78b4; stroke: #1f78b4"/>
     <use xlink:href="#mcd6d454799" x="379.065711" y="156.369785" style="fill: #1f78b4; stroke: #1f78b4"/>
     <use xlink:href="#mcd6d454799" x="343.893818" y="163.268634" style="fill: #1f78b4; stroke: #1f78b4"/>
     <use xlink:href="#mcd6d454799" x="286.595392" y="177.570089" style="fill: #1f78b4; stroke: #1f78b4"/>
     <use xlink:href="#mcd6d454799" x="335.274354" y="107.046106" style="fill: #1f78b4; stroke: #1f78b4"/>
     <use xlink:href="#mcd6d454799" x="245.280967" y="80.285598" style="fill: #1f78b4; stroke: #1f78b4"/>
     <use xlink:href="#mcd6d454799" x="234.382569" y="69.879303" style="fill: #1f78b4; stroke: #1f78b4"/>
     <use xlink:href="#mcd6d454799" x="387.639149" y="192.623336" style="fill: #1f78b4; stroke: #1f78b4"/>
     <use xlink:href="#mcd6d454799" x="357.486802" y="110.001371" style="fill: #1f78b4; stroke: #1f78b4"/>
     <use xlink:href="#mcd6d454799" x="294.428592" y="186.215406" style="fill: #1f78b4; stroke: #1f78b4"/>
     <use xlink:href="#mcd6d454799" x="331.514408" y="120.479568" style="fill: #1f78b4; stroke: #1f78b4"/>
     <use xlink:href="#mcd6d454799" x="317.381095" y="175.723534" style="fill: #1f78b4; stroke: #1f78b4"/>
     <use xlink:href="#mcd6d454799" x="299.502659" y="76.301464" style="fill: #1f78b4; stroke: #1f78b4"/>
     <use xlink:href="#mcd6d454799" x="301.745864" y="203.592202" style="fill: #1f78b4; stroke: #1f78b4"/>
     <use xlink:href="#mcd6d454799" x="348.897625" y="122.367324" style="fill: #1f78b4; stroke: #1f78b4"/>
     <use xlink:href="#mcd6d454799" x="300.289985" y="179.907813" style="fill: #1f78b4; stroke: #1f78b4"/>
     <use xlink:href="#mcd6d454799" x="47.9543" y="167.566638" style="fill: #1f78b4; stroke: #1f78b4"/>
     <use xlink:href="#mcd6d454799" x="230.362802" y="116.849195" style="fill: #1f78b4; stroke: #1f78b4"/>
     <use xlink:href="#mcd6d454799" x="304.511802" y="216.55112" style="fill: #1f78b4; stroke: #1f78b4"/>
     <use xlink:href="#mcd6d454799" x="329.630116" y="143.350872" style="fill: #1f78b4; stroke: #1f78b4"/>
     <use xlink:href="#mcd6d454799" x="266.645375" y="193.065278" style="fill: #1f78b4; stroke: #1f78b4"/>
     <use xlink:href="#mcd6d454799" x="336.382321" y="155.060148" style="fill: #1f78b4; stroke: #1f78b4"/>
     <use xlink:href="#mcd6d454799" x="313.427811" y="178.034885" style="fill: #1f78b4; stroke: #1f78b4"/>
     <use xlink:href="#mcd6d454799" x="299.562856" y="174.403477" style="fill: #1f78b4; stroke: #1f78b4"/>
     <use xlink:href="#mcd6d454799" x="295.883481" y="219.396026" style="fill: #1f78b4; stroke: #1f78b4"/>
     <use xlink:href="#mcd6d454799" x="347.654577" y="80.373403" style="fill: #1f78b4; stroke: #1f78b4"/>
     <use xlink:href="#mcd6d454799" x="290.738834" y="150.734096" style="fill: #1f78b4; stroke: #1f78b4"/>
     <use xlink:href="#mcd6d454799" x="301.600566" y="214.321041" style="fill: #1f78b4; stroke: #1f78b4"/>
     <use xlink:href="#mcd6d454799" x="317.500123" y="120.553734" style="fill: #1f78b4; stroke: #1f78b4"/>
     <use xlink:href="#mcd6d454799" x="258.388109" y="310.950078" style="fill: #1f78b4; stroke: #1f78b4"/>
     <use xlink:href="#mcd6d454799" x="340.891452" y="129.144766" style="fill: #1f78b4; stroke: #1f78b4"/>
     <use xlink:href="#mcd6d454799" x="288.158225" y="155.930323" style="fill: #1f78b4; stroke: #1f78b4"/>
     <use xlink:href="#mcd6d454799" x="283.386345" y="251.759208" style="fill: #1f78b4; stroke: #1f78b4"/>
     <use xlink:href="#mcd6d454799" x="275.1141" y="275.122926" style="fill: #1f78b4; stroke: #1f78b4"/>
     <use xlink:href="#mcd6d454799" x="304.838314" y="78.865588" style="fill: #1f78b4; stroke: #1f78b4"/>
     <use xlink:href="#mcd6d454799" x="251.726983" y="68.465637" style="fill: #1f78b4; stroke: #1f78b4"/>
     <use xlink:href="#mcd6d454799" x="276.97573" y="204.226528" style="fill: #1f78b4; stroke: #1f78b4"/>
     <use xlink:href="#mcd6d454799" x="257.585015" y="110.182009" style="fill: #1f78b4; stroke: #1f78b4"/>
     <use xlink:href="#mcd6d454799" x="338.228237" y="135.066223" style="fill: #1f78b4; stroke: #1f78b4"/>
     <use xlink:href="#mcd6d454799" x="262.195644" y="123.606777" style="fill: #1f78b4; stroke: #1f78b4"/>
     <use xlink:href="#mcd6d454799" x="308.855063" y="197.931042" style="fill: #1f78b4; stroke: #1f78b4"/>
     <use xlink:href="#mcd6d454799" x="232.257222" y="92.643063" style="fill: #1f78b4; stroke: #1f78b4"/>
     <use xlink:href="#mcd6d454799" x="272.136252" y="110.644634" style="fill: #1f78b4; stroke: #1f78b4"/>
     <use xlink:href="#mcd6d454799" x="266.307969" y="315.609917" style="fill: #1f78b4; stroke: #1f78b4"/>
     <use xlink:href="#mcd6d454799" x="234.874552" y="131.486641" style="fill: #1f78b4; stroke: #1f78b4"/>
     <use xlink:href="#mcd6d454799" x="247.563769" y="64.879676" style="fill: #1f78b4; stroke: #1f78b4"/>
     <use xlink:href="#mcd6d454799" x="209.551927" y="130.667032" style="fill: #1f78b4; stroke: #1f78b4"/>
     <use xlink:href="#mcd6d454799" x="243.729751" y="107.682657" style="fill: #1f78b4; stroke: #1f78b4"/>
     <use xlink:href="#mcd6d454799" x="245.990702" y="153.592961" style="fill: #1f78b4; stroke: #1f78b4"/>
     <use xlink:href="#mcd6d454799" x="328.393095" y="172.242679" style="fill: #1f78b4; stroke: #1f78b4"/>
     <use xlink:href="#mcd6d454799" x="339.667007" y="119.037344" style="fill: #1f78b4; stroke: #1f78b4"/>
     <use xlink:href="#mcd6d454799" x="320.417532" y="134.122252" style="fill: #1f78b4; stroke: #1f78b4"/>
     <use xlink:href="#mcd6d454799" x="400.049093" y="169.966451" style="fill: #1f78b4; stroke: #1f78b4"/>
     <use xlink:href="#mcd6d454799" x="296.325624" y="105.285321" style="fill: #1f78b4; stroke: #1f78b4"/>
     <use xlink:href="#mcd6d454799" x="398.572397" y="145.455683" style="fill: #1f78b4; stroke: #1f78b4"/>
     <use xlink:href="#mcd6d454799" x="331.266763" y="166.934573" style="fill: #1f78b4; stroke: #1f78b4"/>
     <use xlink:href="#mcd6d454799" x="229.630984" y="75.890779" style="fill: #1f78b4; stroke: #1f78b4"/>
     <use xlink:href="#mcd6d454799" x="210.0959" y="137.476868" style="fill: #1f78b4; stroke: #1f78b4"/>
     <use xlink:href="#mcd6d454799" x="233.032987" y="54.573978" style="fill: #1f78b4; stroke: #1f78b4"/>
     <use xlink:href="#mcd6d454799" x="386.316737" y="142.834003" style="fill: #1f78b4; stroke: #1f78b4"/>
     <use xlink:href="#mcd6d454799" x="336.228636" y="177.555687" style="fill: #1f78b4; stroke: #1f78b4"/>
     <use xlink:href="#mcd6d454799" x="222.557304" y="116.502078" style="fill: #1f78b4; stroke: #1f78b4"/>
     <use xlink:href="#mcd6d454799" x="247.563121" y="142.773475" style="fill: #1f78b4; stroke: #1f78b4"/>
     <use xlink:href="#mcd6d454799" x="317.068872" y="219.975507" style="fill: #1f78b4; stroke: #1f78b4"/>
     <use xlink:href="#mcd6d454799" x="56.610846" y="164.833018" style="fill: #1f78b4; stroke: #1f78b4"/>
    </g>
   </g>
  </g>
 </g>
 <defs>
  <clipPath id="p3cff58a2a2">
   <rect x="0" y="0" width="460.8" height="345.6"/>
  </clipPath>
 </defs>
</svg>
