<?xml version="1.0" encoding="utf-8" standalone="no"?>
<!DOCTYPE svg PUBLIC "-//W3C//DTD SVG 1.1//EN"
  "http://www.w3.org/Graphics/SVG/1.1/DTD/svg11.dtd">
<svg xmlns:xlink="http://www.w3.org/1999/xlink" width="460.8pt" height="345.6pt" viewBox="0 0 460.8 345.6" xmlns="http://www.w3.org/2000/svg" version="1.1">
 <metadata>
  <rdf:RDF xmlns:dc="http://purl.org/dc/elements/1.1/" xmlns:cc="http://creativecommons.org/ns#" xmlns:rdf="http://www.w3.org/1999/02/22-rdf-syntax-ns#">
   <cc:Work>
    <dc:type rdf:resource="http://purl.org/dc/dcmitype/StillImage"/>
    <dc:date>2023-05-07T19:36:07.024468</dc:date>
    <dc:format>image/svg+xml</dc:format>
    <dc:creator>
     <cc:Agent>
      <dc:title>Matplotlib v3.7.1, https://matplotlib.org/</dc:title>
     </cc:Agent>
    </dc:creator>
   </cc:Work>
  </rdf:RDF>
 </metadata>
 <defs>
  <style type="text/css">*{stroke-linejoin: round; stroke-linecap: butt}</style>
 </defs>
 <g id="figure_1">
  <g id="patch_1">
   <path d="M 0 345.6 
L 460.8 345.6 
L 460.8 0 
L 0 0 
z
" style="fill: #ffffff"/>
  </g>
  <g id="axes_1">
   <g id="patch_2">
    <path d="M 213.693636 109.211554 
Q 211.38377 113.264365 209.627515 116.345829 
" clip-path="url(#p99a0988214)" style="fill: none; stroke: #000000; stroke-linecap: round"/>
    <path d="M 213.345773 113.860962 
L 209.627515 116.345829 
L 209.870576 111.880303 
z
" clip-path="url(#p99a0988214)" style="stroke: #000000; stroke-linecap: round"/>
   </g>
   <g id="patch_3">
    <path d="M 92.641435 184.194929 
Q 81.389374 177.978609 71.115933 172.302938 
" clip-path="url(#p99a0988214)" style="fill: none; stroke: #000000; stroke-linecap: round"/>
    <path d="M 73.65001 175.987834 
L 71.115933 172.302938 
L 75.584295 172.486614 
z
" clip-path="url(#p99a0988214)" style="stroke: #000000; stroke-linecap: round"/>
   </g>
   <g id="patch_4">
    <path d="M 92.302772 188.26947 
Q 90.570202 188.878396 89.892417 189.116609 
" clip-path="url(#p99a0988214)" style="fill: none; stroke: #000000; stroke-linecap: round"/>
    <path d="M 94.329283 189.677164 
L 89.892417 189.116609 
L 93.00298 185.903449 
z
" clip-path="url(#p99a0988214)" style="stroke: #000000; stroke-linecap: round"/>
   </g>
   <g id="patch_5">
    <path d="M 80.898005 187.322168 
Q 74.940939 180.246501 69.703941 174.026113 
" clip-path="url(#p99a0988214)" style="fill: none; stroke: #000000; stroke-linecap: round"/>
    <path d="M 70.750162 178.37415 
L 69.703941 174.026113 
L 73.810103 175.797959 
z
" clip-path="url(#p99a0988214)" style="stroke: #000000; stroke-linecap: round"/>
   </g>
   <g id="patch_6">
    <path d="M 88.832152 189.489248 
Q 90.564723 188.880322 91.242508 188.642109 
" clip-path="url(#p99a0988214)" style="fill: none; stroke: #000000; stroke-linecap: round"/>
    <path d="M 86.805642 188.081555 
L 91.242508 188.642109 
L 88.131945 191.855269 
z
" clip-path="url(#p99a0988214)" style="stroke: #000000; stroke-linecap: round"/>
   </g>
   <g id="patch_7">
    <path d="M 44.986737 169.929956 
Q 52.875777 169.708262 59.647225 169.517974 
" clip-path="url(#p99a0988214)" style="fill: none; stroke: #000000; stroke-linecap: round"/>
    <path d="M 55.592623 167.631125 
L 59.647225 169.517974 
L 55.704984 171.629547 
z
" clip-path="url(#p99a0988214)" style="stroke: #000000; stroke-linecap: round"/>
   </g>
   <g id="patch_8">
    <path d="M 128.483874 158.184241 
Q 99.583405 163.327452 71.783675 168.274773 
" clip-path="url(#p99a0988214)" style="fill: none; stroke: #000000; stroke-linecap: round"/>
    <path d="M 76.07222 169.542995 
L 71.783675 168.274773 
L 75.37138 165.604871 
z
" clip-path="url(#p99a0988214)" style="stroke: #000000; stroke-linecap: round"/>
   </g>
   <g id="patch_9">
    <path d="M 129.515733 160.443121 
Q 115.213411 171.960097 101.781891 182.775857 
" clip-path="url(#p99a0988214)" style="fill: none; stroke: #000000; stroke-linecap: round"/>
    <path d="M 106.151741 181.824851 
L 101.781891 182.775857 
L 103.642996 178.709374 
z
" clip-path="url(#p99a0988214)" style="stroke: #000000; stroke-linecap: round"/>
   </g>
   <g id="patch_10">
    <path d="M 137.907871 155.116687 
Q 170.00394 139.484004 201.09486 124.340888 
" clip-path="url(#p99a0988214)" style="fill: none; stroke: #000000; stroke-linecap: round"/>
    <path d="M 196.622966 124.294351 
L 201.09486 124.340888 
L 198.374494 127.89048 
z
" clip-path="url(#p99a0988214)" style="stroke: #000000; stroke-linecap: round"/>
   </g>
   <g id="patch_11">
    <path d="M 132.823627 162.27291 
Q 132.02818 169.014371 131.363745 174.645501 
" clip-path="url(#p99a0988214)" style="fill: none; stroke: #000000; stroke-linecap: round"/>
    <path d="M 133.818688 170.907419 
L 131.363745 174.645501 
L 129.846245 170.438698 
z
" clip-path="url(#p99a0988214)" style="stroke: #000000; stroke-linecap: round"/>
   </g>
   <g id="patch_12">
    <path d="M 209.072644 117.319387 
Q 211.38251 113.266576 213.138765 110.185112 
" clip-path="url(#p99a0988214)" style="fill: none; stroke: #000000; stroke-linecap: round"/>
    <path d="M 209.420507 112.669979 
L 213.138765 110.185112 
L 212.895704 114.650638 
z
" clip-path="url(#p99a0988214)" style="stroke: #000000; stroke-linecap: round"/>
   </g>
   <g id="patch_13">
    <path d="M 202.29469 124.211306 
Q 151.807019 154.13694 102.281125 183.492499 
" clip-path="url(#p99a0988214)" style="fill: none; stroke: #000000; stroke-linecap: round"/>
    <path d="M 106.741863 183.173414 
L 102.281125 183.492499 
L 104.702299 179.732458 
z
" clip-path="url(#p99a0988214)" style="stroke: #000000; stroke-linecap: round"/>
   </g>
   <g id="patch_14">
    <path d="M 202.651272 124.729896 
Q 168.623235 151.191893 135.477774 176.967552 
" clip-path="url(#p99a0988214)" style="fill: none; stroke: #000000; stroke-linecap: round"/>
    <path d="M 139.863133 176.090836 
L 135.477774 176.967552 
L 137.407616 172.933236 
z
" clip-path="url(#p99a0988214)" style="stroke: #000000; stroke-linecap: round"/>
   </g>
   <g id="patch_15">
    <path d="M 211.485255 120.606812 
Q 313.704162 98.571296 414.830142 76.771386 
" clip-path="url(#p99a0988214)" style="fill: none; stroke: #000000; stroke-linecap: round"/>
    <path d="M 410.498504 75.659221 
L 414.830142 76.771386 
L 411.341427 79.569398 
z
" clip-path="url(#p99a0988214)" style="stroke: #000000; stroke-linecap: round"/>
   </g>
   <g id="patch_16">
    <path d="M 201.707517 120.601105 
Q 130.781522 105.242643 60.948236 90.120799 
" clip-path="url(#p99a0988214)" style="fill: none; stroke: #000000; stroke-linecap: round"/>
    <path d="M 64.434355 92.922044 
L 60.948236 90.120799 
L 65.280903 89.012651 
z
" clip-path="url(#p99a0988214)" style="stroke: #000000; stroke-linecap: round"/>
   </g>
   <g id="patch_17">
    <path d="M 145.872814 281.060465 
Q 139.445222 293.753059 133.522733 305.44822 
" clip-path="url(#p99a0988214)" style="fill: none; stroke: #000000; stroke-linecap: round"/>
    <path d="M 137.114109 302.783259 
L 133.522733 305.44822 
L 133.54559 300.976143 
z
" clip-path="url(#p99a0988214)" style="stroke: #000000; stroke-linecap: round"/>
   </g>
   <g id="patch_18">
    <path d="M 151.914868 273.32748 
Q 152.57317 272.758034 152.385899 272.920028 
" clip-path="url(#p99a0988214)" style="fill: none; stroke: #000000; stroke-linecap: round"/>
    <path d="M 148.052242 274.024298 
L 152.385899 272.920028 
L 150.66912 277.049516 
z
" clip-path="url(#p99a0988214)" style="stroke: #000000; stroke-linecap: round"/>
   </g>
   <g id="patch_19">
    <path d="M 125.724422 181.586403 
Q 113.832664 183.668432 103.042187 185.557646 
" clip-path="url(#p99a0988214)" style="fill: none; stroke: #000000; stroke-linecap: round"/>
    <path d="M 107.327171 186.837846 
L 103.042187 185.557646 
L 106.637338 182.897779 
z
" clip-path="url(#p99a0988214)" style="stroke: #000000; stroke-linecap: round"/>
   </g>
   <g id="patch_20">
    <path d="M 131.232313 175.7594 
Q 132.027759 169.017939 132.692194 163.38681 
" clip-path="url(#p99a0988214)" style="fill: none; stroke: #000000; stroke-linecap: round"/>
    <path d="M 130.237252 167.124892 
L 132.692194 163.38681 
L 134.209694 167.593613 
z
" clip-path="url(#p99a0988214)" style="stroke: #000000; stroke-linecap: round"/>
   </g>
   <g id="patch_21">
    <path d="M 154.359974 273.159933 
Q 143.88471 289.913661 134.002173 305.719404 
" clip-path="url(#p99a0988214)" style="fill: none; stroke: #000000; stroke-linecap: round"/>
    <path d="M 137.818584 303.388094 
L 134.002173 305.719404 
L 134.426971 301.267489 
z
" clip-path="url(#p99a0988214)" style="stroke: #000000; stroke-linecap: round"/>
   </g>
   <g id="patch_22">
    <path d="M 226.532802 123.499379 
Q 219.055048 122.809475 212.690601 122.222285 
" clip-path="url(#p99a0988214)" style="fill: none; stroke: #000000; stroke-linecap: round"/>
    <path d="M 216.489943 124.58131 
L 212.690601 122.222285 
L 216.857426 120.598226 
z
" clip-path="url(#p99a0988214)" style="stroke: #000000; stroke-linecap: round"/>
   </g>
   <g id="patch_23">
    <path d="M 140.550283 96.148002 
Q 175.873625 100.222662 210.086298 104.169203 
" clip-path="url(#p99a0988214)" style="fill: none; stroke: #000000; stroke-linecap: round"/>
    <path d="M 206.341834 101.724004 
L 210.086298 104.169203 
L 205.883461 105.697654 
z
" clip-path="url(#p99a0988214)" style="stroke: #000000; stroke-linecap: round"/>
   </g>
   <g id="patch_24">
    <path d="M 130.603325 95.158265 
Q 95.277127 92.20076 61.065066 89.336531 
" clip-path="url(#p99a0988214)" style="fill: none; stroke: #000000; stroke-linecap: round"/>
    <path d="M 64.884265 91.66327 
L 61.065066 89.336531 
L 65.217977 87.677215 
z
" clip-path="url(#p99a0988214)" style="stroke: #000000; stroke-linecap: round"/>
   </g>
   <g id="PathCollection_1">
    <defs>
     <path id="m9d504d1695" d="M 0 5 
C 1.326016 5 2.597899 4.473168 3.535534 3.535534 
C 4.473168 2.597899 5 1.326016 5 0 
C 5 -1.326016 4.473168 -2.597899 3.535534 -3.535534 
C 2.597899 -4.473168 1.326016 -5 0 -5 
C -1.326016 -5 -2.597899 -4.473168 -3.535534 -3.535534 
C -4.473168 -2.597899 -5 -1.326016 -5 0 
C -5 1.326016 -4.473168 2.597899 -3.535534 3.535534 
C -2.597899 4.473168 -1.326016 5 0 5 
z
" style="stroke: #1f78b4"/>
    </defs>
    <g clip-path="url(#p99a0988214)">
     <use xlink:href="#m9d504d1695" x="65.763789" y="169.34609" style="fill: #1f78b4; stroke: #1f78b4"/>
     <use xlink:href="#m9d504d1695" x="216.167665" y="104.870708" style="fill: #1f78b4; stroke: #1f78b4"/>
     <use xlink:href="#m9d504d1695" x="97.017398" y="186.612476" style="fill: #1f78b4; stroke: #1f78b4"/>
     <use xlink:href="#m9d504d1695" x="84.117526" y="191.146242" style="fill: #1f78b4; stroke: #1f78b4"/>
     <use xlink:href="#m9d504d1695" x="39.986777" y="170.070462" style="fill: #1f78b4; stroke: #1f78b4"/>
     <use xlink:href="#m9d504d1695" x="133.409492" y="157.307663" style="fill: #1f78b4; stroke: #1f78b4"/>
     <use xlink:href="#m9d504d1695" x="206.598615" y="121.660233" style="fill: #1f78b4; stroke: #1f78b4"/>
     <use xlink:href="#m9d504d1695" x="435.799174" y="239.473475" style="fill: #1f78b4; stroke: #1f78b4"/>
     <use xlink:href="#m9d504d1695" x="298.770795" y="15.709091" style="fill: #1f78b4; stroke: #1f78b4"/>
     <use xlink:href="#m9d504d1695" x="148.13155" y="276.600132" style="fill: #1f78b4; stroke: #1f78b4"/>
     <use xlink:href="#m9d504d1695" x="130.757316" y="310.909101" style="fill: #1f78b4; stroke: #1f78b4"/>
     <use xlink:href="#m9d504d1695" x="130.646447" y="180.724647" style="fill: #1f78b4; stroke: #1f78b4"/>
     <use xlink:href="#m9d504d1695" x="420.813223" y="75.481602" style="fill: #1f78b4; stroke: #1f78b4"/>
     <use xlink:href="#m9d504d1695" x="54.969947" y="88.826248" style="fill: #1f78b4; stroke: #1f78b4"/>
     <use xlink:href="#m9d504d1695" x="157.012048" y="268.918309" style="fill: #1f78b4; stroke: #1f78b4"/>
     <use xlink:href="#m9d504d1695" x="231.511027" y="123.958675" style="fill: #1f78b4; stroke: #1f78b4"/>
     <use xlink:href="#m9d504d1695" x="246.549322" y="329.890909" style="fill: #1f78b4; stroke: #1f78b4"/>
     <use xlink:href="#m9d504d1695" x="135.587816" y="95.575566" style="fill: #1f78b4; stroke: #1f78b4"/>
    </g>
   </g>
  </g>
 </g>
 <defs>
  <clipPath id="p99a0988214">
   <rect x="0" y="0" width="460.8" height="345.6"/>
  </clipPath>
 </defs>
</svg>
