<?xml version="1.0" encoding="utf-8" standalone="no"?>
<!DOCTYPE svg PUBLIC "-//W3C//DTD SVG 1.1//EN"
  "http://www.w3.org/Graphics/SVG/1.1/DTD/svg11.dtd">
<svg xmlns:xlink="http://www.w3.org/1999/xlink" width="460.8pt" height="345.6pt" viewBox="0 0 460.8 345.6" xmlns="http://www.w3.org/2000/svg" version="1.1">
 <metadata>
  <rdf:RDF xmlns:dc="http://purl.org/dc/elements/1.1/" xmlns:cc="http://creativecommons.org/ns#" xmlns:rdf="http://www.w3.org/1999/02/22-rdf-syntax-ns#">
   <cc:Work>
    <dc:type rdf:resource="http://purl.org/dc/dcmitype/StillImage"/>
    <dc:date>2023-11-11T21:44:27.882660</dc:date>
    <dc:format>image/svg+xml</dc:format>
    <dc:creator>
     <cc:Agent>
      <dc:title>Matplotlib v3.8.1, https://matplotlib.org/</dc:title>
     </cc:Agent>
    </dc:creator>
   </cc:Work>
  </rdf:RDF>
 </metadata>
 <defs>
  <style type="text/css">*{stroke-linejoin: round; stroke-linecap: butt}</style>
 </defs>
 <g id="figure_1">
  <g id="patch_1">
   <path d="M 0 345.6 
L 460.8 345.6 
L 460.8 0 
L 0 0 
z
" style="fill: #ffffff"/>
  </g>
  <g id="axes_1">
   <g id="LineCollection_1">
    <path d="M 412.474493 61.613931 
L 420.813223 57.588603 
" clip-path="url(#p214b848485)" style="fill: none; stroke: #000000"/>
    <path d="M 215.543055 152.108919 
L 208.235373 143.800569 
" clip-path="url(#p214b848485)" style="fill: none; stroke: #000000"/>
    <path d="M 215.543055 152.108919 
L 218.683091 138.910281 
" clip-path="url(#p214b848485)" style="fill: none; stroke: #000000"/>
    <path d="M 242.179649 126.928547 
L 250.692721 110.45244 
" clip-path="url(#p214b848485)" style="fill: none; stroke: #000000"/>
    <path d="M 242.179649 126.928547 
L 235.063189 125.96813 
" clip-path="url(#p214b848485)" style="fill: none; stroke: #000000"/>
    <path d="M 242.179649 126.928547 
L 255.043094 115.636957 
" clip-path="url(#p214b848485)" style="fill: none; stroke: #000000"/>
    <path d="M 242.179649 126.928547 
L 240.900897 122.782347 
" clip-path="url(#p214b848485)" style="fill: none; stroke: #000000"/>
    <path d="M 242.179649 126.928547 
L 256.098131 130.929627 
" clip-path="url(#p214b848485)" style="fill: none; stroke: #000000"/>
    <path d="M 242.179649 126.928547 
L 215.940558 138.152771 
" clip-path="url(#p214b848485)" style="fill: none; stroke: #000000"/>
    <path d="M 170.352714 210.324544 
L 163.740401 211.374836 
" clip-path="url(#p214b848485)" style="fill: none; stroke: #000000"/>
    <path d="M 170.352714 210.324544 
L 179.561162 196.765852 
" clip-path="url(#p214b848485)" style="fill: none; stroke: #000000"/>
    <path d="M 250.692721 110.45244 
L 230.642139 116.174369 
" clip-path="url(#p214b848485)" style="fill: none; stroke: #000000"/>
    <path d="M 250.692721 110.45244 
L 264.610378 117.745906 
" clip-path="url(#p214b848485)" style="fill: none; stroke: #000000"/>
    <path d="M 250.692721 110.45244 
L 256.261004 104.512178 
" clip-path="url(#p214b848485)" style="fill: none; stroke: #000000"/>
    <path d="M 250.692721 110.45244 
L 255.043094 115.636957 
" clip-path="url(#p214b848485)" style="fill: none; stroke: #000000"/>
    <path d="M 250.692721 110.45244 
L 240.900897 122.782347 
" clip-path="url(#p214b848485)" style="fill: none; stroke: #000000"/>
    <path d="M 250.692721 110.45244 
L 264.664653 99.157411 
" clip-path="url(#p214b848485)" style="fill: none; stroke: #000000"/>
    <path d="M 250.692721 110.45244 
L 253.639223 90.985623 
" clip-path="url(#p214b848485)" style="fill: none; stroke: #000000"/>
    <path d="M 230.178817 100.836034 
L 230.642139 116.174369 
" clip-path="url(#p214b848485)" style="fill: none; stroke: #000000"/>
    <path d="M 230.178817 100.836034 
L 224.726898 101.094477 
" clip-path="url(#p214b848485)" style="fill: none; stroke: #000000"/>
    <path d="M 193.698022 109.558012 
L 175.459407 98.439868 
" clip-path="url(#p214b848485)" style="fill: none; stroke: #000000"/>
    <path d="M 193.698022 109.558012 
L 199.938021 133.264448 
" clip-path="url(#p214b848485)" style="fill: none; stroke: #000000"/>
    <path d="M 193.698022 109.558012 
L 183.999576 104.308631 
" clip-path="url(#p214b848485)" style="fill: none; stroke: #000000"/>
    <path d="M 193.698022 109.558012 
L 177.547231 107.358298 
" clip-path="url(#p214b848485)" style="fill: none; stroke: #000000"/>
    <path d="M 193.698022 109.558012 
L 230.642139 116.174369 
" clip-path="url(#p214b848485)" style="fill: none; stroke: #000000"/>
    <path d="M 193.698022 109.558012 
L 215.940558 138.152771 
" clip-path="url(#p214b848485)" style="fill: none; stroke: #000000"/>
    <path d="M 193.698022 109.558012 
L 183.851937 94.997075 
" clip-path="url(#p214b848485)" style="fill: none; stroke: #000000"/>
    <path d="M 193.698022 109.558012 
L 191.316464 94.162499 
" clip-path="url(#p214b848485)" style="fill: none; stroke: #000000"/>
    <path d="M 193.698022 109.558012 
L 167.124553 94.700973 
" clip-path="url(#p214b848485)" style="fill: none; stroke: #000000"/>
    <path d="M 193.698022 109.558012 
L 176.485397 89.6226 
" clip-path="url(#p214b848485)" style="fill: none; stroke: #000000"/>
    <path d="M 192.507219 170.966428 
L 202.992617 169.570293 
" clip-path="url(#p214b848485)" style="fill: none; stroke: #000000"/>
    <path d="M 192.507219 170.966428 
L 194.619207 188.224686 
" clip-path="url(#p214b848485)" style="fill: none; stroke: #000000"/>
    <path d="M 192.507219 170.966428 
L 194.902981 174.049598 
" clip-path="url(#p214b848485)" style="fill: none; stroke: #000000"/>
    <path d="M 192.507219 170.966428 
L 192.729987 152.314739 
" clip-path="url(#p214b848485)" style="fill: none; stroke: #000000"/>
    <path d="M 192.507219 170.966428 
L 194.513221 179.549235 
" clip-path="url(#p214b848485)" style="fill: none; stroke: #000000"/>
    <path d="M 187.189305 184.931037 
L 181.122108 184.287905 
" clip-path="url(#p214b848485)" style="fill: none; stroke: #000000"/>
    <path d="M 187.189305 184.931037 
L 194.902981 174.049598 
" clip-path="url(#p214b848485)" style="fill: none; stroke: #000000"/>
    <path d="M 187.189305 184.931037 
L 194.513221 179.549235 
" clip-path="url(#p214b848485)" style="fill: none; stroke: #000000"/>
    <path d="M 175.459407 98.439868 
L 177.547231 107.358298 
" clip-path="url(#p214b848485)" style="fill: none; stroke: #000000"/>
    <path d="M 175.459407 98.439868 
L 166.355142 88.530772 
" clip-path="url(#p214b848485)" style="fill: none; stroke: #000000"/>
    <path d="M 175.459407 98.439868 
L 167.124553 94.700973 
" clip-path="url(#p214b848485)" style="fill: none; stroke: #000000"/>
    <path d="M 175.459407 98.439868 
L 176.485397 89.6226 
" clip-path="url(#p214b848485)" style="fill: none; stroke: #000000"/>
    <path d="M 98.203038 236.676748 
L 92.752607 233.679496 
" clip-path="url(#p214b848485)" style="fill: none; stroke: #000000"/>
    <path d="M 98.203038 236.676748 
L 87.880188 242.235097 
" clip-path="url(#p214b848485)" style="fill: none; stroke: #000000"/>
    <path d="M 169.024838 72.556372 
L 176.485397 89.6226 
" clip-path="url(#p214b848485)" style="fill: none; stroke: #000000"/>
    <path d="M 353.685602 204.700226 
L 368.382607 212.31374 
" clip-path="url(#p214b848485)" style="fill: none; stroke: #000000"/>
    <path d="M 181.122108 184.287905 
L 194.902981 174.049598 
" clip-path="url(#p214b848485)" style="fill: none; stroke: #000000"/>
    <path d="M 271.598619 141.450657 
L 256.098131 130.929627 
" clip-path="url(#p214b848485)" style="fill: none; stroke: #000000"/>
    <path d="M 271.598619 141.450657 
L 275.550478 149.633744 
" clip-path="url(#p214b848485)" style="fill: none; stroke: #000000"/>
    <path d="M 199.938021 133.264448 
L 208.235373 143.800569 
" clip-path="url(#p214b848485)" style="fill: none; stroke: #000000"/>
    <path d="M 199.938021 133.264448 
L 192.729987 152.314739 
" clip-path="url(#p214b848485)" style="fill: none; stroke: #000000"/>
    <path d="M 199.938021 133.264448 
L 218.683091 138.910281 
" clip-path="url(#p214b848485)" style="fill: none; stroke: #000000"/>
    <path d="M 282.700371 115.877806 
L 264.610378 117.745906 
" clip-path="url(#p214b848485)" style="fill: none; stroke: #000000"/>
    <path d="M 209.223615 87.678038 
L 218.934612 98.158302 
" clip-path="url(#p214b848485)" style="fill: none; stroke: #000000"/>
    <path d="M 275.698138 102.962313 
L 291.158626 93.687406 
" clip-path="url(#p214b848485)" style="fill: none; stroke: #000000"/>
    <path d="M 275.698138 102.962313 
L 264.610378 117.745906 
" clip-path="url(#p214b848485)" style="fill: none; stroke: #000000"/>
    <path d="M 275.698138 102.962313 
L 256.261004 104.512178 
" clip-path="url(#p214b848485)" style="fill: none; stroke: #000000"/>
    <path d="M 401.870117 206.132173 
L 396.367252 213.516734 
" clip-path="url(#p214b848485)" style="fill: none; stroke: #000000"/>
    <path d="M 151.936819 220.566142 
L 163.740401 211.374836 
" clip-path="url(#p214b848485)" style="fill: none; stroke: #000000"/>
    <path d="M 199.295123 200.887003 
L 203.103744 206.60129 
" clip-path="url(#p214b848485)" style="fill: none; stroke: #000000"/>
    <path d="M 199.295123 200.887003 
L 195.260711 205.977405 
" clip-path="url(#p214b848485)" style="fill: none; stroke: #000000"/>
    <path d="M 199.295123 200.887003 
L 194.619207 188.224686 
" clip-path="url(#p214b848485)" style="fill: none; stroke: #000000"/>
    <path d="M 199.295123 200.887003 
L 201.699589 189.381606 
" clip-path="url(#p214b848485)" style="fill: none; stroke: #000000"/>
    <path d="M 203.103744 206.60129 
L 195.260711 205.977405 
" clip-path="url(#p214b848485)" style="fill: none; stroke: #000000"/>
    <path d="M 203.103744 206.60129 
L 201.699589 189.381606 
" clip-path="url(#p214b848485)" style="fill: none; stroke: #000000"/>
    <path d="M 195.260711 205.977405 
L 194.619207 188.224686 
" clip-path="url(#p214b848485)" style="fill: none; stroke: #000000"/>
    <path d="M 202.992617 169.570293 
L 194.619207 188.224686 
" clip-path="url(#p214b848485)" style="fill: none; stroke: #000000"/>
    <path d="M 202.992617 169.570293 
L 194.902981 174.049598 
" clip-path="url(#p214b848485)" style="fill: none; stroke: #000000"/>
    <path d="M 202.992617 169.570293 
L 215.940558 138.152771 
" clip-path="url(#p214b848485)" style="fill: none; stroke: #000000"/>
    <path d="M 202.992617 169.570293 
L 201.699589 189.381606 
" clip-path="url(#p214b848485)" style="fill: none; stroke: #000000"/>
    <path d="M 202.992617 169.570293 
L 194.513221 179.549235 
" clip-path="url(#p214b848485)" style="fill: none; stroke: #000000"/>
    <path d="M 235.063189 125.96813 
L 225.031823 116.953067 
" clip-path="url(#p214b848485)" style="fill: none; stroke: #000000"/>
    <path d="M 235.063189 125.96813 
L 230.642139 116.174369 
" clip-path="url(#p214b848485)" style="fill: none; stroke: #000000"/>
    <path d="M 235.063189 125.96813 
L 240.900897 122.782347 
" clip-path="url(#p214b848485)" style="fill: none; stroke: #000000"/>
    <path d="M 235.063189 125.96813 
L 256.098131 130.929627 
" clip-path="url(#p214b848485)" style="fill: none; stroke: #000000"/>
    <path d="M 235.063189 125.96813 
L 215.940558 138.152771 
" clip-path="url(#p214b848485)" style="fill: none; stroke: #000000"/>
    <path d="M 235.063189 125.96813 
L 238.247255 113.980024 
" clip-path="url(#p214b848485)" style="fill: none; stroke: #000000"/>
    <path d="M 208.235373 143.800569 
L 218.683091 138.910281 
" clip-path="url(#p214b848485)" style="fill: none; stroke: #000000"/>
    <path d="M 149.493617 90.734036 
L 167.124553 94.700973 
" clip-path="url(#p214b848485)" style="fill: none; stroke: #000000"/>
    <path d="M 194.619207 188.224686 
L 194.902981 174.049598 
" clip-path="url(#p214b848485)" style="fill: none; stroke: #000000"/>
    <path d="M 194.619207 188.224686 
L 179.561162 196.765852 
" clip-path="url(#p214b848485)" style="fill: none; stroke: #000000"/>
    <path d="M 194.619207 188.224686 
L 201.699589 189.381606 
" clip-path="url(#p214b848485)" style="fill: none; stroke: #000000"/>
    <path d="M 289.713786 166.951815 
L 299.250521 179.703414 
" clip-path="url(#p214b848485)" style="fill: none; stroke: #000000"/>
    <path d="M 289.713786 166.951815 
L 275.550478 149.633744 
" clip-path="url(#p214b848485)" style="fill: none; stroke: #000000"/>
    <path d="M 238.389584 144.338897 
L 228.924162 145.243216 
" clip-path="url(#p214b848485)" style="fill: none; stroke: #000000"/>
    <path d="M 238.389584 144.338897 
L 229.855852 135.10847 
" clip-path="url(#p214b848485)" style="fill: none; stroke: #000000"/>
    <path d="M 238.389584 144.338897 
L 237.034156 132.948806 
" clip-path="url(#p214b848485)" style="fill: none; stroke: #000000"/>
    <path d="M 396.367252 213.516734 
L 383.910918 214.204775 
" clip-path="url(#p214b848485)" style="fill: none; stroke: #000000"/>
    <path d="M 163.740401 211.374836 
L 179.561162 196.765852 
" clip-path="url(#p214b848485)" style="fill: none; stroke: #000000"/>
    <path d="M 230.642139 116.174369 
L 218.934612 98.158302 
" clip-path="url(#p214b848485)" style="fill: none; stroke: #000000"/>
    <path d="M 230.642139 116.174369 
L 256.261004 104.512178 
" clip-path="url(#p214b848485)" style="fill: none; stroke: #000000"/>
    <path d="M 230.642139 116.174369 
L 240.900897 122.782347 
" clip-path="url(#p214b848485)" style="fill: none; stroke: #000000"/>
    <path d="M 230.642139 116.174369 
L 256.098131 130.929627 
" clip-path="url(#p214b848485)" style="fill: none; stroke: #000000"/>
    <path d="M 230.642139 116.174369 
L 215.940558 138.152771 
" clip-path="url(#p214b848485)" style="fill: none; stroke: #000000"/>
    <path d="M 230.642139 116.174369 
L 224.726898 101.094477 
" clip-path="url(#p214b848485)" style="fill: none; stroke: #000000"/>
    <path d="M 230.642139 116.174369 
L 239.832543 96.671877 
" clip-path="url(#p214b848485)" style="fill: none; stroke: #000000"/>
    <path d="M 230.642139 116.174369 
L 229.855852 135.10847 
" clip-path="url(#p214b848485)" style="fill: none; stroke: #000000"/>
    <path d="M 230.642139 116.174369 
L 235.760726 93.997102 
" clip-path="url(#p214b848485)" style="fill: none; stroke: #000000"/>
    <path d="M 230.642139 116.174369 
L 237.034156 132.948806 
" clip-path="url(#p214b848485)" style="fill: none; stroke: #000000"/>
    <path d="M 230.642139 116.174369 
L 218.80667 124.561878 
" clip-path="url(#p214b848485)" style="fill: none; stroke: #000000"/>
    <path d="M 230.642139 116.174369 
L 218.683091 138.910281 
" clip-path="url(#p214b848485)" style="fill: none; stroke: #000000"/>
    <path d="M 230.642139 116.174369 
L 238.247255 113.980024 
" clip-path="url(#p214b848485)" style="fill: none; stroke: #000000"/>
    <path d="M 383.910918 214.204775 
L 368.382607 212.31374 
" clip-path="url(#p214b848485)" style="fill: none; stroke: #000000"/>
    <path d="M 52.416507 202.409668 
L 39.986777 206.109386 
" clip-path="url(#p214b848485)" style="fill: none; stroke: #000000"/>
    <path d="M 264.610378 117.745906 
L 240.900897 122.782347 
" clip-path="url(#p214b848485)" style="fill: none; stroke: #000000"/>
    <path d="M 264.610378 117.745906 
L 256.098131 130.929627 
" clip-path="url(#p214b848485)" style="fill: none; stroke: #000000"/>
    <path d="M 264.610378 117.745906 
L 271.110717 127.37099 
" clip-path="url(#p214b848485)" style="fill: none; stroke: #000000"/>
    <path d="M 194.902981 174.049598 
L 179.561162 196.765852 
" clip-path="url(#p214b848485)" style="fill: none; stroke: #000000"/>
    <path d="M 194.902981 174.049598 
L 215.940558 138.152771 
" clip-path="url(#p214b848485)" style="fill: none; stroke: #000000"/>
    <path d="M 194.902981 174.049598 
L 177.828207 177.002493 
" clip-path="url(#p214b848485)" style="fill: none; stroke: #000000"/>
    <path d="M 194.902981 174.049598 
L 201.699589 189.381606 
" clip-path="url(#p214b848485)" style="fill: none; stroke: #000000"/>
    <path d="M 194.902981 174.049598 
L 194.513221 179.549235 
" clip-path="url(#p214b848485)" style="fill: none; stroke: #000000"/>
    <path d="M 218.934612 98.158302 
L 224.726898 101.094477 
" clip-path="url(#p214b848485)" style="fill: none; stroke: #000000"/>
    <path d="M 256.261004 104.512178 
L 255.043094 115.636957 
" clip-path="url(#p214b848485)" style="fill: none; stroke: #000000"/>
    <path d="M 256.261004 104.512178 
L 268.474514 89.188471 
" clip-path="url(#p214b848485)" style="fill: none; stroke: #000000"/>
    <path d="M 201.221072 139.060606 
L 215.940558 138.152771 
" clip-path="url(#p214b848485)" style="fill: none; stroke: #000000"/>
    <path d="M 192.729987 152.314739 
L 201.276568 147.602749 
" clip-path="url(#p214b848485)" style="fill: none; stroke: #000000"/>
    <path d="M 240.900897 122.782347 
L 215.940558 138.152771 
" clip-path="url(#p214b848485)" style="fill: none; stroke: #000000"/>
    <path d="M 256.098131 130.929627 
L 271.110717 127.37099 
" clip-path="url(#p214b848485)" style="fill: none; stroke: #000000"/>
    <path d="M 256.098131 130.929627 
L 275.550478 149.633744 
" clip-path="url(#p214b848485)" style="fill: none; stroke: #000000"/>
    <path d="M 228.924162 145.243216 
L 215.940558 138.152771 
" clip-path="url(#p214b848485)" style="fill: none; stroke: #000000"/>
    <path d="M 228.924162 145.243216 
L 229.855852 135.10847 
" clip-path="url(#p214b848485)" style="fill: none; stroke: #000000"/>
    <path d="M 244.608116 84.048434 
L 239.832543 96.671877 
" clip-path="url(#p214b848485)" style="fill: none; stroke: #000000"/>
    <path d="M 244.608116 84.048434 
L 235.760726 93.997102 
" clip-path="url(#p214b848485)" style="fill: none; stroke: #000000"/>
    <path d="M 244.608116 84.048434 
L 253.639223 90.985623 
" clip-path="url(#p214b848485)" style="fill: none; stroke: #000000"/>
    <path d="M 92.752607 233.679496 
L 87.880188 242.235097 
" clip-path="url(#p214b848485)" style="fill: none; stroke: #000000"/>
    <path d="M 166.355142 88.530772 
L 167.124553 94.700973 
" clip-path="url(#p214b848485)" style="fill: none; stroke: #000000"/>
    <path d="M 166.355142 88.530772 
L 176.485397 89.6226 
" clip-path="url(#p214b848485)" style="fill: none; stroke: #000000"/>
    <path d="M 215.940558 138.152771 
L 229.855852 135.10847 
" clip-path="url(#p214b848485)" style="fill: none; stroke: #000000"/>
    <path d="M 215.940558 138.152771 
L 201.276568 147.602749 
" clip-path="url(#p214b848485)" style="fill: none; stroke: #000000"/>
    <path d="M 215.940558 138.152771 
L 218.80667 124.561878 
" clip-path="url(#p214b848485)" style="fill: none; stroke: #000000"/>
    <path d="M 229.855852 135.10847 
L 237.034156 132.948806 
" clip-path="url(#p214b848485)" style="fill: none; stroke: #000000"/>
    <path d="M 226.098049 155.526265 
L 218.683091 138.910281 
" clip-path="url(#p214b848485)" style="fill: none; stroke: #000000"/>
    <path d="M 368.382607 212.31374 
L 374.935952 222.88867 
" clip-path="url(#p214b848485)" style="fill: none; stroke: #000000"/>
    <path d="M 183.851937 94.997075 
L 176.485397 89.6226 
" clip-path="url(#p214b848485)" style="fill: none; stroke: #000000"/>
    <path d="M 167.124553 94.700973 
L 151.716978 83.440134 
" clip-path="url(#p214b848485)" style="fill: none; stroke: #000000"/>
    <path d="M 167.124553 94.700973 
L 164.063037 82.565676 
" clip-path="url(#p214b848485)" style="fill: none; stroke: #000000"/>
    <path d="M 176.485397 89.6226 
L 164.063037 82.565676 
" clip-path="url(#p214b848485)" style="fill: none; stroke: #000000"/>
   </g>
   <g id="PathCollection_1">
    <defs>
     <path id="m04ba4d2316" d="M 0 2.5 
C 0.663008 2.5 1.29895 2.236584 1.767767 1.767767 
C 2.236584 1.29895 2.5 0.663008 2.5 0 
C 2.5 -0.663008 2.236584 -1.29895 1.767767 -1.767767 
C 1.29895 -2.236584 0.663008 -2.5 0 -2.5 
C -0.663008 -2.5 -1.29895 -2.236584 -1.767767 -1.767767 
C -2.236584 -1.29895 -2.5 -0.663008 -2.5 0 
C -2.5 0.663008 -2.236584 1.29895 -1.767767 1.767767 
C -1.29895 2.236584 -0.663008 2.5 0 2.5 
z
" style="stroke: #1f78b4"/>
    </defs>
    <g clip-path="url(#p214b848485)">
     <use xlink:href="#m04ba4d2316" x="412.474493" y="61.613931" style="fill: #1f78b4; stroke: #1f78b4"/>
     <use xlink:href="#m04ba4d2316" x="215.543055" y="152.108919" style="fill: #1f78b4; stroke: #1f78b4"/>
     <use xlink:href="#m04ba4d2316" x="242.179649" y="126.928547" style="fill: #1f78b4; stroke: #1f78b4"/>
     <use xlink:href="#m04ba4d2316" x="170.352714" y="210.324544" style="fill: #1f78b4; stroke: #1f78b4"/>
     <use xlink:href="#m04ba4d2316" x="193.5552" y="320.170197" style="fill: #1f78b4; stroke: #1f78b4"/>
     <use xlink:href="#m04ba4d2316" x="250.692721" y="110.45244" style="fill: #1f78b4; stroke: #1f78b4"/>
     <use xlink:href="#m04ba4d2316" x="230.178817" y="100.836034" style="fill: #1f78b4; stroke: #1f78b4"/>
     <use xlink:href="#m04ba4d2316" x="193.698022" y="109.558012" style="fill: #1f78b4; stroke: #1f78b4"/>
     <use xlink:href="#m04ba4d2316" x="192.507219" y="170.966428" style="fill: #1f78b4; stroke: #1f78b4"/>
     <use xlink:href="#m04ba4d2316" x="187.189305" y="184.931037" style="fill: #1f78b4; stroke: #1f78b4"/>
     <use xlink:href="#m04ba4d2316" x="175.459407" y="98.439868" style="fill: #1f78b4; stroke: #1f78b4"/>
     <use xlink:href="#m04ba4d2316" x="98.203038" y="236.676748" style="fill: #1f78b4; stroke: #1f78b4"/>
     <use xlink:href="#m04ba4d2316" x="169.024838" y="72.556372" style="fill: #1f78b4; stroke: #1f78b4"/>
     <use xlink:href="#m04ba4d2316" x="353.685602" y="204.700226" style="fill: #1f78b4; stroke: #1f78b4"/>
     <use xlink:href="#m04ba4d2316" x="181.122108" y="184.287905" style="fill: #1f78b4; stroke: #1f78b4"/>
     <use xlink:href="#m04ba4d2316" x="271.598619" y="141.450657" style="fill: #1f78b4; stroke: #1f78b4"/>
     <use xlink:href="#m04ba4d2316" x="199.938021" y="133.264448" style="fill: #1f78b4; stroke: #1f78b4"/>
     <use xlink:href="#m04ba4d2316" x="282.700371" y="115.877806" style="fill: #1f78b4; stroke: #1f78b4"/>
     <use xlink:href="#m04ba4d2316" x="209.223615" y="87.678038" style="fill: #1f78b4; stroke: #1f78b4"/>
     <use xlink:href="#m04ba4d2316" x="275.698138" y="102.962313" style="fill: #1f78b4; stroke: #1f78b4"/>
     <use xlink:href="#m04ba4d2316" x="401.870117" y="206.132173" style="fill: #1f78b4; stroke: #1f78b4"/>
     <use xlink:href="#m04ba4d2316" x="151.936819" y="220.566142" style="fill: #1f78b4; stroke: #1f78b4"/>
     <use xlink:href="#m04ba4d2316" x="199.295123" y="200.887003" style="fill: #1f78b4; stroke: #1f78b4"/>
     <use xlink:href="#m04ba4d2316" x="291.158626" y="93.687406" style="fill: #1f78b4; stroke: #1f78b4"/>
     <use xlink:href="#m04ba4d2316" x="203.103744" y="206.60129" style="fill: #1f78b4; stroke: #1f78b4"/>
     <use xlink:href="#m04ba4d2316" x="195.260711" y="205.977405" style="fill: #1f78b4; stroke: #1f78b4"/>
     <use xlink:href="#m04ba4d2316" x="183.999576" y="104.308631" style="fill: #1f78b4; stroke: #1f78b4"/>
     <use xlink:href="#m04ba4d2316" x="202.992617" y="169.570293" style="fill: #1f78b4; stroke: #1f78b4"/>
     <use xlink:href="#m04ba4d2316" x="235.063189" y="125.96813" style="fill: #1f78b4; stroke: #1f78b4"/>
     <use xlink:href="#m04ba4d2316" x="177.547231" y="107.358298" style="fill: #1f78b4; stroke: #1f78b4"/>
     <use xlink:href="#m04ba4d2316" x="239.627389" y="329.890909" style="fill: #1f78b4; stroke: #1f78b4"/>
     <use xlink:href="#m04ba4d2316" x="208.235373" y="143.800569" style="fill: #1f78b4; stroke: #1f78b4"/>
     <use xlink:href="#m04ba4d2316" x="149.493617" y="90.734036" style="fill: #1f78b4; stroke: #1f78b4"/>
     <use xlink:href="#m04ba4d2316" x="194.619207" y="188.224686" style="fill: #1f78b4; stroke: #1f78b4"/>
     <use xlink:href="#m04ba4d2316" x="225.031823" y="116.953067" style="fill: #1f78b4; stroke: #1f78b4"/>
     <use xlink:href="#m04ba4d2316" x="289.713786" y="166.951815" style="fill: #1f78b4; stroke: #1f78b4"/>
     <use xlink:href="#m04ba4d2316" x="238.389584" y="144.338897" style="fill: #1f78b4; stroke: #1f78b4"/>
     <use xlink:href="#m04ba4d2316" x="396.367252" y="213.516734" style="fill: #1f78b4; stroke: #1f78b4"/>
     <use xlink:href="#m04ba4d2316" x="163.740401" y="211.374836" style="fill: #1f78b4; stroke: #1f78b4"/>
     <use xlink:href="#m04ba4d2316" x="230.642139" y="116.174369" style="fill: #1f78b4; stroke: #1f78b4"/>
     <use xlink:href="#m04ba4d2316" x="383.910918" y="214.204775" style="fill: #1f78b4; stroke: #1f78b4"/>
     <use xlink:href="#m04ba4d2316" x="52.416507" y="202.409668" style="fill: #1f78b4; stroke: #1f78b4"/>
     <use xlink:href="#m04ba4d2316" x="264.610378" y="117.745906" style="fill: #1f78b4; stroke: #1f78b4"/>
     <use xlink:href="#m04ba4d2316" x="194.902981" y="174.049598" style="fill: #1f78b4; stroke: #1f78b4"/>
     <use xlink:href="#m04ba4d2316" x="218.934612" y="98.158302" style="fill: #1f78b4; stroke: #1f78b4"/>
     <use xlink:href="#m04ba4d2316" x="256.261004" y="104.512178" style="fill: #1f78b4; stroke: #1f78b4"/>
     <use xlink:href="#m04ba4d2316" x="201.221072" y="139.060606" style="fill: #1f78b4; stroke: #1f78b4"/>
     <use xlink:href="#m04ba4d2316" x="31.242552" y="157.980131" style="fill: #1f78b4; stroke: #1f78b4"/>
     <use xlink:href="#m04ba4d2316" x="179.561162" y="196.765852" style="fill: #1f78b4; stroke: #1f78b4"/>
     <use xlink:href="#m04ba4d2316" x="255.043094" y="115.636957" style="fill: #1f78b4; stroke: #1f78b4"/>
     <use xlink:href="#m04ba4d2316" x="192.729987" y="152.314739" style="fill: #1f78b4; stroke: #1f78b4"/>
     <use xlink:href="#m04ba4d2316" x="240.900897" y="122.782347" style="fill: #1f78b4; stroke: #1f78b4"/>
     <use xlink:href="#m04ba4d2316" x="256.098131" y="130.929627" style="fill: #1f78b4; stroke: #1f78b4"/>
     <use xlink:href="#m04ba4d2316" x="228.924162" y="145.243216" style="fill: #1f78b4; stroke: #1f78b4"/>
     <use xlink:href="#m04ba4d2316" x="244.608116" y="84.048434" style="fill: #1f78b4; stroke: #1f78b4"/>
     <use xlink:href="#m04ba4d2316" x="92.752607" y="233.679496" style="fill: #1f78b4; stroke: #1f78b4"/>
     <use xlink:href="#m04ba4d2316" x="166.355142" y="88.530772" style="fill: #1f78b4; stroke: #1f78b4"/>
     <use xlink:href="#m04ba4d2316" x="215.940558" y="138.152771" style="fill: #1f78b4; stroke: #1f78b4"/>
     <use xlink:href="#m04ba4d2316" x="268.474514" y="89.188471" style="fill: #1f78b4; stroke: #1f78b4"/>
     <use xlink:href="#m04ba4d2316" x="224.726898" y="101.094477" style="fill: #1f78b4; stroke: #1f78b4"/>
     <use xlink:href="#m04ba4d2316" x="239.832543" y="96.671877" style="fill: #1f78b4; stroke: #1f78b4"/>
     <use xlink:href="#m04ba4d2316" x="264.664653" y="99.157411" style="fill: #1f78b4; stroke: #1f78b4"/>
     <use xlink:href="#m04ba4d2316" x="271.110717" y="127.37099" style="fill: #1f78b4; stroke: #1f78b4"/>
     <use xlink:href="#m04ba4d2316" x="299.250521" y="179.703414" style="fill: #1f78b4; stroke: #1f78b4"/>
     <use xlink:href="#m04ba4d2316" x="229.855852" y="135.10847" style="fill: #1f78b4; stroke: #1f78b4"/>
     <use xlink:href="#m04ba4d2316" x="235.760726" y="93.997102" style="fill: #1f78b4; stroke: #1f78b4"/>
     <use xlink:href="#m04ba4d2316" x="275.550478" y="149.633744" style="fill: #1f78b4; stroke: #1f78b4"/>
     <use xlink:href="#m04ba4d2316" x="226.098049" y="155.526265" style="fill: #1f78b4; stroke: #1f78b4"/>
     <use xlink:href="#m04ba4d2316" x="368.382607" y="212.31374" style="fill: #1f78b4; stroke: #1f78b4"/>
     <use xlink:href="#m04ba4d2316" x="183.851937" y="94.997075" style="fill: #1f78b4; stroke: #1f78b4"/>
     <use xlink:href="#m04ba4d2316" x="237.034156" y="132.948806" style="fill: #1f78b4; stroke: #1f78b4"/>
     <use xlink:href="#m04ba4d2316" x="191.316464" y="94.162499" style="fill: #1f78b4; stroke: #1f78b4"/>
     <use xlink:href="#m04ba4d2316" x="253.639223" y="90.985623" style="fill: #1f78b4; stroke: #1f78b4"/>
     <use xlink:href="#m04ba4d2316" x="167.124553" y="94.700973" style="fill: #1f78b4; stroke: #1f78b4"/>
     <use xlink:href="#m04ba4d2316" x="374.935952" y="222.88867" style="fill: #1f78b4; stroke: #1f78b4"/>
     <use xlink:href="#m04ba4d2316" x="354.229156" y="16.928989" style="fill: #1f78b4; stroke: #1f78b4"/>
     <use xlink:href="#m04ba4d2316" x="176.485397" y="89.6226" style="fill: #1f78b4; stroke: #1f78b4"/>
     <use xlink:href="#m04ba4d2316" x="363.525156" y="313.125288" style="fill: #1f78b4; stroke: #1f78b4"/>
     <use xlink:href="#m04ba4d2316" x="201.276568" y="147.602749" style="fill: #1f78b4; stroke: #1f78b4"/>
     <use xlink:href="#m04ba4d2316" x="218.80667" y="124.561878" style="fill: #1f78b4; stroke: #1f78b4"/>
     <use xlink:href="#m04ba4d2316" x="177.828207" y="177.002493" style="fill: #1f78b4; stroke: #1f78b4"/>
     <use xlink:href="#m04ba4d2316" x="218.683091" y="138.910281" style="fill: #1f78b4; stroke: #1f78b4"/>
     <use xlink:href="#m04ba4d2316" x="201.699589" y="189.381606" style="fill: #1f78b4; stroke: #1f78b4"/>
     <use xlink:href="#m04ba4d2316" x="238.247255" y="113.980024" style="fill: #1f78b4; stroke: #1f78b4"/>
     <use xlink:href="#m04ba4d2316" x="424.637971" y="215.653651" style="fill: #1f78b4; stroke: #1f78b4"/>
     <use xlink:href="#m04ba4d2316" x="151.716978" y="83.440134" style="fill: #1f78b4; stroke: #1f78b4"/>
     <use xlink:href="#m04ba4d2316" x="39.986777" y="206.109386" style="fill: #1f78b4; stroke: #1f78b4"/>
     <use xlink:href="#m04ba4d2316" x="382.652804" y="15.709091" style="fill: #1f78b4; stroke: #1f78b4"/>
     <use xlink:href="#m04ba4d2316" x="194.513221" y="179.549235" style="fill: #1f78b4; stroke: #1f78b4"/>
     <use xlink:href="#m04ba4d2316" x="164.063037" y="82.565676" style="fill: #1f78b4; stroke: #1f78b4"/>
     <use xlink:href="#m04ba4d2316" x="432.816202" y="110.270348" style="fill: #1f78b4; stroke: #1f78b4"/>
     <use xlink:href="#m04ba4d2316" x="420.813223" y="57.588603" style="fill: #1f78b4; stroke: #1f78b4"/>
     <use xlink:href="#m04ba4d2316" x="87.880188" y="242.235097" style="fill: #1f78b4; stroke: #1f78b4"/>
    </g>
   </g>
  </g>
 </g>
 <defs>
  <clipPath id="p214b848485">
   <rect x="0" y="0" width="460.8" height="345.6"/>
  </clipPath>
 </defs>
</svg>
