<?xml version="1.0" encoding="utf-8" standalone="no"?>
<!DOCTYPE svg PUBLIC "-//W3C//DTD SVG 1.1//EN"
  "http://www.w3.org/Graphics/SVG/1.1/DTD/svg11.dtd">
<svg xmlns:xlink="http://www.w3.org/1999/xlink" width="460.8pt" height="345.6pt" viewBox="0 0 460.8 345.6" xmlns="http://www.w3.org/2000/svg" version="1.1">
 <metadata>
  <rdf:RDF xmlns:dc="http://purl.org/dc/elements/1.1/" xmlns:cc="http://creativecommons.org/ns#" xmlns:rdf="http://www.w3.org/1999/02/22-rdf-syntax-ns#">
   <cc:Work>
    <dc:type rdf:resource="http://purl.org/dc/dcmitype/StillImage"/>
    <dc:date>2023-05-08T17:56:08.586000</dc:date>
    <dc:format>image/svg+xml</dc:format>
    <dc:creator>
     <cc:Agent>
      <dc:title>Matplotlib v3.7.1, https://matplotlib.org/</dc:title>
     </cc:Agent>
    </dc:creator>
   </cc:Work>
  </rdf:RDF>
 </metadata>
 <defs>
  <style type="text/css">*{stroke-linejoin: round; stroke-linecap: butt}</style>
 </defs>
 <g id="figure_1">
  <g id="patch_1">
   <path d="M 0 345.6 
L 460.8 345.6 
L 460.8 0 
L 0 0 
z
" style="fill: #ffffff"/>
  </g>
  <g id="axes_1">
   <g id="LineCollection_1">
    <path d="M 416.934579 113.02871 
L 423.513008 131.200524 
" clip-path="url(#p774bf2d10d)" style="fill: none; stroke: #000000"/>
    <path d="M 416.934579 113.02871 
L 397.708536 127.120661 
" clip-path="url(#p774bf2d10d)" style="fill: none; stroke: #000000"/>
    <path d="M 123.960047 279.873047 
L 96.682254 290.730621 
" clip-path="url(#p774bf2d10d)" style="fill: none; stroke: #000000"/>
    <path d="M 123.960047 279.873047 
L 155.457896 270.308521 
" clip-path="url(#p774bf2d10d)" style="fill: none; stroke: #000000"/>
    <path d="M 184.957544 271.339706 
L 155.457896 270.308521 
" clip-path="url(#p774bf2d10d)" style="fill: none; stroke: #000000"/>
    <path d="M 423.513008 131.200524 
L 397.708536 127.120661 
" clip-path="url(#p774bf2d10d)" style="fill: none; stroke: #000000"/>
   </g>
   <g id="PathCollection_1">
    <defs>
     <path id="m261bcfea61" d="M 0 5 
C 1.326016 5 2.597899 4.473168 3.535534 3.535534 
C 4.473168 2.597899 5 1.326016 5 0 
C 5 -1.326016 4.473168 -2.597899 3.535534 -3.535534 
C 2.597899 -4.473168 1.326016 -5 0 -5 
C -1.326016 -5 -2.597899 -4.473168 -3.535534 -3.535534 
C -4.473168 -2.597899 -5 -1.326016 -5 0 
C -5 1.326016 -4.473168 2.597899 -3.535534 3.535534 
C -2.597899 4.473168 -1.326016 5 0 5 
z
" style="stroke: #1f78b4"/>
    </defs>
    <g clip-path="url(#p774bf2d10d)">
     <use xlink:href="#m261bcfea61" x="416.934579" y="113.02871" style="fill: #1f78b4; stroke: #1f78b4"/>
     <use xlink:href="#m261bcfea61" x="113.602194" y="55.242344" style="fill: #1f78b4; stroke: #1f78b4"/>
     <use xlink:href="#m261bcfea61" x="123.960047" y="279.873047" style="fill: #1f78b4; stroke: #1f78b4"/>
     <use xlink:href="#m261bcfea61" x="96.682254" y="290.730621" style="fill: #1f78b4; stroke: #1f78b4"/>
     <use xlink:href="#m261bcfea61" x="184.957544" y="271.339706" style="fill: #1f78b4; stroke: #1f78b4"/>
     <use xlink:href="#m261bcfea61" x="423.513008" y="131.200524" style="fill: #1f78b4; stroke: #1f78b4"/>
     <use xlink:href="#m261bcfea61" x="155.457896" y="270.308521" style="fill: #1f78b4; stroke: #1f78b4"/>
     <use xlink:href="#m261bcfea61" x="348.092709" y="329.890909" style="fill: #1f78b4; stroke: #1f78b4"/>
     <use xlink:href="#m261bcfea61" x="397.708536" y="127.120661" style="fill: #1f78b4; stroke: #1f78b4"/>
     <use xlink:href="#m261bcfea61" x="20.945455" y="148.878347" style="fill: #1f78b4; stroke: #1f78b4"/>
     <use xlink:href="#m261bcfea61" x="249.569303" y="15.709091" style="fill: #1f78b4; stroke: #1f78b4"/>
    </g>
   </g>
  </g>
 </g>
 <defs>
  <clipPath id="p774bf2d10d">
   <rect x="0" y="0" width="460.8" height="345.6"/>
  </clipPath>
 </defs>
</svg>
