<?xml version="1.0" encoding="utf-8" standalone="no"?>
<!DOCTYPE svg PUBLIC "-//W3C//DTD SVG 1.1//EN"
  "http://www.w3.org/Graphics/SVG/1.1/DTD/svg11.dtd">
<svg xmlns:xlink="http://www.w3.org/1999/xlink" width="460.8pt" height="345.6pt" viewBox="0 0 460.8 345.6" xmlns="http://www.w3.org/2000/svg" version="1.1">
 <metadata>
  <rdf:RDF xmlns:dc="http://purl.org/dc/elements/1.1/" xmlns:cc="http://creativecommons.org/ns#" xmlns:rdf="http://www.w3.org/1999/02/22-rdf-syntax-ns#">
   <cc:Work>
    <dc:type rdf:resource="http://purl.org/dc/dcmitype/StillImage"/>
    <dc:date>2023-05-08T17:42:28.392357</dc:date>
    <dc:format>image/svg+xml</dc:format>
    <dc:creator>
     <cc:Agent>
      <dc:title>Matplotlib v3.7.1, https://matplotlib.org/</dc:title>
     </cc:Agent>
    </dc:creator>
   </cc:Work>
  </rdf:RDF>
 </metadata>
 <defs>
  <style type="text/css">*{stroke-linejoin: round; stroke-linecap: butt}</style>
 </defs>
 <g id="figure_1">
  <g id="patch_1">
   <path d="M 0 345.6 
L 460.8 345.6 
L 460.8 0 
L 0 0 
z
" style="fill: #ffffff"/>
  </g>
  <g id="axes_1">
   <g id="patch_2">
    <path d="M 368.669508 224.997983 
Q 393.768239 235.885762 417.841285 246.328601 
" clip-path="url(#pcbb17da2fa)" style="fill: none; stroke: #000000; stroke-linecap: round"/>
    <path d="M 414.967618 242.901936 
L 417.841285 246.328601 
L 413.375752 246.571536 
z
" clip-path="url(#pcbb17da2fa)" style="stroke: #000000; stroke-linecap: round"/>
   </g>
   <g id="patch_3">
    <path d="M 367.958519 226.064515 
Q 386.058969 243.750193 403.35974 260.654517 
" clip-path="url(#pcbb17da2fa)" style="fill: none; stroke: #000000; stroke-linecap: round"/>
    <path d="M 401.896452 256.428552 
L 403.35974 260.654517 
L 399.100995 259.289569 
z
" clip-path="url(#pcbb17da2fa)" style="stroke: #000000; stroke-linecap: round"/>
   </g>
   <g id="patch_4">
    <path d="M 129.769422 158.551743 
Q 99.321279 218.597672 69.378777 277.64644 
" clip-path="url(#pcbb17da2fa)" style="fill: none; stroke: #000000; stroke-linecap: round"/>
    <path d="M 72.971586 274.98341 
L 69.378777 277.64644 
L 69.404039 273.174375 
z
" clip-path="url(#pcbb17da2fa)" style="stroke: #000000; stroke-linecap: round"/>
   </g>
   <g id="patch_5">
    <path d="M 132.997321 152.264288 
Q 164.375718 91.889248 195.238523 32.506258 
" clip-path="url(#pcbb17da2fa)" style="fill: none; stroke: #000000; stroke-linecap: round"/>
    <path d="M 191.619247 35.133204 
L 195.238523 32.506258 
L 195.168515 36.977846 
z
" clip-path="url(#pcbb17da2fa)" style="stroke: #000000; stroke-linecap: round"/>
   </g>
   <g id="patch_6">
    <path d="M 128.957306 124.806639 
Q 106.446093 108.612138 84.842463 93.070549 
" clip-path="url(#pcbb17da2fa)" style="fill: none; stroke: #000000; stroke-linecap: round"/>
    <path d="M 86.921563 97.030011 
L 84.842463 93.070549 
L 89.257493 93.782946 
z
" clip-path="url(#pcbb17da2fa)" style="stroke: #000000; stroke-linecap: round"/>
   </g>
   <g id="patch_7">
    <path d="M 135.125654 125.583428 
Q 149.341233 120.022775 162.515602 114.869408 
" clip-path="url(#pcbb17da2fa)" style="fill: none; stroke: #000000; stroke-linecap: round"/>
    <path d="M 158.061881 114.463986 
L 162.515602 114.869408 
L 159.519032 118.189132 
z
" clip-path="url(#pcbb17da2fa)" style="stroke: #000000; stroke-linecap: round"/>
   </g>
   <g id="patch_8">
    <path d="M 248.265505 154.487815 
Q 221.747068 176.610312 196.08715 198.016606 
" clip-path="url(#pcbb17da2fa)" style="fill: none; stroke: #000000; stroke-linecap: round"/>
    <path d="M 200.439861 196.990006 
L 196.08715 198.016606 
L 197.877497 193.918477 
z
" clip-path="url(#pcbb17da2fa)" style="stroke: #000000; stroke-linecap: round"/>
   </g>
   <g id="patch_9">
    <path d="M 253.843154 150.14901 
Q 294.358757 120.797998 333.968947 92.102903 
" clip-path="url(#pcbb17da2fa)" style="fill: none; stroke: #000000; stroke-linecap: round"/>
    <path d="M 329.556301 92.829924 
L 333.968947 92.102903 
L 331.902977 96.069232 
z
" clip-path="url(#pcbb17da2fa)" style="stroke: #000000; stroke-linecap: round"/>
   </g>
   <g id="patch_10">
    <path d="M 248.685364 154.907252 
Q 234.67105 171.29715 221.383322 186.8373 
" clip-path="url(#pcbb17da2fa)" style="fill: none; stroke: #000000; stroke-linecap: round"/>
    <path d="M 225.502909 185.096898 
L 221.383322 186.8373 
L 222.462753 182.497389 
z
" clip-path="url(#pcbb17da2fa)" style="stroke: #000000; stroke-linecap: round"/>
   </g>
   <g id="patch_11">
    <path d="M 247.58354 153.21029 
Q 221.085803 160.914783 195.661639 168.307124 
" clip-path="url(#pcbb17da2fa)" style="fill: none; stroke: #000000; stroke-linecap: round"/>
    <path d="M 200.060969 169.110799 
L 195.661639 168.307124 
L 198.944177 165.269865 
z
" clip-path="url(#pcbb17da2fa)" style="stroke: #000000; stroke-linecap: round"/>
   </g>
   <g id="patch_12">
    <path d="M 192.36767 197.466295 
Q 191.8539 185.303379 191.387314 174.257501 
" clip-path="url(#pcbb17da2fa)" style="fill: none; stroke: #000000; stroke-linecap: round"/>
    <path d="M 189.557908 178.338343 
L 191.387314 174.257501 
L 193.554344 178.169531 
z
" clip-path="url(#pcbb17da2fa)" style="stroke: #000000; stroke-linecap: round"/>
   </g>
   <g id="patch_13">
    <path d="M 200.196291 161.605495 
Q 208.334586 174.495226 215.875995 186.439585 
" clip-path="url(#pcbb17da2fa)" style="fill: none; stroke: #000000; stroke-linecap: round"/>
    <path d="M 215.431639 181.98958 
L 215.875995 186.439585 
L 212.049377 184.125066 
z
" clip-path="url(#pcbb17da2fa)" style="stroke: #000000; stroke-linecap: round"/>
   </g>
   <g id="patch_14">
    <path d="M 196.295179 155.707093 
Q 182.579363 135.8925 169.499882 116.99719 
" clip-path="url(#pcbb17da2fa)" style="fill: none; stroke: #000000; stroke-linecap: round"/>
    <path d="M 170.132038 121.424421 
L 169.499882 116.99719 
L 173.420961 119.147803 
z
" clip-path="url(#pcbb17da2fa)" style="stroke: #000000; stroke-linecap: round"/>
   </g>
   <g id="patch_15">
    <path d="M 419.636299 250.705424 
Q 414.399063 256.043511 409.944822 260.583525 
" clip-path="url(#pcbb17da2fa)" style="fill: none; stroke: #000000; stroke-linecap: round"/>
    <path d="M 414.173783 259.128918 
L 409.944822 260.583525 
L 411.318513 256.327591 
z
" clip-path="url(#pcbb17da2fa)" style="stroke: #000000; stroke-linecap: round"/>
   </g>
   <g id="patch_16">
    <path d="M 216.472654 187.384596 
Q 208.334359 174.494866 200.79295 162.550506 
" clip-path="url(#pcbb17da2fa)" style="fill: none; stroke: #000000; stroke-linecap: round"/>
    <path d="M 201.237306 167.000512 
L 200.79295 162.550506 
L 204.619568 164.865025 
z
" clip-path="url(#pcbb17da2fa)" style="stroke: #000000; stroke-linecap: round"/>
   </g>
   <g id="patch_17">
    <path d="M 163.436239 112.264153 
Q 123.959902 101.763812 85.56403 91.550865 
" clip-path="url(#pcbb17da2fa)" style="fill: none; stroke: #000000; stroke-linecap: round"/>
    <path d="M 88.915514 94.511871 
L 85.56403 91.550865 
L 89.943725 90.646281 
z
" clip-path="url(#pcbb17da2fa)" style="stroke: #000000; stroke-linecap: round"/>
   </g>
   <g id="patch_18">
    <path d="M 163.556415 114.462277 
Q 149.340836 120.02293 136.166467 125.176297 
" clip-path="url(#pcbb17da2fa)" style="fill: none; stroke: #000000; stroke-linecap: round"/>
    <path d="M 140.620188 125.581719 
L 136.166467 125.176297 
L 139.163037 121.856573 
z
" clip-path="url(#pcbb17da2fa)" style="stroke: #000000; stroke-linecap: round"/>
   </g>
   <g id="patch_19">
    <path d="M 168.81594 116.115503 
Q 192.607333 151.77485 215.778218 186.504158 
" clip-path="url(#pcbb17da2fa)" style="fill: none; stroke: #000000; stroke-linecap: round"/>
    <path d="M 215.221925 182.066756 
L 215.778218 186.504158 
L 211.89452 184.286752 
z
" clip-path="url(#pcbb17da2fa)" style="stroke: #000000; stroke-linecap: round"/>
   </g>
   <g id="patch_20">
    <path d="M 168.049923 109.847734 
Q 182.118044 70.775915 195.807411 32.756021 
" clip-path="url(#pcbb17da2fa)" style="fill: none; stroke: #000000; stroke-linecap: round"/>
    <path d="M 192.5706 35.841965 
L 195.807411 32.756021 
L 196.33408 37.197036 
z
" clip-path="url(#pcbb17da2fa)" style="stroke: #000000; stroke-linecap: round"/>
   </g>
   <g id="patch_21">
    <path d="M 185.786184 127.384536 
Q 177.73274 121.339557 170.573461 115.965745 
" clip-path="url(#pcbb17da2fa)" style="fill: none; stroke: #000000; stroke-linecap: round"/>
    <path d="M 172.571905 119.966523 
L 170.573461 115.965745 
L 174.97315 116.767457 
z
" clip-path="url(#pcbb17da2fa)" style="stroke: #000000; stroke-linecap: round"/>
   </g>
   <g id="patch_22">
    <path d="M 191.339937 173.135909 
Q 191.853707 185.298825 192.320293 196.344703 
" clip-path="url(#pcbb17da2fa)" style="fill: none; stroke: #000000; stroke-linecap: round"/>
    <path d="M 194.149699 192.263861 
L 192.320293 196.344703 
L 190.153263 192.432673 
z
" clip-path="url(#pcbb17da2fa)" style="stroke: #000000; stroke-linecap: round"/>
   </g>
   <g id="patch_23">
    <path d="M 193.111227 166.642112 
Q 194.749557 164.112609 195.780097 162.521504 
" clip-path="url(#pcbb17da2fa)" style="fill: none; stroke: #000000; stroke-linecap: round"/>
    <path d="M 191.926944 164.791573 
L 195.780097 162.521504 
L 195.28426 166.966068 
z
" clip-path="url(#pcbb17da2fa)" style="stroke: #000000; stroke-linecap: round"/>
   </g>
   <g id="patch_24">
    <path d="M 193.99996 171.754154 
Q 204.774818 179.989861 214.661402 187.546621 
" clip-path="url(#pcbb17da2fa)" style="fill: none; stroke: #000000; stroke-linecap: round"/>
    <path d="M 212.697956 183.528552 
L 214.661402 187.546621 
L 210.268879 186.706537 
z
" clip-path="url(#pcbb17da2fa)" style="stroke: #000000; stroke-linecap: round"/>
   </g>
   <g id="patch_25">
    <path d="M 189.790062 166.358912 
Q 179.022061 141.390634 168.696812 117.448986 
" clip-path="url(#pcbb17da2fa)" style="fill: none; stroke: #000000; stroke-linecap: round"/>
    <path d="M 168.444358 121.913991 
L 168.696812 117.448986 
L 172.117344 120.329953 
z
" clip-path="url(#pcbb17da2fa)" style="stroke: #000000; stroke-linecap: round"/>
   </g>
   <g id="patch_26">
    <path d="M 126.977709 111.519083 
Q 105.626805 101.676485 85.291242 92.301951 
" clip-path="url(#pcbb17da2fa)" style="fill: none; stroke: #000000; stroke-linecap: round"/>
    <path d="M 88.086536 95.792844 
L 85.291242 92.301951 
L 89.761133 92.160251 
z
" clip-path="url(#pcbb17da2fa)" style="stroke: #000000; stroke-linecap: round"/>
   </g>
   <g id="patch_27">
    <path d="M 133.719934 113.016041 
Q 148.516824 113.08609 162.195693 113.150846 
" clip-path="url(#pcbb17da2fa)" style="fill: none; stroke: #000000; stroke-linecap: round"/>
    <path d="M 158.205206 111.131933 
L 162.195693 113.150846 
L 158.18627 115.131888 
z
" clip-path="url(#pcbb17da2fa)" style="stroke: #000000; stroke-linecap: round"/>
   </g>
   <g id="PathCollection_1">
    <defs>
     <path id="m8f648ba4ac" d="M 0 3.535534 
C 0.937635 3.535534 1.836992 3.163008 2.5 2.5 
C 3.163008 1.836992 3.535534 0.937635 3.535534 0 
C 3.535534 -0.937635 3.163008 -1.836992 2.5 -2.5 
C 1.836992 -3.163008 0.937635 -3.535534 0 -3.535534 
C -0.937635 -3.535534 -1.836992 -3.163008 -2.5 -2.5 
C -3.163008 -1.836992 -3.535534 -0.937635 -3.535534 0 
C -3.535534 0.937635 -3.163008 1.836992 -2.5 2.5 
C -1.836992 3.163008 -0.937635 3.535534 0 3.535534 
z
" style="stroke: #1f78b4"/>
    </defs>
    <g clip-path="url(#pcbb17da2fa)">
     <use xlink:href="#m8f648ba4ac" x="365.427705" y="223.591695" style="fill: #1f78b4; stroke: #1f78b4"/>
     <use xlink:href="#m8f648ba4ac" x="131.367482" y="155.400254" style="fill: #1f78b4; stroke: #1f78b4"/>
     <use xlink:href="#m8f648ba4ac" x="47.385704" y="329.890909" style="fill: #1f78b4; stroke: #1f78b4"/>
     <use xlink:href="#m8f648ba4ac" x="81.067452" y="90.354817" style="fill: #1f78b4; stroke: #1f78b4"/>
     <use xlink:href="#m8f648ba4ac" x="131.829396" y="126.872812" style="fill: #1f78b4; stroke: #1f78b4"/>
     <use xlink:href="#m8f648ba4ac" x="250.981041" y="152.222432" style="fill: #1f78b4; stroke: #1f78b4"/>
     <use xlink:href="#m8f648ba4ac" x="192.516732" y="200.995159" style="fill: #1f78b4; stroke: #1f78b4"/>
     <use xlink:href="#m8f648ba4ac" x="337.739346" y="89.371485" style="fill: #1f78b4; stroke: #1f78b4"/>
     <use xlink:href="#m8f648ba4ac" x="198.309212" y="158.61667" style="fill: #1f78b4; stroke: #1f78b4"/>
     <use xlink:href="#m8f648ba4ac" x="422.112565" y="248.181474" style="fill: #1f78b4; stroke: #1f78b4"/>
     <use xlink:href="#m8f648ba4ac" x="218.359733" y="190.373421" style="fill: #1f78b4; stroke: #1f78b4"/>
     <use xlink:href="#m8f648ba4ac" x="67.272962" y="281.79926" style="fill: #1f78b4; stroke: #1f78b4"/>
     <use xlink:href="#m8f648ba4ac" x="166.852673" y="113.172893" style="fill: #1f78b4; stroke: #1f78b4"/>
     <use xlink:href="#m8f648ba4ac" x="406.686273" y="263.904822" style="fill: #1f78b4; stroke: #1f78b4"/>
     <use xlink:href="#m8f648ba4ac" x="188.615452" y="129.508207" style="fill: #1f78b4; stroke: #1f78b4"/>
     <use xlink:href="#m8f648ba4ac" x="191.190875" y="169.607045" style="fill: #1f78b4; stroke: #1f78b4"/>
     <use xlink:href="#m8f648ba4ac" x="130.188699" y="112.999323" style="fill: #1f78b4; stroke: #1f78b4"/>
     <use xlink:href="#m8f648ba4ac" x="197.383014" y="28.380051" style="fill: #1f78b4; stroke: #1f78b4"/>
     <use xlink:href="#m8f648ba4ac" x="20.945455" y="198.516259" style="fill: #1f78b4; stroke: #1f78b4"/>
    </g>
   </g>
  </g>
 </g>
 <defs>
  <clipPath id="pcbb17da2fa">
   <rect x="0" y="0" width="460.8" height="345.6"/>
  </clipPath>
 </defs>
</svg>
