<?xml version="1.0" encoding="utf-8" standalone="no"?>
<!DOCTYPE svg PUBLIC "-//W3C//DTD SVG 1.1//EN"
  "http://www.w3.org/Graphics/SVG/1.1/DTD/svg11.dtd">
<svg xmlns:xlink="http://www.w3.org/1999/xlink" width="460.8pt" height="345.6pt" viewBox="0 0 460.8 345.6" xmlns="http://www.w3.org/2000/svg" version="1.1">
 <metadata>
  <rdf:RDF xmlns:dc="http://purl.org/dc/elements/1.1/" xmlns:cc="http://creativecommons.org/ns#" xmlns:rdf="http://www.w3.org/1999/02/22-rdf-syntax-ns#">
   <cc:Work>
    <dc:type rdf:resource="http://purl.org/dc/dcmitype/StillImage"/>
    <dc:date>2023-05-07T19:28:05.668396</dc:date>
    <dc:format>image/svg+xml</dc:format>
    <dc:creator>
     <cc:Agent>
      <dc:title>Matplotlib v3.7.1, https://matplotlib.org/</dc:title>
     </cc:Agent>
    </dc:creator>
   </cc:Work>
  </rdf:RDF>
 </metadata>
 <defs>
  <style type="text/css">*{stroke-linejoin: round; stroke-linecap: butt}</style>
 </defs>
 <g id="figure_1">
  <g id="patch_1">
   <path d="M 0 345.6 
L 460.8 345.6 
L 460.8 0 
L 0 0 
z
" style="fill: #ffffff"/>
  </g>
  <g id="axes_1">
   <g id="LineCollection_1">
    <path d="M 129.033618 114.048087 
L 235.174018 164.773997 
" clip-path="url(#p4a9b57f421)" style="fill: none; stroke: #000000"/>
    <path d="M 129.033618 114.048087 
L 39.986777 71.40396 
" clip-path="url(#p4a9b57f421)" style="fill: none; stroke: #000000"/>
    <path d="M 336.107639 91.454455 
L 420.813223 29.990083 
" clip-path="url(#p4a9b57f421)" style="fill: none; stroke: #000000"/>
    <path d="M 336.107639 91.454455 
L 235.174018 164.773997 
" clip-path="url(#p4a9b57f421)" style="fill: none; stroke: #000000"/>
    <path d="M 235.174018 164.773997 
L 241.500123 315.609917 
" clip-path="url(#p4a9b57f421)" style="fill: none; stroke: #000000"/>
   </g>
   <g id="PathCollection_1">
    <defs>
     <path id="m41ae867728" d="M 0 5 
C 1.326016 5 2.597899 4.473168 3.535534 3.535534 
C 4.473168 2.597899 5 1.326016 5 0 
C 5 -1.326016 4.473168 -2.597899 3.535534 -3.535534 
C 2.597899 -4.473168 1.326016 -5 0 -5 
C -1.326016 -5 -2.597899 -4.473168 -3.535534 -3.535534 
C -4.473168 -2.597899 -5 -1.326016 -5 0 
C -5 1.326016 -4.473168 2.597899 -3.535534 3.535534 
C -2.597899 4.473168 -1.326016 5 0 5 
z
" style="stroke: #1f78b4"/>
    </defs>
    <g clip-path="url(#p4a9b57f421)">
     <use xlink:href="#m41ae867728" x="129.033618" y="114.048087" style="fill: #1f78b4; stroke: #1f78b4"/>
     <use xlink:href="#m41ae867728" x="336.107639" y="91.454455" style="fill: #1f78b4; stroke: #1f78b4"/>
     <use xlink:href="#m41ae867728" x="420.813223" y="29.990083" style="fill: #1f78b4; stroke: #1f78b4"/>
     <use xlink:href="#m41ae867728" x="235.174018" y="164.773997" style="fill: #1f78b4; stroke: #1f78b4"/>
     <use xlink:href="#m41ae867728" x="241.500123" y="315.609917" style="fill: #1f78b4; stroke: #1f78b4"/>
     <use xlink:href="#m41ae867728" x="39.986777" y="71.40396" style="fill: #1f78b4; stroke: #1f78b4"/>
    </g>
   </g>
  </g>
 </g>
 <defs>
  <clipPath id="p4a9b57f421">
   <rect x="0" y="0" width="460.8" height="345.6"/>
  </clipPath>
 </defs>
</svg>
