<?xml version="1.0" encoding="utf-8" standalone="no"?>
<!DOCTYPE svg PUBLIC "-//W3C//DTD SVG 1.1//EN"
  "http://www.w3.org/Graphics/SVG/1.1/DTD/svg11.dtd">
<svg xmlns:xlink="http://www.w3.org/1999/xlink" width="460.8pt" height="345.6pt" viewBox="0 0 460.8 345.6" xmlns="http://www.w3.org/2000/svg" version="1.1">
 <metadata>
  <rdf:RDF xmlns:dc="http://purl.org/dc/elements/1.1/" xmlns:cc="http://creativecommons.org/ns#" xmlns:rdf="http://www.w3.org/1999/02/22-rdf-syntax-ns#">
   <cc:Work>
    <dc:type rdf:resource="http://purl.org/dc/dcmitype/StillImage"/>
    <dc:date>2023-05-07T19:28:06.030437</dc:date>
    <dc:format>image/svg+xml</dc:format>
    <dc:creator>
     <cc:Agent>
      <dc:title>Matplotlib v3.7.1, https://matplotlib.org/</dc:title>
     </cc:Agent>
    </dc:creator>
   </cc:Work>
  </rdf:RDF>
 </metadata>
 <defs>
  <style type="text/css">*{stroke-linejoin: round; stroke-linecap: butt}</style>
 </defs>
 <g id="figure_1">
  <g id="patch_1">
   <path d="M 0 345.6 
L 460.8 345.6 
L 460.8 0 
L 0 0 
z
" style="fill: #ffffff"/>
  </g>
  <g id="axes_1">
   <g id="LineCollection_1">
    <path d="M 51.490129 267.193025 
L 26.105738 246.519521 
" clip-path="url(#p029eb15e24)" style="fill: none; stroke: #000000"/>
    <path d="M 51.490129 267.193025 
L 88.919541 282.849824 
" clip-path="url(#p029eb15e24)" style="fill: none; stroke: #000000"/>
    <path d="M 88.919541 282.849824 
L 129.311406 288.215172 
" clip-path="url(#p029eb15e24)" style="fill: none; stroke: #000000"/>
    <path d="M 76.73934 46.547327 
L 88.248724 70.713648 
" clip-path="url(#p029eb15e24)" style="fill: none; stroke: #000000"/>
    <path d="M 76.73934 46.547327 
L 53.89157 60.563471 
" clip-path="url(#p029eb15e24)" style="fill: none; stroke: #000000"/>
    <path d="M 88.248724 70.713648 
L 53.89157 60.563471 
" clip-path="url(#p029eb15e24)" style="fill: none; stroke: #000000"/>
   </g>
   <g id="PathCollection_1">
    <defs>
     <path id="m1682a224ca" d="M 0 5 
C 1.326016 5 2.597899 4.473168 3.535534 3.535534 
C 4.473168 2.597899 5 1.326016 5 0 
C 5 -1.326016 4.473168 -2.597899 3.535534 -3.535534 
C 2.597899 -4.473168 1.326016 -5 0 -5 
C -1.326016 -5 -2.597899 -4.473168 -3.535534 -3.535534 
C -4.473168 -2.597899 -5 -1.326016 -5 0 
C -5 1.326016 -4.473168 2.597899 -3.535534 3.535534 
C -2.597899 4.473168 -1.326016 5 0 5 
z
" style="stroke: #1f78b4"/>
    </defs>
    <g clip-path="url(#p029eb15e24)">
     <use xlink:href="#m1682a224ca" x="51.490129" y="267.193025" style="fill: #1f78b4; stroke: #1f78b4"/>
     <use xlink:href="#m1682a224ca" x="26.105738" y="246.519521" style="fill: #1f78b4; stroke: #1f78b4"/>
     <use xlink:href="#m1682a224ca" x="88.919541" y="282.849824" style="fill: #1f78b4; stroke: #1f78b4"/>
     <use xlink:href="#m1682a224ca" x="407.727977" y="249.659801" style="fill: #1f78b4; stroke: #1f78b4"/>
     <use xlink:href="#m1682a224ca" x="439.854545" y="158.825361" style="fill: #1f78b4; stroke: #1f78b4"/>
     <use xlink:href="#m1682a224ca" x="76.73934" y="46.547327" style="fill: #1f78b4; stroke: #1f78b4"/>
     <use xlink:href="#m1682a224ca" x="88.248724" y="70.713648" style="fill: #1f78b4; stroke: #1f78b4"/>
     <use xlink:href="#m1682a224ca" x="129.311406" y="288.215172" style="fill: #1f78b4; stroke: #1f78b4"/>
     <use xlink:href="#m1682a224ca" x="387.47232" y="71.69374" style="fill: #1f78b4; stroke: #1f78b4"/>
     <use xlink:href="#m1682a224ca" x="53.89157" y="60.563471" style="fill: #1f78b4; stroke: #1f78b4"/>
     <use xlink:href="#m1682a224ca" x="260.047128" y="329.890909" style="fill: #1f78b4; stroke: #1f78b4"/>
     <use xlink:href="#m1682a224ca" x="272.527571" y="15.709091" style="fill: #1f78b4; stroke: #1f78b4"/>
    </g>
   </g>
  </g>
 </g>
 <defs>
  <clipPath id="p029eb15e24">
   <rect x="0" y="0" width="460.8" height="345.6"/>
  </clipPath>
 </defs>
</svg>
