<?xml version="1.0" encoding="utf-8" standalone="no"?>
<!DOCTYPE svg PUBLIC "-//W3C//DTD SVG 1.1//EN"
  "http://www.w3.org/Graphics/SVG/1.1/DTD/svg11.dtd">
<svg xmlns:xlink="http://www.w3.org/1999/xlink" width="460.8pt" height="345.6pt" viewBox="0 0 460.8 345.6" xmlns="http://www.w3.org/2000/svg" version="1.1">
 <metadata>
  <rdf:RDF xmlns:dc="http://purl.org/dc/elements/1.1/" xmlns:cc="http://creativecommons.org/ns#" xmlns:rdf="http://www.w3.org/1999/02/22-rdf-syntax-ns#">
   <cc:Work>
    <dc:type rdf:resource="http://purl.org/dc/dcmitype/StillImage"/>
    <dc:date>2023-05-07T19:32:13.360360</dc:date>
    <dc:format>image/svg+xml</dc:format>
    <dc:creator>
     <cc:Agent>
      <dc:title>Matplotlib v3.7.1, https://matplotlib.org/</dc:title>
     </cc:Agent>
    </dc:creator>
   </cc:Work>
  </rdf:RDF>
 </metadata>
 <defs>
  <style type="text/css">*{stroke-linejoin: round; stroke-linecap: butt}</style>
 </defs>
 <g id="figure_1">
  <g id="patch_1">
   <path d="M 0 345.6 
L 460.8 345.6 
L 460.8 0 
L 0 0 
z
" style="fill: #ffffff"/>
  </g>
  <g id="axes_1">
   <g id="LineCollection_1">
    <path d="M 320.679335 87.957718 
L 197.636919 155.975554 
" clip-path="url(#p9ab41e0d8f)" style="fill: none; stroke: #000000"/>
    <path d="M 320.679335 87.957718 
L 420.813223 29.990083 
" clip-path="url(#p9ab41e0d8f)" style="fill: none; stroke: #000000"/>
    <path d="M 199.666704 242.7187 
L 197.368168 315.609917 
" clip-path="url(#p9ab41e0d8f)" style="fill: none; stroke: #000000"/>
    <path d="M 199.666704 242.7187 
L 197.636919 155.975554 
" clip-path="url(#p9ab41e0d8f)" style="fill: none; stroke: #000000"/>
    <path d="M 197.636919 155.975554 
L 39.986777 132.761204 
" clip-path="url(#p9ab41e0d8f)" style="fill: none; stroke: #000000"/>
   </g>
   <g id="PathCollection_1">
    <defs>
     <path id="m31eeca2d43" d="M 0 5 
C 1.326016 5 2.597899 4.473168 3.535534 3.535534 
C 4.473168 2.597899 5 1.326016 5 0 
C 5 -1.326016 4.473168 -2.597899 3.535534 -3.535534 
C 2.597899 -4.473168 1.326016 -5 0 -5 
C -1.326016 -5 -2.597899 -4.473168 -3.535534 -3.535534 
C -4.473168 -2.597899 -5 -1.326016 -5 0 
C -5 1.326016 -4.473168 2.597899 -3.535534 3.535534 
C -2.597899 4.473168 -1.326016 5 0 5 
z
" style="stroke: #1f78b4"/>
    </defs>
    <g clip-path="url(#p9ab41e0d8f)">
     <use xlink:href="#m31eeca2d43" x="320.679335" y="87.957718" style="fill: #1f78b4; stroke: #1f78b4"/>
     <use xlink:href="#m31eeca2d43" x="199.666704" y="242.7187" style="fill: #1f78b4; stroke: #1f78b4"/>
     <use xlink:href="#m31eeca2d43" x="197.368168" y="315.609917" style="fill: #1f78b4; stroke: #1f78b4"/>
     <use xlink:href="#m31eeca2d43" x="197.636919" y="155.975554" style="fill: #1f78b4; stroke: #1f78b4"/>
     <use xlink:href="#m31eeca2d43" x="39.986777" y="132.761204" style="fill: #1f78b4; stroke: #1f78b4"/>
     <use xlink:href="#m31eeca2d43" x="420.813223" y="29.990083" style="fill: #1f78b4; stroke: #1f78b4"/>
    </g>
   </g>
  </g>
 </g>
 <defs>
  <clipPath id="p9ab41e0d8f">
   <rect x="0" y="0" width="460.8" height="345.6"/>
  </clipPath>
 </defs>
</svg>
