<?xml version="1.0" encoding="utf-8" standalone="no"?>
<!DOCTYPE svg PUBLIC "-//W3C//DTD SVG 1.1//EN"
  "http://www.w3.org/Graphics/SVG/1.1/DTD/svg11.dtd">
<svg xmlns:xlink="http://www.w3.org/1999/xlink" width="460.8pt" height="345.6pt" viewBox="0 0 460.8 345.6" xmlns="http://www.w3.org/2000/svg" version="1.1">
 <metadata>
  <rdf:RDF xmlns:dc="http://purl.org/dc/elements/1.1/" xmlns:cc="http://creativecommons.org/ns#" xmlns:rdf="http://www.w3.org/1999/02/22-rdf-syntax-ns#">
   <cc:Work>
    <dc:type rdf:resource="http://purl.org/dc/dcmitype/StillImage"/>
    <dc:date>2023-05-08T17:55:53.397851</dc:date>
    <dc:format>image/svg+xml</dc:format>
    <dc:creator>
     <cc:Agent>
      <dc:title>Matplotlib v3.7.1, https://matplotlib.org/</dc:title>
     </cc:Agent>
    </dc:creator>
   </cc:Work>
  </rdf:RDF>
 </metadata>
 <defs>
  <style type="text/css">*{stroke-linejoin: round; stroke-linecap: butt}</style>
 </defs>
 <g id="figure_1">
  <g id="patch_1">
   <path d="M 0 345.6 
L 460.8 345.6 
L 460.8 0 
L 0 0 
z
" style="fill: #ffffff"/>
  </g>
  <g id="axes_1">
   <g id="LineCollection_1">
    <path d="M 139.994944 198.236167 
L 149.194912 222.900698 
" clip-path="url(#p4a4d421521)" style="fill: none; stroke: #000000"/>
    <path d="M 139.994944 198.236167 
L 98.434855 219.275335 
" clip-path="url(#p4a4d421521)" style="fill: none; stroke: #000000"/>
    <path d="M 149.194912 222.900698 
L 98.434855 219.275335 
" clip-path="url(#p4a4d421521)" style="fill: none; stroke: #000000"/>
    <path d="M 27.052572 285.592243 
L 59.690832 255.993899 
" clip-path="url(#p4a4d421521)" style="fill: none; stroke: #000000"/>
    <path d="M 98.434855 219.275335 
L 62.500916 190.277586 
" clip-path="url(#p4a4d421521)" style="fill: none; stroke: #000000"/>
    <path d="M 98.434855 219.275335 
L 59.690832 255.993899 
" clip-path="url(#p4a4d421521)" style="fill: none; stroke: #000000"/>
   </g>
   <g id="PathCollection_1">
    <defs>
     <path id="mcade14fa09" d="M 0 5 
C 1.326016 5 2.597899 4.473168 3.535534 3.535534 
C 4.473168 2.597899 5 1.326016 5 0 
C 5 -1.326016 4.473168 -2.597899 3.535534 -3.535534 
C 2.597899 -4.473168 1.326016 -5 0 -5 
C -1.326016 -5 -2.597899 -4.473168 -3.535534 -3.535534 
C -4.473168 -2.597899 -5 -1.326016 -5 0 
C -5 1.326016 -4.473168 2.597899 -3.535534 3.535534 
C -2.597899 4.473168 -1.326016 5 0 5 
z
" style="stroke: #1f78b4"/>
    </defs>
    <g clip-path="url(#p4a4d421521)">
     <use xlink:href="#mcade14fa09" x="439.854545" y="329.890909" style="fill: #1f78b4; stroke: #1f78b4"/>
     <use xlink:href="#mcade14fa09" x="139.994944" y="198.236167" style="fill: #1f78b4; stroke: #1f78b4"/>
     <use xlink:href="#mcade14fa09" x="149.194912" y="222.900698" style="fill: #1f78b4; stroke: #1f78b4"/>
     <use xlink:href="#mcade14fa09" x="27.052572" y="285.592243" style="fill: #1f78b4; stroke: #1f78b4"/>
     <use xlink:href="#mcade14fa09" x="98.434855" y="219.275335" style="fill: #1f78b4; stroke: #1f78b4"/>
     <use xlink:href="#mcade14fa09" x="62.500916" y="190.277586" style="fill: #1f78b4; stroke: #1f78b4"/>
     <use xlink:href="#mcade14fa09" x="59.690832" y="255.993899" style="fill: #1f78b4; stroke: #1f78b4"/>
     <use xlink:href="#mcade14fa09" x="230.688061" y="15.709091" style="fill: #1f78b4; stroke: #1f78b4"/>
    </g>
   </g>
  </g>
 </g>
 <defs>
  <clipPath id="p4a4d421521">
   <rect x="0" y="0" width="460.8" height="345.6"/>
  </clipPath>
 </defs>
</svg>
