<?xml version="1.0" encoding="utf-8" standalone="no"?>
<!DOCTYPE svg PUBLIC "-//W3C//DTD SVG 1.1//EN"
  "http://www.w3.org/Graphics/SVG/1.1/DTD/svg11.dtd">
<svg xmlns:xlink="http://www.w3.org/1999/xlink" width="460.8pt" height="345.6pt" viewBox="0 0 460.8 345.6" xmlns="http://www.w3.org/2000/svg" version="1.1">
 <metadata>
  <rdf:RDF xmlns:dc="http://purl.org/dc/elements/1.1/" xmlns:cc="http://creativecommons.org/ns#" xmlns:rdf="http://www.w3.org/1999/02/22-rdf-syntax-ns#">
   <cc:Work>
    <dc:type rdf:resource="http://purl.org/dc/dcmitype/StillImage"/>
    <dc:date>2023-12-12T19:49:06.061060</dc:date>
    <dc:format>image/svg+xml</dc:format>
    <dc:creator>
     <cc:Agent>
      <dc:title>Matplotlib v3.8.2, https://matplotlib.org/</dc:title>
     </cc:Agent>
    </dc:creator>
   </cc:Work>
  </rdf:RDF>
 </metadata>
 <defs>
  <style type="text/css">*{stroke-linejoin: round; stroke-linecap: butt}</style>
 </defs>
 <g id="figure_1">
  <g id="patch_1">
   <path d="M 0 345.6 
L 460.8 345.6 
L 460.8 0 
L 0 0 
z
" style="fill: #ffffff"/>
  </g>
  <g id="axes_1">
   <g id="LineCollection_1">
    <path d="M 256.616827 191.551587 
L 256.898986 182.347009 
" clip-path="url(#p65471458fd)" style="fill: none; stroke: #000000"/>
    <path d="M 256.616827 191.551587 
L 258.149796 186.349052 
" clip-path="url(#p65471458fd)" style="fill: none; stroke: #000000"/>
    <path d="M 256.616827 191.551587 
L 249.380642 192.403451 
" clip-path="url(#p65471458fd)" style="fill: none; stroke: #000000"/>
    <path d="M 250.646308 177.407916 
L 264.852537 178.378557 
" clip-path="url(#p65471458fd)" style="fill: none; stroke: #000000"/>
    <path d="M 250.646308 177.407916 
L 255.833597 172.935867 
" clip-path="url(#p65471458fd)" style="fill: none; stroke: #000000"/>
    <path d="M 250.646308 177.407916 
L 232.862756 184.157362 
" clip-path="url(#p65471458fd)" style="fill: none; stroke: #000000"/>
    <path d="M 206.295988 165.627091 
L 206.195647 158.357952 
" clip-path="url(#p65471458fd)" style="fill: none; stroke: #000000"/>
    <path d="M 206.295988 165.627091 
L 211.192037 161.121819 
" clip-path="url(#p65471458fd)" style="fill: none; stroke: #000000"/>
    <path d="M 206.295988 165.627091 
L 189.473354 161.321071 
" clip-path="url(#p65471458fd)" style="fill: none; stroke: #000000"/>
    <path d="M 206.295988 165.627091 
L 208.600149 162.614062 
" clip-path="url(#p65471458fd)" style="fill: none; stroke: #000000"/>
    <path d="M 206.295988 165.627091 
L 190.632206 152.418293 
" clip-path="url(#p65471458fd)" style="fill: none; stroke: #000000"/>
    <path d="M 206.295988 165.627091 
L 220.960144 178.214103 
" clip-path="url(#p65471458fd)" style="fill: none; stroke: #000000"/>
    <path d="M 206.295988 165.627091 
L 229.368834 173.010814 
" clip-path="url(#p65471458fd)" style="fill: none; stroke: #000000"/>
    <path d="M 203.935511 217.009953 
L 217.102363 208.453843 
" clip-path="url(#p65471458fd)" style="fill: none; stroke: #000000"/>
    <path d="M 203.935511 217.009953 
L 207.760741 208.692074 
" clip-path="url(#p65471458fd)" style="fill: none; stroke: #000000"/>
    <path d="M 203.935511 217.009953 
L 189.229741 214.395096 
" clip-path="url(#p65471458fd)" style="fill: none; stroke: #000000"/>
    <path d="M 284.105799 179.895937 
L 256.28767 184.183735 
" clip-path="url(#p65471458fd)" style="fill: none; stroke: #000000"/>
    <path d="M 284.105799 179.895937 
L 295.300638 187.468025 
" clip-path="url(#p65471458fd)" style="fill: none; stroke: #000000"/>
    <path d="M 284.105799 179.895937 
L 281.02257 176.021429 
" clip-path="url(#p65471458fd)" style="fill: none; stroke: #000000"/>
    <path d="M 284.105799 179.895937 
L 256.898986 182.347009 
" clip-path="url(#p65471458fd)" style="fill: none; stroke: #000000"/>
    <path d="M 284.105799 179.895937 
L 249.857544 179.922611 
" clip-path="url(#p65471458fd)" style="fill: none; stroke: #000000"/>
    <path d="M 284.105799 179.895937 
L 287.3196 192.083117 
" clip-path="url(#p65471458fd)" style="fill: none; stroke: #000000"/>
    <path d="M 284.105799 179.895937 
L 305.324839 175.645339 
" clip-path="url(#p65471458fd)" style="fill: none; stroke: #000000"/>
    <path d="M 284.105799 179.895937 
L 264.852537 178.378557 
" clip-path="url(#p65471458fd)" style="fill: none; stroke: #000000"/>
    <path d="M 284.105799 179.895937 
L 309.438901 177.793344 
" clip-path="url(#p65471458fd)" style="fill: none; stroke: #000000"/>
    <path d="M 284.105799 179.895937 
L 292.553407 173.091056 
" clip-path="url(#p65471458fd)" style="fill: none; stroke: #000000"/>
    <path d="M 284.105799 179.895937 
L 296.750886 168.98422 
" clip-path="url(#p65471458fd)" style="fill: none; stroke: #000000"/>
    <path d="M 284.105799 179.895937 
L 301.21567 177.485292 
" clip-path="url(#p65471458fd)" style="fill: none; stroke: #000000"/>
    <path d="M 284.105799 179.895937 
L 296.807807 189.772687 
" clip-path="url(#p65471458fd)" style="fill: none; stroke: #000000"/>
    <path d="M 284.105799 179.895937 
L 258.149796 186.349052 
" clip-path="url(#p65471458fd)" style="fill: none; stroke: #000000"/>
    <path d="M 284.105799 179.895937 
L 305.365328 182.292417 
" clip-path="url(#p65471458fd)" style="fill: none; stroke: #000000"/>
    <path d="M 284.105799 179.895937 
L 281.174904 192.306481 
" clip-path="url(#p65471458fd)" style="fill: none; stroke: #000000"/>
    <path d="M 284.105799 179.895937 
L 301.461148 163.861983 
" clip-path="url(#p65471458fd)" style="fill: none; stroke: #000000"/>
    <path d="M 284.105799 179.895937 
L 301.795149 171.962575 
" clip-path="url(#p65471458fd)" style="fill: none; stroke: #000000"/>
    <path d="M 206.195647 158.357952 
L 203.036097 163.514861 
" clip-path="url(#p65471458fd)" style="fill: none; stroke: #000000"/>
    <path d="M 206.195647 158.357952 
L 224.13704 163.689075 
" clip-path="url(#p65471458fd)" style="fill: none; stroke: #000000"/>
    <path d="M 206.195647 158.357952 
L 195.840648 148.382253 
" clip-path="url(#p65471458fd)" style="fill: none; stroke: #000000"/>
    <path d="M 206.195647 158.357952 
L 189.473354 161.321071 
" clip-path="url(#p65471458fd)" style="fill: none; stroke: #000000"/>
    <path d="M 206.195647 158.357952 
L 208.600149 162.614062 
" clip-path="url(#p65471458fd)" style="fill: none; stroke: #000000"/>
    <path d="M 206.195647 158.357952 
L 195.218426 155.54091 
" clip-path="url(#p65471458fd)" style="fill: none; stroke: #000000"/>
    <path d="M 206.195647 158.357952 
L 229.368834 173.010814 
" clip-path="url(#p65471458fd)" style="fill: none; stroke: #000000"/>
    <path d="M 206.195647 158.357952 
L 196.352871 143.706205 
" clip-path="url(#p65471458fd)" style="fill: none; stroke: #000000"/>
    <path d="M 217.121936 150.338133 
L 224.13704 163.689075 
" clip-path="url(#p65471458fd)" style="fill: none; stroke: #000000"/>
    <path d="M 217.121936 150.338133 
L 222.508388 147.666956 
" clip-path="url(#p65471458fd)" style="fill: none; stroke: #000000"/>
    <path d="M 256.28767 184.183735 
L 275.281061 195.657159 
" clip-path="url(#p65471458fd)" style="fill: none; stroke: #000000"/>
    <path d="M 256.28767 184.183735 
L 249.857544 179.922611 
" clip-path="url(#p65471458fd)" style="fill: none; stroke: #000000"/>
    <path d="M 256.28767 184.183735 
L 274.71518 190.057069 
" clip-path="url(#p65471458fd)" style="fill: none; stroke: #000000"/>
    <path d="M 256.28767 184.183735 
L 224.13704 163.689075 
" clip-path="url(#p65471458fd)" style="fill: none; stroke: #000000"/>
    <path d="M 256.28767 184.183735 
L 220.960144 178.214103 
" clip-path="url(#p65471458fd)" style="fill: none; stroke: #000000"/>
    <path d="M 256.28767 184.183735 
L 268.030518 198.629408 
" clip-path="url(#p65471458fd)" style="fill: none; stroke: #000000"/>
    <path d="M 256.28767 184.183735 
L 281.174904 192.306481 
" clip-path="url(#p65471458fd)" style="fill: none; stroke: #000000"/>
    <path d="M 256.28767 184.183735 
L 258.749947 196.456712 
" clip-path="url(#p65471458fd)" style="fill: none; stroke: #000000"/>
    <path d="M 198.891755 202.00704 
L 196.252557 198.159473 
" clip-path="url(#p65471458fd)" style="fill: none; stroke: #000000"/>
    <path d="M 198.891755 202.00704 
L 188.939596 210.998272 
" clip-path="url(#p65471458fd)" style="fill: none; stroke: #000000"/>
    <path d="M 198.891755 202.00704 
L 192.109486 201.224126 
" clip-path="url(#p65471458fd)" style="fill: none; stroke: #000000"/>
    <path d="M 198.891755 202.00704 
L 222.013817 191.802092 
" clip-path="url(#p65471458fd)" style="fill: none; stroke: #000000"/>
    <path d="M 198.891755 202.00704 
L 184.621561 202.459574 
" clip-path="url(#p65471458fd)" style="fill: none; stroke: #000000"/>
    <path d="M 198.891755 202.00704 
L 188.560619 205.37485 
" clip-path="url(#p65471458fd)" style="fill: none; stroke: #000000"/>
    <path d="M 179.158102 208.365434 
L 172.3405 206.932904 
" clip-path="url(#p65471458fd)" style="fill: none; stroke: #000000"/>
    <path d="M 179.158102 208.365434 
L 192.109486 201.224126 
" clip-path="url(#p65471458fd)" style="fill: none; stroke: #000000"/>
    <path d="M 179.158102 208.365434 
L 184.621561 202.459574 
" clip-path="url(#p65471458fd)" style="fill: none; stroke: #000000"/>
    <path d="M 179.158102 208.365434 
L 189.229741 214.395096 
" clip-path="url(#p65471458fd)" style="fill: none; stroke: #000000"/>
    <path d="M 275.281061 195.657159 
L 287.3196 192.083117 
" clip-path="url(#p65471458fd)" style="fill: none; stroke: #000000"/>
    <path d="M 275.281061 195.657159 
L 274.71518 190.057069 
" clip-path="url(#p65471458fd)" style="fill: none; stroke: #000000"/>
    <path d="M 275.281061 195.657159 
L 284.713295 199.321552 
" clip-path="url(#p65471458fd)" style="fill: none; stroke: #000000"/>
    <path d="M 275.281061 195.657159 
L 268.030518 198.629408 
" clip-path="url(#p65471458fd)" style="fill: none; stroke: #000000"/>
    <path d="M 275.281061 195.657159 
L 281.174904 192.306481 
" clip-path="url(#p65471458fd)" style="fill: none; stroke: #000000"/>
    <path d="M 275.281061 195.657159 
L 277.175407 206.734528 
" clip-path="url(#p65471458fd)" style="fill: none; stroke: #000000"/>
    <path d="M 259.279793 213.103549 
L 260.656907 217.019892 
" clip-path="url(#p65471458fd)" style="fill: none; stroke: #000000"/>
    <path d="M 259.279793 213.103549 
L 264.676568 213.512586 
" clip-path="url(#p65471458fd)" style="fill: none; stroke: #000000"/>
    <path d="M 259.279793 213.103549 
L 245.311401 202.828501 
" clip-path="url(#p65471458fd)" style="fill: none; stroke: #000000"/>
    <path d="M 231.309218 150.173423 
L 228.931144 161.128231 
" clip-path="url(#p65471458fd)" style="fill: none; stroke: #000000"/>
    <path d="M 231.309218 150.173423 
L 229.303734 153.851639 
" clip-path="url(#p65471458fd)" style="fill: none; stroke: #000000"/>
    <path d="M 231.309218 150.173423 
L 224.676901 159.448302 
" clip-path="url(#p65471458fd)" style="fill: none; stroke: #000000"/>
    <path d="M 231.309218 150.173423 
L 222.584013 151.486229 
" clip-path="url(#p65471458fd)" style="fill: none; stroke: #000000"/>
    <path d="M 295.300638 187.468025 
L 296.807807 189.772687 
" clip-path="url(#p65471458fd)" style="fill: none; stroke: #000000"/>
    <path d="M 295.300638 187.468025 
L 281.174904 192.306481 
" clip-path="url(#p65471458fd)" style="fill: none; stroke: #000000"/>
    <path d="M 281.02257 176.021429 
L 256.898986 182.347009 
" clip-path="url(#p65471458fd)" style="fill: none; stroke: #000000"/>
    <path d="M 281.02257 176.021429 
L 292.553407 173.091056 
" clip-path="url(#p65471458fd)" style="fill: none; stroke: #000000"/>
    <path d="M 281.02257 176.021429 
L 301.21567 177.485292 
" clip-path="url(#p65471458fd)" style="fill: none; stroke: #000000"/>
    <path d="M 172.3405 206.932904 
L 192.109486 201.224126 
" clip-path="url(#p65471458fd)" style="fill: none; stroke: #000000"/>
    <path d="M 170.08805 144.524109 
L 190.632206 152.418293 
" clip-path="url(#p65471458fd)" style="fill: none; stroke: #000000"/>
    <path d="M 170.08805 144.524109 
L 156.665086 141.052106 
" clip-path="url(#p65471458fd)" style="fill: none; stroke: #000000"/>
    <path d="M 256.898986 182.347009 
L 229.368834 173.010814 
" clip-path="url(#p65471458fd)" style="fill: none; stroke: #000000"/>
    <path d="M 256.898986 182.347009 
L 234.671377 175.18974 
" clip-path="url(#p65471458fd)" style="fill: none; stroke: #000000"/>
    <path d="M 256.898986 182.347009 
L 258.149796 186.349052 
" clip-path="url(#p65471458fd)" style="fill: none; stroke: #000000"/>
    <path d="M 256.898986 182.347009 
L 268.030518 198.629408 
" clip-path="url(#p65471458fd)" style="fill: none; stroke: #000000"/>
    <path d="M 256.898986 182.347009 
L 244.713621 185.036102 
" clip-path="url(#p65471458fd)" style="fill: none; stroke: #000000"/>
    <path d="M 256.898986 182.347009 
L 249.380642 192.403451 
" clip-path="url(#p65471458fd)" style="fill: none; stroke: #000000"/>
    <path d="M 249.857544 179.922611 
L 264.852537 178.378557 
" clip-path="url(#p65471458fd)" style="fill: none; stroke: #000000"/>
    <path d="M 249.857544 179.922611 
L 222.013817 191.802092 
" clip-path="url(#p65471458fd)" style="fill: none; stroke: #000000"/>
    <path d="M 249.857544 179.922611 
L 229.368834 173.010814 
" clip-path="url(#p65471458fd)" style="fill: none; stroke: #000000"/>
    <path d="M 249.857544 179.922611 
L 238.069775 168.430218 
" clip-path="url(#p65471458fd)" style="fill: none; stroke: #000000"/>
    <path d="M 249.857544 179.922611 
L 258.149796 186.349052 
" clip-path="url(#p65471458fd)" style="fill: none; stroke: #000000"/>
    <path d="M 249.857544 179.922611 
L 255.833597 172.935867 
" clip-path="url(#p65471458fd)" style="fill: none; stroke: #000000"/>
    <path d="M 203.036097 163.514861 
L 211.192037 161.121819 
" clip-path="url(#p65471458fd)" style="fill: none; stroke: #000000"/>
    <path d="M 203.036097 163.514861 
L 224.13704 163.689075 
" clip-path="url(#p65471458fd)" style="fill: none; stroke: #000000"/>
    <path d="M 203.036097 163.514861 
L 189.473354 161.321071 
" clip-path="url(#p65471458fd)" style="fill: none; stroke: #000000"/>
    <path d="M 203.036097 163.514861 
L 208.600149 162.614062 
" clip-path="url(#p65471458fd)" style="fill: none; stroke: #000000"/>
    <path d="M 203.036097 163.514861 
L 220.960144 178.214103 
" clip-path="url(#p65471458fd)" style="fill: none; stroke: #000000"/>
    <path d="M 203.036097 163.514861 
L 195.218426 155.54091 
" clip-path="url(#p65471458fd)" style="fill: none; stroke: #000000"/>
    <path d="M 203.036097 163.514861 
L 184.659545 156.676345 
" clip-path="url(#p65471458fd)" style="fill: none; stroke: #000000"/>
    <path d="M 225.600147 128.350107 
L 225.071713 142.735573 
" clip-path="url(#p65471458fd)" style="fill: none; stroke: #000000"/>
    <path d="M 287.3196 192.083117 
L 274.71518 190.057069 
" clip-path="url(#p65471458fd)" style="fill: none; stroke: #000000"/>
    <path d="M 287.3196 192.083117 
L 284.713295 199.321552 
" clip-path="url(#p65471458fd)" style="fill: none; stroke: #000000"/>
    <path d="M 305.324839 175.645339 
L 309.438901 177.793344 
" clip-path="url(#p65471458fd)" style="fill: none; stroke: #000000"/>
    <path d="M 221.938676 210.222062 
L 217.102363 208.453843 
" clip-path="url(#p65471458fd)" style="fill: none; stroke: #000000"/>
    <path d="M 221.938676 210.222062 
L 221.619474 196.292028 
" clip-path="url(#p65471458fd)" style="fill: none; stroke: #000000"/>
    <path d="M 175.29685 219.171461 
L 168.603928 222.13782 
" clip-path="url(#p65471458fd)" style="fill: none; stroke: #000000"/>
    <path d="M 175.29685 219.171461 
L 176.528646 223.157848 
" clip-path="url(#p65471458fd)" style="fill: none; stroke: #000000"/>
    <path d="M 175.29685 219.171461 
L 188.939596 210.998272 
" clip-path="url(#p65471458fd)" style="fill: none; stroke: #000000"/>
    <path d="M 175.29685 219.171461 
L 181.359219 211.566049 
" clip-path="url(#p65471458fd)" style="fill: none; stroke: #000000"/>
    <path d="M 168.603928 222.13782 
L 176.528646 223.157848 
" clip-path="url(#p65471458fd)" style="fill: none; stroke: #000000"/>
    <path d="M 168.603928 222.13782 
L 181.359219 211.566049 
" clip-path="url(#p65471458fd)" style="fill: none; stroke: #000000"/>
    <path d="M 176.528646 223.157848 
L 188.939596 210.998272 
" clip-path="url(#p65471458fd)" style="fill: none; stroke: #000000"/>
    <path d="M 196.252557 198.159473 
L 188.939596 210.998272 
" clip-path="url(#p65471458fd)" style="fill: none; stroke: #000000"/>
    <path d="M 196.252557 198.159473 
L 192.109486 201.224126 
" clip-path="url(#p65471458fd)" style="fill: none; stroke: #000000"/>
    <path d="M 196.252557 198.159473 
L 220.960144 178.214103 
" clip-path="url(#p65471458fd)" style="fill: none; stroke: #000000"/>
    <path d="M 196.252557 198.159473 
L 181.359219 211.566049 
" clip-path="url(#p65471458fd)" style="fill: none; stroke: #000000"/>
    <path d="M 196.252557 198.159473 
L 184.621561 202.459574 
" clip-path="url(#p65471458fd)" style="fill: none; stroke: #000000"/>
    <path d="M 196.252557 198.159473 
L 188.560619 205.37485 
" clip-path="url(#p65471458fd)" style="fill: none; stroke: #000000"/>
    <path d="M 211.192037 161.121819 
L 224.13704 163.689075 
" clip-path="url(#p65471458fd)" style="fill: none; stroke: #000000"/>
    <path d="M 211.192037 161.121819 
L 208.600149 162.614062 
" clip-path="url(#p65471458fd)" style="fill: none; stroke: #000000"/>
    <path d="M 211.192037 161.121819 
L 190.632206 152.418293 
" clip-path="url(#p65471458fd)" style="fill: none; stroke: #000000"/>
    <path d="M 211.192037 161.121819 
L 220.960144 178.214103 
" clip-path="url(#p65471458fd)" style="fill: none; stroke: #000000"/>
    <path d="M 211.192037 161.121819 
L 222.584013 151.486229 
" clip-path="url(#p65471458fd)" style="fill: none; stroke: #000000"/>
    <path d="M 249.028627 156.487813 
L 238.069775 168.430218 
" clip-path="url(#p65471458fd)" style="fill: none; stroke: #000000"/>
    <path d="M 264.852537 178.378557 
L 258.149796 186.349052 
" clip-path="url(#p65471458fd)" style="fill: none; stroke: #000000"/>
    <path d="M 264.852537 178.378557 
L 255.833597 172.935867 
" clip-path="url(#p65471458fd)" style="fill: none; stroke: #000000"/>
    <path d="M 263.722874 214.376709 
L 268.030518 198.629408 
" clip-path="url(#p65471458fd)" style="fill: none; stroke: #000000"/>
    <path d="M 228.931144 161.128231 
L 229.303734 153.851639 
" clip-path="url(#p65471458fd)" style="fill: none; stroke: #000000"/>
    <path d="M 228.931144 161.128231 
L 220.960144 178.214103 
" clip-path="url(#p65471458fd)" style="fill: none; stroke: #000000"/>
    <path d="M 188.939596 210.998272 
L 192.109486 201.224126 
" clip-path="url(#p65471458fd)" style="fill: none; stroke: #000000"/>
    <path d="M 188.939596 210.998272 
L 207.760741 208.692074 
" clip-path="url(#p65471458fd)" style="fill: none; stroke: #000000"/>
    <path d="M 188.939596 210.998272 
L 181.359219 211.566049 
" clip-path="url(#p65471458fd)" style="fill: none; stroke: #000000"/>
    <path d="M 132.162511 134.500447 
L 123.391246 132.80864 
" clip-path="url(#p65471458fd)" style="fill: none; stroke: #000000"/>
    <path d="M 132.162511 134.500447 
L 156.665086 141.052106 
" clip-path="url(#p65471458fd)" style="fill: none; stroke: #000000"/>
    <path d="M 132.162511 134.500447 
L 115.475303 129.21386 
" clip-path="url(#p65471458fd)" style="fill: none; stroke: #000000"/>
    <path d="M 132.162511 134.500447 
L 137.393448 135.668842 
" clip-path="url(#p65471458fd)" style="fill: none; stroke: #000000"/>
    <path d="M 259.958346 25.587603 
L 266.607011 27.813226 
" clip-path="url(#p65471458fd)" style="fill: none; stroke: #000000"/>
    <path d="M 229.303734 153.851639 
L 224.13704 163.689075 
" clip-path="url(#p65471458fd)" style="fill: none; stroke: #000000"/>
    <path d="M 229.303734 153.851639 
L 224.676901 159.448302 
" clip-path="url(#p65471458fd)" style="fill: none; stroke: #000000"/>
    <path d="M 229.303734 153.851639 
L 222.584013 151.486229 
" clip-path="url(#p65471458fd)" style="fill: none; stroke: #000000"/>
    <path d="M 309.438901 177.793344 
L 319.836663 175.048907 
" clip-path="url(#p65471458fd)" style="fill: none; stroke: #000000"/>
    <path d="M 217.102363 208.453843 
L 207.760741 208.692074 
" clip-path="url(#p65471458fd)" style="fill: none; stroke: #000000"/>
    <path d="M 217.102363 208.453843 
L 221.619474 196.292028 
" clip-path="url(#p65471458fd)" style="fill: none; stroke: #000000"/>
    <path d="M 217.102363 208.453843 
L 231.938332 200.583404 
" clip-path="url(#p65471458fd)" style="fill: none; stroke: #000000"/>
    <path d="M 224.13704 163.689075 
L 225.071713 142.735573 
" clip-path="url(#p65471458fd)" style="fill: none; stroke: #000000"/>
    <path d="M 224.13704 163.689075 
L 208.600149 162.614062 
" clip-path="url(#p65471458fd)" style="fill: none; stroke: #000000"/>
    <path d="M 224.13704 163.689075 
L 190.632206 152.418293 
" clip-path="url(#p65471458fd)" style="fill: none; stroke: #000000"/>
    <path d="M 224.13704 163.689075 
L 220.960144 178.214103 
" clip-path="url(#p65471458fd)" style="fill: none; stroke: #000000"/>
    <path d="M 224.13704 163.689075 
L 222.508388 147.666956 
" clip-path="url(#p65471458fd)" style="fill: none; stroke: #000000"/>
    <path d="M 224.13704 163.689075 
L 238.069775 168.430218 
" clip-path="url(#p65471458fd)" style="fill: none; stroke: #000000"/>
    <path d="M 224.13704 163.689075 
L 234.671377 175.18974 
" clip-path="url(#p65471458fd)" style="fill: none; stroke: #000000"/>
    <path d="M 224.13704 163.689075 
L 230.225123 168.067041 
" clip-path="url(#p65471458fd)" style="fill: none; stroke: #000000"/>
    <path d="M 224.13704 163.689075 
L 255.833597 172.935867 
" clip-path="url(#p65471458fd)" style="fill: none; stroke: #000000"/>
    <path d="M 224.13704 163.689075 
L 216.525941 170.99697 
" clip-path="url(#p65471458fd)" style="fill: none; stroke: #000000"/>
    <path d="M 224.13704 163.689075 
L 212.029249 172.17202 
" clip-path="url(#p65471458fd)" style="fill: none; stroke: #000000"/>
    <path d="M 190.040706 136.688021 
L 195.840648 148.382253 
" clip-path="url(#p65471458fd)" style="fill: none; stroke: #000000"/>
    <path d="M 190.040706 136.688021 
L 196.352871 143.706205 
" clip-path="url(#p65471458fd)" style="fill: none; stroke: #000000"/>
    <path d="M 319.836663 175.048907 
L 301.21567 177.485292 
" clip-path="url(#p65471458fd)" style="fill: none; stroke: #000000"/>
    <path d="M 313.842069 153.192022 
L 301.461148 163.861983 
" clip-path="url(#p65471458fd)" style="fill: none; stroke: #000000"/>
    <path d="M 195.840648 148.382253 
L 208.600149 162.614062 
" clip-path="url(#p65471458fd)" style="fill: none; stroke: #000000"/>
    <path d="M 195.840648 148.382253 
L 190.632206 152.418293 
" clip-path="url(#p65471458fd)" style="fill: none; stroke: #000000"/>
    <path d="M 195.840648 148.382253 
L 183.536402 143.048709 
" clip-path="url(#p65471458fd)" style="fill: none; stroke: #000000"/>
    <path d="M 195.840648 148.382253 
L 196.352871 143.706205 
" clip-path="url(#p65471458fd)" style="fill: none; stroke: #000000"/>
    <path d="M 192.109486 201.224126 
L 207.760741 208.692074 
" clip-path="url(#p65471458fd)" style="fill: none; stroke: #000000"/>
    <path d="M 192.109486 201.224126 
L 220.960144 178.214103 
" clip-path="url(#p65471458fd)" style="fill: none; stroke: #000000"/>
    <path d="M 192.109486 201.224126 
L 170.699534 202.019359 
" clip-path="url(#p65471458fd)" style="fill: none; stroke: #000000"/>
    <path d="M 192.109486 201.224126 
L 181.359219 211.566049 
" clip-path="url(#p65471458fd)" style="fill: none; stroke: #000000"/>
    <path d="M 192.109486 201.224126 
L 184.621561 202.459574 
" clip-path="url(#p65471458fd)" style="fill: none; stroke: #000000"/>
    <path d="M 192.109486 201.224126 
L 189.229741 214.395096 
" clip-path="url(#p65471458fd)" style="fill: none; stroke: #000000"/>
    <path d="M 225.071713 142.735573 
L 222.508388 147.666956 
" clip-path="url(#p65471458fd)" style="fill: none; stroke: #000000"/>
    <path d="M 239.28333 163.977659 
L 220.960144 178.214103 
" clip-path="url(#p65471458fd)" style="fill: none; stroke: #000000"/>
    <path d="M 239.28333 163.977659 
L 254.827708 152.358074 
" clip-path="url(#p65471458fd)" style="fill: none; stroke: #000000"/>
    <path d="M 239.28333 163.977659 
L 238.069775 168.430218 
" clip-path="url(#p65471458fd)" style="fill: none; stroke: #000000"/>
    <path d="M 239.28333 163.977659 
L 230.225123 168.067041 
" clip-path="url(#p65471458fd)" style="fill: none; stroke: #000000"/>
    <path d="M 207.760741 208.692074 
L 231.938332 200.583404 
" clip-path="url(#p65471458fd)" style="fill: none; stroke: #000000"/>
    <path d="M 189.473354 161.321071 
L 169.390479 158.906196 
" clip-path="url(#p65471458fd)" style="fill: none; stroke: #000000"/>
    <path d="M 222.013817 191.802092 
L 225.168989 191.060565 
" clip-path="url(#p65471458fd)" style="fill: none; stroke: #000000"/>
    <path d="M 208.600149 162.614062 
L 220.960144 178.214103 
" clip-path="url(#p65471458fd)" style="fill: none; stroke: #000000"/>
    <path d="M 224.676901 159.448302 
L 220.960144 178.214103 
" clip-path="url(#p65471458fd)" style="fill: none; stroke: #000000"/>
    <path d="M 224.676901 159.448302 
L 222.584013 151.486229 
" clip-path="url(#p65471458fd)" style="fill: none; stroke: #000000"/>
    <path d="M 276.372825 176.204505 
L 275.714888 171.014381 
" clip-path="url(#p65471458fd)" style="fill: none; stroke: #000000"/>
    <path d="M 276.372825 176.204505 
L 255.833597 172.935867 
" clip-path="url(#p65471458fd)" style="fill: none; stroke: #000000"/>
    <path d="M 190.632206 152.418293 
L 183.536402 143.048709 
" clip-path="url(#p65471458fd)" style="fill: none; stroke: #000000"/>
    <path d="M 190.632206 152.418293 
L 156.665086 141.052106 
" clip-path="url(#p65471458fd)" style="fill: none; stroke: #000000"/>
    <path d="M 216.708858 176.075687 
L 234.671377 175.18974 
" clip-path="url(#p65471458fd)" style="fill: none; stroke: #000000"/>
    <path d="M 216.708858 176.075687 
L 216.525941 170.99697 
" clip-path="url(#p65471458fd)" style="fill: none; stroke: #000000"/>
    <path d="M 216.708858 176.075687 
L 212.029249 172.17202 
" clip-path="url(#p65471458fd)" style="fill: none; stroke: #000000"/>
    <path d="M 260.656907 217.019892 
L 264.676568 213.512586 
" clip-path="url(#p65471458fd)" style="fill: none; stroke: #000000"/>
    <path d="M 260.656907 217.019892 
L 245.311401 202.828501 
" clip-path="url(#p65471458fd)" style="fill: none; stroke: #000000"/>
    <path d="M 284.713295 199.321552 
L 268.030518 198.629408 
" clip-path="url(#p65471458fd)" style="fill: none; stroke: #000000"/>
    <path d="M 284.713295 199.321552 
L 281.174904 192.306481 
" clip-path="url(#p65471458fd)" style="fill: none; stroke: #000000"/>
    <path d="M 220.960144 178.214103 
L 238.069775 168.430218 
" clip-path="url(#p65471458fd)" style="fill: none; stroke: #000000"/>
    <path d="M 220.960144 178.214103 
L 225.168989 191.060565 
" clip-path="url(#p65471458fd)" style="fill: none; stroke: #000000"/>
    <path d="M 220.960144 178.214103 
L 230.225123 168.067041 
" clip-path="url(#p65471458fd)" style="fill: none; stroke: #000000"/>
    <path d="M 220.960144 178.214103 
L 245.311401 202.828501 
" clip-path="url(#p65471458fd)" style="fill: none; stroke: #000000"/>
    <path d="M 220.960144 178.214103 
L 216.525941 170.99697 
" clip-path="url(#p65471458fd)" style="fill: none; stroke: #000000"/>
    <path d="M 220.960144 178.214103 
L 212.029249 172.17202 
" clip-path="url(#p65471458fd)" style="fill: none; stroke: #000000"/>
    <path d="M 220.960144 178.214103 
L 221.619474 196.292028 
" clip-path="url(#p65471458fd)" style="fill: none; stroke: #000000"/>
    <path d="M 229.368834 173.010814 
L 232.862756 184.157362 
" clip-path="url(#p65471458fd)" style="fill: none; stroke: #000000"/>
    <path d="M 238.069775 168.430218 
L 230.225123 168.067041 
" clip-path="url(#p65471458fd)" style="fill: none; stroke: #000000"/>
    <path d="M 123.391246 132.80864 
L 137.393448 135.668842 
" clip-path="url(#p65471458fd)" style="fill: none; stroke: #000000"/>
    <path d="M 156.665086 141.052106 
L 143.705659 133.375113 
" clip-path="url(#p65471458fd)" style="fill: none; stroke: #000000"/>
    <path d="M 156.665086 141.052106 
L 137.393448 135.668842 
" clip-path="url(#p65471458fd)" style="fill: none; stroke: #000000"/>
    <path d="M 143.705659 133.375113 
L 137.393448 135.668842 
" clip-path="url(#p65471458fd)" style="fill: none; stroke: #000000"/>
    <path d="M 275.714888 171.014381 
L 255.833597 172.935867 
" clip-path="url(#p65471458fd)" style="fill: none; stroke: #000000"/>
    <path d="M 301.21567 177.485292 
L 305.365328 182.292417 
" clip-path="url(#p65471458fd)" style="fill: none; stroke: #000000"/>
    <path d="M 296.807807 189.772687 
L 281.174904 192.306481 
" clip-path="url(#p65471458fd)" style="fill: none; stroke: #000000"/>
    <path d="M 258.149796 186.349052 
L 255.833597 172.935867 
" clip-path="url(#p65471458fd)" style="fill: none; stroke: #000000"/>
    <path d="M 258.149796 186.349052 
L 231.938332 200.583404 
" clip-path="url(#p65471458fd)" style="fill: none; stroke: #000000"/>
    <path d="M 268.030518 198.629408 
L 282.570321 204.02255 
" clip-path="url(#p65471458fd)" style="fill: none; stroke: #000000"/>
    <path d="M 268.030518 198.629408 
L 277.175407 206.734528 
" clip-path="url(#p65471458fd)" style="fill: none; stroke: #000000"/>
    <path d="M 281.174904 192.306481 
L 272.748517 202.190787 
" clip-path="url(#p65471458fd)" style="fill: none; stroke: #000000"/>
    <path d="M 281.174904 192.306481 
L 282.570321 204.02255 
" clip-path="url(#p65471458fd)" style="fill: none; stroke: #000000"/>
    <path d="M 225.168989 191.060565 
L 231.938332 200.583404 
" clip-path="url(#p65471458fd)" style="fill: none; stroke: #000000"/>
    <path d="M 282.570321 204.02255 
L 277.175407 206.734528 
" clip-path="url(#p65471458fd)" style="fill: none; stroke: #000000"/>
    <path d="M 264.676568 213.512586 
L 245.311401 202.828501 
" clip-path="url(#p65471458fd)" style="fill: none; stroke: #000000"/>
    <path d="M 245.311401 202.828501 
L 231.938332 200.583404 
" clip-path="url(#p65471458fd)" style="fill: none; stroke: #000000"/>
    <path d="M 232.862756 184.157362 
L 221.619474 196.292028 
" clip-path="url(#p65471458fd)" style="fill: none; stroke: #000000"/>
   </g>
   <g id="PathCollection_1">
    <defs>
     <path id="me2c870f4a9" d="M 0 2.5 
C 0.663008 2.5 1.29895 2.236584 1.767767 1.767767 
C 2.236584 1.29895 2.5 0.663008 2.5 0 
C 2.5 -0.663008 2.236584 -1.29895 1.767767 -1.767767 
C 1.29895 -2.236584 0.663008 -2.5 0 -2.5 
C -0.663008 -2.5 -1.29895 -2.236584 -1.767767 -1.767767 
C -2.236584 -1.29895 -2.5 -0.663008 -2.5 0 
C -2.5 0.663008 -2.236584 1.29895 -1.767767 1.767767 
C -1.29895 2.236584 -0.663008 2.5 0 2.5 
z
" style="stroke: #1f78b4"/>
    </defs>
    <g clip-path="url(#p65471458fd)">
     <use xlink:href="#me2c870f4a9" x="256.616827" y="191.551587" style="fill: #1f78b4; stroke: #1f78b4"/>
     <use xlink:href="#me2c870f4a9" x="250.646308" y="177.407916" style="fill: #1f78b4; stroke: #1f78b4"/>
     <use xlink:href="#me2c870f4a9" x="206.295988" y="165.627091" style="fill: #1f78b4; stroke: #1f78b4"/>
     <use xlink:href="#me2c870f4a9" x="203.935511" y="217.009953" style="fill: #1f78b4; stroke: #1f78b4"/>
     <use xlink:href="#me2c870f4a9" x="284.105799" y="179.895937" style="fill: #1f78b4; stroke: #1f78b4"/>
     <use xlink:href="#me2c870f4a9" x="206.195647" y="158.357952" style="fill: #1f78b4; stroke: #1f78b4"/>
     <use xlink:href="#me2c870f4a9" x="217.121936" y="150.338133" style="fill: #1f78b4; stroke: #1f78b4"/>
     <use xlink:href="#me2c870f4a9" x="256.28767" y="184.183735" style="fill: #1f78b4; stroke: #1f78b4"/>
     <use xlink:href="#me2c870f4a9" x="198.891755" y="202.00704" style="fill: #1f78b4; stroke: #1f78b4"/>
     <use xlink:href="#me2c870f4a9" x="179.158102" y="208.365434" style="fill: #1f78b4; stroke: #1f78b4"/>
     <use xlink:href="#me2c870f4a9" x="275.281061" y="195.657159" style="fill: #1f78b4; stroke: #1f78b4"/>
     <use xlink:href="#me2c870f4a9" x="259.279793" y="213.103549" style="fill: #1f78b4; stroke: #1f78b4"/>
     <use xlink:href="#me2c870f4a9" x="231.309218" y="150.173423" style="fill: #1f78b4; stroke: #1f78b4"/>
     <use xlink:href="#me2c870f4a9" x="295.300638" y="187.468025" style="fill: #1f78b4; stroke: #1f78b4"/>
     <use xlink:href="#me2c870f4a9" x="281.02257" y="176.021429" style="fill: #1f78b4; stroke: #1f78b4"/>
     <use xlink:href="#me2c870f4a9" x="172.3405" y="206.932904" style="fill: #1f78b4; stroke: #1f78b4"/>
     <use xlink:href="#me2c870f4a9" x="170.08805" y="144.524109" style="fill: #1f78b4; stroke: #1f78b4"/>
     <use xlink:href="#me2c870f4a9" x="256.898986" y="182.347009" style="fill: #1f78b4; stroke: #1f78b4"/>
     <use xlink:href="#me2c870f4a9" x="249.857544" y="179.922611" style="fill: #1f78b4; stroke: #1f78b4"/>
     <use xlink:href="#me2c870f4a9" x="203.036097" y="163.514861" style="fill: #1f78b4; stroke: #1f78b4"/>
     <use xlink:href="#me2c870f4a9" x="225.600147" y="128.350107" style="fill: #1f78b4; stroke: #1f78b4"/>
     <use xlink:href="#me2c870f4a9" x="287.3196" y="192.083117" style="fill: #1f78b4; stroke: #1f78b4"/>
     <use xlink:href="#me2c870f4a9" x="305.324839" y="175.645339" style="fill: #1f78b4; stroke: #1f78b4"/>
     <use xlink:href="#me2c870f4a9" x="221.938676" y="210.222062" style="fill: #1f78b4; stroke: #1f78b4"/>
     <use xlink:href="#me2c870f4a9" x="175.29685" y="219.171461" style="fill: #1f78b4; stroke: #1f78b4"/>
     <use xlink:href="#me2c870f4a9" x="68.738609" y="294.456776" style="fill: #1f78b4; stroke: #1f78b4"/>
     <use xlink:href="#me2c870f4a9" x="168.603928" y="222.13782" style="fill: #1f78b4; stroke: #1f78b4"/>
     <use xlink:href="#me2c870f4a9" x="176.528646" y="223.157848" style="fill: #1f78b4; stroke: #1f78b4"/>
     <use xlink:href="#me2c870f4a9" x="196.252557" y="198.159473" style="fill: #1f78b4; stroke: #1f78b4"/>
     <use xlink:href="#me2c870f4a9" x="211.192037" y="161.121819" style="fill: #1f78b4; stroke: #1f78b4"/>
     <use xlink:href="#me2c870f4a9" x="274.71518" y="190.057069" style="fill: #1f78b4; stroke: #1f78b4"/>
     <use xlink:href="#me2c870f4a9" x="401.928512" y="82.078232" style="fill: #1f78b4; stroke: #1f78b4"/>
     <use xlink:href="#me2c870f4a9" x="249.028627" y="156.487813" style="fill: #1f78b4; stroke: #1f78b4"/>
     <use xlink:href="#me2c870f4a9" x="264.852537" y="178.378557" style="fill: #1f78b4; stroke: #1f78b4"/>
     <use xlink:href="#me2c870f4a9" x="263.722874" y="214.376709" style="fill: #1f78b4; stroke: #1f78b4"/>
     <use xlink:href="#me2c870f4a9" x="228.931144" y="161.128231" style="fill: #1f78b4; stroke: #1f78b4"/>
     <use xlink:href="#me2c870f4a9" x="188.939596" y="210.998272" style="fill: #1f78b4; stroke: #1f78b4"/>
     <use xlink:href="#me2c870f4a9" x="132.162511" y="134.500447" style="fill: #1f78b4; stroke: #1f78b4"/>
     <use xlink:href="#me2c870f4a9" x="259.958346" y="25.587603" style="fill: #1f78b4; stroke: #1f78b4"/>
     <use xlink:href="#me2c870f4a9" x="229.303734" y="153.851639" style="fill: #1f78b4; stroke: #1f78b4"/>
     <use xlink:href="#me2c870f4a9" x="309.438901" y="177.793344" style="fill: #1f78b4; stroke: #1f78b4"/>
     <use xlink:href="#me2c870f4a9" x="217.102363" y="208.453843" style="fill: #1f78b4; stroke: #1f78b4"/>
     <use xlink:href="#me2c870f4a9" x="224.13704" y="163.689075" style="fill: #1f78b4; stroke: #1f78b4"/>
     <use xlink:href="#me2c870f4a9" x="190.040706" y="136.688021" style="fill: #1f78b4; stroke: #1f78b4"/>
     <use xlink:href="#me2c870f4a9" x="319.836663" y="175.048907" style="fill: #1f78b4; stroke: #1f78b4"/>
     <use xlink:href="#me2c870f4a9" x="313.842069" y="153.192022" style="fill: #1f78b4; stroke: #1f78b4"/>
     <use xlink:href="#me2c870f4a9" x="195.840648" y="148.382253" style="fill: #1f78b4; stroke: #1f78b4"/>
     <use xlink:href="#me2c870f4a9" x="192.109486" y="201.224126" style="fill: #1f78b4; stroke: #1f78b4"/>
     <use xlink:href="#me2c870f4a9" x="225.071713" y="142.735573" style="fill: #1f78b4; stroke: #1f78b4"/>
     <use xlink:href="#me2c870f4a9" x="239.28333" y="163.977659" style="fill: #1f78b4; stroke: #1f78b4"/>
     <use xlink:href="#me2c870f4a9" x="292.553407" y="173.091056" style="fill: #1f78b4; stroke: #1f78b4"/>
     <use xlink:href="#me2c870f4a9" x="296.750886" y="168.98422" style="fill: #1f78b4; stroke: #1f78b4"/>
     <use xlink:href="#me2c870f4a9" x="207.760741" y="208.692074" style="fill: #1f78b4; stroke: #1f78b4"/>
     <use xlink:href="#me2c870f4a9" x="266.607011" y="27.813226" style="fill: #1f78b4; stroke: #1f78b4"/>
     <use xlink:href="#me2c870f4a9" x="189.473354" y="161.321071" style="fill: #1f78b4; stroke: #1f78b4"/>
     <use xlink:href="#me2c870f4a9" x="222.013817" y="191.802092" style="fill: #1f78b4; stroke: #1f78b4"/>
     <use xlink:href="#me2c870f4a9" x="208.600149" y="162.614062" style="fill: #1f78b4; stroke: #1f78b4"/>
     <use xlink:href="#me2c870f4a9" x="224.676901" y="159.448302" style="fill: #1f78b4; stroke: #1f78b4"/>
     <use xlink:href="#me2c870f4a9" x="276.372825" y="176.204505" style="fill: #1f78b4; stroke: #1f78b4"/>
     <use xlink:href="#me2c870f4a9" x="190.632206" y="152.418293" style="fill: #1f78b4; stroke: #1f78b4"/>
     <use xlink:href="#me2c870f4a9" x="216.708858" y="176.075687" style="fill: #1f78b4; stroke: #1f78b4"/>
     <use xlink:href="#me2c870f4a9" x="260.656907" y="217.019892" style="fill: #1f78b4; stroke: #1f78b4"/>
     <use xlink:href="#me2c870f4a9" x="284.713295" y="199.321552" style="fill: #1f78b4; stroke: #1f78b4"/>
     <use xlink:href="#me2c870f4a9" x="220.960144" y="178.214103" style="fill: #1f78b4; stroke: #1f78b4"/>
     <use xlink:href="#me2c870f4a9" x="318.078026" y="309.576294" style="fill: #1f78b4; stroke: #1f78b4"/>
     <use xlink:href="#me2c870f4a9" x="222.508388" y="147.666956" style="fill: #1f78b4; stroke: #1f78b4"/>
     <use xlink:href="#me2c870f4a9" x="195.218426" y="155.54091" style="fill: #1f78b4; stroke: #1f78b4"/>
     <use xlink:href="#me2c870f4a9" x="183.536402" y="143.048709" style="fill: #1f78b4; stroke: #1f78b4"/>
     <use xlink:href="#me2c870f4a9" x="254.827708" y="152.358074" style="fill: #1f78b4; stroke: #1f78b4"/>
     <use xlink:href="#me2c870f4a9" x="229.368834" y="173.010814" style="fill: #1f78b4; stroke: #1f78b4"/>
     <use xlink:href="#me2c870f4a9" x="196.352871" y="143.706205" style="fill: #1f78b4; stroke: #1f78b4"/>
     <use xlink:href="#me2c870f4a9" x="238.069775" y="168.430218" style="fill: #1f78b4; stroke: #1f78b4"/>
     <use xlink:href="#me2c870f4a9" x="123.391246" y="132.80864" style="fill: #1f78b4; stroke: #1f78b4"/>
     <use xlink:href="#me2c870f4a9" x="234.671377" y="175.18974" style="fill: #1f78b4; stroke: #1f78b4"/>
     <use xlink:href="#me2c870f4a9" x="156.665086" y="141.052106" style="fill: #1f78b4; stroke: #1f78b4"/>
     <use xlink:href="#me2c870f4a9" x="143.705659" y="133.375113" style="fill: #1f78b4; stroke: #1f78b4"/>
     <use xlink:href="#me2c870f4a9" x="275.714888" y="171.014381" style="fill: #1f78b4; stroke: #1f78b4"/>
     <use xlink:href="#me2c870f4a9" x="301.21567" y="177.485292" style="fill: #1f78b4; stroke: #1f78b4"/>
     <use xlink:href="#me2c870f4a9" x="169.390479" y="158.906196" style="fill: #1f78b4; stroke: #1f78b4"/>
     <use xlink:href="#me2c870f4a9" x="296.807807" y="189.772687" style="fill: #1f78b4; stroke: #1f78b4"/>
     <use xlink:href="#me2c870f4a9" x="258.149796" y="186.349052" style="fill: #1f78b4; stroke: #1f78b4"/>
     <use xlink:href="#me2c870f4a9" x="439.854545" y="102.061426" style="fill: #1f78b4; stroke: #1f78b4"/>
     <use xlink:href="#me2c870f4a9" x="115.475303" y="129.21386" style="fill: #1f78b4; stroke: #1f78b4"/>
     <use xlink:href="#me2c870f4a9" x="268.030518" y="198.629408" style="fill: #1f78b4; stroke: #1f78b4"/>
     <use xlink:href="#me2c870f4a9" x="305.365328" y="182.292417" style="fill: #1f78b4; stroke: #1f78b4"/>
     <use xlink:href="#me2c870f4a9" x="435.290578" y="233.464118" style="fill: #1f78b4; stroke: #1f78b4"/>
     <use xlink:href="#me2c870f4a9" x="20.945455" y="266.507908" style="fill: #1f78b4; stroke: #1f78b4"/>
     <use xlink:href="#me2c870f4a9" x="281.174904" y="192.306481" style="fill: #1f78b4; stroke: #1f78b4"/>
     <use xlink:href="#me2c870f4a9" x="244.713621" y="185.036102" style="fill: #1f78b4; stroke: #1f78b4"/>
     <use xlink:href="#me2c870f4a9" x="222.584013" y="151.486229" style="fill: #1f78b4; stroke: #1f78b4"/>
     <use xlink:href="#me2c870f4a9" x="225.168989" y="191.060565" style="fill: #1f78b4; stroke: #1f78b4"/>
     <use xlink:href="#me2c870f4a9" x="230.225123" y="168.067041" style="fill: #1f78b4; stroke: #1f78b4"/>
     <use xlink:href="#me2c870f4a9" x="170.699534" y="202.019359" style="fill: #1f78b4; stroke: #1f78b4"/>
     <use xlink:href="#me2c870f4a9" x="255.833597" y="172.935867" style="fill: #1f78b4; stroke: #1f78b4"/>
     <use xlink:href="#me2c870f4a9" x="181.359219" y="211.566049" style="fill: #1f78b4; stroke: #1f78b4"/>
     <use xlink:href="#me2c870f4a9" x="301.461148" y="163.861983" style="fill: #1f78b4; stroke: #1f78b4"/>
     <use xlink:href="#me2c870f4a9" x="272.748517" y="202.190787" style="fill: #1f78b4; stroke: #1f78b4"/>
     <use xlink:href="#me2c870f4a9" x="184.621561" y="202.459574" style="fill: #1f78b4; stroke: #1f78b4"/>
     <use xlink:href="#me2c870f4a9" x="282.570321" y="204.02255" style="fill: #1f78b4; stroke: #1f78b4"/>
     <use xlink:href="#me2c870f4a9" x="249.380642" y="192.403451" style="fill: #1f78b4; stroke: #1f78b4"/>
     <use xlink:href="#me2c870f4a9" x="264.676568" y="213.512586" style="fill: #1f78b4; stroke: #1f78b4"/>
     <use xlink:href="#me2c870f4a9" x="245.311401" y="202.828501" style="fill: #1f78b4; stroke: #1f78b4"/>
     <use xlink:href="#me2c870f4a9" x="232.862756" y="184.157362" style="fill: #1f78b4; stroke: #1f78b4"/>
     <use xlink:href="#me2c870f4a9" x="189.229741" y="214.395096" style="fill: #1f78b4; stroke: #1f78b4"/>
     <use xlink:href="#me2c870f4a9" x="216.525941" y="170.99697" style="fill: #1f78b4; stroke: #1f78b4"/>
     <use xlink:href="#me2c870f4a9" x="258.749947" y="196.456712" style="fill: #1f78b4; stroke: #1f78b4"/>
     <use xlink:href="#me2c870f4a9" x="184.659545" y="156.676345" style="fill: #1f78b4; stroke: #1f78b4"/>
     <use xlink:href="#me2c870f4a9" x="212.029249" y="172.17202" style="fill: #1f78b4; stroke: #1f78b4"/>
     <use xlink:href="#me2c870f4a9" x="188.560619" y="205.37485" style="fill: #1f78b4; stroke: #1f78b4"/>
     <use xlink:href="#me2c870f4a9" x="221.619474" y="196.292028" style="fill: #1f78b4; stroke: #1f78b4"/>
     <use xlink:href="#me2c870f4a9" x="301.795149" y="171.962575" style="fill: #1f78b4; stroke: #1f78b4"/>
     <use xlink:href="#me2c870f4a9" x="277.175407" y="206.734528" style="fill: #1f78b4; stroke: #1f78b4"/>
     <use xlink:href="#me2c870f4a9" x="231.938332" y="200.583404" style="fill: #1f78b4; stroke: #1f78b4"/>
     <use xlink:href="#me2c870f4a9" x="276.593657" y="329.890909" style="fill: #1f78b4; stroke: #1f78b4"/>
     <use xlink:href="#me2c870f4a9" x="137.393448" y="135.668842" style="fill: #1f78b4; stroke: #1f78b4"/>
    </g>
   </g>
  </g>
 </g>
 <defs>
  <clipPath id="p65471458fd">
   <rect x="0" y="0" width="460.8" height="345.6"/>
  </clipPath>
 </defs>
</svg>
