<?xml version="1.0" encoding="utf-8" standalone="no"?>
<!DOCTYPE svg PUBLIC "-//W3C//DTD SVG 1.1//EN"
  "http://www.w3.org/Graphics/SVG/1.1/DTD/svg11.dtd">
<svg xmlns:xlink="http://www.w3.org/1999/xlink" width="460.8pt" height="345.6pt" viewBox="0 0 460.8 345.6" xmlns="http://www.w3.org/2000/svg" version="1.1">
 <metadata>
  <rdf:RDF xmlns:dc="http://purl.org/dc/elements/1.1/" xmlns:cc="http://creativecommons.org/ns#" xmlns:rdf="http://www.w3.org/1999/02/22-rdf-syntax-ns#">
   <cc:Work>
    <dc:type rdf:resource="http://purl.org/dc/dcmitype/StillImage"/>
    <dc:date>2023-05-07T19:32:44.178998</dc:date>
    <dc:format>image/svg+xml</dc:format>
    <dc:creator>
     <cc:Agent>
      <dc:title>Matplotlib v3.7.1, https://matplotlib.org/</dc:title>
     </cc:Agent>
    </dc:creator>
   </cc:Work>
  </rdf:RDF>
 </metadata>
 <defs>
  <style type="text/css">*{stroke-linejoin: round; stroke-linecap: butt}</style>
 </defs>
 <g id="figure_1">
  <g id="patch_1">
   <path d="M 0 345.6 
L 460.8 345.6 
L 460.8 0 
L 0 0 
z
" style="fill: #ffffff"/>
  </g>
  <g id="axes_1">
   <g id="LineCollection_1">
    <path d="M 208.459837 208.6598 
L 190.617016 223.157666 
" clip-path="url(#p77d4b2b8fc)" style="fill: none; stroke: #000000"/>
    <path d="M 208.459837 208.6598 
L 228.154803 192.75996 
" clip-path="url(#p77d4b2b8fc)" style="fill: none; stroke: #000000"/>
    <path d="M 228.154803 192.75996 
L 246.07903 178.381254 
" clip-path="url(#p77d4b2b8fc)" style="fill: none; stroke: #000000"/>
    <path d="M 147.204804 25.587594 
L 141.838776 39.461995 
" clip-path="url(#p77d4b2b8fc)" style="fill: none; stroke: #000000"/>
    <path d="M 147.204804 25.587594 
L 125.552599 32.456701 
" clip-path="url(#p77d4b2b8fc)" style="fill: none; stroke: #000000"/>
    <path d="M 141.838776 39.461995 
L 125.552599 32.456701 
" clip-path="url(#p77d4b2b8fc)" style="fill: none; stroke: #000000"/>
   </g>
   <g id="PathCollection_1">
    <defs>
     <path id="mf96a8b3e4a" d="M 0 5 
C 1.326016 5 2.597899 4.473168 3.535534 3.535534 
C 4.473168 2.597899 5 1.326016 5 0 
C 5 -1.326016 4.473168 -2.597899 3.535534 -3.535534 
C 2.597899 -4.473168 1.326016 -5 0 -5 
C -1.326016 -5 -2.597899 -4.473168 -3.535534 -3.535534 
C -4.473168 -2.597899 -5 -1.326016 -5 0 
C -5 1.326016 -4.473168 2.597899 -3.535534 3.535534 
C -2.597899 4.473168 -1.326016 5 0 5 
z
" style="stroke: #1f78b4"/>
    </defs>
    <g clip-path="url(#p77d4b2b8fc)">
     <use xlink:href="#mf96a8b3e4a" x="208.459837" y="208.6598" style="fill: #1f78b4; stroke: #1f78b4"/>
     <use xlink:href="#mf96a8b3e4a" x="190.617016" y="223.157666" style="fill: #1f78b4; stroke: #1f78b4"/>
     <use xlink:href="#mf96a8b3e4a" x="228.154803" y="192.75996" style="fill: #1f78b4; stroke: #1f78b4"/>
     <use xlink:href="#mf96a8b3e4a" x="20.945455" y="211.689882" style="fill: #1f78b4; stroke: #1f78b4"/>
     <use xlink:href="#mf96a8b3e4a" x="267.44199" y="329.890909" style="fill: #1f78b4; stroke: #1f78b4"/>
     <use xlink:href="#mf96a8b3e4a" x="147.204804" y="25.587594" style="fill: #1f78b4; stroke: #1f78b4"/>
     <use xlink:href="#mf96a8b3e4a" x="141.838776" y="39.461995" style="fill: #1f78b4; stroke: #1f78b4"/>
     <use xlink:href="#mf96a8b3e4a" x="246.07903" y="178.381254" style="fill: #1f78b4; stroke: #1f78b4"/>
     <use xlink:href="#mf96a8b3e4a" x="409.826351" y="74.574123" style="fill: #1f78b4; stroke: #1f78b4"/>
     <use xlink:href="#mf96a8b3e4a" x="125.552599" y="32.456701" style="fill: #1f78b4; stroke: #1f78b4"/>
     <use xlink:href="#mf96a8b3e4a" x="439.854545" y="231.294036" style="fill: #1f78b4; stroke: #1f78b4"/>
     <use xlink:href="#mf96a8b3e4a" x="415.482182" y="165.238776" style="fill: #1f78b4; stroke: #1f78b4"/>
    </g>
   </g>
  </g>
 </g>
 <defs>
  <clipPath id="p77d4b2b8fc">
   <rect x="0" y="0" width="460.8" height="345.6"/>
  </clipPath>
 </defs>
</svg>
